<svg xmlns="http://www.w3.org/2000/svg" width="61.554" height="56.766" viewBox="0 0 61.554 56.766">
  <g id="Grupo_1111567" data-name="Grupo 1111567" transform="translate(-720 -1178.078)">
    <g id="Rectángulo_401341" data-name="Rectángulo 401341" transform="translate(720 1178.078)" fill="#fece2f" stroke="#faedc1" stroke-width="3">
      <rect width="61.554" height="56.766" rx="12" stroke="none"/>
      <rect x="1.5" y="1.5" width="58.554" height="53.766" rx="10.5" fill="none"/>
    </g>
    <g id="Grupo_1108741" data-name="Grupo 1108741" transform="translate(733.21 1187.078)">
      <path id="Trazado_891315" data-name="Trazado 891315" d="M30.648,8.247v28.99a1.974,1.974,0,0,1-1.977,1.977H2.977A1.974,1.974,0,0,1,1,37.237V2.977A1.974,1.974,0,0,1,2.977,1H23.4Z" transform="translate(-0.341 -0.341)" fill="#f5f5f5"/>
      <path id="Trazado_891316" data-name="Trazado 891316" d="M33.977,1H32l7.247,7.247v28.99a1.974,1.974,0,0,1-1.977,1.977h1.977a1.974,1.974,0,0,0,1.977-1.977V8.247Z" transform="translate(-10.917 -0.341)" fill="#cfd8dc"/>
      <path id="Trazado_891317" data-name="Trazado 891317" d="M35,1V6.93a1.317,1.317,0,0,0,1.318,1.318h5.93Z" transform="translate(-11.94 -0.341)" fill="#9e9e9e"/>
      <path id="Trazado_891318" data-name="Trazado 891318" d="M35,1V2.977l5.271,5.271h1.977Z" transform="translate(-11.94 -0.341)" fill="#707070"/>
      <path id="Trazado_891319" data-name="Trazado 891319" d="M55.294,21.465l-1.285,1.5-4-3.433,1.291-1.5a2.635,2.635,0,1,1,3.993,3.439Z" transform="translate(-17.061 -5.837)" fill="#e91e63"/>
      <path id="Trazado_891320" data-name="Trazado 891320" d="M56.208,17.749a2.6,2.6,0,0,0-2.708-.438,2.615,2.615,0,0,1,1.008,4.154l-.446.519,1.138.976,1.285-1.5a2.638,2.638,0,0,0-.277-3.716Z" transform="translate(-18.251 -5.837)" fill="#ad1457"/>
      <path id="Trazado_891321" data-name="Trazado 891321" d="M34.608,46.174a2.033,2.033,0,0,1-.507.217L30.707,47.65a.659.659,0,0,1-.83-.718l.731-3.538a1.887,1.887,0,0,1,.145-.534Z" transform="translate(-10.191 -14.622)" fill="#ffe0b2"/>
      <path id="Trazado_891322" data-name="Trazado 891322" d="M30.771,42.86a1.887,1.887,0,0,0-.145.534l-.183.884,2.205,1.9a2.033,2.033,0,0,1-.507.217l-2.218.822a.657.657,0,0,0,.8.436l3.393-1.258a2.033,2.033,0,0,0,.507-.217Z" transform="translate(-10.208 -14.622)" fill="#dfc49c"/>
      <path id="Trazado_891323" data-name="Trazado 891323" d="M46.872,28.14,36.522,40.17a2.036,2.036,0,0,1-.461.4l-1.93-1.66L44.876,26.42Z" transform="translate(-11.643 -9.013)" fill="#ff9801"/>
      <path id="Trazado_891324" data-name="Trazado 891324" d="M45.323,26.42l-.841.978.861.742-9.9,11.509,1.067.917a2.036,2.036,0,0,0,.461-.4L47.319,28.14Z" transform="translate(-12.091 -9.013)" fill="#f57c00"/>
      <path id="Trazado_891325" data-name="Trazado 891325" d="M43.88,25.53,33.134,38.015,31.21,36.361a2,2,0,0,1,.316-.52L41.877,23.81Z" transform="translate(-10.647 -8.123)" fill="#ffdf00"/>
      <path id="Trazado_891326" data-name="Trazado 891326" d="M42.285,23.81l-.84.976.866.744L32.406,37.038l1.136.976L44.288,25.53Z" transform="translate(-11.055 -8.123)" fill="#fec108"/>
      <path id="Trazado_891327" data-name="Trazado 891327" d="M53.119,24.213l-1.72,2-2-1.72-2-1.72,1.72-2Z" transform="translate(-16.17 -7.089)" fill="#9e9e9e"/>
      <path id="Trazado_891328" data-name="Trazado 891328" d="M49.576,20.778l-.841.977,2.86,2.46-.878,1.021,1.137.977,1.718-2Z" transform="translate(-16.626 -7.088)" fill="#707070"/>
      <path id="Trazado_891329" data-name="Trazado 891329" d="M2.635,39.531h25.7A2.638,2.638,0,0,0,30.966,36.9V25.089l7.768-9.031a3.294,3.294,0,1,0-4.994-4.3l-2.774,3.224V7.906H30.96a.653.653,0,0,0-.187-.466L23.526.193A.653.653,0,0,0,23.06.007V0H2.635A2.638,2.638,0,0,0,0,2.635V36.9a2.638,2.638,0,0,0,2.635,2.635ZM31.3,16.617l1,.86L22.419,28.965l-1-.86Zm.86-1,.859-1,3,2.577-.859,1-3-2.578ZM20.95,29.439l2.222,1.911-2.84,1.093Zm3.467,1.243-1-.859L33.3,18.335l1,.859ZM34.739,12.62a1.976,1.976,0,1,1,3,2.578l-.859,1-3-2.578.859-1ZM23.719,2.249l5,5H24.378a.66.66,0,0,1-.659-.659Zm-22.4.386A1.319,1.319,0,0,1,2.635,1.318H22.4V6.589a1.979,1.979,0,0,0,1.977,1.977h5.271v7.952L24.588,22.4H3.953a.659.659,0,0,0,0,1.318h19.5l-2.267,2.635H3.953a.659.659,0,0,0,0,1.318h16.16a2.491,2.491,0,0,0-.341.964l-.739,3.594a1.313,1.313,0,0,0,.448,1.16,1.334,1.334,0,0,0,1.266.254l3.34-1.235a2.624,2.624,0,0,0,1.289-.82l4.272-4.967V36.9a1.319,1.319,0,0,1-1.318,1.318H2.635A1.319,1.319,0,0,1,1.318,36.9Z"/>
      <path id="Trazado_891330" data-name="Trazado 891330" d="M5.659,7.318H21.471a.659.659,0,1,0,0-1.318H5.659a.659.659,0,1,0,0,1.318Z" transform="translate(-1.706 -2.047)"/>
      <path id="Trazado_891331" data-name="Trazado 891331" d="M5.659,13.318H21.471a.659.659,0,1,0,0-1.318H5.659a.659.659,0,1,0,0,1.318Z" transform="translate(-1.706 -4.094)"/>
      <path id="Trazado_891332" data-name="Trazado 891332" d="M5.659,21.318H27.4A.659.659,0,0,0,27.4,20H5.659a.659.659,0,1,0,0,1.318Z" transform="translate(-1.706 -6.823)"/>
      <path id="Trazado_891333" data-name="Trazado 891333" d="M5.659,27.318H27.4A.659.659,0,0,0,27.4,26H5.659a.659.659,0,1,0,0,1.318Z" transform="translate(-1.706 -8.87)"/>
      <path id="Trazado_891334" data-name="Trazado 891334" d="M6.659,51.871H9.953c2.188,0,3.766-.655,4.563-1.894a3.654,3.654,0,0,0,.532-1.645c.218-.121.424-.258.656-.414a2.846,2.846,0,0,1,1.5-.659c.669,0,1.146.586,1.608,1.152a6.63,6.63,0,0,0,.577.648.659.659,0,1,0,.9-.963,5.787,5.787,0,0,1-.456-.519A3.462,3.462,0,0,0,17.2,45.941a3.964,3.964,0,0,0-2.231.882l-.022.014a3.838,3.838,0,0,0-1.106-2.019,3.308,3.308,0,0,0-1.747-.78,3.319,3.319,0,0,0-2.471.575,2.494,2.494,0,0,0-.959,2.511,2.794,2.794,0,0,0,2.3,1.939,6.592,6.592,0,0,0,2.62-.169,1.9,1.9,0,0,1-.181.369c-.686,1.066-2.258,1.29-3.455,1.29H6.659a.659.659,0,1,0,0,1.318Zm4.528-4.107a1.5,1.5,0,0,1-1.241-.948,1.193,1.193,0,0,1,.476-1.153,2.181,2.181,0,0,1,2.541.138,2.727,2.727,0,0,1,.762,1.677,5.568,5.568,0,0,1-2.539.287Z" transform="translate(-2.047 -15.011)"/>
    </g>
  </g>
</svg>
