<svg xmlns="http://www.w3.org/2000/svg" width="104.204" height="104.204" viewBox="0 0 104.204 104.204">
  <g id="Grupo_1108760" data-name="Grupo 1108760" transform="translate(-1 -1)">
    <g id="Grupo_1108758" data-name="Grupo 1108758" transform="translate(2.681 2.681)">
      <g id="Grupo_1108744" data-name="Grupo 1108744" transform="translate(16.807 0)">
        <path id="Trazado_891360" data-name="Trazado 891360" d="M85.951,5.361V30.572l-.067.067-11.7,11.7h-8.4A8.42,8.42,0,0,0,59.06,45.7H35.53V86.036H72.506v6.723h-43.7V42.337A16.813,16.813,0,0,0,12,25.53V20.2a3.307,3.307,0,0,1,.3-1.395H25.446a3.371,3.371,0,0,0,3.361-3.361V2.3A3.307,3.307,0,0,1,30.2,2H82.59a3.371,3.371,0,0,1,3.361,3.361Z" transform="translate(-12 -2)" fill="#e6e9ed"/>
      </g>
      <g id="Grupo_1108745" data-name="Grupo 1108745" transform="translate(40.337 43.698)">
        <path id="Trazado_891361" data-name="Trazado 891361" d="M58.354,56.236A9.159,9.159,0,0,1,56.32,54a9.473,9.473,0,0,1-1.345-2.857h-.017l-7.109,7.109-1.681.672L39.95,61.413a2.826,2.826,0,0,1-3.815-3.16,2.874,2.874,0,0,1,.151-.5l3.16-7.9,1.681-1.681L51.211,38.084a3.371,3.371,0,0,1-3.361-3.361V33.042A8.3,8.3,0,0,1,49.53,28H26V68.337H62.976v-8.4Z" transform="translate(-26 -28)" fill="#ffeaa7"/>
      </g>
      <g id="Grupo_1108746" data-name="Grupo 1108746" transform="translate(40.337 6.723)">
        <path id="Trazado_891362" data-name="Trazado 891362" d="M26,6H69.7v6.723H26Z" transform="translate(-26 -6)" fill="#ff826e"/>
      </g>
      <g id="Grupo_1108747" data-name="Grupo 1108747" transform="translate(17.11 0.303)">
        <path id="Trazado_891363" data-name="Trazado 891363" d="M28.685,2.18V15.323a3.371,3.371,0,0,1-3.361,3.361H12.18a3.389,3.389,0,0,1,.689-.992L27.693,2.869A3.389,3.389,0,0,1,28.685,2.18Z" transform="translate(-12.18 -2.18)" fill="#b4dd7f"/>
      </g>
      <g id="Grupo_1108748" data-name="Grupo 1108748" transform="translate(53.783 50.421)">
        <path id="Trazado_891364" data-name="Trazado 891364" d="M49.126,32V45.647a9.543,9.543,0,0,0,.4,2.773h-.017L42.4,55.53l-8.4-8.4,1.681-1.681L45.765,35.361A3.386,3.386,0,0,0,49.126,32Z" transform="translate(-34 -32)" fill="#ff826e"/>
      </g>
      <g id="Grupo_1108749" data-name="Grupo 1108749" transform="translate(72.052 26.891)">
        <path id="Trazado_891365" data-name="Trazado 891365" d="M63.576,19.681a5.943,5.943,0,0,1,8.336,8.471L62.1,37.967,48.45,51.614v-8.4a5.03,5.03,0,0,0-1.479-3.563,5.14,5.14,0,0,0-2.1-1.261l6.941-6.941,11.7-11.7Z" transform="translate(-44.87 -18)" fill="#ff826e"/>
      </g>
      <g id="Grupo_1108750" data-name="Grupo 1108750" transform="translate(50.421 65.548)">
        <path id="Trazado_891366" data-name="Trazado 891366" d="M43.765,49.4l-1.681.672-6.219,2.487A2.826,2.826,0,0,1,32.05,49.4a2.874,2.874,0,0,1,.151-.5l3.16-7.9Z" transform="translate(-32 -41)" fill="#aab2bd"/>
      </g>
      <g id="Grupo_1108751" data-name="Grupo 1108751" transform="translate(77.313 70.59)">
        <path id="Trazado_891367" data-name="Trazado 891367" d="M66.488,44l3.361,20.169H48V49.042Z" transform="translate(-48 -44)" fill="#b4dd7f"/>
      </g>
      <g id="Grupo_1108752" data-name="Grupo 1108752" transform="translate(62.186 40.337)">
        <path id="Trazado_891368" data-name="Trazado 891368" d="M44.731,38.454a3.286,3.286,0,0,1-2.37.992A3.371,3.371,0,0,1,39,36.084V34.4a8.3,8.3,0,0,1,1.681-5.042A8.42,8.42,0,0,1,47.4,26h8.4l-6.941,6.941a5.214,5.214,0,0,0-1.462-.218A1.686,1.686,0,0,0,45.723,34.4v1.681A3.286,3.286,0,0,1,44.731,38.454Z" transform="translate(-39 -26)" fill="#f0d0b4"/>
      </g>
      <g id="Grupo_1108753" data-name="Grupo 1108753" transform="translate(68.909 46.858)">
        <path id="Trazado_891369" data-name="Trazado 891369" d="M64.261,31.51a46.208,46.208,0,0,1,5.63,22.1L51.4,58.654l-4.622-3.7a9.159,9.159,0,0,1-2.034-2.235A10.125,10.125,0,0,1,43,47.09V31.762a1.686,1.686,0,0,1,1.681-1.681,5.214,5.214,0,0,1,1.462.218,5.14,5.14,0,0,1,2.1,1.261,5.03,5.03,0,0,1,1.479,3.563v8.4L63.37,29.88Z" transform="translate(-43 -29.88)" fill="#f0d0b4"/>
      </g>
      <g id="Grupo_1108754" data-name="Grupo 1108754" transform="translate(0 40.337)">
        <path id="Trazado_891370" data-name="Trazado 891370" d="M35.614,26V79.783a6.721,6.721,0,0,1-6.723,6.723H8.723A6.721,6.721,0,0,1,2,79.783V26A16.791,16.791,0,0,0,8.723,39.446V51.211A1.686,1.686,0,0,0,10.4,52.891H27.211a1.686,1.686,0,0,0,1.681-1.681V39.446A16.791,16.791,0,0,0,35.614,26Z" transform="translate(-2 -26)" fill="#969faa"/>
      </g>
      <g id="Grupo_1108755" data-name="Grupo 1108755" transform="translate(6.765 73.961)">
        <path id="Trazado_891371" data-name="Trazado 891371" d="M24.6,66.107H7.706a1.681,1.681,0,0,1-1.681-1.681V47.687a1.681,1.681,0,0,1,1.681-1.681H24.6a1.681,1.681,0,0,1,1.681,1.681v16.74A1.678,1.678,0,0,1,24.6,66.107Z" transform="translate(-6.025 -46.006)" fill="#ff826e"/>
      </g>
      <g id="Grupo_1108756" data-name="Grupo 1108756" transform="translate(6.723 53.783)">
        <path id="Trazado_891372" data-name="Trazado 891372" d="M26.169,34V45.765a1.686,1.686,0,0,1-1.681,1.681H7.681A1.686,1.686,0,0,1,6,45.765V34a16.807,16.807,0,0,0,20.169,0Z" transform="translate(-6 -34)" fill="#69d6f4"/>
      </g>
      <g id="Grupo_1108757" data-name="Grupo 1108757" transform="translate(0 23.53)">
        <path id="Trazado_891373" data-name="Trazado 891373" d="M35.614,32.807A16.807,16.807,0,1,1,18.807,16,16.791,16.791,0,0,1,35.614,32.807Z" transform="translate(-2 -16)" fill="#fcd770"/>
      </g>
    </g>
    <g id="Grupo_1108759" data-name="Grupo 1108759" transform="translate(1 1)">
      <path id="Trazado_891374" data-name="Trazado 891374" d="M94.323,50.373l-.289-.531,8.938-8.938A7.591,7.591,0,0,0,95.12,28.328V6.042A5.048,5.048,0,0,0,90.078,1H37.688a5.012,5.012,0,0,0-3.566,1.477L19.284,17.315a5.006,5.006,0,0,0-1.477,3.566v3.735A18.505,18.505,0,0,0,1,43.018V96.8a8.413,8.413,0,0,0,8.4,8.4H29.572a8.413,8.413,0,0,0,8.4-8.4V95.12h65.852L100.157,73.1A47.968,47.968,0,0,0,94.323,50.373ZM96.76,72,80.375,76.467l-3.951-3.161a8.369,8.369,0,0,1-3.153-6.563V51.421a3.365,3.365,0,0,1,3.361,3.361V66.548h3.361V63.882L91.547,52.329A44.563,44.563,0,0,1,96.76,72ZM73.271,48.06a3.365,3.365,0,0,0-3.361,3.361V53.1a1.681,1.681,0,0,1-3.361,0V51.421A6.73,6.73,0,0,1,73.271,44.7h4.346l-3.452,3.452a6.551,6.551,0,0,0-.894-.091ZM54.865,76.753l2.212-5.533,4.8,4.8-5.535,2.213a1.164,1.164,0,0,1-1.558-1.057A1.1,1.1,0,0,1,54.865,76.753Zm10-2.5L58.84,68.228,69,58.065a4.9,4.9,0,0,0,.906-.232v8.908a11.822,11.822,0,0,0,.229,2.242ZM63.5,54.783H44.7V48.06H63.775a10.043,10.043,0,0,0-.588,3.361V53.1A4.985,4.985,0,0,0,63.5,54.783ZM44.7,58.144H64.171l-6.723,6.723H44.7Zm0,10.084h9.955l-2.689,6.723H44.7Zm0,10.084h6.888a4.484,4.484,0,0,0,6.007,3.04l3.913-1.566v5.249H44.7Zm20.169.129.945-.378,5.6-5.6c.061.109.116.22.182.328V85.036H64.867ZM74.951,76.43l3.361,2.689v5.916H74.951Zm26.891-40.915a4.235,4.235,0,0,1-1.249,3.014l-20.6,20.6V54.783a6.683,6.683,0,0,0-2.511-5.2L94.567,32.5a4.262,4.262,0,0,1,7.276,3.014ZM34.614,6.738v9.388a1.683,1.683,0,0,1-1.681,1.681H23.545ZM19.488,27.891A15.126,15.126,0,1,1,4.361,43.018,15.145,15.145,0,0,1,19.488,27.891Zm-8.4,31.574a18.326,18.326,0,0,0,16.807,0v8.763H11.084Zm18.488,42.377H9.4A5.048,5.048,0,0,1,4.361,96.8V53.615a18.659,18.659,0,0,0,3.361,3.654v10.96a3.365,3.365,0,0,0,3.361,3.361H27.891a3.365,3.365,0,0,0,3.361-3.361V57.269a18.66,18.66,0,0,0,3.361-3.654V96.8A5.048,5.048,0,0,1,29.572,101.843Zm8.4-10.084V43.018a18.505,18.505,0,0,0-16.807-18.4V21.169H32.934a5.048,5.048,0,0,0,5.042-5.042V4.361h52.1a1.683,1.683,0,0,1,1.681,1.681V30.557l-10.78,10.78H73.271a10.056,10.056,0,0,0-7.5,3.361H41.337V88.4H78.313v3.361Zm43.7,0V79.6l15.454-4.215,2.729,16.377Z" transform="translate(-1 -1)"/>
      <path id="Trazado_891375" data-name="Trazado 891375" d="M12.361,38.925V42.53h3.361V38.925a4.779,4.779,0,0,0,.709-8.844l-3.277-1.637a1.437,1.437,0,0,1,.642-2.721h.491a1.437,1.437,0,0,1,1.435,1.435v1.926h3.361V27.158a4.788,4.788,0,0,0-3.361-4.553V19H12.361v3.605a4.779,4.779,0,0,0-.709,8.844l3.277,1.637a1.437,1.437,0,0,1-.642,2.721H13.8a1.437,1.437,0,0,1-1.435-1.435V32.446H9v1.926A4.788,4.788,0,0,0,12.361,38.925Z" transform="translate(4.446 11.253)"/>
      <path id="Trazado_891376" data-name="Trazado 891376" d="M25.169,45H8.361A3.365,3.365,0,0,0,5,48.361V65.169A3.365,3.365,0,0,0,8.361,68.53H25.169a3.365,3.365,0,0,0,3.361-3.361V48.361A3.365,3.365,0,0,0,25.169,45Zm0,6.723H21.807V48.361h3.361ZM18.446,65.169H15.084V61.807h3.361Zm0-6.723H15.084V55.084h3.361Zm-6.723,0H8.361V55.084h3.361Zm3.361-6.723V48.361h3.361v3.361Zm-3.361-3.361v3.361H8.361V48.361ZM8.361,61.807h3.361v3.361H8.361Zm13.446,3.361V55.084H25.17l0,10.084Z" transform="translate(1.723 28.951)"/>
      <path id="Trazado_891377" data-name="Trazado 891377" d="M72.06,5H25V15.084H72.06ZM68.7,11.723H28.361V8.361H68.7Z" transform="translate(15.337 1.723)"/>
      <path id="Trazado_891378" data-name="Trazado 891378" d="M25,13H72.06v3.361H25Z" transform="translate(15.337 7.169)"/>
      <path id="Trazado_891379" data-name="Trazado 891379" d="M25,17H72.06v3.361H25Z" transform="translate(15.337 9.891)"/>
      <path id="Trazado_891380" data-name="Trazado 891380" d="M25,21H51.891v3.361H25Z" transform="translate(15.337 12.614)"/>
    </g>
  </g>
</svg>
