<svg xmlns="http://www.w3.org/2000/svg" width="85" height="85" viewBox="0 0 85 85">
  <g id="Grupo_1111565" data-name="Grupo 1111565" transform="translate(-213.73 -1809.88)">
    <path id="Trazado_874547" data-name="Trazado 874547" d="M42.5,0A42.5,42.5,0,1,1,0,42.5,42.5,42.5,0,0,1,42.5,0Z" transform="translate(213.73 1809.88)" fill="#8746f8"/>
    <g id="_016---Money-Growth" data-name="016---Money-Growth" transform="translate(225 1820.766)">
      <g id="Icons" transform="translate(1)">
        <path id="Shape" d="M37,30V45c0,1.49-1.64,2.8-4.06,3.48A14.566,14.566,0,0,1,29,49c-4.42,0-8-1.79-8-4V30a2.674,2.674,0,0,1,1.06-1.98C23.43,26.81,26.03,26,29,26,33.42,26,37,27.79,37,30Z" fill="#ffdc00"/>
        <path id="Shape-2" data-name="Shape" d="M29,26c-.5,0-.988.031-1.465.075C31.22,26.433,34,28.053,34,30V45c0,1.49-1.64,2.8-4.06,3.48a13.824,13.824,0,0,1-2.477.444c.5.049,1.011.076,1.537.076a14.566,14.566,0,0,0,3.94-.52C35.36,47.8,37,46.49,37,45V30c0-2.21-3.58-4-8-4Z" fill="#fec108"/>
        <path id="Shape-3" data-name="Shape" d="M58,25V45c0,1.49-1.64,2.8-4.06,3.48A14.566,14.566,0,0,1,50,49c-4.42,0-8-1.79-8-4V25a2.674,2.674,0,0,1,1.06-1.98C44.43,21.81,47.03,21,50,21,54.42,21,58,22.79,58,25Z" fill="#ffdc00"/>
        <path id="Shape-4" data-name="Shape" d="M50,21c-.5,0-.988.031-1.465.075C52.22,21.433,55,23.053,55,25V45c0,1.49-1.64,2.8-4.06,3.48a13.824,13.824,0,0,1-2.477.444c.5.049,1.011.076,1.537.076a14.566,14.566,0,0,0,3.94-.52C56.36,47.8,58,46.49,58,45V25c0-2.21-3.58-4-8-4Z" fill="#fec108"/>
        <path id="Shape-5" data-name="Shape" d="M16,35V45c0,1.49-1.64,2.8-4.06,3.48A14.566,14.566,0,0,1,8,49c-4.42,0-8-1.79-8-4V35a2.674,2.674,0,0,1,1.06-1.98C2.43,31.81,5.03,31,8,31,12.42,31,16,32.79,16,35Z" fill="#ffdc00"/>
        <path id="Shape-6" data-name="Shape" d="M8,31c-.5,0-.988.031-1.465.075C10.22,31.433,13,33.053,13,35V45c0,1.49-1.64,2.8-4.06,3.48a13.824,13.824,0,0,1-2.477.444C6.961,48.973,7.474,49,8,49a14.566,14.566,0,0,0,3.94-.52C14.36,47.8,16,46.49,16,45V35C16,32.79,12.42,31,8,31Z" fill="#fec108"/>
        <path id="Shape-7" data-name="Shape" d="M37,30c0,2.21-3.58,4-8,4a14.646,14.646,0,0,1-1.5-.07C23.8,33.58,21,31.95,21,30s2.8-3.58,6.5-3.93A14.646,14.646,0,0,1,29,26C33.42,26,37,27.79,37,30Z" fill="#ffeb3a"/>
        <path id="Shape-8" data-name="Shape" d="M29,26a14.646,14.646,0,0,0-1.5.07h-.014C31.2,26.42,34,28.044,34,30s-2.8,3.58-6.514,3.928H27.5A14.646,14.646,0,0,0,29,34c4.42,0,8-1.79,8-4S33.42,26,29,26Z" fill="#fdd834"/>
        <path id="Shape-9" data-name="Shape" d="M58,25c0,2.21-3.58,4-8,4a14.646,14.646,0,0,1-1.5-.07C44.8,28.58,42,26.95,42,25s2.8-3.58,6.5-3.93A14.646,14.646,0,0,1,50,21C54.42,21,58,22.79,58,25Z" fill="#ffeb3a"/>
        <path id="Shape-10" data-name="Shape" d="M50,21a14.646,14.646,0,0,0-1.5.07h-.014C52.2,21.42,55,23.044,55,25s-2.8,3.58-6.514,3.928H48.5A14.646,14.646,0,0,0,50,29c4.42,0,8-1.79,8-4S54.42,21,50,21Z" fill="#fdd834"/>
        <path id="Shape-11" data-name="Shape" d="M16,35c0,2.21-3.58,4-8,4a14.646,14.646,0,0,1-1.5-.07C2.8,38.58,0,36.95,0,35s2.8-3.58,6.5-3.93A14.646,14.646,0,0,1,8,31C12.42,31,16,32.79,16,35Z" fill="#ffeb3a"/>
        <path id="Shape-12" data-name="Shape" d="M8,31a14.646,14.646,0,0,0-1.5.07H6.486C10.2,31.42,13,33.044,13,35s-2.8,3.58-6.514,3.928H6.5A14.646,14.646,0,0,0,8,39c4.42,0,8-1.79,8-4S12.42,31,8,31Z" fill="#fdd834"/>
        <path id="Shape-13" data-name="Shape" d="M43.88,7.8,40.05,18.79a1.8,1.8,0,0,1-3.12.49,2.527,2.527,0,0,1-.45-.64l-1.31-2.65-2.46.83L11.98,23.86a1.932,1.932,0,0,1-1.87-.34H10.1a1.968,1.968,0,0,1-.52-.65v-.01a1.968,1.968,0,0,1,.66-2.51L30.56,6.68,29.25,4.03a2.189,2.189,0,0,1,.3-2.56,1.655,1.655,0,0,1,1.74-.37L42.35,4.72A2.494,2.494,0,0,1,43.88,7.8Z" fill="#f44335"/>
        <path id="Shape-14" data-name="Shape" d="M42.35,4.72,31.29,1.1a1.655,1.655,0,0,0-1.74.37c-.01.01-.018.023-.028.033L39.35,4.72A2.494,2.494,0,0,1,40.88,7.8L37.05,18.79a1.921,1.921,0,0,1-.2.4c.027.031.052.066.079.1a1.8,1.8,0,0,0,3.12-.49L43.88,7.8a2.494,2.494,0,0,0-1.53-3.08Z" fill="#c81e1e"/>
      </g>
      <g id="Layer_10" transform="translate(0 -1)">
        <path id="Shape-15" data-name="Shape" d="M30,51c5.131,0,9-2.149,9-5V31c0-2.851-3.869-5-9-5s-9,2.149-9,5V46C21,48.851,24.869,51,30,51Zm7-15c0,1.416-2.993,3-7,3s-7-1.584-7-3V34.215c3.508,2.385,10.493,2.384,14,0Zm0,3.215V41c0,1.416-2.993,3-7,3s-7-1.584-7-3V39.215C26.508,41.6,33.493,41.6,37,39.215ZM30,49c-4.007,0-7-1.584-7-3V44.215c3.508,2.385,10.493,2.384,14,0V46C37,47.416,34.007,49,30,49Zm0-21c4.007,0,7,1.584,7,3s-2.993,3-7,3-7-1.584-7-3S25.993,28,30,28Z"/>
        <path id="Shape-16" data-name="Shape" d="M60,26c0-2.851-3.869-5-9-5s-9,2.149-9,5V46c0,2.851,3.869,5,9,5s9-2.149,9-5Zm-2,5c0,1.416-2.993,3-7,3s-7-1.584-7-3V29.215c3.508,2.385,10.493,2.384,14,0Zm0,3.215V36c0,1.416-2.993,3-7,3s-7-1.584-7-3V34.215C47.508,36.6,54.493,36.6,58,34.215Zm-14,5c3.508,2.385,10.493,2.384,14,0V41c0,1.416-2.993,3-7,3s-7-1.584-7-3ZM51,23c4.007,0,7,1.584,7,3s-2.993,3-7,3-7-1.584-7-3S46.993,23,51,23Zm0,26c-4.007,0-7-1.584-7-3V44.215c3.508,2.385,10.493,2.384,14,0V46C58,47.416,55.007,49,51,49Z"/>
        <path id="Shape-17" data-name="Shape" d="M9,51c5.131,0,9-2.149,9-5V36c0-2.851-3.869-5-9-5s-9,2.149-9,5V46C0,48.851,3.869,51,9,51Zm7-10c0,1.416-2.993,3-7,3s-7-1.584-7-3V39.215c3.508,2.385,10.493,2.384,14,0ZM9,49c-4.007,0-7-1.584-7-3V44.215c3.508,2.385,10.493,2.384,14,0V46C16,47.416,13.007,49,9,49ZM9,33c4.007,0,7,1.584,7,3s-2.993,3-7,3-7-1.584-7-3S4.993,33,9,33Z"/>
        <path id="Shape-18" data-name="Shape" d="M12.357,25.967c.7,0-1.138.551,23.306-7.746l.922,1.861c1.245,2.514,4.549,2.5,5.414.036L45.822,9.131a3.5,3.5,0,0,0-2.16-4.365L32.6,1.147c-2.478-.807-4.5,1.81-3.251,4.328l.921,1.861L10.685,20.52a2.98,2.98,0,0,0,1.672,5.447ZM11.8,22.179,32.116,8.507a1,1,0,0,0,.338-1.274l-1.31-2.646c-.414-.835-.01-1.812.838-1.539l11.06,3.619a1.5,1.5,0,0,1,.893,1.8L40.111,19.458c-.3.852-1.329.555-1.733-.264l-1.311-2.646a1,1,0,0,0-1.217-.5L12.661,23.917a.979.979,0,0,1-.861-1.738Z"/>
        <path id="Shape-19" data-name="Shape" d="M58,59a1,1,0,0,0,1-1V54a1,1,0,0,0-2,0v1H52a1,1,0,0,0-2,0H45V54a1,1,0,0,0-2,0v1H38a1,1,0,0,0-2,0H31V54a1,1,0,0,0-2,0v1H24a1,1,0,0,0-2,0H17V54a1,1,0,0,0-2,0v1H10a1,1,0,0,0-2,0H3V54a1,1,0,0,0-2,0v4a1,1,0,0,0,2,0V57H8a1,1,0,0,0,2,0h5v1a1,1,0,0,0,2,0V57h5a1,1,0,0,0,2,0h5v1a1,1,0,0,0,2,0V57h5a1,1,0,0,0,2,0h5v1a1,1,0,0,0,2,0V57h5a1,1,0,0,0,2,0h5v1A1,1,0,0,0,58,59Z"/>
      </g>
    </g>
  </g>
</svg>
