<svg xmlns="http://www.w3.org/2000/svg" width="61.554" height="56.766" viewBox="0 0 61.554 56.766">
  <g id="Grupo_1111565" data-name="Grupo 1111565" transform="translate(-615 -2035.194)">
    <g id="Rectángulo_401341" data-name="Rectángulo 401341" transform="translate(615 2035.194)" fill="#fece2f" stroke="#faedc1" stroke-width="3">
      <rect width="61.554" height="56.766" rx="12" stroke="none"/>
      <rect x="1.5" y="1.5" width="58.554" height="53.766" rx="10.5" fill="none"/>
    </g>
    <g id="Grupo_1108817" data-name="Grupo 1108817" transform="translate(617.003 2035.412)">
      <g id="Grupo_1108766" data-name="Grupo 1108766" transform="translate(14.095 14.088)">
        <path id="Trazado_891888" data-name="Trazado 891888" d="M17.728,46.264a.345.345,0,0,1-.258-.11.364.364,0,0,1,0-.522l28.17-28.17a.369.369,0,1,1,.522.522L17.986,46.153a.357.357,0,0,1-.258.11Z" transform="translate(-17.36 -17.35)"/>
      </g>
      <g id="Grupo_1108785" data-name="Grupo 1108785" transform="translate(4.998 4.997)">
        <g id="Grupo_1108775" data-name="Grupo 1108775" transform="translate(34.699)">
          <g id="Grupo_1108768" data-name="Grupo 1108768" transform="translate(0.364 3.533)">
            <g id="Grupo_1108767" data-name="Grupo 1108767">
              <path id="Trazado_891889" data-name="Trazado 891889" d="M0,0H8.64V3.385H0Z" transform="translate(0 6.108) rotate(-45)" fill="#ff003b"/>
            </g>
          </g>
          <g id="Grupo_1108770" data-name="Grupo 1108770" transform="translate(0 3.167)">
            <g id="Grupo_1108769" data-name="Grupo 1108769">
              <path id="Trazado_891890" data-name="Trazado 891890" d="M54.91,18.536a.345.345,0,0,1-.258-.11L52.26,16.034a.375.375,0,0,1-.11-.258.345.345,0,0,1,.11-.258L58.368,9.41a.364.364,0,0,1,.522,0L61.283,11.8a.364.364,0,0,1,0,.522l-6.108,6.108A.423.423,0,0,1,54.91,18.536Zm-1.869-2.76,1.869,1.869L60.5,12.06,58.626,10.19Z" transform="translate(-52.15 -9.3)"/>
            </g>
          </g>
          <g id="Grupo_1108772" data-name="Grupo 1108772" transform="translate(5.647 0.368)">
            <g id="Grupo_1108771" data-name="Grupo 1108771">
              <path id="Trazado_891891" data-name="Trazado 891891" d="M64.854,11.357,66.186,6.39a.712.712,0,0,0-.868-.868L60.351,6.853a.705.705,0,0,0-.316,1.185l3.635,3.635A.711.711,0,0,0,64.854,11.357Z" transform="translate(-59.823 -5.497)" fill="#ff003b"/>
            </g>
          </g>
          <g id="Grupo_1108774" data-name="Grupo 1108774" transform="translate(5.283)">
            <g id="Grupo_1108773" data-name="Grupo 1108773">
              <path id="Trazado_891892" data-name="Trazado 891892" d="M64.032,12.115a1.07,1.07,0,0,1-.758-.316L59.646,8.164a1.072,1.072,0,0,1,.478-1.8l4.967-1.332a1.046,1.046,0,0,1,1.038.28,1.062,1.062,0,0,1,.28,1.038l-1.332,4.967a1.055,1.055,0,0,1-.758.758A.961.961,0,0,1,64.032,12.115Zm1.339-6.38a.187.187,0,0,0-.088.015L60.316,7.082a.343.343,0,0,0-.155.574L63.8,11.291a.34.34,0,0,0,.331.088.335.335,0,0,0,.243-.243L65.7,6.169a.346.346,0,0,0-.331-.434Z" transform="translate(-59.328 -4.997)"/>
            </g>
          </g>
        </g>
        <g id="Grupo_1108784" data-name="Grupo 1108784" transform="translate(0 34.706)">
          <g id="Grupo_1108777" data-name="Grupo 1108777" transform="translate(3.524 0.362)">
            <g id="Grupo_1108776" data-name="Grupo 1108776">
              <path id="Trazado_891893" data-name="Trazado 891893" d="M0,0H8.64V3.385H0Z" transform="translate(0 6.108) rotate(-45)" fill="#ff003b"/>
            </g>
          </g>
          <g id="Grupo_1108779" data-name="Grupo 1108779" transform="translate(3.166)">
            <g id="Grupo_1108778" data-name="Grupo 1108778">
              <path id="Trazado_891894" data-name="Trazado 891894" d="M12.06,61.395a.345.345,0,0,1-.258-.11L9.41,58.893a.364.364,0,0,1,0-.522l6.108-6.108a.378.378,0,0,1,.522,0l2.392,2.392a.375.375,0,0,1,.11.258.345.345,0,0,1-.11.258l-6.108,6.108a.377.377,0,0,1-.265.118Zm-1.877-2.767L12.052,60.5l5.586-5.586-1.869-1.869Z" transform="translate(-9.3 -52.158)"/>
            </g>
          </g>
          <g id="Grupo_1108781" data-name="Grupo 1108781" transform="translate(0.367 5.646)">
            <g id="Grupo_1108780" data-name="Grupo 1108780">
              <path id="Trazado_891895" data-name="Trazado 891895" d="M6.853,60.353,5.521,65.32a.712.712,0,0,0,.868.868l4.967-1.332a.705.705,0,0,0,.316-1.185L8.038,60.036a.711.711,0,0,0-1.185.316Z" transform="translate(-5.497 -59.83)" fill="#ff003b"/>
            </g>
          </g>
          <g id="Grupo_1108783" data-name="Grupo 1108783" transform="translate(0 5.276)">
            <g id="Grupo_1108782" data-name="Grupo 1108782">
              <path id="Trazado_891896" data-name="Trazado 891896" d="M6.074,66.445a1.079,1.079,0,0,1-1.038-1.354l1.332-4.967a1.072,1.072,0,0,1,1.8-.478L11.8,63.281a1.072,1.072,0,0,1-.478,1.8l-4.96,1.332a1.394,1.394,0,0,1-.287.037Zm1.339-6.38a.326.326,0,0,0-.1.015.335.335,0,0,0-.243.243L5.743,65.29a.342.342,0,0,0,.088.331.335.335,0,0,0,.331.088l4.96-1.332a.343.343,0,0,0,.155-.574L7.649,60.161a.351.351,0,0,0-.235-.1Z" transform="translate(-4.998 -59.327)"/>
            </g>
          </g>
        </g>
      </g>
      <g id="Grupo_1108786" data-name="Grupo 1108786" transform="translate(14.095 14.088)">
        <path id="Trazado_891897" data-name="Trazado 891897" d="M45.9,46.264a.345.345,0,0,1-.258-.11L17.47,17.983a.369.369,0,1,1,.522-.522l28.17,28.178a.364.364,0,0,1,0,.522A.4.4,0,0,1,45.9,46.264Z" transform="translate(-17.36 -17.35)"/>
      </g>
      <g id="Grupo_1108805" data-name="Grupo 1108805" transform="translate(4.997 5.001)">
        <g id="Grupo_1108795" data-name="Grupo 1108795">
          <g id="Grupo_1108788" data-name="Grupo 1108788" transform="translate(3.527 3.527)">
            <g id="Grupo_1108787" data-name="Grupo 1108787">
              <path id="Trazado_891898" data-name="Trazado 891898" d="M0,0H3.385V8.64H0Z" transform="translate(0 2.393) rotate(-45)" fill="#ff003b"/>
            </g>
          </g>
          <g id="Grupo_1108790" data-name="Grupo 1108790" transform="translate(3.167 3.155)">
            <g id="Grupo_1108789" data-name="Grupo 1108789">
              <path id="Trazado_891899" data-name="Trazado 891899" d="M15.776,18.533a.345.345,0,0,1-.258-.11L9.41,12.315a.364.364,0,0,1,0-.522L11.8,9.4a.364.364,0,0,1,.522,0l6.108,6.108a.375.375,0,0,1,.11.258.345.345,0,0,1-.11.258l-2.392,2.392a.382.382,0,0,1-.265.118Zm-5.593-6.476,5.586,5.586,1.869-1.869-5.586-5.586Z" transform="translate(-9.3 -9.29)"/>
            </g>
          </g>
          <g id="Grupo_1108792" data-name="Grupo 1108792" transform="translate(0.368 0.364)">
            <g id="Grupo_1108791" data-name="Grupo 1108791">
              <path id="Trazado_891900" data-name="Trazado 891900" d="M6.853,11.357,5.521,6.39a.712.712,0,0,1,.868-.868l4.967,1.332a.705.705,0,0,1,.316,1.185L8.038,11.673a.711.711,0,0,1-1.185-.316Z" transform="translate(-5.497 -5.497)" fill="#ff003b"/>
            </g>
          </g>
          <g id="Grupo_1108794" data-name="Grupo 1108794">
            <g id="Grupo_1108793" data-name="Grupo 1108793">
              <path id="Trazado_891901" data-name="Trazado 891901" d="M7.413,12.117a1.279,1.279,0,0,1-.287-.037,1.055,1.055,0,0,1-.758-.758L5.036,6.355a1.046,1.046,0,0,1,.28-1.038,1.079,1.079,0,0,1,1.038-.28l4.96,1.332a1.072,1.072,0,0,1,.478,1.8L8.164,11.8a1.053,1.053,0,0,1-.751.316ZM6.074,5.737a.344.344,0,0,0-.324.427l1.332,4.967a.343.343,0,0,0,.574.155L11.291,7.65a.34.34,0,0,0,.088-.331.335.335,0,0,0-.243-.243L6.162,5.751A.187.187,0,0,0,6.074,5.737Z" transform="translate(-4.997 -5.002)"/>
            </g>
          </g>
        </g>
        <g id="Grupo_1108804" data-name="Grupo 1108804" transform="translate(34.7 34.709)">
          <g id="Grupo_1108797" data-name="Grupo 1108797" transform="translate(0.362 0.357)">
            <g id="Grupo_1108796" data-name="Grupo 1108796">
              <path id="Trazado_891902" data-name="Trazado 891902" d="M0,0H3.385V8.64H0Z" transform="translate(0 2.393) rotate(-45)" fill="#ff003b"/>
            </g>
          </g>
          <g id="Grupo_1108799" data-name="Grupo 1108799">
            <g id="Grupo_1108798" data-name="Grupo 1108798">
              <path id="Trazado_891903" data-name="Trazado 891903" d="M58.626,61.4a.345.345,0,0,1-.258-.11L52.26,55.179a.375.375,0,0,1-.11-.258.345.345,0,0,1,.11-.258l2.392-2.392a.378.378,0,0,1,.522,0l6.108,6.108a.364.364,0,0,1,0,.522l-2.392,2.392a.4.4,0,0,1-.265.1ZM53.04,54.914,58.626,60.5,60.5,58.631,54.91,53.045Z" transform="translate(-52.15 -52.168)"/>
            </g>
          </g>
          <g id="Grupo_1108801" data-name="Grupo 1108801" transform="translate(5.647 5.639)">
            <g id="Grupo_1108800" data-name="Grupo 1108800">
              <path id="Trazado_891904" data-name="Trazado 891904" d="M64.854,60.353l1.332,4.967a.708.708,0,0,1-.868.868l-4.967-1.332a.705.705,0,0,1-.316-1.185l3.635-3.635a.711.711,0,0,1,1.185.316Z" transform="translate(-59.823 -59.83)" fill="#ff003b"/>
            </g>
          </g>
          <g id="Grupo_1108803" data-name="Grupo 1108803" transform="translate(5.285 5.27)">
            <g id="Grupo_1108802" data-name="Grupo 1108802">
              <path id="Trazado_891905" data-name="Trazado 891905" d="M65.372,66.446a1.165,1.165,0,0,1-.28-.037l-4.967-1.332a1.072,1.072,0,0,1-.478-1.8l3.635-3.635a1.072,1.072,0,0,1,1.8.478l1.332,4.967a1.046,1.046,0,0,1-.28,1.038,1.07,1.07,0,0,1-.758.316Zm-1.339-6.38a.33.33,0,0,0-.235.1L60.162,63.8a.34.34,0,0,0-.088.331.335.335,0,0,0,.243.243l4.967,1.332a.342.342,0,0,0,.331-.088.335.335,0,0,0,.088-.331l-1.332-4.967a.338.338,0,0,0-.243-.243A.288.288,0,0,0,64.033,60.065Z" transform="translate(-59.331 -59.328)"/>
            </g>
          </g>
        </g>
      </g>
      <g id="Grupo_1108815" data-name="Grupo 1108815" transform="translate(12.704 12.719)">
        <g id="Grupo_1108806" data-name="Grupo 1108806" transform="translate(0.368 0.353)">
          <path id="Trazado_891906" data-name="Trazado 891906" d="M46.054,28.915c-.795-.14-1.965-.353-2.679-.478a1.058,1.058,0,0,1-.809-.736,11.836,11.836,0,0,0-.618-1.479,1.067,1.067,0,0,1,.052-1.1l1.553-2.23a1.048,1.048,0,0,0-.118-1.339l-2.112-2.112a1.039,1.039,0,0,0-1.332-.118c-.67.456-1.656,1.141-2.252,1.553a1.04,1.04,0,0,1-1.082.052,11.392,11.392,0,0,0-1.479-.618,1.051,1.051,0,0,1-.721-.809l-.478-2.671a1.054,1.054,0,0,0-1.03-.861h-3a1.054,1.054,0,0,0-1.03.861c-.14.795-.353,1.958-.478,2.671a1.058,1.058,0,0,1-.736.809,11.836,11.836,0,0,0-1.479.618,1.067,1.067,0,0,1-1.1-.052L22.9,19.326a1.048,1.048,0,0,0-1.339.118l-2.112,2.112a1.039,1.039,0,0,0-.118,1.332c.456.67,1.141,1.656,1.553,2.252a1.04,1.04,0,0,1,.052,1.082,11.391,11.391,0,0,0-.618,1.479,1.069,1.069,0,0,1-.809.736l-2.679.478a1.054,1.054,0,0,0-.861,1.03v3a1.054,1.054,0,0,0,.861,1.03c.795.14,1.965.353,2.679.478a1.052,1.052,0,0,1,.809.721,11.836,11.836,0,0,0,.618,1.479,1.067,1.067,0,0,1-.052,1.1l-1.553,2.23a1.048,1.048,0,0,0,.118,1.339l2.112,2.112a1.039,1.039,0,0,0,1.332.118c.67-.456,1.656-1.141,2.252-1.553a1.04,1.04,0,0,1,1.082-.052,11.391,11.391,0,0,0,1.479.618,1.069,1.069,0,0,1,.736.809l.478,2.679a1.054,1.054,0,0,0,1.03.861h3a1.054,1.054,0,0,0,1.03-.861c.14-.795.353-1.965.478-2.679a1.052,1.052,0,0,1,.721-.809,11.392,11.392,0,0,0,1.479-.618,1.056,1.056,0,0,1,1.082.066l2.245,1.538a1.048,1.048,0,0,0,1.339-.118l2.112-2.112a1.132,1.132,0,0,0-.022-1.538l-1.406-2.038a1.074,1.074,0,0,1-.066-1.082,10.978,10.978,0,0,0,.618-1.479,1.03,1.03,0,0,1,.809-.721c.714-.125,1.884-.339,2.679-.478a1.054,1.054,0,0,0,.861-1.03v-3a1.043,1.043,0,0,0-.854-1.038Z" transform="translate(-15.97 -15.97)" fill="#343434"/>
        </g>
        <g id="Grupo_1108807" data-name="Grupo 1108807">
          <path id="Trazado_891907" data-name="Trazado 891907" d="M32.815,47.156h-3a1.418,1.418,0,0,1-1.391-1.163l-.478-2.686a.689.689,0,0,0-.478-.522,12.478,12.478,0,0,1-1.531-.64.688.688,0,0,0-.714.022c-.6.412-1.59,1.1-2.259,1.553a1.406,1.406,0,0,1-1.8-.162l-2.112-2.112a1.406,1.406,0,0,1-.162-1.8l1.553-2.237a.689.689,0,0,0,.029-.714,13.513,13.513,0,0,1-.64-1.531.688.688,0,0,0-.53-.478l-.64-.118c-.662-.118-1.45-.258-2.038-.361a1.424,1.424,0,0,1-1.163-1.391v-3a1.418,1.418,0,0,1,1.163-1.391l2.686-.478a.689.689,0,0,0,.522-.478,12.478,12.478,0,0,1,.64-1.531.688.688,0,0,0-.022-.714c-.412-.6-1.1-1.59-1.553-2.259a1.4,1.4,0,0,1,.162-1.8l2.112-2.112a1.406,1.406,0,0,1,1.8-.162l2.237,1.553a.689.689,0,0,0,.714.029,13.513,13.513,0,0,1,1.531-.64.685.685,0,0,0,.486-.53l.132-.721c.118-.64.25-1.376.346-1.935A1.424,1.424,0,0,1,29.82,15.49h3a1.418,1.418,0,0,1,1.391,1.163l.478,2.671a.692.692,0,0,0,.471.522,12.478,12.478,0,0,1,1.531.64.688.688,0,0,0,.714-.022c.6-.412,1.59-1.1,2.259-1.553a1.415,1.415,0,0,1,1.8.162l2.112,2.112a1.406,1.406,0,0,1,.162,1.8l-1.553,2.237a.689.689,0,0,0-.029.714,13.512,13.512,0,0,1,.64,1.531.685.685,0,0,0,.53.486l.64.118c.662.118,1.45.258,2.038.361H46a1.425,1.425,0,0,1,1.163,1.391v3A1.418,1.418,0,0,1,46,34.211c-.6.1-1.384.243-2.046.361l-.64.118a.669.669,0,0,0-.522.471,11.276,11.276,0,0,1-.64,1.531.692.692,0,0,0,.037.706L43.6,39.444a1.491,1.491,0,0,1-.022,2.009l-2.112,2.112a1.406,1.406,0,0,1-1.8.162l-2.245-1.545a.7.7,0,0,0-.714-.037,11.705,11.705,0,0,1-1.523.633.677.677,0,0,0-.478.53l-.118.64c-.118.655-.258,1.442-.361,2.031a1.446,1.446,0,0,1-1.406,1.177Zm-7.227-5.828a1.4,1.4,0,0,1,.677.169,11.456,11.456,0,0,0,1.428.6,1.433,1.433,0,0,1,.979,1.089l.478,2.686a.685.685,0,0,0,.67.559h3a.685.685,0,0,0,.67-.559c.1-.581.243-1.369.361-2.031l.118-.648a1.421,1.421,0,0,1,.971-1.1,10.075,10.075,0,0,0,1.42-.6,1.448,1.448,0,0,1,1.457.088l2.237,1.538a.67.67,0,0,0,.868-.074l2.112-2.112c.353-.353.11-.824-.066-1.074l-1.406-2.038a1.436,1.436,0,0,1-.088-1.45,10.612,10.612,0,0,0,.6-1.435,1.411,1.411,0,0,1,1.089-.971l.64-.118c.662-.118,1.45-.265,2.038-.361a.692.692,0,0,0,.559-.67v-3a.691.691,0,0,0-.559-.67c-.589-.1-1.376-.243-2.038-.361l-.64-.118a1.438,1.438,0,0,1-1.1-.986,11.731,11.731,0,0,0-.6-1.428,1.433,1.433,0,0,1,.081-1.464L43.1,22.562a.689.689,0,0,0-.074-.868L40.91,19.582a.661.661,0,0,0-.861-.074c-.67.456-1.656,1.141-2.252,1.553a1.429,1.429,0,0,1-1.464.081,10.836,10.836,0,0,0-1.428-.6,1.415,1.415,0,0,1-.964-1.089l-.478-2.671a.685.685,0,0,0-.67-.559h-3a.685.685,0,0,0-.67.559c-.1.559-.228,1.3-.346,1.935l-.132.729a1.438,1.438,0,0,1-.986,1.1,11.731,11.731,0,0,0-1.428.6,1.433,1.433,0,0,1-1.464-.081l-2.237-1.553a.688.688,0,0,0-.868.074l-2.112,2.112a.661.661,0,0,0-.074.861c.456.67,1.141,1.656,1.553,2.252a1.43,1.43,0,0,1,.081,1.464,11.456,11.456,0,0,0-.6,1.428,1.433,1.433,0,0,1-1.089.979l-2.686.478a.685.685,0,0,0-.559.67v3a.685.685,0,0,0,.559.67l2.038.361.64.118a1.421,1.421,0,0,1,1.1.971,11.731,11.731,0,0,0,.6,1.428,1.433,1.433,0,0,1-.081,1.464l-1.553,2.237a.688.688,0,0,0,.074.868l2.112,2.112a.661.661,0,0,0,.861.074c.67-.456,1.656-1.141,2.252-1.553a1.5,1.5,0,0,1,.809-.243Z" transform="translate(-15.47 -15.49)"/>
        </g>
        <g id="Grupo_1108808" data-name="Grupo 1108808" transform="translate(9.066 9.044)">
          <path id="Trazado_891908" data-name="Trazado 891908" d="M34.575,41.335a6.778,6.778,0,1,1,6.77-6.77A6.779,6.779,0,0,1,34.575,41.335Z" transform="translate(-27.79 -27.78)" fill="#ffe200"/>
        </g>
        <g id="Grupo_1108809" data-name="Grupo 1108809" transform="translate(8.698 8.676)">
          <path id="Trazado_891909" data-name="Trazado 891909" d="M34.443,41.571a7.146,7.146,0,1,1,7.138-7.138A7.153,7.153,0,0,1,34.443,41.571Zm0-13.548a6.41,6.41,0,1,0,6.4,6.417A6.423,6.423,0,0,0,34.443,28.023Z" transform="translate(-27.29 -27.28)"/>
        </g>
        <g id="Grupo_1108814" data-name="Grupo 1108814" transform="translate(13.577 11.149)">
          <g id="Grupo_1108812" data-name="Grupo 1108812" transform="translate(0 0.773)">
            <g id="Grupo_1108810" data-name="Grupo 1108810">
              <path id="Trazado_891910" data-name="Trazado 891910" d="M36.187,35.958a2.138,2.138,0,1,1,2.267-2.134.368.368,0,0,1-.736,0,1.537,1.537,0,1,0-1.531,1.4.368.368,0,0,1,0,.736Z" transform="translate(-33.92 -31.69)"/>
            </g>
            <g id="Grupo_1108811" data-name="Grupo 1108811" transform="translate(0 3.532)">
              <path id="Trazado_891911" data-name="Trazado 891911" d="M36.187,40.758a2.2,2.2,0,0,1-2.267-2.134.368.368,0,0,1,.736,0,1.537,1.537,0,1,0,1.531-1.4.368.368,0,1,1,0-.736,2.138,2.138,0,1,1,0,4.268Z" transform="translate(-33.92 -36.49)"/>
            </g>
          </g>
          <g id="Grupo_1108813" data-name="Grupo 1108813" transform="translate(1.899)">
            <path id="Trazado_891912" data-name="Trazado 891912" d="M36.868,39.993a.364.364,0,0,1-.368-.368V31.008a.368.368,0,1,1,.736,0v8.617A.369.369,0,0,1,36.868,39.993Z" transform="translate(-36.5 -30.64)"/>
          </g>
        </g>
      </g>
      <g id="Grupo_1108816" data-name="Grupo 1108816" transform="translate(19.143 19.136)">
        <path id="Trazado_891913" data-name="Trazado 891913" d="M33.632,43.02a9.4,9.4,0,1,1,9.4-9.4A9.417,9.417,0,0,1,33.632,43.02Zm0-18.074a8.669,8.669,0,1,0,8.662,8.676,8.687,8.687,0,0,0-8.662-8.676Z" transform="translate(-24.22 -24.21)"/>
      </g>
    </g>
  </g>
</svg>
