<svg xmlns="http://www.w3.org/2000/svg" width="90" height="83" viewBox="0 0 90 83">
  <g id="Grupo_1111596" data-name="Grupo 1111596" transform="translate(-774.051 -3027.348)">
    <g id="Rect치ngulo_401341" data-name="Rect치ngulo 401341" transform="translate(774.051 3027.348)" fill="#d6c0fd" stroke="#fff" stroke-width="3">
      <rect width="90" height="83" rx="12" stroke="none"/>
      <rect x="1.5" y="1.5" width="87" height="80" rx="10.5" fill="none"/>
    </g>
    <g id="Grupo_1111577" data-name="Grupo 1111577">
      <rect id="Rect치ngulo_401243" data-name="Rect치ngulo 401243" width="83" height="83" transform="translate(777.051 3027.348)" fill="none"/>
      <g id="Grupo_1109463" data-name="Grupo 1109463" transform="translate(788.051 3037)">
        <path id="Trazado_892217" data-name="Trazado 892217" d="M41,19a8,8,0,0,0,7.95,8H49V59a2.006,2.006,0,0,1-2,2H17a2.006,2.006,0,0,1-2-2V27a8,8,0,1,0,.05-16H15V5a2.006,2.006,0,0,1,2-2h4V5a2.006,2.006,0,0,0,2,2H41a2.006,2.006,0,0,0,2-2V3h4a2.006,2.006,0,0,1,2,2v6a8,8,0,0,0-8,8Z" fill="#57a4ff"/>
        <path id="Trazado_892218" data-name="Trazado 892218" d="M36,28a9,9,0,0,1,9,9c0,9-13,15-13,15S19,46,19,37a8.9,8.9,0,0,1,13-8,9,9,0,0,1,4-1Z" fill="#ff7956"/>
        <g id="Grupo_1109462" data-name="Grupo 1109462">
          <path id="Trazado_892219" data-name="Trazado 892219" d="M49.05,11H49a8,8,0,0,0-.05,16H49a8,8,0,0,0,.05-16Z" fill="#ffeb99"/>
          <path id="Trazado_892220" data-name="Trazado 892220" d="M43,3V5a2.006,2.006,0,0,1-2,2H23a2.006,2.006,0,0,1-2-2V3Z" fill="#ffeb99"/>
          <path id="Trazado_892221" data-name="Trazado 892221" d="M15.05,11H15a8,8,0,1,0-.05,16H15a8,8,0,1,0,.05-16Z" fill="#ffeb99"/>
        </g>
        <path id="Trazado_892222" data-name="Trazado 892222" d="M36,27a9.761,9.761,0,0,0-4,.895A9.761,9.761,0,0,0,28,27,10.011,10.011,0,0,0,18,37c0,9.53,13.026,15.652,13.581,15.908a1,1,0,0,0,.838,0C32.974,52.652,46,46.53,46,37A10.011,10.011,0,0,0,36,27ZM32,50.886C29.831,49.783,20,44.377,20,37a7.9,7.9,0,0,1,11.554-7.1,1.013,1.013,0,0,0,.892,0A7.9,7.9,0,0,1,44,37C44,44.377,34.169,49.783,32,50.886Z"/>
        <path id="Trazado_892223" data-name="Trazado 892223" d="M56,35V33h2V31H56V29H54v2H52v2h2v2Z"/>
        <path id="Trazado_892224" data-name="Trazado 892224" d="M31,25h2V23h2V21H33V19H31v2H29v2h2Z"/>
        <path id="Trazado_892225" data-name="Trazado 892225" d="M62,41H60V39H58v2H56v2h2v2h2V43h2Z"/>
        <path id="Trazado_892226" data-name="Trazado 892226" d="M10,29H8v2H6v2H8v2h2V33h2V31H10Z"/>
        <path id="Trazado_892227" data-name="Trazado 892227" d="M6,39H4v2H2v2H4v2H6V43H8V41H6Z"/>
        <path id="Trazado_892228" data-name="Trazado 892228" d="M58,19a9.01,9.01,0,0,0-8-8.941V5a3,3,0,0,0-3-3H17a3,3,0,0,0-3,3v5.059a9,9,0,0,0,0,17.882V59a3,3,0,0,0,3,3H47a3,3,0,0,0,3-3V27.941A9.01,9.01,0,0,0,58,19Zm-2,0a7,7,0,1,1-7-7,7,7,0,0,1,7,7ZM22,4H42V5a1,1,0,0,1-1,1H23a1,1,0,0,1-1-1ZM8,19a7,7,0,1,1,7,7,7,7,0,0,1-7-7ZM47,60H17a1,1,0,0,1-1-1V27.941a9,9,0,0,0,0-17.882V5a1,1,0,0,1,1-1h3V5a3,3,0,0,0,3,3H41a3,3,0,0,0,3-3V4h3a1,1,0,0,1,1,1v5.059a9,9,0,0,0,0,17.882V59A1,1,0,0,1,47,60Z"/>
        <path id="Trazado_892229" data-name="Trazado 892229" d="M48,13v1a2,2,0,0,0-2,2v2a2,2,0,0,0,2,2h2v2H46v2h2v1h2V24a2,2,0,0,0,2-2V20a2,2,0,0,0-2-2H48V16h4V14H50V13Z"/>
        <path id="Trazado_892230" data-name="Trazado 892230" d="M16,25V24a2,2,0,0,0,2-2V20a2,2,0,0,0-2-2H14V16h4V14H16V13H14v1a2,2,0,0,0-2,2v2a2,2,0,0,0,2,2h2v2H12v2h2v1Z"/>
        <path id="Trazado_892231" data-name="Trazado 892231" d="M33,33H31v1a2,2,0,0,0-2,2v2a2,2,0,0,0,2,2h2v2H29v2h2v1h2V44a2,2,0,0,0,2-2V40a2,2,0,0,0-2-2H31V36h4V34H33Z"/>
      </g>
    </g>
  </g>
</svg>
