<svg xmlns="http://www.w3.org/2000/svg" width="90" height="83" viewBox="0 0 90 83">
  <g id="Grupo_1111578" data-name="Grupo 1111578" transform="translate(-1080.051 -3027.348)">
    <g id="Rectángulo_401341" data-name="Rectángulo 401341" transform="translate(1080.051 3027.348)" fill="#d6c0fd" stroke="#fff" stroke-width="3">
      <rect width="90" height="83" rx="12" stroke="none"/>
      <rect x="1.5" y="1.5" width="87" height="80" rx="10.5" fill="none"/>
    </g>
    <g id="Grupo_1109464" data-name="Grupo 1109464" transform="translate(1095.051 3037.527)">
      <path id="Trazado_892232" data-name="Trazado 892232" d="M20,16v2H2V2H20V16Z" fill="#b4dd7f"/>
      <path id="Trazado_892233" data-name="Trazado 892233" d="M50,56h8l1,6H47l1-6Z" fill="#b27946"/>
      <path id="Trazado_892234" data-name="Trazado 892234" d="M40,18v5a3,3,0,0,1-6,0V18h5a2.653,2.653,0,0,0,.94-.16Z" fill="#d3a06c"/>
      <path id="Trazado_892235" data-name="Trazado 892235" d="M42,13l-.69.09c-.06-.07-.12-.14-.19-.21A2.993,2.993,0,0,0,39,12H34l2.83-2.83A4,4,0,0,1,39.66,8H50.34a4.047,4.047,0,0,1,1.72.39L52,8.51A10.994,10.994,0,0,1,56,17V56H50V17a5,5,0,0,0-8-4Z" fill="#d3a06c"/>
      <path id="Trazado_892236" data-name="Trazado 892236" d="M34,12h5a2.993,2.993,0,0,1,2.12.88c.07.07.13.14.19.21a2.988,2.988,0,0,1-1.37,4.75A2.653,2.653,0,0,1,39,18H31.61A11.943,11.943,0,0,1,25,16H20V5l3.1-1.86A7.967,7.967,0,0,1,27.22,2H49.86a9.991,9.991,0,0,1,7.07,2.93L61.2,9.2a2.741,2.741,0,0,1,.8,1.93v.13A2.744,2.744,0,0,1,59.26,14h-.13a2.741,2.741,0,0,1-1.93-.8L53.17,9.17a3.91,3.91,0,0,0-1.11-.78A4.047,4.047,0,0,0,50.34,8H39.66a4,4,0,0,0-2.83,1.17Z" fill="#f0d0b4"/>
      <path id="Trazado_892237" data-name="Trazado 892237" d="M34,30V41.51A21.126,21.126,0,0,1,18,62,21.126,21.126,0,0,1,2,41.51V30a23.969,23.969,0,0,0,14.4-4.8L18,24l1.6,1.2A23.969,23.969,0,0,0,34,30Z" fill="#aab2bd"/>
      <circle id="Elipse_11998" data-name="Elipse 11998" cx="12" cy="12" r="12" transform="translate(6 31)" fill="#fcd770"/>
      <path id="Trazado_892238" data-name="Trazado 892238" d="M17,34v2.142A3.992,3.992,0,0,0,18,44a2,2,0,1,1-2,2H14a4,4,0,0,0,3,3.858V52h2V49.858A3.992,3.992,0,0,0,18,42a2,2,0,1,1,2-2h2a4,4,0,0,0-3-3.858V34Z"/>
      <path id="Trazado_892239" data-name="Trazado 892239" d="M20.2,24.4,18,22.75,15.8,24.4A23.153,23.153,0,0,1,2,29H1V41.508A22.09,22.09,0,0,0,17.758,62.97l.242.061.242-.062A22.088,22.088,0,0,0,35,41.508V29H34a23.148,23.148,0,0,1-13.8-4.6ZM33,41.508a20.093,20.093,0,0,1-15,19.46A20.093,20.093,0,0,1,3,41.508V30.979A25.174,25.174,0,0,0,17,26l1-.75L19,26a25.169,25.169,0,0,0,14,4.979Z"/>
      <path id="Trazado_892240" data-name="Trazado 892240" d="M61.9,8.49,57.635,4.221A10.929,10.929,0,0,0,49.857,1H27.216a9.01,9.01,0,0,0-4.631,1.282L21,3.234V1H1V19H21V17h3.7a12.859,12.859,0,0,0,6.9,2H33v4a4,4,0,0,0,8,0V18.444A3.9,3.9,0,0,0,42.763,13.7,3.954,3.954,0,0,1,45,13a4,4,0,0,1,4,4V55H47.153l-1.334,8H60.18l-1.334-8H57V17a12.021,12.021,0,0,0-.394-3,3.759,3.759,0,0,0,2.529,1h.125A3.745,3.745,0,0,0,63,11.26v-.125A3.765,3.765,0,0,0,61.9,8.49ZM19,17H3V3H19Zm20,6a2,2,0,0,1-4,0V19h4ZM57.153,57l.666,4H48.18l.666-4h8.307ZM51,55V17a6.006,6.006,0,0,0-6-6,5.929,5.929,0,0,0-3.339,1.035A3.972,3.972,0,0,0,39,11H36.414l1.121-1.121A2.98,2.98,0,0,1,39.657,9H50.343a2.987,2.987,0,0,1,1.085.208l-.065.078A9.97,9.97,0,0,1,55,17V55ZM61,11.26A1.741,1.741,0,0,1,59.26,13h-.125a1.751,1.751,0,0,1-1.23-.51L53.88,8.465A4.973,4.973,0,0,0,50.343,7H39.657a4.969,4.969,0,0,0-3.536,1.465L33.586,11H32v2h7a2,2,0,0,1,0,4H31.6a10.881,10.881,0,0,1-6.051-1.832L25.3,15H21V5.566L23.613,4a7.017,7.017,0,0,1,3.6-1H49.858a8.945,8.945,0,0,1,6.364,2.636L60.491,9.9a1.751,1.751,0,0,1,.51,1.23v.125Z"/>
      <path id="Trazado_892241" data-name="Trazado 892241" d="M5,43A13,13,0,1,0,18,30,13.015,13.015,0,0,0,5,43Zm24,0A11,11,0,1,1,18,32,11.013,11.013,0,0,1,29,43Z"/>
      <path id="Trazado_892242" data-name="Trazado 892242" d="M25,42h2v2H25Z"/>
      <path id="Trazado_892243" data-name="Trazado 892243" d="M9,42h2v2H9Z"/>
    </g>
  </g>
</svg>
