<svg xmlns="http://www.w3.org/2000/svg" width="90" height="83" viewBox="0 0 90 83">
  <g id="Grupo_1111594" data-name="Grupo 1111594" transform="translate(6275.981 8580.652)">
    <g id="Rectángulo_405031" data-name="Rectángulo 405031" transform="translate(-6275.981 -8580.652)" fill="#d6c0fd" stroke="#fff" stroke-width="3">
      <rect width="90" height="83" rx="12" stroke="none"/>
      <rect x="1.5" y="1.5" width="87" height="80" rx="10.5" fill="none"/>
    </g>
    <g id="Grupo_1109493" data-name="Grupo 1109493" transform="translate(-6264.63 -8622.346)">
      <g id="Grupo_1109492" data-name="Grupo 1109492" transform="translate(2.041 57.882)">
        <g id="Grupo_1109486" data-name="Grupo 1109486" transform="translate(44.338 14.249)">
          <path id="Trazado_892272" data-name="Trazado 892272" d="M367.272,204.39l10.389,2.784a17.341,17.341,0,0,1-.262-2.27,5.728,5.728,0,0,1,.251-2.209,5.273,5.273,0,0,1,1.233-2.015l0,0,3.947-4.246a4.832,4.832,0,0,0,1.4-3.391V176.726a2.647,2.647,0,0,0-5.294,0v11.362l-.054-.056a2.94,2.94,0,0,0-4.141-.016l-7.257,7.2a4.633,4.633,0,0,0-.953,3.545Z" transform="translate(-364.359 -174.079)" fill="#ffd6bd" fill-rule="evenodd"/>
          <path id="Trazado_892273" data-name="Trazado 892273" d="M424.843,281.755a2.941,2.941,0,0,0,.428-3.619,2.9,2.9,0,0,1,.538.427,2.936,2.936,0,0,1-.016,4.141c-1.414,1.4-2.813,2.813-4.221,4.221a.674.674,0,0,1-.953-.953C422.023,284.567,423.425,283.163,424.843,281.755Z" transform="translate(-411.279 -264.609)" fill="#f9c6aa" fill-rule="evenodd"/>
          <path id="Trazado_892274" data-name="Trazado 892274" d="M438.578,206.755l1.557.417a17.335,17.335,0,0,1-.262-2.27,5.728,5.728,0,0,1,.251-2.209,5.272,5.272,0,0,1,1.233-2.015l0,0,3.947-4.246a4.832,4.832,0,0,0,1.4-3.391V176.725a2.655,2.655,0,0,0-2.647-2.647c-.044,0-.087,0-.13,0a2.65,2.65,0,0,1,1.22,2.226v16.315a4.832,4.832,0,0,1-1.4,3.391l-3.947,4.245,0,0a5.27,5.27,0,0,0-1.233,2.014,5.728,5.728,0,0,0-.251,2.209A17.313,17.313,0,0,0,438.578,206.755Z" transform="translate(-426.833 -174.078)" fill="#f9c6aa" fill-rule="evenodd"/>
          <path id="Trazado_892275" data-name="Trazado 892275" d="M351.45,393.919l12.7,3.4a.585.585,0,0,1,.412.714l-.629,2.347a.585.585,0,0,1-.714.412l-12.7-3.4a.585.585,0,0,1-.412-.714l.629-2.347A.585.585,0,0,1,351.45,393.919Z" transform="translate(-350.087 -365.324)" fill="#64b5f6" fill-rule="evenodd"/>
          <path id="Trazado_892276" data-name="Trazado 892276" d="M351.45,393.919l.148.04-.589,2.2a.585.585,0,0,0,.412.714l12.551,3.363-.04.149a.585.585,0,0,1-.714.412l-12.7-3.4a.585.585,0,0,1-.412-.714l.629-2.347A.584.584,0,0,1,351.45,393.919Z" transform="translate(-350.088 -365.324)" fill="#42a5f5" fill-rule="evenodd"/>
        </g>
        <g id="Grupo_1109487" data-name="Grupo 1109487" transform="translate(0 14.249)">
          <path id="Trazado_892277" data-name="Trazado 892277" d="M25.964,204.391l-10.389,2.784a17.339,17.339,0,0,0,.262-2.27,5.728,5.728,0,0,0-.251-2.209,5.273,5.273,0,0,0-1.233-2.015l0,0L10.4,196.433A4.832,4.832,0,0,1,9,193.042V176.727a2.647,2.647,0,0,1,5.294,0v11.362l.054-.056a2.94,2.94,0,0,1,4.141-.016l7.257,7.2a4.633,4.633,0,0,1,.953,3.545Z" transform="translate(-9 -174.08)" fill="#ffd6bd" fill-rule="evenodd"/>
          <path id="Trazado_892278" data-name="Trazado 892278" d="M45.445,281.755a2.941,2.941,0,0,1-.428-3.619,2.9,2.9,0,0,0-.538.427A2.936,2.936,0,0,0,44.5,282.7c1.414,1.4,2.813,2.813,4.221,4.221a.674.674,0,0,0,.953-.953c-1.4-1.4-2.806-2.809-4.224-4.217Z" transform="translate(-39.131 -264.609)" fill="#f9c6aa" fill-rule="evenodd"/>
          <path id="Trazado_892279" data-name="Trazado 892279" d="M17.133,206.756l-1.557.417a17.339,17.339,0,0,0,.262-2.27,5.728,5.728,0,0,0-.251-2.209,5.272,5.272,0,0,0-1.233-2.015l0,0L10.4,196.432A4.832,4.832,0,0,1,9,193.041V176.726a2.655,2.655,0,0,1,2.647-2.647c.044,0,.087,0,.13,0a2.65,2.65,0,0,0-1.22,2.226v16.315a4.832,4.832,0,0,0,1.4,3.391l3.947,4.245,0,0a5.269,5.269,0,0,1,1.233,2.014,5.728,5.728,0,0,1,.251,2.209,17.309,17.309,0,0,1-.262,2.27Z" transform="translate(-9 -174.079)" fill="#f9c6aa" fill-rule="evenodd"/>
          <path id="Trazado_892280" data-name="Trazado 892280" d="M63.545,393.919l-12.7,3.4a.585.585,0,0,0-.412.714l.629,2.347a.585.585,0,0,0,.714.412l12.7-3.4a.585.585,0,0,0,.412-.714l-.629-2.347A.585.585,0,0,0,63.545,393.919Z" transform="translate(-45.03 -365.325)" fill="#64b5f6" fill-rule="evenodd"/>
          <path id="Trazado_892281" data-name="Trazado 892281" d="M67.618,393.919l-.148.04.589,2.2a.585.585,0,0,1-.412.714L55.1,400.234l.04.149a.585.585,0,0,0,.714.412l12.7-3.4a.585.585,0,0,0,.412-.714l-.629-2.347a.584.584,0,0,0-.714-.412Z" transform="translate(-49.104 -365.325)" fill="#42a5f5" fill-rule="evenodd"/>
        </g>
        <g id="Grupo_1109488" data-name="Grupo 1109488" transform="translate(22.253 0)">
          <path id="Trazado_892282" data-name="Trazado 892282" d="M180.189,160.17a9.881,9.881,0,0,1,19.706,0,.686.686,0,0,1-.687.741H180.876a.687.687,0,0,1-.687-.741Z" transform="translate(-180.187 -139.777)" fill="#72d561" fill-rule="evenodd"/>
          <path id="Trazado_892283" data-name="Trazado 892283" d="M247.518,151.093a9.876,9.876,0,0,1,10.956,9.078.686.686,0,0,1-.687.741h-2.205a.687.687,0,0,0,.687-.741,9.921,9.921,0,0,0-8.751-9.078Z" transform="translate(-238.765 -139.778)" fill="#3cbe52" fill-rule="evenodd"/>
          <ellipse id="Elipse_12000" data-name="Elipse 12000" cx="5.34" cy="5.34" rx="5.34" ry="5.34" transform="translate(4.451 0.128) rotate(-0.688)" fill="#ffd6bd"/>
          <path id="Trazado_892284" data-name="Trazado 892284" d="M224.848,79.307a5.34,5.34,0,1,0,6.916-7.987,5.341,5.341,0,0,1-6.916,7.987Z" transform="translate(-219.042 -70.429)" fill="#f9c6aa" fill-rule="evenodd"/>
        </g>
        <g id="Grupo_1109489" data-name="Grupo 1109489" transform="translate(8.12 2.518)">
          <path id="Trazado_892285" data-name="Trazado 892285" d="M71.467,180.02a9.881,9.881,0,0,1,19.706,0,.687.687,0,0,1-.687.741H72.154A.686.686,0,0,1,71.467,180.02Z" transform="translate(-71.465 -159.565)" fill="#fc685b" fill-rule="evenodd"/>
          <path id="Trazado_892286" data-name="Trazado 892286" d="M138.8,170.942a9.876,9.876,0,0,1,10.956,9.078.686.686,0,0,1-.687.741h-2.205a.687.687,0,0,0,.687-.741A9.921,9.921,0,0,0,138.8,170.942Z" transform="translate(-130.043 -159.565)" fill="#fb4737" fill-rule="evenodd"/>
          <ellipse id="Elipse_12001" data-name="Elipse 12001" cx="5.34" cy="5.34" rx="5.34" ry="5.34" transform="matrix(1, -0.022, 0.022, 1, 4.406, 0.235)" fill="#ffd6bd"/>
          <path id="Trazado_892287" data-name="Trazado 892287" d="M116.126,99.156a5.34,5.34,0,1,0,6.916-7.987,5.341,5.341,0,0,1-6.916,7.987Z" transform="translate(-110.32 -90.216)" fill="#f9c6aa" fill-rule="evenodd"/>
        </g>
        <g id="Grupo_1109490" data-name="Grupo 1109490" transform="translate(36.386 2.637)">
          <path id="Trazado_892288" data-name="Trazado 892288" d="M288.912,180.02a9.881,9.881,0,0,1,19.706,0,.686.686,0,0,1-.687.741H289.6a.686.686,0,0,1-.687-.741Z" transform="translate(-288.91 -159.684)" fill="#64b5f6" fill-rule="evenodd"/>
          <path id="Trazado_892289" data-name="Trazado 892289" d="M356.241,170.942A9.876,9.876,0,0,1,367.2,180.02a.686.686,0,0,1-.687.741H364.3a.687.687,0,0,0,.687-.741A9.921,9.921,0,0,0,356.241,170.942Z" transform="translate(-347.488 -159.684)" fill="#42a5f5" fill-rule="evenodd"/>
          <circle id="Elipse_12002" data-name="Elipse 12002" cx="5.34" cy="5.34" r="5.34" transform="translate(4.515)" fill="#ffd6bd"/>
          <path id="Trazado_892290" data-name="Trazado 892290" d="M333.571,99.156a5.34,5.34,0,1,0,6.916-7.987,5.341,5.341,0,0,1-6.916,7.987Z" transform="translate(-327.765 -90.335)" fill="#f9c6aa" fill-rule="evenodd"/>
        </g>
        <g id="Grupo_1109491" data-name="Grupo 1109491" transform="translate(21.016 17.89)">
          <circle id="Elipse_12003" data-name="Elipse 12003" cx="11.092" cy="11.092" r="11.092" fill="#fdb800"/>
          <path id="Trazado_892291" data-name="Trazado 892291" d="M206.666,222.443a11.091,11.091,0,1,1-15.635,15.635,11.091,11.091,0,0,0,15.635-15.635Z" transform="translate(-188.385 -219.797)" fill="#f4a40e" fill-rule="evenodd"/>
          <circle id="Elipse_12004" data-name="Elipse 12004" cx="7.742" cy="7.742" r="7.742" transform="translate(3.201 18.67) rotate(-88.797)" fill="#ffda2d"/>
          <path id="Trazado_892292" data-name="Trazado 892292" d="M204.187,227.857a7.72,7.72,0,0,1,5.668,2.47A7.741,7.741,0,0,0,199.6,241.835a7.742,7.742,0,0,1,4.587-13.978Z" transform="translate(-193.095 -224.507)" fill="#ffc700" fill-rule="evenodd"/>
        </g>
      </g>
      <path id="Trazado_892293" data-name="Trazado 892293" d="M36.981,88.474a2.657,2.657,0,0,1-1.792,2.509v.48a1.04,1.04,0,0,1-2.08,0v-.435a2.665,2.665,0,0,1-1.436-1,1.039,1.039,0,1,1,1.684-1.217.575.575,0,0,0,.464.24h.508a.572.572,0,0,0,0-1.144h-.361a2.652,2.652,0,0,1-.86-5.161v-.481a1.04,1.04,0,0,1,2.08,0V82.7a2.673,2.673,0,0,1,1.438,1,1.04,1.04,0,0,1-1.686,1.218.577.577,0,0,0-.464-.24h-.508a.572.572,0,0,0,0,1.144h.361A2.655,2.655,0,0,1,36.981,88.474Zm-2.832,5.089a6.7,6.7,0,1,0-6.7-6.7A6.709,6.709,0,0,0,34.149,93.564Zm0-15.483a8.782,8.782,0,1,0,8.782,8.781,8.792,8.792,0,0,0-8.782-8.781Zm0,18.833A10.051,10.051,0,1,0,24.1,86.862,10.063,10.063,0,0,0,34.149,96.914ZM11.236,80.555a8.88,8.88,0,0,1,8.78-7.8,8.791,8.791,0,0,1,5.146,1.655.982.982,0,0,0,.135.107c.013.009.027.015.04.023a8.885,8.885,0,0,1,2.08,2.235,12.2,12.2,0,0,0-3.628,3.78H11.236Zm8.78-19a4.3,4.3,0,1,1-4.3,4.3,4.305,4.305,0,0,1,4.3-4.3Zm14.133,8.616a8.813,8.813,0,0,0-6.86,3.281,10.98,10.98,0,0,1,1.953,2.314,12.117,12.117,0,0,1,9.814,0,10.976,10.976,0,0,1,1.953-2.314A8.814,8.814,0,0,0,34.149,70.174Zm0-11.2a4.3,4.3,0,1,1-4.3,4.3A4.3,4.3,0,0,1,34.149,58.978Zm14.133,2.58a4.3,4.3,0,1,1-4.3,4.3,4.3,4.3,0,0,1,4.3-4.3Zm8.78,19H44.508a12.209,12.209,0,0,0-3.628-3.78,8.906,8.906,0,0,1,2.086-2.24c.012-.007.023-.012.034-.018a.962.962,0,0,0,.135-.107,8.79,8.79,0,0,1,5.146-1.655,8.88,8.88,0,0,1,8.78,7.8ZM45.52,82.635H57.447a1.727,1.727,0,0,0,1.725-1.859,10.974,10.974,0,0,0-7.461-9.542,6.381,6.381,0,1,0-6.867-.006,10.872,10.872,0,0,0-2.159.99,10.922,10.922,0,0,0-5.1-3.568,6.38,6.38,0,1,0-6.871,0,10.918,10.918,0,0,0-5.1,3.568,10.876,10.876,0,0,0-2.159-.99,6.381,6.381,0,1,0-6.867.006,10.974,10.974,0,0,0-7.461,9.542,1.727,1.727,0,0,0,1.725,1.859H22.777a12.132,12.132,0,1,0,22.743,0ZM8.959,106.478l-.392-1.465,11.817-3.167.391,1.465Zm-.8-8.458A6.286,6.286,0,0,1,9.929,102.5l8.312-2.227.469-3.592a3.043,3.043,0,0,0-.654-2.671l-7.257-7.2a1.9,1.9,0,0,0-2.672.01,1.892,1.892,0,0,0,.01,2.671l3.878,3.847a1.04,1.04,0,0,1-1.465,1.476L6.674,90.962a3.972,3.972,0,0,1-.378-5.2V74.777a1.608,1.608,0,0,0-3.215,0V91.092a3.773,3.773,0,0,0,1.127,2.684Zm14.12,2.847a1.623,1.623,0,0,0-1.861-1.175l.36-2.747a5.055,5.055,0,0,0-1.253-4.417l-7.256-7.2a3.941,3.941,0,0,0-2.8-1.147H9.452a3.993,3.993,0,0,0-1.077.151V74.776a3.687,3.687,0,0,0-7.374,0V91.092a5.886,5.886,0,0,0,1.684,4.1l3.947,4.245a4.294,4.294,0,0,1,1.2,3.622l-.239.066A1.621,1.621,0,0,0,6.44,105.11l.629,2.346a1.621,1.621,0,0,0,1.988,1.148l12.7-3.4a1.625,1.625,0,0,0,1.148-1.988Zm42.942-9.776V74.777A1.609,1.609,0,0,0,63.61,73.17h0A1.615,1.615,0,0,0,62,74.777V85.763a3.972,3.972,0,0,1-.377,5.2l-3.877,3.847a1.04,1.04,0,0,1-1.465-1.476l3.878-3.847A1.889,1.889,0,1,0,57.5,86.8l-7.258,7.2a3.042,3.042,0,0,0-.654,2.671l.469,3.592,8.312,2.227a6.288,6.288,0,0,1,1.774-4.474l3.947-4.245a3.771,3.771,0,0,0,1.127-2.683Zm-5.878,15.386-11.817-3.167.392-1.465,11.817,3.167ZM63.61,71.09h0a3.7,3.7,0,0,0-3.687,3.687v9.556a3.972,3.972,0,0,0-3.888,1l-7.256,7.2a5.056,5.056,0,0,0-1.253,4.417l.36,2.747a1.623,1.623,0,0,0-1.861,1.175l-.629,2.346a1.624,1.624,0,0,0,1.148,1.988l12.7,3.4a1.62,1.62,0,0,0,1.987-1.148l.629-2.346a1.624,1.624,0,0,0-1.147-1.987l-.24-.066a4.294,4.294,0,0,1,1.2-3.622l3.947-4.245a5.889,5.889,0,0,0,1.684-4.1V74.777A3.691,3.691,0,0,0,63.61,71.09Z" fill-rule="evenodd"/>
    </g>
  </g>
</svg>
