<svg xmlns="http://www.w3.org/2000/svg" width="90" height="83" viewBox="0 0 90 83">
  <g id="Grupo_1111581" data-name="Grupo 1111581" transform="translate(-597.051 -4419.23)">
    <g id="Rectángulo_401341" data-name="Rectángulo 401341" transform="translate(597.051 4419.23)" fill="#f4eefe" stroke="#fff" stroke-width="3">
      <rect width="90" height="83" rx="12" stroke="none"/>
      <rect x="1.5" y="1.5" width="87" height="80" rx="10.5" fill="none"/>
    </g>
    <g id="_x36_0_Tax_Optimization" transform="translate(607.952 4427.783)">
      <g id="Grupo_1109497" data-name="Grupo 1109497" transform="translate(1.024 1.025)">
        <path id="Trazado_893063" data-name="Trazado 893063" d="M51.378,75.288l-13.468,41.57a2.726,2.726,0,0,1-3.433,1.753l-26.251-8.5a2.726,2.726,0,0,1-1.753-3.433L19.941,65.1a2.726,2.726,0,0,1,3.433-1.753l26.251,8.5A2.726,2.726,0,0,1,51.378,75.288Z" transform="translate(-5.673 -55.412)" fill="#f1b2a3"/>
        <path id="Trazado_893064" data-name="Trazado 893064" d="M51.38,123.687,37.912,165.257a2.727,2.727,0,0,1-3.433,1.753l-26.251-8.5a2.727,2.727,0,0,1-1.753-3.433l.047-.145A31.241,31.241,0,0,0,43.46,134.163a31.069,31.069,0,0,0,.946-15.6l5.222,1.692a2.726,2.726,0,0,1,1.753,3.433Z" transform="translate(-5.675 -103.811)" opacity="0.1"/>
        <path id="Trazado_893065" data-name="Trazado 893065" d="M87.7,91.357v43.7a2.726,2.726,0,0,1-2.726,2.726H57.376a2.726,2.726,0,0,1-2.726-2.726v-43.7a2.726,2.726,0,0,1,2.726-2.726H84.97A2.726,2.726,0,0,1,87.7,91.357Z" transform="translate(-47.92 -77.636)" fill="#e8f1f8"/>
        <path id="Trazado_893066" data-name="Trazado 893066" d="M87.7,91.354v43.7a2.727,2.727,0,0,1-2.726,2.726H57.377a2.727,2.727,0,0,1-2.726-2.726V134.9A31.24,31.24,0,0,0,79.482,88.628h5.489A2.726,2.726,0,0,1,87.7,91.354Z" transform="translate(-47.921 -77.634)" opacity="0.1"/>
        <path id="Trazado_893067" data-name="Trazado 893067" d="M350.3,13.426a7.091,7.091,0,0,1-7.091,7.091h-8.824l-4.54,3.431a1.148,1.148,0,0,1-1.841-.916V13.426A7.091,7.091,0,0,1,335.1,6.335h8.114A7.091,7.091,0,0,1,350.3,13.426Z" transform="translate(-286.971 -5.669)" fill="#4955a1"/>
        <path id="Trazado_893068" data-name="Trazado 893068" d="M350.3,20.065v0a7.089,7.089,0,0,1-7.089,7.089H334.39l-4.541,3.433a1.148,1.148,0,0,1-1.841-.916V24.415a14.739,14.739,0,0,0,18.756-10.486A7.081,7.081,0,0,1,350.3,20.065Z" transform="translate(-286.971 -12.31)" opacity="0.1"/>
        <path id="Trazado_893069" data-name="Trazado 893069" d="M328.389,412.842a1.983,1.983,0,0,1-1.983,1.983H310.928a1.983,1.983,0,1,1,0-3.966h15.478A1.983,1.983,0,0,1,328.389,412.842Z" transform="translate(-270.3 -359.424)" fill="#fdcf17"/>
        <path id="Trazado_893070" data-name="Trazado 893070" d="M309.816,381.242a1.983,1.983,0,0,1-1.983,1.983H292.355a1.983,1.983,0,0,1,0-3.966h15.478A1.983,1.983,0,0,1,309.816,381.242Z" transform="translate(-254.058 -331.79)" fill="#f78721"/>
        <path id="Trazado_893071" data-name="Trazado 893071" d="M328.389,349.641a1.983,1.983,0,0,1-1.983,1.983H310.928a1.983,1.983,0,1,1,0-3.966h15.478A1.983,1.983,0,0,1,328.389,349.641Z" transform="translate(-270.3 -304.155)" fill="#fdcf17"/>
        <path id="Trazado_893072" data-name="Trazado 893072" d="M328.389,476.043a1.983,1.983,0,0,1-1.983,1.983H310.928a1.983,1.983,0,0,1,0-3.966h15.478A1.983,1.983,0,0,1,328.389,476.043Z" transform="translate(-270.3 -414.693)" fill="#fdcf17"/>
        <path id="Trazado_893073" data-name="Trazado 893073" d="M309.816,444.443a1.983,1.983,0,0,1-1.983,1.983H292.355a1.983,1.983,0,1,1,0-3.966h15.478A1.983,1.983,0,0,1,309.816,444.443Z" transform="translate(-254.058 -387.059)" fill="#f78721"/>
        <path id="Trazado_893074" data-name="Trazado 893074" d="M329.141,476.756a1.98,1.98,0,0,1-1.979,1.985H311.68a1.978,1.978,0,0,1-1.873-1.347,1.986,1.986,0,0,0,.626.1h15.483a1.98,1.98,0,0,0,1.979-1.985,2.05,2.05,0,0,0-.1-.632A1.987,1.987,0,0,1,329.141,476.756Z" transform="translate(-271.054 -415.408)" opacity="0.1"/>
        <path id="Trazado_893075" data-name="Trazado 893075" d="M310.555,445.172a1.989,1.989,0,0,1-1.985,1.985H293.094a1.979,1.979,0,0,1-1.879-1.353,1.868,1.868,0,0,0,.632.106h15.477a1.985,1.985,0,0,0,1.985-1.985,1.864,1.864,0,0,0-.106-.632A1.99,1.99,0,0,1,310.555,445.172Z" transform="translate(-254.795 -387.788)" opacity="0.1"/>
        <path id="Trazado_893076" data-name="Trazado 893076" d="M329.141,413.548a1.979,1.979,0,0,1-1.979,1.979H311.68a1.978,1.978,0,0,1-1.873-1.347,1.985,1.985,0,0,0,.626.1h15.483a1.979,1.979,0,0,0,1.979-1.979,1.9,1.9,0,0,0-.106-.638A1.981,1.981,0,0,1,329.141,413.548Z" transform="translate(-271.054 -360.128)" opacity="0.1"/>
        <path id="Trazado_893077" data-name="Trazado 893077" d="M310.555,382a1.985,1.985,0,0,1-1.985,1.985H293.094a1.979,1.979,0,0,1-1.879-1.353,1.868,1.868,0,0,0,.632.106h15.477a1.987,1.987,0,0,0,1.884-2.611A1.978,1.978,0,0,1,310.555,382Z" transform="translate(-254.795 -332.549)" opacity="0.1"/>
        <path id="Trazado_893078" data-name="Trazado 893078" d="M309.816,317.982a1.983,1.983,0,0,1-1.983,1.983H292.355a1.983,1.983,0,1,1,0-3.966h15.478A1.983,1.983,0,0,1,309.816,317.982Z" transform="translate(-254.058 -276.469)" fill="#f78721"/>
        <path id="Trazado_893079" data-name="Trazado 893079" d="M310.555,318.74a1.985,1.985,0,0,1-1.985,1.985H293.094a1.979,1.979,0,0,1-1.879-1.353,1.869,1.869,0,0,0,.632.106h15.477a1.987,1.987,0,0,0,1.884-2.611A1.978,1.978,0,0,1,310.555,318.74Z" transform="translate(-254.795 -277.228)" opacity="0.1"/>
        <path id="Trazado_893080" data-name="Trazado 893080" d="M329.141,350.336a1.984,1.984,0,0,1-1.979,1.985H311.68a1.985,1.985,0,0,1-1.873-1.347,1.985,1.985,0,0,0,.626.1h15.483a1.984,1.984,0,0,0,1.979-1.985,1.9,1.9,0,0,0-.106-.638A1.981,1.981,0,0,1,329.141,350.336Z" transform="translate(-271.054 -304.849)" opacity="0.1"/>
        <path id="Trazado_893081" data-name="Trazado 893081" d="M259,380.659a8.369,8.369,0,1,1-8.368-8.368A8.368,8.368,0,0,1,259,380.659Z" transform="translate(-211.983 -325.696)" fill="#f78721"/>
        <path id="Trazado_893082" data-name="Trazado 893082" d="M274.019,398.2a5.852,5.852,0,1,1-5.851-5.851A5.851,5.851,0,0,1,274.019,398.2Z" transform="translate(-229.522 -343.234)" fill="#fdcf17"/>
        <path id="Trazado_893083" data-name="Trazado 893083" d="M278.628,402.811a5.851,5.851,0,0,1-11.041,2.7,5.78,5.78,0,0,0,2.7.662,5.854,5.854,0,0,0,5.854-5.854,5.78,5.78,0,0,0-.662-2.7A5.834,5.834,0,0,1,278.628,402.811Z" transform="translate(-234.133 -347.849)" opacity="0.1"/>
        <path id="Trazado_893084" data-name="Trazado 893084" d="M170.431,142.8h13.49a.667.667,0,0,0,0-1.333h-13.49a.667.667,0,0,0,0,1.333Z" transform="translate(-148.587 -123.845)"/>
        <path id="Trazado_893085" data-name="Trazado 893085" d="M170.431,188.687h13.49a.667.667,0,0,0,0-1.333h-13.49a.667.667,0,0,0,0,1.333Z" transform="translate(-148.587 -163.969)"/>
        <path id="Trazado_893086" data-name="Trazado 893086" d="M85.408,234.575h24.16a.667.667,0,1,0,0-1.333H85.408a.667.667,0,1,0,0,1.333Z" transform="translate(-74.234 -204.098)"/>
        <path id="Trazado_893087" data-name="Trazado 893087" d="M85.408,280.459h24.16a.667.667,0,0,0,0-1.333H85.408a.667.667,0,0,0,0,1.333Z" transform="translate(-74.234 -244.224)"/>
        <path id="Trazado_893088" data-name="Trazado 893088" d="M85.408,372.23h18.614a.667.667,0,1,0,0-1.333H85.408a.667.667,0,1,0,0,1.333Z" transform="translate(-74.234 -324.477)"/>
        <path id="Trazado_893089" data-name="Trazado 893089" d="M101.255,416.781H85.408a.667.667,0,1,0,0,1.333h15.847a.667.667,0,0,0,0-1.333Z" transform="translate(-74.234 -364.603)"/>
        <path id="Trazado_893090" data-name="Trazado 893090" d="M105.328,136.664h-2.6a.667.667,0,1,0,0,1.333h1.415v.634a.667.667,0,0,0,1.333,0v-.649a2.227,2.227,0,0,0-.149-4.449h-1.035a.9.9,0,0,1,0-1.8h2.6a.667.667,0,1,0,0-1.333h-1.416v-.635a.667.667,0,0,0-1.333,0v.65a2.227,2.227,0,0,0,.15,4.448h1.035a.9.9,0,0,1,0,1.8Z" transform="translate(-89.382 -113.028)"/>
        <path id="Trazado_893091" data-name="Trazado 893091" d="M398.994,26.625a.667.667,0,0,0-.911.24l-4.536,7.775a.667.667,0,1,0,1.152.672l4.536-7.775A.667.667,0,0,0,398.994,26.625Z" transform="translate(-344.205 -23.332)"/>
        <path id="Trazado_893092" data-name="Trazado 893092" d="M382.268,27a1.914,1.914,0,1,0-1.914,1.909A1.916,1.916,0,0,0,382.268,27Zm-2.494,0a.58.58,0,1,1,.58.576A.581.581,0,0,1,379.774,27Z" transform="translate(-331.074 -22.065)"/>
        <path id="Trazado_893093" data-name="Trazado 893093" d="M428.561,72.014a1.914,1.914,0,1,0-1.913,1.909A1.915,1.915,0,0,0,428.561,72.014Zm-1.913.576a.578.578,0,1,1,.58-.576A.579.579,0,0,1,426.648,72.59Z" transform="translate(-371.557 -61.432)"/>
        <path id="Trazado_893094" data-name="Trazado 893094" d="M57.266,16.541a7.758,7.758,0,0,0,0-15.516H49.152a7.766,7.766,0,0,0-7.758,7.758v5.257a3.4,3.4,0,0,0-3.318-2.689H28.249L18.93,8.33a3.391,3.391,0,0,0-4.275,2.182l-.271.838H10.477A3.394,3.394,0,0,0,7.09,14.743V33.864L1.188,52.08A3.39,3.39,0,0,0,3.372,56.35l3.718,1.2v.889a3.394,3.394,0,0,0,3.387,3.393h9.828l9.319,3.021a3.362,3.362,0,0,0,4.193-2,8.991,8.991,0,0,0,5.854,2.165c12.005,0,17.375,0,17.46,0a2.65,2.65,0,0,0,0-5.3h-.044a2.561,2.561,0,0,0,0-2.633h.046a2.647,2.647,0,0,0,0-5.294h-.046a2.561,2.561,0,0,0,0-2.633h.044a2.65,2.65,0,0,0,0-5.3H57.08a2.618,2.618,0,0,0,.369-1.326,2.653,2.653,0,0,0-2.65-2.65H41.47V39.3l5.894-18.194a3.375,3.375,0,0,0-.577-3.148l1.878-1.419h8.6ZM7.09,56.153,3.781,55.082a2.059,2.059,0,0,1-1.324-2.592L7.09,38.19Zm8.834-45.231A2.06,2.06,0,0,1,18.518,9.6l5.407,1.753H15.786ZM10.477,60.5a2.059,2.059,0,0,1-2.053-2.06v-43.7a2.059,2.059,0,0,1,2.053-2.06h27.6a2.062,2.062,0,0,1,2.06,2.06V39.888h-.816a2.646,2.646,0,0,0-2.546,1.956.655.655,0,0,0-.418-.159H12.2a.667.667,0,0,0,0,1.333h24.16a.648.648,0,0,0,.351-.114,2.646,2.646,0,0,0,2.613,2.283h.048A2.62,2.62,0,0,0,39,46.51a2.65,2.65,0,0,0,.047.474,9.01,9.01,0,0,0-7.2,13.519H10.477Zm22.152,1.76a2.056,2.056,0,0,1-2.593,1.326l-5.407-1.753h8.138Zm-.663-6.275a7.7,7.7,0,1,1,7.7,7.7,7.711,7.711,0,0,1-7.7-7.7Zm13.606-6.825H54.8a1.317,1.317,0,1,1,0,2.633h-7.13A9.084,9.084,0,0,0,45.572,49.163ZM57.13,61.057a1.316,1.316,0,0,1,0,2.633H44.372a9.1,9.1,0,0,0,2.772-2.633Zm-9.244-1.333a8.952,8.952,0,0,0,.744-2.633H54.8a1.317,1.317,0,1,1,0,2.633ZM57.13,53.13a1.313,1.313,0,0,1,0,2.627H48.693a8.98,8.98,0,0,0-.459-2.627Zm0-7.933a1.316,1.316,0,0,1,0,2.633h-13.6a8.948,8.948,0,0,0-3.087-.838A1.29,1.29,0,0,1,41.65,45.2ZM54.8,41.221a1.316,1.316,0,1,1,0,2.633H39.321a1.316,1.316,0,0,1,0-2.633ZM46.1,20.7,41.47,34.976V18.905a1.814,1.814,0,0,0,2.833.932l1.422-1.075A2.045,2.045,0,0,1,46.1,20.7Zm1.945-5.355L43.5,18.774a.481.481,0,0,1-.772-.384V8.783a6.432,6.432,0,0,1,6.424-6.424h8.114a6.424,6.424,0,1,1,0,12.849H48.442A.666.666,0,0,0,48.04,15.342Z" transform="translate(-1.024 -1.025)"/>
        <path id="Trazado_893095" data-name="Trazado 893095" d="M293.7,411.017h1.833a.667.667,0,1,0,0-1.333h-.8v-.251a.667.667,0,1,0-1.333,0v.281a1.768,1.768,0,0,0,.3,3.51h.729a.437.437,0,0,1,0,.874H292.6a.667.667,0,1,0,0,1.333h.8v.251a.667.667,0,1,0,1.333,0V415.4a1.768,1.768,0,0,0-.3-3.51H293.7a.437.437,0,1,1,0-.874Z" transform="translate(-255.424 -357.594)"/>
        <path id="Trazado_893096" data-name="Trazado 893096" d="M263.521,387.036a6.519,6.519,0,1,0,6.518,6.518A6.526,6.526,0,0,0,263.521,387.036Zm0,11.7a5.185,5.185,0,1,1,5.185-5.186A5.192,5.192,0,0,1,263.521,398.74Z" transform="translate(-224.876 -338.591)"/>
      </g>
    </g>
  </g>
</svg>
