<svg xmlns="http://www.w3.org/2000/svg" width="90" height="83" viewBox="0 0 90 83">
  <g id="Grupo_1111582" data-name="Grupo 1111582" transform="translate(-912.051 -4419.23)">
    <g id="Rectángulo_401341" data-name="Rectángulo 401341" transform="translate(912.051 4419.23)" fill="#f4eefe" stroke="#fff" stroke-width="3">
      <rect width="90" height="83" rx="12" stroke="none"/>
      <rect x="1.5" y="1.5" width="87" height="80" rx="10.5" fill="none"/>
    </g>
    <g id="Grupo_1109499" data-name="Grupo 1109499" transform="translate(910.345 4414.025)">
      <path id="Trazado_893097" data-name="Trazado 893097" d="M304.565,154.047v29.682H280V161.037a2.066,2.066,0,0,1,.6-1.448l6.988-6.988a2.066,2.066,0,0,1,1.448-.6h13.481a2.046,2.046,0,0,1,2.047,2.047Z" transform="translate(-230.224 -118.6)" fill="#f6bb00"/>
      <path id="Trazado_893098" data-name="Trazado 893098" d="M57.776,240l9,4.846a8.188,8.188,0,0,1,4.306,7.209v19.674H24V252.055a8.188,8.188,0,0,1,4.306-7.209l9-4.846Z" transform="translate(-6.977 -195.341)" fill="#548aff"/>
      <path id="Trazado_893099" data-name="Trazado 893099" d="M143.353,200l5.118,5.118-10.235,20.47L128,205.118,133.118,200Z" transform="translate(-97.671 -160.459)" fill="#d1e4ff"/>
      <path id="Trazado_893100" data-name="Trazado 893100" d="M184.188,245.306l-2.047-8.188L184.188,232H176l2.047,5.118L176,245.306l4.094,8.188Z" transform="translate(-139.53 -188.365)" fill="#ef5e3b"/>
      <path id="Trazado_893101" data-name="Trazado 893101" d="M136,51.071V63.353a9.212,9.212,0,0,0,9.212,9.212h0a9.212,9.212,0,0,0,9.212-9.212V51.071L150.329,48H139.071Z" transform="translate(-104.647 -27.906)" fill="#f5c99d"/>
      <path id="Trazado_893102" data-name="Trazado 893102" d="M189.306,32.188h-8.7A4.606,4.606,0,0,1,176,27.582v-.512A3.071,3.071,0,0,1,179.071,24h3.071a7.165,7.165,0,0,1,7.165,7.165Z" transform="translate(-139.53 -6.977)" fill="#b1712c"/>
      <path id="Trazado_893103" data-name="Trazado 893103" d="M141.118,34.047v1.2a3.919,3.919,0,0,1-3.919,3.919H136V35.071A3.071,3.071,0,0,1,139.071,32a2.047,2.047,0,0,1,2.047,2.047v1.2" transform="translate(-104.647 -13.953)" fill="#91591c"/>
      <path id="Trazado_893104" data-name="Trazado 893104" d="M296,376h24.565v14.329H296Z" transform="translate(-244.177 -313.942)" fill="#00a64f"/>
      <path id="Trazado_893105" data-name="Trazado 893105" d="M252.094,412.094v-1.023A3.071,3.071,0,0,0,249.024,408H248v4.094Z" transform="translate(-202.318 -341.847)" fill="#d1e4ff"/>
      <path id="Trazado_893106" data-name="Trazado 893106" d="M300.094,460.094v-1.023A3.071,3.071,0,0,0,297.024,456H296v4.094Z" transform="translate(-244.177 -383.706)" fill="#bdd1f2"/>
      <path id="Trazado_893107" data-name="Trazado 893107" d="M252.094,328v1.024a3.071,3.071,0,0,1-3.071,3.071H248V328Z" transform="translate(-202.318 -272.083)" fill="#d1e4ff"/>
      <path id="Trazado_893108" data-name="Trazado 893108" d="M408,412.094v-1.023A3.071,3.071,0,0,1,411.071,408h1.023v4.094Z" transform="translate(-341.848 -341.847)" fill="#d1e4ff"/>
      <path id="Trazado_893109" data-name="Trazado 893109" d="M460.094,456h-1.023A3.071,3.071,0,0,0,456,459.071v1.023h4.094Z" transform="translate(-383.706 -383.706)" fill="#bdd1f2"/>
      <path id="Trazado_893110" data-name="Trazado 893110" d="M412.094,332.094h-1.023A3.071,3.071,0,0,1,408,329.024V328h4.094Z" transform="translate(-341.848 -272.083)" fill="#d1e4ff"/>
      <path id="Trazado_893111" data-name="Trazado 893111" d="M460.094,380.094h-1.023A3.071,3.071,0,0,1,456,377.024V376h4.094Z" transform="translate(-383.706 -313.942)" fill="#bdd1f2"/>
      <circle id="Elipse_12014" data-name="Elipse 12014" cx="3.078" cy="3.078" r="3.078" transform="translate(55.323 60.248)" fill="#00a64f"/>
      <path id="Trazado_893112" data-name="Trazado 893112" d="M289.453,153.45v5.956a2.046,2.046,0,0,1-2.047,2.047H281.45a2.025,2.025,0,0,1,.414-.6l6.988-6.988A2.025,2.025,0,0,1,289.453,153.45Z" transform="translate(-231.488 -119.865)" fill="#fcd453"/>
      <path id="Trazado_893113" data-name="Trazado 893113" d="M248,328h24.565v14.329H248Z" transform="translate(-202.318 -272.083)" fill="#02c26a"/>
      <g id="Grupo_1109498" data-name="Grupo 1109498" transform="translate(45.682 55.917)">
        <path id="Trazado_893114" data-name="Trazado 893114" d="M252.094,412.094v-1.023A3.071,3.071,0,0,0,249.024,408H248v4.094Z" transform="translate(-248 -397.765)" fill="#d1e4ff"/>
        <path id="Trazado_893115" data-name="Trazado 893115" d="M252.094,328v1.024a3.071,3.071,0,0,1-3.071,3.071H248V328Z" transform="translate(-248 -328)" fill="#d1e4ff"/>
        <path id="Trazado_893116" data-name="Trazado 893116" d="M408,412.094v-1.023A3.071,3.071,0,0,1,411.071,408h1.023v4.094Z" transform="translate(-387.53 -397.765)" fill="#d1e4ff"/>
        <path id="Trazado_893117" data-name="Trazado 893117" d="M412.094,332.094h-1.023A3.071,3.071,0,0,1,408,329.024V328h4.094Z" transform="translate(-387.53 -328)" fill="#d1e4ff"/>
      </g>
      <circle id="Elipse_12015" data-name="Elipse 12015" cx="3.078" cy="3.078" r="3.078" transform="translate(55.323 60.248)" fill="#00a64f"/>
      <path id="Trazado_893118" data-name="Trazado 893118" d="M160,112h4.094v2.047H160Z" transform="translate(-125.577 -83.718)"/>
      <path id="Trazado_893119" data-name="Trazado 893119" d="M192,165.118h1.024a3.074,3.074,0,0,0,3.071-3.071V160h-2.047v2.047a1.025,1.025,0,0,1-1.024,1.024H192Z" transform="translate(-153.483 -125.577)"/>
      <ellipse id="Elipse_12016" data-name="Elipse 12016" cx="1.231" cy="0.616" rx="1.231" ry="0.616" transform="translate(35.626 31.933)"/>
      <path id="Trazado_893120" data-name="Trazado 893120" d="M224,112h4.094v2.047H224Z" transform="translate(-181.389 -83.718)"/>
      <circle id="Elipse_12017" data-name="Elipse 12017" cx="0.616" cy="0.616" r="0.616" transform="translate(44.243 31.933)"/>
      <path id="Trazado_893121" data-name="Trazado 893121" d="M76.388,61.035H75.364V35.447a3.074,3.074,0,0,0-3.071-3.071H58.812a3.051,3.051,0,0,0-2.171.9l-6.989,6.989c-.052.052-.1.107-.15.162a10.169,10.169,0,0,0,1.3-4.98V24.188A8.2,8.2,0,0,0,42.611,16H39.541a4.09,4.09,0,0,0-3.275,1.64,3.054,3.054,0,0,0-1.843-.616,4.1,4.1,0,0,0-4.094,4.094V35.447A10.175,10.175,0,0,0,32.2,41.338l-2.491,2.491L20.844,48.6A9.2,9.2,0,0,0,16,56.714V76.388a1.024,1.024,0,0,0,1.023,1.024H76.388a1.024,1.024,0,0,0,1.024-1.023V62.058a1.024,1.024,0,0,0-1.023-1.024Zm-7.165,4.094a4.1,4.1,0,0,0-4.094,4.094H50.8a4.1,4.1,0,0,0-4.094-4.094V61.035A4.1,4.1,0,0,0,50.8,56.941H65.129a4.1,4.1,0,0,0,4.094,4.094Zm0,2.047v2.047H67.176A2.049,2.049,0,0,1,69.223,67.176ZM36.64,24.066a5.621,5.621,0,0,0,4.436,2.169h7.676v9.212a8.188,8.188,0,1,1-16.376,0V26.235h.175a4.941,4.941,0,0,0,4.089-2.169Zm8.34,29.943-1.3-5.183,1.752-4.379a10.286,10.286,0,0,0,2.145-1.559l1.973,1.973Zm-4.416-8.326a10.221,10.221,0,0,0,2.276-.258l-.922,2.305H39.21l-.922-2.305A10.221,10.221,0,0,0,40.564,45.682Zm-1.248,4.094h2.5l1.761,7.045L40.564,62.84l-3.009-6.019ZM51.243,46.06l8.071,4.346a7.148,7.148,0,0,1,3.53,4.488H46.826ZM48.753,56.941a2.049,2.049,0,0,1-2.047,2.047V56.941ZM46.706,67.176a2.049,2.049,0,0,1,2.047,2.047H46.706Zm22.518-8.188a2.049,2.049,0,0,1-2.047-2.047h2.047Zm6.141,4.094v2.047a2.049,2.049,0,0,1-2.047-2.047ZM51.1,41.712l5.841-5.841v3.67a1.025,1.025,0,0,1-1.024,1.024H53.87v2.047h2.047a3.074,3.074,0,0,0,3.071-3.071V34.423H72.294a1.025,1.025,0,0,1,1.024,1.024V61.035H71.27V55.917a1.024,1.024,0,0,0-1.023-1.024h-5.3a9.2,9.2,0,0,0-.667-2.047h6.99V50.8H62.981a9.208,9.208,0,0,0-2.43-2.047h2.531V46.706H56.76l-5.343-2.877-.618-.618v-.775a1.016,1.016,0,0,1,.3-.724ZM39.541,18.047h3.071a6.148,6.148,0,0,1,6.141,6.141H41.076a3.586,3.586,0,0,1-3.582-3.582v-.512A2.049,2.049,0,0,1,39.541,18.047ZM34.423,19.07a1.025,1.025,0,0,1,1.024,1.024v1.2a2.9,2.9,0,0,1-2.9,2.9h-.175V21.117a2.049,2.049,0,0,1,2.047-2.047Zm-.876,23.817a10.286,10.286,0,0,0,2.145,1.559l1.752,4.379-1.3,5.183-4.574-9.148Zm-15.5,13.826a7.155,7.155,0,0,1,3.768-6.308l8.071-4.346,9.763,19.527a1.024,1.024,0,0,0,1.831,0l3.179-6.357V70.247a1.024,1.024,0,0,0,1.023,1.024H50.8v4.094H25.212V63.082H23.165V75.364H18.047Zm34.8,16.6a2.049,2.049,0,0,1,2.047,2.047H52.847Zm4.094,2.047a4.1,4.1,0,0,0-4.094-4.094h17.4a1.024,1.024,0,0,0,1.024-1.023V63.082a4.1,4.1,0,0,0,4.094,4.094V71.27a4.1,4.1,0,0,0-4.094,4.094Zm18.423,0H73.317a2.049,2.049,0,0,1,2.047-2.047Z" transform="translate(0 0)"/>
      <path id="Trazado_893122" data-name="Trazado 893122" d="M316.094,352a4.094,4.094,0,1,0,4.094,4.094A4.094,4.094,0,0,0,316.094,352Zm0,6.141a2.047,2.047,0,1,1,2.047-2.047A2.047,2.047,0,0,1,316.094,358.141Z" transform="translate(-258.13 -293.012)"/>
      <path id="Trazado_893123" data-name="Trazado 893123" d="M280,376h2.047v2.047H280Z" transform="translate(-230.224 -313.942)"/>
      <path id="Trazado_893124" data-name="Trazado 893124" d="M400,376h2.047v2.047H400Z" transform="translate(-334.871 -313.942)"/>
      <path id="Trazado_893125" data-name="Trazado 893125" d="M408,176h5.118v2.047H408Z" transform="translate(-341.848 -139.53)"/>
      <path id="Trazado_893126" data-name="Trazado 893126" d="M368,176h3.071v2.047H368Z" transform="translate(-306.965 -139.53)"/>
      <path id="Trazado_893127" data-name="Trazado 893127" d="M400,208h6.141v2.047H400Z" transform="translate(-334.871 -167.436)"/>
      <path id="Trazado_893128" data-name="Trazado 893128" d="M368,208h2.047v2.047H368Z" transform="translate(-306.965 -167.436)"/>
      <path id="Trazado_893129" data-name="Trazado 893129" d="M400,256h6.141v2.047H400Z" transform="translate(-334.871 -209.294)"/>
    </g>
  </g>
</svg>
