<svg xmlns="http://www.w3.org/2000/svg" width="85" height="85" viewBox="0 0 85 85">
  <g id="Grupo_1111567" data-name="Grupo 1111567" transform="translate(-213.73 -5086.274)">
    <path id="Trazado_874547" data-name="Trazado 874547" d="M42.5,0A42.5,42.5,0,1,1,0,42.5,42.5,42.5,0,0,1,42.5,0Z" transform="translate(213.73 5086.274)" fill="#8746f8"/>
    <g id="Grupo_1111315" data-name="Grupo 1111315" transform="translate(227.969 5103.28)">
      <g id="Grupo_1111313" data-name="Grupo 1111313" transform="translate(3.829 0.747)">
        <g id="Grupo_1111312" data-name="Grupo 1111312">
          <path id="Trazado_894053" data-name="Trazado 894053" d="M41.47,99.876a16.012,16.012,0,0,1-4.927-4.434H16.792a1.067,1.067,0,0,1-1.066-1.066V58.168H11.747a1.165,1.165,0,0,0-1.165,1.165V99.42a1.165,1.165,0,0,0,1.165,1.165H42.7Z" transform="translate(-10.582 -53.124)" fill="#c4e2ff"/>
          <g id="Grupo_1111305" data-name="Grupo 1111305" transform="translate(0 44.788)">
            <path id="Trazado_894054" data-name="Trazado 894054" d="M41.42,459.415a16.141,16.141,0,0,1-2.8-2.051H10.582v1.509a1.165,1.165,0,0,0,1.165,1.165H42.5Z" transform="translate(-10.582 -457.364)" fill="#b3dafe"/>
          </g>
          <path id="Trazado_894055" data-name="Trazado 894055" d="M88.983,7.841l5.985,5.985a1.165,1.165,0,0,1,.341.824v34.1a1.165,1.165,0,0,1-1.165,1.165H62.416a1.165,1.165,0,0,1-1.165-1.165V8.665A1.165,1.165,0,0,1,62.416,7.5H88.159a1.165,1.165,0,0,1,.824.341Z" transform="translate(-56.206 -7.5)" fill="#eaf6ff"/>
          <g id="Grupo_1111306" data-name="Grupo 1111306" transform="translate(5.044 3.251)">
            <path id="Trazado_894056" data-name="Trazado 894056" d="M94.967,43.226l-3.075-3.075V74.736A1.165,1.165,0,0,1,90.726,75.9H61.25v2.251a1.165,1.165,0,0,0,1.165,1.165H94.143a1.165,1.165,0,0,0,1.165-1.165V44.05A1.165,1.165,0,0,0,94.967,43.226Z" transform="translate(-61.25 -40.151)" fill="#d8ecfe"/>
          </g>
          <path id="Trazado_894057" data-name="Trazado 894057" d="M342.7,14.785,336.715,8.8a1.164,1.164,0,0,0-.341-.235v5.4a1.165,1.165,0,0,0,1.165,1.165h5.4A1.16,1.16,0,0,0,342.7,14.785Z" transform="translate(-303.939 -8.459)" fill="#c4e2ff"/>
          <g id="Grupo_1111309" data-name="Grupo 1111309" transform="translate(35.686 3.251)">
            <g id="Grupo_1111308" data-name="Grupo 1111308" transform="translate(0)">
              <g id="Grupo_1111307" data-name="Grupo 1111307">
                <path id="Trazado_894058" data-name="Trazado 894058" d="M369.025,43.567h3.31a1.162,1.162,0,0,0-.235-.341l-3.075-3.075v3.416Z" transform="translate(-369.025 -40.151)" fill="#b3dafe"/>
              </g>
            </g>
          </g>
          <path id="Trazado_894059" data-name="Trazado 894059" d="M170.87,71.293h-3.957a.5.5,0,0,1-.5-.5V66.839a.5.5,0,0,0-.5-.5H161.67a.5.5,0,0,0-.5.5V70.8a.5.5,0,0,1-.5.5h-3.957a.5.5,0,0,0-.5.5v4.248a.5.5,0,0,0,.5.5h3.957a.5.5,0,0,1,.5.5v3.957a.5.5,0,0,0,.5.5h4.248a.5.5,0,0,0,.5-.5V77.035a.5.5,0,0,1,.5-.5h3.957a.5.5,0,0,0,.5-.5V71.791a.5.5,0,0,0-.5-.5Z" transform="translate(-141.72 -60.483)" fill="#0ed290"/>
          <g id="Grupo_1111310" data-name="Grupo 1111310" transform="translate(19.452 10.81)">
            <path id="Trazado_894060" data-name="Trazado 894060" d="M215.658,116.083h-1.806v2.442a.5.5,0,0,1-.5.5h-3.077A1.377,1.377,0,0,0,208.9,120.4v3.077a.5.5,0,0,1-.5.5H205.96v1.806a.5.5,0,0,0,.5.5h4.248a.5.5,0,0,0,.5-.5v-3.957a.5.5,0,0,1,.5-.5h3.957a.5.5,0,0,0,.5-.5v-4.248A.5.5,0,0,0,215.658,116.083Z" transform="translate(-205.96 -116.083)" fill="#00c285"/>
          </g>
          <g id="Grupo_1111311" data-name="Grupo 1111311" transform="translate(22.762 19.8)">
            <path id="Trazado_894061" data-name="Trazado 894061" d="M247.29,233.415a16.152,16.152,0,0,1-8.076-13.988v-4.884a1.493,1.493,0,0,1,.747-1.293l11.559-6.673a1.494,1.494,0,0,1,1.493,0l11.559,6.673a1.493,1.493,0,0,1,.747,1.293v4.884a16.152,16.152,0,0,1-8.076,13.988l-4.23,2.442a1.494,1.494,0,0,1-1.493,0Z" transform="translate(-239.214 -206.376)" fill="#00f2a6"/>
            <path id="Trazado_894062" data-name="Trazado 894062" d="M321.2,241.087l-6.574-3.8v7.182c0,5.77-3.079,10.107-8.076,12.992l-4.448,2.568a16.167,16.167,0,0,0,1.815,1.219l4.23,2.442a1.494,1.494,0,0,0,1.493,0l4.23-2.442a16.152,16.152,0,0,0,8.076-13.988v-4.884a1.493,1.493,0,0,0-.747-1.293Z" transform="translate(-295.837 -234.214)" fill="#05e39c"/>
            <path id="Trazado_894063" data-name="Trazado 894063" d="M291.671,276.556a11.5,11.5,0,0,1-5.751-9.961v-2.774a.5.5,0,0,1,.249-.431l7.9-4.564a.5.5,0,0,1,.5,0l7.9,4.564a.5.5,0,0,1,.249.431V266.6a11.5,11.5,0,0,1-5.751,9.961l-2.4,1.387a.5.5,0,0,1-.5,0Z" transform="translate(-281.27 -253.544)" fill="#fff"/>
            <path id="Trazado_894064" data-name="Trazado 894064" d="M357.751,292.622l-2.422-1.4v1.812c0,5.75-3.057,10.075-8.022,12.96l2.042,1.179a.5.5,0,0,0,.5,0l2.4-1.387A11.5,11.5,0,0,0,358,295.828v-2.774A.5.5,0,0,0,357.751,292.622Z" transform="translate(-336.545 -282.777)" fill="#f8f6f6"/>
          </g>
        </g>
      </g>
      <g id="Grupo_1111314" data-name="Grupo 1111314" transform="translate(3.082 0)">
        <path id="Trazado_894065" data-name="Trazado 894065" d="M328.132,327.781a.747.747,0,1,0-1.081,1.03l3.1,3.255a.746.746,0,0,0,.541.232h.013a.747.747,0,0,0,.545-.25l4.34-4.882a.747.747,0,0,0-1.116-.992l-3.8,4.276Z" transform="translate(-294.611 -293.473)"/>
        <path id="Trazado_894066" data-name="Trazado 894066" d="M52.322,26.774l-8.644-4.991V7.9a1.9,1.9,0,0,0-.56-1.352L37.133.56A1.9,1.9,0,0,0,35.781,0H10.038A1.914,1.914,0,0,0,8.126,1.912V5.044H4.994A1.914,1.914,0,0,0,3.082,6.956V47.043a1.914,1.914,0,0,0,1.912,1.912H23.583a.747.747,0,0,0,0-1.493H4.994a.419.419,0,0,1-.419-.419V6.956a.419.419,0,0,1,.419-.419H8.126v4.3a.747.747,0,1,0,1.493,0V1.912a.419.419,0,0,1,.419-.419H35.517V6.249a1.914,1.914,0,0,0,1.912,1.912h4.755V20.921L40.763,20.1a2.247,2.247,0,0,0-2.24,0L26.964,26.774A2.247,2.247,0,0,0,25.9,28.234H13.485a.747.747,0,1,0,0,1.493H25.844v2.846H13.485a.747.747,0,1,0,0,1.493H25.852a16.8,16.8,0,0,0,.323,2.846H13.485a.747.747,0,0,0,0,1.493H26.549a16.99,16.99,0,0,0,1.79,4.012h-18.3A.419.419,0,0,1,9.62,42V14.325a.747.747,0,1,0-1.493,0V42a1.914,1.914,0,0,0,1.912,1.912H29.365a16.884,16.884,0,0,0,3.719,3.551H27.068a.747.747,0,1,0,0,1.493h8.478l2.978,1.719a2.246,2.246,0,0,0,2.24,0l4.23-2.442A16.945,16.945,0,0,0,53.442,33.6V28.714a2.246,2.246,0,0,0-1.12-1.94ZM37.429,6.667a.419.419,0,0,1-.419-.419v-3.7l4.118,4.118ZM51.949,33.6a15.448,15.448,0,0,1-7.7,13.341l-4.23,2.442a.749.749,0,0,1-.747,0L35.04,46.94a15.449,15.449,0,0,1-7.7-13.341V28.714a.749.749,0,0,1,.373-.647L39.27,21.394a.749.749,0,0,1,.747,0l11.559,6.674a.749.749,0,0,1,.373.647V33.6Z" transform="translate(-3.082 0)"/>
        <path id="Trazado_894067" data-name="Trazado 894067" d="M159.165,58.841h-4.248a1.246,1.246,0,0,0-1.244,1.244v3.708h-3.708a1.246,1.246,0,0,0-1.244,1.244v4.248a1.246,1.246,0,0,0,1.244,1.244h3.708v3.708a1.246,1.246,0,0,0,1.244,1.244h4.248a1.246,1.246,0,0,0,1.244-1.244V70.53h3.708a1.246,1.246,0,0,0,1.244-1.244V65.038a1.246,1.246,0,0,0-1.244-1.244h-3.708V60.085A1.246,1.246,0,0,0,159.165,58.841Zm4.7,6.446v3.75H160.16a1.246,1.246,0,0,0-1.244,1.244v3.708h-3.75V70.281a1.246,1.246,0,0,0-1.244-1.244h-3.708v-3.75h3.708a1.246,1.246,0,0,0,1.244-1.244V60.334h3.75v3.708a1.246,1.246,0,0,0,1.244,1.244Z" transform="translate(-134.22 -52.983)"/>
        <path id="Trazado_894068" data-name="Trazado 894068" d="M296.1,255.993l-3.6-2.078a.747.747,0,1,0-.747,1.293l3.475,2.006v2.631a10.785,10.785,0,0,1-5.378,9.314l-2.278,1.315-2.278-1.315a10.785,10.785,0,0,1-5.378-9.314v-2.631l7.656-4.42,1.155.667a.747.747,0,0,0,.747-1.293l-1.28-.739a1.247,1.247,0,0,0-1.245,0l-7.9,4.564a1.248,1.248,0,0,0-.622,1.078v2.774a12.282,12.282,0,0,0,6.124,10.607l2.4,1.387a1.248,1.248,0,0,0,1.244,0l2.4-1.387a12.282,12.282,0,0,0,6.124-10.607v-2.774A1.249,1.249,0,0,0,296.1,255.993Z" transform="translate(-251.008 -226.247)"/>
      </g>
    </g>
  </g>
</svg>
