<svg xmlns="http://www.w3.org/2000/svg" width="94" height="94" viewBox="0 0 94 94">
  <g id="Grupo_1111304" data-name="Grupo 1111304" transform="translate(-1 -1)">
    <g id="Grupo_1111303" data-name="Grupo 1111303" transform="translate(2.516 2.516)">
      <g id="Grupo_1111281" data-name="Grupo 1111281" transform="translate(30.323 45.484)">
        <path id="Trazado_894030" data-name="Trazado 894030" d="M28.065,32,31.1,47.161l-4.548,6.065L22,47.161,25.032,32Z" transform="translate(-22 -32)" fill="#ff826e"/>
      </g>
      <g id="Grupo_1111282" data-name="Grupo 1111282" transform="translate(31.005 37.903)">
        <path id="Trazado_894031" data-name="Trazado 894031" d="M30.182,29.9l-2.35,4.685H24.8L22.45,29.9,26.316,27Z" transform="translate(-22.45 -27)" fill="#fc6e51"/>
      </g>
      <g id="Grupo_1111283" data-name="Grupo 1111283" transform="translate(16.435 34.704)">
        <path id="Trazado_894032" data-name="Trazado 894032" d="M50.986,50.831V56.9H40.373a1.521,1.521,0,0,0-1.516,1.516V62.96H20.663V34.154a1.521,1.521,0,0,0-1.516-1.516H12.84a15.092,15.092,0,0,1,7.717-7.747l4.655,7.747,2.2-1.653,2.35,4.685L26.728,50.831,31.276,56.9l4.548-6.065L32.792,35.67l2.35-4.685,2.2,1.653L42,24.89a15.017,15.017,0,0,1,5.958,4.745V49.315a1.521,1.521,0,0,0,1.516,1.516Z" transform="translate(-12.84 -24.89)" fill="#b4dd7f"/>
      </g>
      <g id="Grupo_1111284" data-name="Grupo 1111284" transform="translate(34.871 33.355)">
        <path id="Trazado_894033" data-name="Trazado 894033" d="M35.719,25.349,31.065,33.1l-2.2-1.653L25,28.548,31.065,24l1.774.394A15.287,15.287,0,0,1,35.719,25.349Z" transform="translate(-25 -24)" fill="#a0d468"/>
      </g>
      <g id="Grupo_1111285" data-name="Grupo 1111285" transform="translate(24.152 33.355)">
        <path id="Trazado_894034" data-name="Trazado 894034" d="M28.649,28.548l-3.866,2.9-2.2,1.653L17.93,25.349a15.287,15.287,0,0,1,2.881-.955L22.585,24Z" transform="translate(-17.93 -24)" fill="#a0d468"/>
      </g>
      <g id="Grupo_1111286" data-name="Grupo 1111286" transform="translate(42.452 66.71)">
        <path id="Trazado_894035" data-name="Trazado 894035" d="M53.182,46l-.44,6.065H30V47.516A1.521,1.521,0,0,1,31.516,46H53.182Z" transform="translate(-30 -46)" fill="#969faa"/>
      </g>
      <g id="Grupo_1111287" data-name="Grupo 1111287" transform="translate(65.194 51.548)">
        <path id="Trazado_894036" data-name="Trazado 894036" d="M56.265,45.1l.864,12.129H45l.44-6.065.425-6.065.455-6.277A3.019,3.019,0,0,1,49.336,36h3.457a3.019,3.019,0,0,1,3.017,2.82Z" transform="translate(-45 -36)" fill="#aab2bd"/>
      </g>
      <g id="Grupo_1111288" data-name="Grupo 1111288" transform="translate(51.548 33.355)">
        <path id="Trazado_894037" data-name="Trazado 894037" d="M75.419,25.516V49.774A1.521,1.521,0,0,1,73.9,51.29H60.91l-.455-6.277a3.019,3.019,0,0,0-3.017-2.82H53.981a3.019,3.019,0,0,0-3.017,2.82l-.455,6.277H37.516A1.521,1.521,0,0,1,36,49.774V25.516A1.521,1.521,0,0,1,37.516,24H73.9A1.521,1.521,0,0,1,75.419,25.516Z" transform="translate(-36 -24)" fill="#ccd1d9"/>
      </g>
      <g id="Grupo_1111289" data-name="Grupo 1111289" transform="translate(3.032 78.839)">
        <path id="Trazado_894038" data-name="Trazado 894038" d="M4,54H88.9V66.129H4Z" transform="translate(-4 -54)" fill="#d3a06c"/>
      </g>
      <g id="Grupo_1111290" data-name="Grupo 1111290" transform="translate(0 72.774)">
        <path id="Trazado_894039" data-name="Trazado 894039" d="M92.968,51.516v3.032a1.521,1.521,0,0,1-1.516,1.516H3.516A1.521,1.521,0,0,1,2,54.548V51.516A1.521,1.521,0,0,1,3.516,50H91.452A1.521,1.521,0,0,1,92.968,51.516Z" transform="translate(-2 -50)" fill="#b27946"/>
      </g>
      <g id="Grupo_1111291" data-name="Grupo 1111291" transform="translate(4.548 54.581)">
        <path id="Trazado_894040" data-name="Trazado 894040" d="M14.1,38,9.548,44.065,5,38Z" transform="translate(-5 -38)" fill="#fcd770"/>
      </g>
      <g id="Grupo_1111292" data-name="Grupo 1111292" transform="translate(3.032 66.71)">
        <path id="Trazado_894041" data-name="Trazado 894041" d="M4,46H25.226v6.065H4Z" transform="translate(-4 -46)" fill="#e6e9ed"/>
      </g>
      <g id="Grupo_1111293" data-name="Grupo 1111293" transform="translate(3.032 60.645)">
        <path id="Trazado_894042" data-name="Trazado 894042" d="M25.226,42v6.065H4V42H25.226Z" transform="translate(-4 -42)" fill="#ffeaa7"/>
      </g>
      <g id="Grupo_1111294" data-name="Grupo 1111294" transform="translate(3.032 48.516)">
        <path id="Trazado_894043" data-name="Trazado 894043" d="M25.226,34v6.065H4V34Z" transform="translate(-4 -34)" fill="#ffeaa7"/>
      </g>
      <g id="Grupo_1111295" data-name="Grupo 1111295" transform="translate(3.032 54.581)">
        <path id="Trazado_894044" data-name="Trazado 894044" d="M5.516,38l4.548,6.065H4V38Z" transform="translate(-4 -38)" fill="#e6e9ed"/>
      </g>
      <g id="Grupo_1111296" data-name="Grupo 1111296" transform="translate(9.097 54.581)">
        <path id="Trazado_894045" data-name="Trazado 894045" d="M23.161,38v6.065H8L12.548,38Z" transform="translate(-8 -38)" fill="#e6e9ed"/>
      </g>
      <g id="Grupo_1111297" data-name="Grupo 1111297" transform="translate(3.032 42.452)">
        <path id="Trazado_894046" data-name="Trazado 894046" d="M25.226,31.516v4.548H4V31.516A1.521,1.521,0,0,1,5.516,30H23.71A1.521,1.521,0,0,1,25.226,31.516Z" transform="translate(-4 -30)" fill="#e6e9ed"/>
      </g>
      <g id="Grupo_1111298" data-name="Grupo 1111298" transform="translate(21.226)">
        <path id="Trazado_894047" data-name="Trazado 894047" d="M38.742,18.677a16.077,16.077,0,0,1-8.854-2.653,15.77,15.77,0,0,1-3.411-3.017,9.634,9.634,0,0,1-5.928,5.67H19.032a2.965,2.965,0,0,0-1.759.561l-.985-3.987A8.909,8.909,0,0,1,16,12.977a5.478,5.478,0,0,1,3.032-4.912l.94-1.88A7.576,7.576,0,0,1,26.749,2h4.806A11.744,11.744,0,0,1,43.29,13.735a11.422,11.422,0,0,1-.606,3.715l-.606,1.835a3.05,3.05,0,0,0-1.819-.606Z" transform="translate(-16 -2)" fill="#656d78"/>
      </g>
      <g id="Grupo_1111299" data-name="Grupo 1111299" transform="translate(43.21 16.677)">
        <path id="Trazado_894048" data-name="Trazado 894048" d="M34.594,13.606a3.073,3.073,0,0,1,1.213,2.426,3.054,3.054,0,0,1-3.032,3.032H30.5L31.258,13h1.516A3.05,3.05,0,0,1,34.594,13.606Z" transform="translate(-30.5 -13)" fill="#f0d0b4"/>
      </g>
      <g id="Grupo_1111300" data-name="Grupo 1111300" transform="translate(28.806 28.609)">
        <path id="Trazado_894049" data-name="Trazado 894049" d="M31.946,20.87l1.183,4.745-6.065,4.548L21,25.615l1.183-4.745a4.278,4.278,0,0,0,1.319.2h7.126a4.278,4.278,0,0,0,1.319-.2Z" transform="translate(-21 -20.87)" fill="#f0d0b4"/>
      </g>
      <g id="Grupo_1111301" data-name="Grupo 1111301" transform="translate(25.774 11.007)">
        <path id="Trazado_894050" data-name="Trazado 894050" d="M37.194,14.93l-.758,6.065-.258,2.077a4.564,4.564,0,0,1-3.2,3.79,4.278,4.278,0,0,1-1.319.2H24.534a4.278,4.278,0,0,1-1.319-.2,4.564,4.564,0,0,1-3.2-3.79l-.258-2.077L19,14.93a9.634,9.634,0,0,0,5.928-5.67,15.77,15.77,0,0,0,3.411,3.017,16.077,16.077,0,0,0,8.854,2.653Z" transform="translate(-19 -9.26)" fill="#f0d0b4"/>
      </g>
      <g id="Grupo_1111302" data-name="Grupo 1111302" transform="translate(21.226 16.677)">
        <path id="Trazado_894051" data-name="Trazado 894051" d="M20.548,13l.758,6.065H19.032A3.054,3.054,0,0,1,16,16.032a3.044,3.044,0,0,1,1.274-2.471A2.965,2.965,0,0,1,19.032,13Z" transform="translate(-16 -13)" fill="#f0d0b4"/>
      </g>
    </g>
    <path id="Trazado_894052" data-name="Trazado 894052" d="M91.968,64.677A3.035,3.035,0,0,0,95,61.645V37.387a3.035,3.035,0,0,0-3.032-3.032H55.581a3.035,3.035,0,0,0-3.032,3.032v.834a16.649,16.649,0,0,0-7-3.436l-.857-.191-.653-2.611a6.057,6.057,0,0,0,2.928-4.457l.092-.752H48a4.554,4.554,0,0,0,4.548-4.548,4.5,4.5,0,0,0-1-2.812l.32-.964A13.252,13.252,0,0,0,39.293,1h-4.8a9.045,9.045,0,0,0-8.136,5.029L25.63,7.48a6.959,6.959,0,0,0-3.4,6.007,10.863,10.863,0,0,0,.327,2.65l.785,3.143a4.5,4.5,0,0,0-1.113,2.946,4.554,4.554,0,0,0,4.548,4.548h.937l.094.752a6.057,6.057,0,0,0,2.928,4.457l-.653,2.611-.857.191a16.718,16.718,0,0,0-11.188,8.666H7.065a3.035,3.035,0,0,0-3.032,3.032v27.29A3.035,3.035,0,0,0,1,76.806v3.032a3.035,3.035,0,0,0,3.032,3.032V95H91.968V82.871A3.035,3.035,0,0,0,95,79.839V76.806a3.035,3.035,0,0,0-3.032-3.032H81.25l-.649-9.1ZM55.581,37.387H91.968V61.645H80.383l-.349-4.873A4.563,4.563,0,0,0,75.5,52.548H72.05a4.566,4.566,0,0,0-4.536,4.224l-.349,4.873H55.581Zm-9.1,36.387V70.742H66.515L66.3,73.774Zm20.465-9.1-.217,3.032H58.613V64.677ZM44.895,37.745c.326.073.647.165.966.261l-2.844,4.741-3.1-2.327L43.8,37.5ZM37.114,49.516h.546l2.655,13.278-2.928,3.9-2.929-3.906Zm.852-3.032H36.808l-1.358-2.717,1.938-1.452,1.938,1.452ZM48,23.742h-.556l.379-3.032H48a1.516,1.516,0,1,1,0,3.032Zm-21.226,0a1.516,1.516,0,0,1,0-3.032h.177l.379,3.032Zm1.211-6.065H26.774a4.547,4.547,0,0,0-.694.07L25.495,15.4a7.91,7.91,0,0,1-.237-1.913,3.947,3.947,0,0,1,2.194-3.549l.452-.226,1.164-2.327a6.026,6.026,0,0,1,5.423-3.352h4.8A10.235,10.235,0,0,1,49.516,14.257a10.132,10.132,0,0,1-.526,3.232l-.092.279a4.607,4.607,0,0,0-.7-.071l0-.02H46.883a12.258,12.258,0,0,1-6.307-8.463l-.186-.931-2.972.594.186.932a15.316,15.316,0,0,0,3.138,6.662,14.536,14.536,0,0,1-7.659-7.631l-.367-.858L29.929,9.176l.367.858a17.638,17.638,0,0,0,2.16,3.716,8.025,8.025,0,0,1-4.471,3.927ZM34.6,16.1a17.583,17.583,0,0,0,10.175,4.524l-.816,6.522a3.037,3.037,0,0,1-3.008,2.658h-7.13a3.036,3.036,0,0,1-3.008-2.656l-.873-6.982A11.058,11.058,0,0,0,34.6,16.1Zm-.781,16.737h7.13c.059,0,.115-.015.174-.017l.609,2.439-4.348,3.263-4.35-3.261.609-2.439C33.706,32.824,33.762,32.839,33.821,32.839Zm-3.942,4.906,1.093-.243,3.889,2.917-3.1,2.327-2.837-4.727c.318-.1.632-.2.958-.274ZM26.11,39.226l4.777,7.963,2.1-1.572,1.3,2.6L31.221,63.528l6.166,8.225,6.168-8.223L40.492,48.215l1.3-2.6,2.1,1.572,4.785-7.976a13.641,13.641,0,0,1,3.877,3.3V61.645a3.035,3.035,0,0,0,3.032,3.032V67.71h-9.1a3.035,3.035,0,0,0-3.032,3.032v3.032H28.29V46.484a3.035,3.035,0,0,0-3.032-3.032H21.545A13.711,13.711,0,0,1,26.11,39.226Zm-.852,22.419H14.645l2.274-3.032h8.339ZM11.613,60.634,10.1,58.613h3.032Zm13.645-5.053H7.065V52.548H25.258ZM8.581,61.645H7.065V59.624Zm16.677,3.032V67.71H7.065V64.677Zm0-18.194v3.032H7.065V46.484ZM7.065,70.742H25.258v3.032H7.065ZM88.935,91.968H7.065v-9.1H88.935Zm3.034-12.129H4.032V76.806H91.968ZM69.338,73.774l1.2-16.785a1.521,1.521,0,0,1,1.512-1.408H75.5a1.523,1.523,0,0,1,1.513,1.408l1.2,16.785Z" transform="translate(0 0)"/>
  </g>
</svg>
