<svg xmlns="http://www.w3.org/2000/svg" width="95.735" height="95.735" viewBox="0 0 95.735 95.735">
  <g id="Grupo_1111418" data-name="Grupo 1111418" transform="translate(-1 -1)">
    <g id="Grupo_1111416" data-name="Grupo 1111416" transform="translate(2.544 2.544)">
      <g id="Grupo_1111400" data-name="Grupo 1111400" transform="translate(21.618 74.118)">
        <path id="Trazado_894182" data-name="Trazado 894182" d="M69.426,50a9.512,9.512,0,0,1-1.729.726l-16.97,5.219a5.2,5.2,0,0,1-1.544.232h-.108A5.279,5.279,0,0,1,43.794,50.9a5.682,5.682,0,0,1,.077-.9H16v9.944a7.335,7.335,0,0,1,2.193,1.513l.015.015,1.729-2.3a7.467,7.467,0,0,1,5.976-3H38.143a6.183,6.183,0,0,1,4.37,1.807l3.459,3.459a3.1,3.1,0,0,0,2.193.911h9.527a3.1,3.1,0,0,1,3.088,3.088,3.111,3.111,0,0,1-3.088,3.088H87.029V50Z" transform="translate(-16 -50)" fill="#cf9e76"/>
      </g>
      <g id="Grupo_1111401" data-name="Grupo 1111401" transform="translate(40.147 61.765)">
        <path id="Trazado_894183" data-name="Trazado 894183" d="M34.176,42v6.176H28V42Z" transform="translate(-28 -42)" fill="#ccd1d9"/>
      </g>
      <g id="Grupo_1111402" data-name="Grupo 1111402" transform="translate(0 49.412)">
        <path id="Trazado_894184" data-name="Trazado 894184" d="M45.235,34a6.175,6.175,0,0,1,6.176,6.176v3.088a3.1,3.1,0,0,1-3.088,3.088H40.34a3.1,3.1,0,0,1-2.193-.911l-2.177-2.177H26.706a3.1,3.1,0,0,0-3.088,3.088v22.3a7.341,7.341,0,0,0-3.1-.679,7.487,7.487,0,0,0-6.686,4.138l-2.563,5.126H2V40.176A6.175,6.175,0,0,1,8.176,34H45.235Z" transform="translate(-2 -34)" fill="#ccd1d9"/>
      </g>
      <g id="Grupo_1111403" data-name="Grupo 1111403" transform="translate(6.176 55.588)">
        <ellipse id="Elipse_12067" data-name="Elipse 12067" cx="4.5" cy="5" rx="4.5" ry="5" transform="translate(0.147 -0.265)" fill="#fcd770"/>
      </g>
      <g id="Grupo_1111404" data-name="Grupo 1111404" transform="translate(6.176 71.029)">
        <circle id="Elipse_12068" data-name="Elipse 12068" cx="4.5" cy="4.5" r="4.5" transform="translate(0.147 0.294)" fill="#fcd770"/>
      </g>
      <g id="Grupo_1111405" data-name="Grupo 1111405" transform="translate(9.265 83.382)">
        <path id="Trazado_894185" data-name="Trazado 894185" d="M22.561,58.208l7.057,7.057H8l2.563-5.126A7.487,7.487,0,0,1,17.249,56a7.565,7.565,0,0,1,5.3,2.193Z" transform="translate(-8 -56)" fill="#fc6e51"/>
      </g>
      <g id="Grupo_1111406" data-name="Grupo 1111406" transform="translate(23.826 80.294)">
        <path id="Trazado_894186" data-name="Trazado 894186" d="M56.913,60.176A3.1,3.1,0,0,1,60,63.265a3.111,3.111,0,0,1-3.088,3.088H24.487L17.43,59.3,19.159,57a7.467,7.467,0,0,1,5.976-3H37.365a6.183,6.183,0,0,1,4.37,1.807l3.459,3.459a3.1,3.1,0,0,0,2.193.911Z" transform="translate(-17.43 -54)" fill="#ff826e"/>
      </g>
      <g id="Grupo_1111407" data-name="Grupo 1111407" transform="translate(71.029 54.044)">
        <path id="Trazado_894187" data-name="Trazado 894187" d="M57.265,37v6.176H48V37Z" transform="translate(-48 -37)" fill="#ffc729"/>
      </g>
      <g id="Grupo_1111408" data-name="Grupo 1111408" transform="translate(71.029 40.147)">
        <path id="Trazado_894188" data-name="Trazado 894188" d="M57.265,37.388V41.9H48V28l1.529.247A9.28,9.28,0,0,1,57.265,37.388Z" transform="translate(-48 -28)" fill="#fcd770"/>
      </g>
      <g id="Grupo_1111409" data-name="Grupo 1111409" transform="translate(33.971 40.147)">
        <path id="Trazado_894189" data-name="Trazado 894189" d="M33.265,28v9.265H24a9.276,9.276,0,0,1,7.736-9.018Z" transform="translate(-24 -28)" fill="#fcd770"/>
      </g>
      <g id="Grupo_1111410" data-name="Grupo 1111410" transform="translate(43.235 38.495)">
        <path id="Trazado_894190" data-name="Trazado 894190" d="M57.794,48.656v4.632l-17.788,5.08a5.285,5.285,0,0,0-3.752,4.185H30V56.376h3.088V50.2a3.1,3.1,0,0,0,3.088-3.088V44.023A6.175,6.175,0,0,0,30,37.847V28.582l1.544-.263,2.563-.417a6.286,6.286,0,0,0,2.44-.973l.4,3.243a7,7,0,0,0,13.9,0l.4-3.243a6.286,6.286,0,0,0,2.44.973l2.563.417,1.544.263V48.656Z" transform="translate(-30 -26.93)" fill="#fcd770"/>
      </g>
      <g id="Grupo_1111411" data-name="Grupo 1111411" transform="translate(35.515 0)">
        <path id="Trazado_894191" data-name="Trazado 894191" d="M53.968,40.495a6.2,6.2,0,0,1-2.718-5.126V33.5a10.5,10.5,0,0,0,6.176-9.558V20.715a3.275,3.275,0,0,0-3.274-3.274H47.976a3.272,3.272,0,0,1-2.316-.957l-2.131-2.131L41.4,16.484a3.272,3.272,0,0,1-2.316.957,3.275,3.275,0,0,0-3.274,3.274v2.9a10.814,10.814,0,0,0,6.176,9.759v1.992a6.2,6.2,0,0,1-2.718,5.126,6.286,6.286,0,0,1-2.44.973l-2.563.417-1.436-.232A9.719,9.719,0,0,1,25,34.426a15.8,15.8,0,0,0,4.632-11.179V18.985a16.985,16.985,0,1,1,33.971,0v4.262a15.827,15.827,0,0,0,4.632,11.179,9.718,9.718,0,0,1-7.829,7.226l-1.436.232-2.563-.417A6.286,6.286,0,0,1,53.968,40.495Z" transform="translate(-25 -2)" fill="#656d78"/>
      </g>
      <g id="Grupo_1111412" data-name="Grupo 1111412" transform="translate(49.412 60.221)">
        <path id="Trazado_894192" data-name="Trazado 894192" d="M55.618,45.632V41h9.265v5.173a9.863,9.863,0,0,1-5.25,8.724,9.512,9.512,0,0,1-1.729.726l-16.97,5.219a5.2,5.2,0,0,1-1.544.232h-.108A5.279,5.279,0,0,1,34,55.793a5.682,5.682,0,0,1,.077-.9,5.285,5.285,0,0,1,3.752-4.185Z" transform="translate(-34 -41)" fill="#f0d0b4"/>
      </g>
      <g id="Grupo_1111413" data-name="Grupo 1111413" transform="translate(33.971 58.677)">
        <path id="Trazado_894193" data-name="Trazado 894193" d="M28.37,43.088h1.807v6.176h3.088v6.176H24V40l2.177,2.177A3.1,3.1,0,0,0,28.37,43.088Z" transform="translate(-24 -40)" fill="#f0d0b4"/>
      </g>
      <g id="Grupo_1111414" data-name="Grupo 1111414" transform="translate(49.782 31.376)">
        <path id="Trazado_894194" data-name="Trazado 894194" d="M48.94,29.438l-.4,3.243a7,7,0,0,1-13.9,0l-.4-3.243a6.2,6.2,0,0,0,2.718-5.126V22.32a10.771,10.771,0,0,0,4.679,1.05h.278a10.323,10.323,0,0,0,4.308-.926v1.868A6.2,6.2,0,0,0,48.94,29.438Z" transform="translate(-34.24 -22.32)" fill="#f0d0b4"/>
      </g>
      <g id="Grupo_1111415" data-name="Grupo 1111415" transform="translate(46.324 12.353)">
        <path id="Trazado_894195" data-name="Trazado 894195" d="M53.618,16.362v3.227a10.5,10.5,0,0,1-6.176,9.558,10.323,10.323,0,0,1-4.308.926h-.278A10.828,10.828,0,0,1,32,19.265v-2.9a3.275,3.275,0,0,1,3.274-3.274,3.272,3.272,0,0,0,2.316-.957L39.721,10l2.131,2.131a3.272,3.272,0,0,0,2.316.957h6.176A3.275,3.275,0,0,1,53.618,16.362Z" transform="translate(-32 -10)" fill="#f0d0b4"/>
      </g>
    </g>
    <g id="Grupo_1111417" data-name="Grupo 1111417" transform="translate(1 1)">
      <path id="Trazado_894196" data-name="Trazado 894196" d="M81.841,75.118a11.336,11.336,0,0,0,2.542-7.183V52.084a10.761,10.761,0,0,0-6.57-9.936,11.223,11.223,0,0,0,4.978-6.8L83,34.5l-.618-.618a14.184,14.184,0,0,1-4.18-10.094V19.529a18.529,18.529,0,0,0-37.059,0v4.257a14.178,14.178,0,0,1-4.18,10.092l-.618.618.213.848a11.228,11.228,0,0,0,5.011,6.82,10.753,10.753,0,0,0-6.444,8.247H8.721A7.729,7.729,0,0,0,1,58.132v38.6H96.735V75.118Zm-30.956,0H47.324V72.029h3.088V65.569A4.626,4.626,0,0,0,53.5,61.221V58.132a7.735,7.735,0,0,0-6.176-7.565V44l2.812-.469a7.856,7.856,0,0,0,.919-.238l.148,1.183a8.54,8.54,0,0,0,16.948,0l.148-1.183a7.487,7.487,0,0,0,.919.238L72.029,44V66.233L55.362,70.995A6.842,6.842,0,0,0,50.884,75.118Zm-6.649,6.176H34.078A9.071,9.071,0,0,0,26.859,84.9l-.76,1.013c-.128-.086-.261-.161-.394-.241V78.206H44.235ZM25.261,89.209,29.7,93.647H14.307l1.448-2.9a5.935,5.935,0,0,1,9.506-1.543Zm9.709-14.092H25.706V64.309a1.546,1.546,0,0,1,1.544-1.544h7.721Zm3.088,0V64.868a4.574,4.574,0,0,0,2.823.985h.266v6.176h3.088v3.088Zm6.176-6.176V65.853h3.088v3.088ZM55.551,18.118l1.038-1.038,1.038,1.038a4.851,4.851,0,0,0,3.408,1.411H67.21a1.733,1.733,0,0,1,1.731,1.731v3.224A8.952,8.952,0,0,1,60,33.426h-.272a9.3,9.3,0,0,1-9.317-9.268v-2.9a1.732,1.732,0,0,1,1.731-1.728A4.852,4.852,0,0,0,55.551,18.118Zm4.178,18.4H60a11.936,11.936,0,0,0,2.787-.34,7.676,7.676,0,0,0,2.6,5.526l-.3,2.39a5.453,5.453,0,0,1-10.821,0l-.3-2.39a7.672,7.672,0,0,0,2.6-5.608,12.4,12.4,0,0,0,3.158.422ZM75.118,58.132h6.176v3.088H75.118ZM56.21,73.964l16.914-4.833,2.446,2.446,2.183-2.183-2.636-2.636V64.309h6.176v3.626a8.288,8.288,0,0,1-2.443,5.9A8.377,8.377,0,0,1,75.4,75.908l-16.97,5.221a3.9,3.9,0,0,1-1.2.165,3.737,3.737,0,0,1-1.027-7.33Zm25.084-21.88v2.96H75.118V44.54A7.682,7.682,0,0,1,81.294,52.084Zm-41.5-16.7a17.24,17.24,0,0,0,4.439-11.6V19.529a15.441,15.441,0,0,1,30.882,0v4.257a17.236,17.236,0,0,0,4.439,11.595,8.166,8.166,0,0,1-6.34,5.289l-1.187.2-2.3-.384a4.617,4.617,0,0,1-3.873-4.569v-.928a12.036,12.036,0,0,0,6.176-10.5V21.26a4.825,4.825,0,0,0-4.819-4.819H61.034a1.749,1.749,0,0,1-1.224-.506l-1.677-1.677V8.721H55.044v5.537l-1.677,1.677a1.749,1.749,0,0,1-1.224.506,4.823,4.823,0,0,0-4.819,4.816v2.9A12.344,12.344,0,0,0,53.5,34.827v1.089a4.618,4.618,0,0,1-3.871,4.569l-2.3.384-1.187-.2A8.166,8.166,0,0,1,39.8,35.383Zm4.439,9.157v5.872H38.256A7.691,7.691,0,0,1,44.235,44.54ZM4.088,58.132A4.638,4.638,0,0,1,8.721,53.5H45.779a4.638,4.638,0,0,1,4.632,4.632v3.088a1.546,1.546,0,0,1-1.544,1.544H40.881a1.556,1.556,0,0,1-1.092-.452l-2.636-2.636h-9.9a4.638,4.638,0,0,0-4.632,4.632V84.523a9.113,9.113,0,0,0-1.555-.141,8.976,8.976,0,0,0-8.071,4.987l-2.137,4.277H4.088ZM64.309,93.647H34.066l-5.659-5.659.923-1.231a5.964,5.964,0,0,1,4.748-2.375H46.309a4.6,4.6,0,0,1,3.277,1.356L53.048,89.2a4.6,4.6,0,0,0,3.275,1.357h9.53a1.544,1.544,0,0,1,0,3.088Zm29.338,0H70.2a4.58,4.58,0,0,0,.284-1.544,4.638,4.638,0,0,0-4.632-4.632h-9.53a1.556,1.556,0,0,1-1.092-.452l-3.462-3.463a7.631,7.631,0,0,0-4.446-2.162V78.206h3.155a6.885,6.885,0,0,0,8.868,5.874l16.967-5.219a11.281,11.281,0,0,0,1.617-.655H93.647Z" transform="translate(-1 -1)"/>
      <path id="Trazado_894197" data-name="Trazado 894197" d="M11.176,49.353A6.176,6.176,0,1,0,5,43.176,6.183,6.183,0,0,0,11.176,49.353Zm0-9.265a3.088,3.088,0,1,1-3.088,3.088A3.091,3.091,0,0,1,11.176,40.088Z" transform="translate(1.176 18.588)"/>
      <path id="Trazado_894198" data-name="Trazado 894198" d="M11.176,59.353A6.176,6.176,0,1,0,5,53.176,6.183,6.183,0,0,0,11.176,59.353Zm0-9.265a3.088,3.088,0,1,1-3.088,3.088A3.091,3.091,0,0,1,11.176,50.088Z" transform="translate(1.176 24.029)"/>
      <circle id="Elipse_12069" data-name="Elipse 12069" cx="1.5" cy="1.5" r="1.5" transform="translate(42.868 55.868)"/>
      <path id="Trazado_894199" data-name="Trazado 894199" d="M57,57h3.088v3.088H57Z" transform="translate(29.471 29.471)"/>
      <path id="Trazado_894200" data-name="Trazado 894200" d="M57,53h3.088v3.088H57Z" transform="translate(29.471 27.294)"/>
    </g>
  </g>
</svg>
