<svg id="Grupo_1111422" data-name="Grupo 1111422" xmlns="http://www.w3.org/2000/svg" width="101.494" height="101.493" viewBox="0 0 101.494 101.493">
  <path id="Trazado_894201" data-name="Trazado 894201" d="M135.83,318.869H84.977V279.882a6.78,6.78,0,0,1,6.78-6.78h37.292a6.78,6.78,0,0,1,6.78,6.78v38.987Z" transform="translate(-68.132 -218.965)" fill="#ecedef"/>
  <path id="Trazado_894202" data-name="Trazado 894202" d="M98.537,273.1h-6.78a6.78,6.78,0,0,0-6.78,6.78v38.987h6.78V279.882A6.781,6.781,0,0,1,98.537,273.1Z" transform="translate(-68.131 -218.965)" fill="#d9dcdf"/>
  <g id="Grupo_1111419" data-name="Grupo 1111419" transform="translate(15.15 10.064)">
    <circle id="Elipse_12070" data-name="Elipse 12070" cx="5.085" cy="5.085" r="5.085" transform="translate(44.072 20.341)" fill="#ffebc8"/>
    <circle id="Elipse_12071" data-name="Elipse 12071" cx="5.085" cy="5.085" r="5.085" transform="translate(0 20.341)" fill="#ffebc8"/>
    <circle id="Elipse_12072" data-name="Elipse 12072" cx="20.341" cy="20.341" r="20.341" transform="translate(6.78)" fill="#ffebc8"/>
  </g>
  <path id="Trazado_894203" data-name="Trazado 894203" d="M134.362,95.3A20.342,20.342,0,0,1,123.623,57.68a20.344,20.344,0,1,0,18.087,36.249A20.29,20.29,0,0,1,134.362,95.3Z" transform="translate(-88.701 -46.246)" fill="#ffd791"/>
  <path id="Trazado_894204" data-name="Trazado 894204" d="M96.691,42.221H72.96l1.7,6.78h-6.78S78.046,73.783,81.436,81.208V59.172h30.511V81.208c4.179-4.01,6.78-10.7,6.78-16.951A22.036,22.036,0,0,0,96.691,42.221Z" transform="translate(-54.42 -33.852)" fill="#68727e"/>
  <path id="Trazado_894205" data-name="Trazado 894205" d="M98.424,42.289q-.858-.067-1.732-.068H72.96l1.7,6.78h-6.78S78.046,73.783,81.436,81.208V70.7A20.349,20.349,0,0,1,98.424,42.289Z" transform="translate(-54.42 -33.852)" fill="#55606e"/>
  <g id="Grupo_1111420" data-name="Grupo 1111420" transform="translate(35.491 54.137)">
    <path id="Trazado_894206" data-name="Trazado 894206" d="M189.211,281.577h-6.78l-3.39-8.475H192.6Z" transform="translate(-179.04 -273.102)" fill="#509fe8"/>
    <path id="Trazado_894207" data-name="Trazado 894207" d="M192.6,344.675l-6.78,3.39-6.78-3.39,3.39-28.817h6.78Z" transform="translate(-179.04 -307.383)" fill="#509fe8"/>
  </g>
  <path id="Trazado_894208" data-name="Trazado 894208" d="M201.276,315.858H194.5l-.407,3.461h7.595Z" transform="translate(-155.614 -253.246)" fill="#4d8ccf"/>
  <circle id="Elipse_12073" data-name="Elipse 12073" cx="15.256" cy="15.256" r="15.256" transform="translate(67.698 1.589)" fill="#ff8c78"/>
  <circle id="Elipse_12074" data-name="Elipse 12074" cx="10.171" cy="10.171" r="10.171" transform="translate(72.783 6.674)" fill="#d9dcdf"/>
  <g id="Grupo_1111421" data-name="Grupo 1111421" transform="translate(76.173 10.064)">
    <circle id="Elipse_12075" data-name="Elipse 12075" cx="6.78" cy="6.78" r="6.78" fill="#f6f6f7"/>
    <path id="Trazado_894209" data-name="Trazado 894209" d="M423.557,67.8l-5.085-3.39V59.324" transform="translate(-411.692 -57.629)" fill="#f6f6f7"/>
  </g>
  <circle id="Elipse_12076" data-name="Elipse 12076" cx="15.256" cy="15.256" r="15.256" transform="translate(1.589 69.393)" fill="#ffc44f"/>
  <rect id="Rectángulo_405235" data-name="Rectángulo 405235" width="42.377" height="30.512" transform="translate(57.527 69.393)" fill="#68727e"/>
  <path id="Trazado_894210" data-name="Trazado 894210" d="M332.582,373.137v-5.972H290.2v5.687l21.189,9.569Z" transform="translate(-232.678 -294.382)" fill="#424f5e"/>
  <path id="Trazado_894211" data-name="Trazado 894211" d="M332.582,356.034v-5.971H290.2v5.687l21.189,9.569Z" transform="translate(-232.678 -280.67)" fill="#68727e"/>
  <rect id="Rectángulo_405236" data-name="Rectángulo 405236" width="8.475" height="6.78" transform="translate(74.478 81.258)" fill="#ffd791"/>
  <rect id="Rectángulo_405237" data-name="Rectángulo 405237" width="8.475" height="3.39" transform="translate(74.478 84.648)" fill="#ffc44f"/>
  <path id="Trazado_894212" data-name="Trazado 894212" d="M157.205,162.472h-1.7a1.589,1.589,0,1,0,0,3.178h1.7a1.589,1.589,0,1,0,0-3.178Z" transform="translate(-123.409 -130.265)"/>
  <path id="Trazado_894213" data-name="Trazado 894213" d="M251.267,162.472h-1.7a1.589,1.589,0,1,0,0,3.178h1.7a1.589,1.589,0,0,0,0-3.178Z" transform="translate(-198.826 -130.265)"/>
  <path id="Trazado_894214" data-name="Trazado 894214" d="M65.617,56.78a6.673,6.673,0,0,0,5.177,12.3c1.114,2.608,2.09,4.848,2.78,6.361a1.588,1.588,0,0,0,3.023-.475,21.913,21.913,0,0,0,27.359,0,1.586,1.586,0,0,0,2.676.962,22.443,22.443,0,0,0,4.552-6.434,6.675,6.675,0,0,0,2.673-13.072A23.655,23.655,0,0,0,90.276,34.205H66.544A1.6,1.6,0,0,0,65,36.18l1.2,4.806H61.459a1.6,1.6,0,0,0-1.47,2.193C60.04,43.3,62.629,49.608,65.617,56.78Zm2.623,9.632a3.5,3.5,0,0,1-1.4-6.7c.913,2.182,1.835,4.377,2.71,6.445A3.478,3.478,0,0,1,68.239,66.411ZM90.276,76.582a18.817,18.817,0,0,1-13.667-5.914V54.334h27.333V70.668A18.815,18.815,0,0,1,90.276,76.582Zm25.532-13.667a3.5,3.5,0,0,1-3.362,3.489,27.41,27.41,0,0,0,1.378-6.638A3.512,3.512,0,0,1,115.808,62.916ZM68.239,44.164a1.6,1.6,0,0,0,1.542-1.975l-1.2-4.806h21.7A20.47,20.47,0,0,1,110.722,57.83a23.908,23.908,0,0,1-3.6,12.475V52.745a1.589,1.589,0,0,0-1.589-1.589H75.02a1.589,1.589,0,0,0-1.589,1.589V67.163c-3.313-7.771-7.726-18.451-9.6-23h4.408Z" transform="translate(-48.004 -27.425)"/>
  <path id="Trazado_894215" data-name="Trazado 894215" d="M197.448,196.994a1.589,1.589,0,0,0-2.225.318,2.649,2.649,0,0,1-4.238,0,1.589,1.589,0,0,0-2.543,1.906,5.827,5.827,0,0,0,9.323,0A1.589,1.589,0,0,0,197.448,196.994Z" transform="translate(-150.833 -157.689)"/>
  <path id="Trazado_894216" data-name="Trazado 894216" d="M350.338,33.69A16.845,16.845,0,1,0,340.74,3a1.589,1.589,0,1,0,1.813,2.61,13.64,13.64,0,1,1-4.854,6.026,1.589,1.589,0,1,0-2.938-1.212A16.853,16.853,0,0,0,350.338,33.69Z" transform="translate(-267.385)"/>
  <path id="Trazado_894217" data-name="Trazado 894217" d="M370.908,49.172a11.76,11.76,0,1,0-11.76-11.76A11.773,11.773,0,0,0,370.908,49.172Zm0-20.341a8.581,8.581,0,1,1-8.581,8.581A8.591,8.591,0,0,1,370.908,28.831Z" transform="translate(-287.954 -20.568)"/>
  <path id="Trazado_894218" data-name="Trazado 894218" d="M411.162,59.3l5.085,3.39a1.589,1.589,0,1,0,1.763-2.645l-4.378-2.918V52.9a1.589,1.589,0,1,0-3.178,0v5.085A1.589,1.589,0,0,0,411.162,59.3Z" transform="translate(-329.09 -41.136)"/>
  <path id="Trazado_894219" data-name="Trazado 894219" d="M99.9,280.342H87.085v-1.8a4.985,4.985,0,0,0-4.979-4.979h-6.78a4.985,4.985,0,0,0-4.979,4.979v1.8H69.287v-6.886a8.379,8.379,0,0,0-8.369-8.369H23.625a8.379,8.379,0,0,0-8.369,8.369v6.963a16.844,16.844,0,0,0,1.589,33.613H37.186a1.589,1.589,0,0,0,0-3.178H26.675a16.835,16.835,0,0,0-8.241-30.435v-6.963a5.2,5.2,0,0,1,5.191-5.191h10.79l2.841,7.1-3.343,28.416a1.589,1.589,0,0,0,.868,1.607l6.78,3.39a1.6,1.6,0,0,0,1.421,0l6.78-3.39a1.589,1.589,0,0,0,.868-1.607l-3.343-28.416,2.841-7.1h10.79a5.2,5.2,0,0,1,5.191,5.191v6.886H57.527a1.589,1.589,0,0,0-1.589,1.589v28.922H45.591a1.589,1.589,0,0,0,0,3.178H99.9a1.589,1.589,0,0,0,1.589-1.589v-8.475a1.589,1.589,0,1,0-3.178,0v6.886h-39.2V290.079l13.773,6.22v4.278a1.589,1.589,0,0,0,1.589,1.589h8.475a1.589,1.589,0,0,0,1.589-1.589v-4.208l13.773-6.035v5.3a1.589,1.589,0,0,0,3.178,0v-13.7A1.589,1.589,0,0,0,99.9,280.342ZM30.512,297.187A13.667,13.667,0,1,1,16.845,283.52,13.682,13.682,0,0,1,30.512,297.187Zm11.76,8.394L37.2,303.045l3.095-26.305h3.954l3.095,26.3Zm2.314-32.019H39.957l-2.119-5.3H46.7Zm28.939,4.979a1.8,1.8,0,0,1,1.8-1.8h6.78a1.8,1.8,0,0,1,1.8,1.8v1.8H73.525v-1.8Zm7.84,20.447h-5.3v-3.6h5.3v3.6Zm2.959-5.993a1.587,1.587,0,0,0-1.37-.787H74.478a1.587,1.587,0,0,0-1.33.721l-14.031-6.337V283.52h39.2v3.344Z" transform="translate(0 -212.538)"/>
  <path id="Trazado_894220" data-name="Trazado 894220" d="M64.622,377.87a1.749,1.749,0,1,1,0-3.5h3.39a1.589,1.589,0,1,0,0-3.178H66.106v-1.907a1.589,1.589,0,1,0-3.178,0v2.063a4.989,4.989,0,0,0,1.669,9.7A1.861,1.861,0,0,1,66.41,382.9a1.838,1.838,0,0,1-1.788,1.854h-3.39a1.589,1.589,0,1,0,0,3.178h1.7v1.7a1.589,1.589,0,1,0,3.178,0v-2.063a4.845,4.845,0,0,0,3.443-4.718A4.94,4.94,0,0,0,64.622,377.87Z" transform="translate(-47.778 -294.81)"/>
</svg>
