<svg xmlns="http://www.w3.org/2000/svg" width="133" height="133" viewBox="0 0 133 133">
  <g id="Grupo_1111586" data-name="Grupo 1111586" transform="translate(-416 -1655.17)">
    <circle id="Elipse_11917" data-name="Elipse 11917" cx="66.5" cy="66.5" r="66.5" transform="translate(416 1655.17)" fill="#464bc7"/>
    <g id="reward-document-money-copywriting-editing-writing" transform="translate(444.5 1685.2)">
      <path id="Trazado_894221" data-name="Trazado 894221" d="M55.8,15V70.2H3V3H43.8V15Z" transform="translate(0.2 0.2)" fill="#f7d4aa"/>
      <circle id="Elipse_12077" data-name="Elipse 12077" cx="4.5" cy="4.5" r="4.5" transform="translate(13 11.8)" fill="#ec455a"/>
      <path id="Trazado_894222" data-name="Trazado 894222" d="M16.512,20.244a4.8,4.8,0,1,0-4.8-4.8A4.8,4.8,0,0,0,16.512,20.244ZM9.156,17.832c-.264-.816-1.716-1.476-1.716-2.388s1.452-1.572,1.716-2.388c.276-.852-.492-2.244.012-2.94.528-.72,2.088-.408,2.8-.924s.9-2.1,1.74-2.376c.816-.264,1.9.9,2.808.9s1.992-1.164,2.808-.9c.84.276,1.032,1.86,1.74,2.376s2.268.2,2.8.924c.5.7-.264,2.088.012,2.94.264.816,1.716,1.476,1.716,2.388s-1.452,1.572-1.716,2.388c-.276.852.492,2.244-.012,2.94-.528.72-2.088.408-2.8.924a4.536,4.536,0,0,0-.948,1.536,1.56,1.56,0,0,1-.792.84c-.816.264-1.9-.9-2.808-.9s-1.992,1.164-2.808.9a1.56,1.56,0,0,1-.792-.84,4.536,4.536,0,0,0-.948-1.536c-.708-.516-2.268-.2-2.8-.924-.5-.7.264-2.088-.012-2.94Z" transform="translate(1.088 0.956)" fill="#5bcbfa"/>
      <path id="Trazado_894223" data-name="Trazado 894223" d="M19.2,20.5v6.612l-3.6-2.4-3.6,2.4V20.5a1.56,1.56,0,0,0,.792.84c.816.264,1.9-.9,2.808-.9s1.992,1.164,2.808.9A1.56,1.56,0,0,0,19.2,20.5Z" transform="translate(2 3.688)" fill="#ec455a"/>
      <path id="Trazado_894224" data-name="Trazado 894224" d="M49,15H37V3Z" transform="translate(7 0.2)" fill="#ebac76"/>
      <path id="Trazado_894225" data-name="Trazado 894225" d="M23,33H68.6V59.4H23Z" transform="translate(4.2 6.2)" fill="#6fc991"/>
      <path id="Trazado_894226" data-name="Trazado 894226" d="M63,40.8v9.6a4.8,4.8,0,0,0-4.8,4.8H31.8A4.8,4.8,0,0,0,27,50.4V40.8A4.8,4.8,0,0,0,31.8,36H58.2A4.8,4.8,0,0,0,63,40.8Z" transform="translate(5 6.8)" fill="#a2dcb8"/>
      <ellipse id="Elipse_12078" data-name="Elipse 12078" cx="10" cy="9.5" rx="10" ry="9.5" transform="translate(40 42.8)" fill="#f8d251"/>
      <path id="Trazado_894227" data-name="Trazado 894227" d="M47.6,47.6A3.611,3.611,0,0,1,44,51.2v1.2H41.6V51.2A3.611,3.611,0,0,1,38,47.6h2.4a1.2,1.2,0,0,0,1.2,1.2H44a1.2,1.2,0,1,0,0-2.4H41.6a3.6,3.6,0,0,1,0-7.2V38H44v1.2a3.611,3.611,0,0,1,3.6,3.6H45.2A1.2,1.2,0,0,0,44,41.6H41.6a1.2,1.2,0,0,0,0,2.4H44a3.611,3.611,0,0,1,3.6,3.6Z" transform="translate(7.2 7.2)" fill="#ef8746"/>
      <path id="Trazado_894228" data-name="Trazado 894228" d="M55.6,30.6H52V21h3.6a4.8,4.8,0,1,1,0,9.6Z" transform="translate(10 3.8)" fill="#e9e9ea"/>
      <path id="Trazado_894229" data-name="Trazado 894229" d="M30.2,30.6,23,25.8,30.2,21l2.4,2.4-2.4,2.4,2.4,2.4Z" transform="translate(4.2 3.8)" fill="#365e7d"/>
      <path id="Trazado_894230" data-name="Trazado 894230" d="M51.8,30.6H29l2.4-2.4L29,25.8l2.4-2.4L29,21H51.8Z" transform="translate(5.4 3.8)" fill="#dd636e"/>
      <path id="Trazado_894231" data-name="Trazado 894231" d="M48,21h4.8v9.6H48Z" transform="translate(9.2 3.8)" fill="#365e7d"/>
      <path id="Trazado_894232" data-name="Trazado 894232" d="M25.3,19.178a4.31,4.31,0,0,1-.1-.76,3.545,3.545,0,0,1,.511-.546,3.182,3.182,0,0,0,1.274-2.232,3.182,3.182,0,0,0-1.272-2.232,4.52,4.52,0,0,1-.5-.518,3.463,3.463,0,0,1,.09-.786,3.092,3.092,0,0,0-.276-2.5A3.155,3.155,0,0,0,22.712,8.56a4.489,4.489,0,0,1-.742-.134,3.538,3.538,0,0,1-.373-.671,3.162,3.162,0,0,0-1.712-1.888,3.067,3.067,0,0,0-2.443.509,3.69,3.69,0,0,1-.72.335,3.452,3.452,0,0,1-.738-.335,3.077,3.077,0,0,0-2.443-.509,3.162,3.162,0,0,0-1.716,1.889,4.424,4.424,0,0,1-.35.654,3.6,3.6,0,0,1-.762.15A3.158,3.158,0,0,0,8.4,9.6a3.092,3.092,0,0,0-.276,2.5,4.31,4.31,0,0,1,.1.76,3.545,3.545,0,0,1-.511.546A3.182,3.182,0,0,0,6.44,15.64a3.182,3.182,0,0,0,1.272,2.232,4.52,4.52,0,0,1,.5.518,3.463,3.463,0,0,1-.09.786,3.092,3.092,0,0,0,.276,2.5,3.155,3.155,0,0,0,2.312,1.042,4.489,4.489,0,0,1,.742.134,3.538,3.538,0,0,1,.373.671c.026.055.06.12.088.175v6.34a1.2,1.2,0,0,0,1.866,1l2.932-1.958,2.934,1.956a1.2,1.2,0,0,0,1.866-1V23.7c.028-.058.061-.12.088-.175a4.424,4.424,0,0,1,.35-.654,3.6,3.6,0,0,1,.762-.15,3.158,3.158,0,0,0,2.309-1.039,3.092,3.092,0,0,0,.277-2.5Zm-7.92,7.464a1.2,1.2,0,0,0-1.332,0L14.312,27.8V25.5A4.218,4.218,0,0,0,15.98,24.9a3.69,3.69,0,0,1,.72-.335,3.452,3.452,0,0,1,.738.335,4.188,4.188,0,0,0,1.668.6v2.3Zm6.679-10.51a3.823,3.823,0,0,0-1.135,1.526,3.922,3.922,0,0,0,.016,1.946c.034.191.082.454.092.629-.174.044-.451.082-.636.107a3.893,3.893,0,0,0-1.842.58,3.86,3.86,0,0,0-1.114,1.567c-.089.184-.224.469-.272.588a6.044,6.044,0,0,1-.581-.288,3.971,3.971,0,0,0-1.873-.619,3.971,3.971,0,0,0-1.87.622c-.166.089-.394.212-.553.277a6.386,6.386,0,0,1-.3-.577,3.86,3.86,0,0,0-1.117-1.57,3.894,3.894,0,0,0-1.847-.582c-.2-.028-.515-.07-.637-.076a6.109,6.109,0,0,1,.095-.66,3.936,3.936,0,0,0,.016-1.946A3.823,3.823,0,0,0,9.363,16.13a5.922,5.922,0,0,1-.48-.492,5.922,5.922,0,0,1,.48-.492A3.823,3.823,0,0,0,10.5,13.62a3.922,3.922,0,0,0-.012-1.939c-.034-.191-.082-.454-.092-.629.174-.044.451-.082.636-.107a3.893,3.893,0,0,0,1.842-.584,3.86,3.86,0,0,0,1.114-1.567c.089-.184.224-.469.272-.588a6.043,6.043,0,0,1,.581.288,3.971,3.971,0,0,0,1.873.619,3.971,3.971,0,0,0,1.87-.622c.166-.089.394-.212.553-.277a6.386,6.386,0,0,1,.3.577,3.86,3.86,0,0,0,1.117,1.57,3.894,3.894,0,0,0,1.847.582c.2.028.515.07.637.076a6.109,6.109,0,0,1-.095.66,3.936,3.936,0,0,0-.016,1.946,3.823,3.823,0,0,0,1.135,1.526,5.922,5.922,0,0,1,.48.492,5.922,5.922,0,0,1-.484.49Z" transform="translate(0.888 0.76)"/>
      <path id="Trazado_894233" data-name="Trazado 894233" d="M16,9a6,6,0,1,0,6,6,6,6,0,0,0-6-6Zm0,9.6A3.6,3.6,0,1,1,19.6,15,3.6,3.6,0,0,1,16,18.6Z" transform="translate(1.6 1.4)"/>
      <path id="Trazado_894234" data-name="Trazado 894234" d="M10,34H22v2.4H10Z" transform="translate(1.6 6.4)"/>
      <path id="Trazado_894235" data-name="Trazado 894235" d="M6,38H22.8v2.4H6Z" transform="translate(0.8 7.2)"/>
      <path id="Trazado_894236" data-name="Trazado 894236" d="M6,42H22.8v2.4H6Z" transform="translate(0.8 8)"/>
      <path id="Trazado_894237" data-name="Trazado 894237" d="M6,46H22.8v2.4H6Z" transform="translate(0.8 8.8)"/>
      <path id="Trazado_894238" data-name="Trazado 894238" d="M63.2,39.8a3.611,3.611,0,0,1-3.6-3.6A1.2,1.2,0,0,0,58.4,35H32a1.2,1.2,0,0,0-1.2,1.2,3.611,3.611,0,0,1-3.6,3.6A1.2,1.2,0,0,0,26,41v9.6a1.2,1.2,0,0,0,1.2,1.2,3.611,3.611,0,0,1,3.6,3.6A1.2,1.2,0,0,0,32,56.6H58.4a1.2,1.2,0,0,0,1.2-1.2,3.611,3.611,0,0,1,3.6-3.6,1.2,1.2,0,0,0,1.2-1.2V41A1.2,1.2,0,0,0,63.2,39.8ZM33.08,54.2a6.012,6.012,0,0,0-4.68-4.68V42.08a6.012,6.012,0,0,0,4.68-4.68h5.352a10.766,10.766,0,0,0,0,16.8Zm12.12,0a8.4,8.4,0,1,1,8.4-8.4A8.4,8.4,0,0,1,45.2,54.2ZM62,49.52a6.012,6.012,0,0,0-4.68,4.68H51.968a10.766,10.766,0,0,0,0-16.8H57.32A6.012,6.012,0,0,0,62,42.08Z" transform="translate(4.8 6.6)"/>
      <path id="Trazado_894239" data-name="Trazado 894239" d="M72.8,38H57.2V35.6h8.4a6,6,0,1,0,0-12H57.2V15.2a1.24,1.24,0,0,0-.348-.852l-12-12A1.24,1.24,0,0,0,44,2H3.2A1.2,1.2,0,0,0,2,3.2V70.4a1.2,1.2,0,0,0,1.2,1.2H56a1.2,1.2,0,0,0,1.2-1.2V66.8H72.8A1.2,1.2,0,0,0,74,65.6V39.2A1.2,1.2,0,0,0,72.8,38ZM63.2,26h2.4a3.6,3.6,0,1,1,0,7.2H63.2Zm-4.8,0h2.4v7.2H58.4ZM37.652,31.148,36.092,29.6l1.56-1.548a1.21,1.21,0,0,0,0-1.7L37.292,26H56v7.2H37.292l.36-.348a1.21,1.21,0,0,0,0-1.7ZM45.2,6.092,53.108,14H45.2ZM54.8,69.2H4.4V4.4H42.8V15.2A1.2,1.2,0,0,0,44,16.4H54.8v7.2H34.4a1.16,1.16,0,0,0-.66.2l-7.2,4.8a1.188,1.188,0,0,0,0,1.992l7.2,4.8a1.16,1.16,0,0,0,.66.2H54.8V38H27.2A1.2,1.2,0,0,0,26,39.2V65.6a1.2,1.2,0,0,0,1.2,1.2H54.8ZM33.548,30.452,35.108,32l-.864.852L29.36,29.6l4.884-3.252.864.852-1.56,1.548a1.21,1.21,0,0,0,0,1.7ZM71.6,64.4H28.4v-24H71.6Z"/>
      <path id="Trazado_894240" data-name="Trazado 894240" d="M47.6,47.6A3.611,3.611,0,0,1,44,51.2v1.2H41.6V51.2A3.611,3.611,0,0,1,38,47.6h2.4a1.2,1.2,0,0,0,1.2,1.2H44a1.2,1.2,0,1,0,0-2.4H41.6a3.6,3.6,0,0,1,0-7.2V38H44v1.2a3.611,3.611,0,0,1,3.6,3.6H45.2A1.2,1.2,0,0,0,44,41.6H41.6a1.2,1.2,0,0,0,0,2.4H44a3.611,3.611,0,0,1,3.6,3.6Z" transform="translate(7.2 7.2)"/>
      <path id="Trazado_894241" data-name="Trazado 894241" d="M6,34H8.4v2.4H6Z" transform="translate(0.8 6.4)"/>
      <path id="Trazado_894242" data-name="Trazado 894242" d="M6,50H22.8v2.4H6Z" transform="translate(0.8 9.6)"/>
    </g>
  </g>
</svg>
