<svg xmlns="http://www.w3.org/2000/svg" width="85" height="85" viewBox="0 0 85 85">
  <g id="Grupo_1108714" data-name="Grupo 1108714" transform="translate(-704.73 -2846)">
    <path id="Trazado_874547" data-name="Trazado 874547" d="M42.5,0A42.5,42.5,0,1,1,0,42.5,42.5,42.5,0,0,1,42.5,0Z" transform="translate(704.73 2846)" fill="#8746f8"/>
    <g id="clasificacion" transform="translate(678.004 2857.762)">
      <path id="Trazado_873355" data-name="Trazado 873355" d="M103.88,411.564H72.619c1.121-9.747,5.373-13.194,6.2-13.779h18.86C98.507,398.37,102.759,401.817,103.88,411.564Z" transform="translate(-25.564 -349.795)" fill="#b9e4ef"/>
      <path id="Trazado_873356" data-name="Trazado 873356" d="M82.531,397.785c-.5.585-3.078,4.032-3.758,13.779H72.617c1.121-9.747,5.373-13.194,6.2-13.779Z" transform="translate(-25.562 -349.795)" fill="#7ad0df"/>
      <path id="Trazado_873357" data-name="Trazado 873357" d="M180.653,393.253H175.8l-.859-5.827h6.571Z" transform="translate(-115.541 -340.686)" fill="#ce4529"/>
      <path id="Trazado_873358" data-name="Trazado 873358" d="M84.635,101.787l-23.211.1-11.526.048c-.879-8.022-3.429-18.441,5.941-20.3a48.3,48.3,0,0,1,6.1-.835c12.2-.828,15.229,4.679,15.229,4.679a7.207,7.207,0,0,1,4.607-1.741,4.046,4.046,0,0,1,2.584,1.245C88.7,89.325,84.635,101.787,84.635,101.787Z" transform="translate(-4.716 -70.979)" fill="#aa593d"/>
      <path id="Trazado_873359" data-name="Trazado 873359" d="M278.315,105.67c-2.851,1.959-4.716,7.82-5.58,11.16-.845-3.4.188-7.149.973-9.419A7.208,7.208,0,0,1,278.315,105.67Z" transform="translate(-201.259 -92.909)" fill="#934d36"/>
      <path id="Trazado_873360" data-name="Trazado 873360" d="M60.139,93.858l1.285,8.646-11.526.049c-.879-8.022-3.429-18.441,5.941-20.3a48.3,48.3,0,0,1,6.1-.835,0,0,0,0,1,0,0C57.242,84.307,58.691,89.447,60.139,93.858Z" transform="translate(-4.716 -71.597)" fill="#934d36"/>
      <path id="Trazado_873361" data-name="Trazado 873361" d="M78.383,259.263h.022a3.418,3.418,0,0,0,0-6.836H46.965a3.418,3.418,0,0,0,0,6.836h.022" transform="translate(0 -221.974)" fill="#f1b986"/>
      <path id="Trazado_873362" data-name="Trazado 873362" d="M103.238,196.632q0,2.7-.138,5.4a8.747,8.747,0,0,1-8.332,8.293q-4.72.224-9.442.155h0q-2.541-.035-5.081-.155a8.749,8.749,0,0,1-8.332-8.293q-.246-4.81-.053-9.618h0c1.755-.65,2.8-2.671,3.419-4.918a4.511,4.511,0,0,1,4.965-3.276,4.453,4.453,0,0,1,2.341,1.076,7.472,7.472,0,0,0,9.842,0,4.439,4.439,0,0,1,2.947-1.117,4.5,4.5,0,0,1,4.36,3.317c.619,2.247,1.663,4.268,3.419,4.918Q103.24,194.524,103.238,196.632Z" transform="translate(-24.822 -161.959)" fill="#f1d0a5"/>
      <path id="Trazado_873363" data-name="Trazado 873363" d="M85.325,210.481q-2.541-.035-5.081-.155a8.749,8.749,0,0,1-8.332-8.293q-.246-4.81-.053-9.618h0c1.755-.65,2.8-2.671,3.419-4.918a4.511,4.511,0,0,1,4.965-3.276C78.635,198.591,80.244,210.323,85.325,210.481Z" transform="translate(-24.821 -161.959)" fill="#f1b986"/>
      <path id="Trazado_873364" data-name="Trazado 873364" d="M172.074,317.431a4.492,4.492,0,0,1-4.04-2.555.932.932,0,0,1,1.684-.8,2.607,2.607,0,0,0,4.711,0,.932.932,0,0,1,1.684.8A4.492,4.492,0,0,1,172.074,317.431Z" transform="translate(-109.388 -275.718)" fill="#df6b57"/>
      <ellipse id="Elipse_11503" data-name="Elipse 11503" cx="1.421" cy="2.116" rx="1.421" ry="2.116" transform="translate(53.988 30.555)" fill="#454045"/>
      <path id="Trazado_873365" data-name="Trazado 873365" d="M252.132,253.273c-.784,0-1.421.949-1.421,2.116s.638,2.116,1.421,2.116,1.421-.949,1.421-2.116S252.916,253.273,252.132,253.273Z" transform="translate(-182.17 -222.718)" fill="#454045"/>
      <path id="Trazado_873366" data-name="Trazado 873366" d="M175.8,435.729h4.853l.859,5.827-3.286,2.356-3.286-2.356Z" transform="translate(-115.541 -383.162)" fill="#df6b57"/>
      <path id="Trazado_873367" data-name="Trazado 873367" d="M272.368,462.835v5.112H270.5v-5.112a.932.932,0,1,1,1.864,0Z" transform="translate(-199.576 -406.178)" fill="#67c0c9"/>
      <path id="Trazado_873368" data-name="Trazado 873368" d="M120.264,462.835v5.112H118.4v-5.112a.932.932,0,0,1,1.864,0Z" transform="translate(-65.822 -406.178)" fill="#67c0c9"/>
      <circle id="Elipse_11504" data-name="Elipse 11504" cx="11.96" cy="11.96" r="11.96" transform="translate(70.889 0.001)" fill="#e49542"/>
      <path id="Trazado_873369" data-name="Trazado 873369" d="M283.252,23.868q-.552.052-1.116.052a11.96,11.96,0,1,1,0-23.921q.565,0,1.116.052a11.96,11.96,0,0,0,0,23.816Z" transform="translate(-199.286 0)" fill="#df751c"/>
      <path id="Trazado_873370" data-name="Trazado 873370" d="M317.017,37.469l1.325,2.684a1.211,1.211,0,0,0,.912.663l2.962.43a1.211,1.211,0,0,1,.671,2.066L320.743,45.4a1.211,1.211,0,0,0-.348,1.072l.506,2.95a1.211,1.211,0,0,1-1.758,1.277l-2.649-1.393a1.211,1.211,0,0,0-1.127,0L312.717,50.7a1.211,1.211,0,0,1-1.758-1.277l.506-2.95a1.211,1.211,0,0,0-.348-1.072l-2.143-2.089a1.211,1.211,0,0,1,.671-2.066l2.962-.43a1.211,1.211,0,0,0,.912-.663l1.325-2.684A1.212,1.212,0,0,1,317.017,37.469Z" transform="translate(-233.081 -32.355)" fill="#f6e738"/>
    </g>
  </g>
</svg>
