<svg xmlns="http://www.w3.org/2000/svg" width="39.051" height="36.013" viewBox="0 0 39.051 36.013">
  <g id="Grupo_1111589" data-name="Grupo 1111589" transform="translate(-300 -2633.194)">
    <g id="Rectángulo_401341" data-name="Rectángulo 401341" transform="translate(300 2633.194)" fill="#fece2f" stroke="#faedc1" stroke-width="3">
      <rect width="39.051" height="36.013" rx="12" stroke="none"/>
      <rect x="1.5" y="1.5" width="36.051" height="33.013" rx="10.5" fill="none"/>
    </g>
    <g id="Grupo_1111538" data-name="Grupo 1111538" transform="translate(307.637 2634.548)">
      <g id="Grupo_1111536" data-name="Grupo 1111536" transform="translate(0.361 5.345)">
        <g id="Grupo_1111531" data-name="Grupo 1111531">
          <path id="Trazado_894630" data-name="Trazado 894630" d="M13.6,141.886l-1.961-3.4a1.026,1.026,0,0,0-1.778,0l-1.961,3.4a1.026,1.026,0,0,0,.889,1.539h.538v11.34h2.845v-11.34h.538A1.026,1.026,0,0,0,13.6,141.886Z" transform="translate(-7.766 -132.149)" fill="#80b4fb"/>
          <path id="Trazado_894631" data-name="Trazado 894631" d="M174.464,75.075l-1.961-3.4a1.026,1.026,0,0,0-1.778,0l-1.961,3.4a1.026,1.026,0,0,0,.889,1.539h.538V91.056h2.845V76.614h.538A1.026,1.026,0,0,0,174.464,75.075Z" transform="translate(-161.155 -68.441)" fill="#f6e266"/>
          <path id="Trazado_894632" data-name="Trazado 894632" d="M335.322,16.408l-1.961-3.4a1.026,1.026,0,0,0-1.778,0l-1.961,3.4a1.026,1.026,0,0,0,.889,1.539h.538V35.114H333.9V17.947h.538A1.026,1.026,0,0,0,335.322,16.408Z" transform="translate(-314.544 -12.498)" fill="#dd636e"/>
        </g>
        <g id="Grupo_1111532" data-name="Grupo 1111532" transform="translate(0 0)">
          <path id="Trazado_894633" data-name="Trazado 894633" d="M11.309,138.137a1.017,1.017,0,0,0-.338.354l-1.961,3.4a1.026,1.026,0,0,0,.889,1.539h.538v11.34h-1.1v-11.34H8.8a1.026,1.026,0,0,1-.889-1.539l1.961-3.4A1.028,1.028,0,0,1,11.309,138.137Z" transform="translate(-7.769 -132.151)" fill="#61a2f9"/>
          <path id="Trazado_894634" data-name="Trazado 894634" d="M172.169,71.323a1.018,1.018,0,0,0-.338.355l-1.961,3.4a1.026,1.026,0,0,0,.889,1.539h.538V91.056h-1.1V76.614h-.538a1.026,1.026,0,0,1-.889-1.539l1.961-3.4A1.028,1.028,0,0,1,172.169,71.323Z" transform="translate(-161.159 -68.441)" fill="#ffd064"/>
          <path id="Trazado_894635" data-name="Trazado 894635" d="M333.029,12.657a1.015,1.015,0,0,0-.339.355l-1.961,3.4a1.026,1.026,0,0,0,.889,1.539h.538V35.114h-1.1V17.947h-.538a1.026,1.026,0,0,1-.889-1.539l1.961-3.4A1.027,1.027,0,0,1,333.029,12.657Z" transform="translate(-314.549 -12.498)" fill="#da4a54"/>
        </g>
        <g id="Grupo_1111535" data-name="Grupo 1111535" transform="translate(6.335 12.457)">
          <path id="Trazado_894636" data-name="Trazado 894636" d="M160.915,281.871v7.909a1.125,1.125,0,0,1-1.125,1.125H145.308a1.125,1.125,0,0,1-1.125-1.125v-7.909a1.125,1.125,0,0,1,1.125-1.125h14.483A1.125,1.125,0,0,1,160.915,281.871Z" transform="translate(-144.183 -280.746)" fill="#b3e59f"/>
          <g id="Grupo_1111534" data-name="Grupo 1111534">
            <circle id="Elipse_12085" data-name="Elipse 12085" cx="3.555" cy="3.555" r="3.555" transform="translate(4.811 1.524)" fill="#95d6a4"/>
            <path id="Trazado_894637" data-name="Trazado 894637" d="M438.444,281.871v2.092a3.217,3.217,0,0,1-3.217-3.217h2.092A1.125,1.125,0,0,1,438.444,281.871Z" transform="translate(-421.711 -280.746)" fill="#95d6a4"/>
            <path id="Trazado_894638" data-name="Trazado 894638" d="M147.4,433.446h-2.092a1.125,1.125,0,0,1-1.125-1.125v-2.092A3.217,3.217,0,0,1,147.4,433.446Z" transform="translate(-144.183 -423.287)" fill="#95d6a4"/>
            <path id="Trazado_894639" data-name="Trazado 894639" d="M147.4,280.747a3.217,3.217,0,0,1-3.217,3.217v-2.092a1.125,1.125,0,0,1,1.125-1.125Z" transform="translate(-144.183 -280.747)" fill="#95d6a4"/>
            <path id="Trazado_894640" data-name="Trazado 894640" d="M438.444,432.322V430.23a3.217,3.217,0,0,0-3.217,3.217h2.092A1.125,1.125,0,0,0,438.444,432.322Z" transform="translate(-421.711 -423.288)" fill="#95d6a4"/>
            <g id="Grupo_1111533" data-name="Grupo 1111533" transform="translate(2.178 4.396)">
              <circle id="Elipse_12086" data-name="Elipse 12086" cx="0.684" cy="0.684" r="0.684" transform="translate(11.009)" fill="#95d6a4"/>
              <circle id="Elipse_12087" data-name="Elipse 12087" cx="0.684" cy="0.684" r="0.684" fill="#95d6a4"/>
            </g>
          </g>
        </g>
      </g>
      <g id="Grupo_1111537" data-name="Grupo 1111537" transform="translate(0 4.997)">
        <path id="Trazado_894641" data-name="Trazado 894641" d="M244.182,306.06a3.9,3.9,0,1,0,3.9,3.9A3.908,3.908,0,0,0,244.182,306.06Zm0,7.111a3.207,3.207,0,1,1,3.207-3.207A3.211,3.211,0,0,1,244.182,313.171Z" transform="translate(-229.12 -292.079)"/>
        <path id="Trazado_894642" data-name="Trazado 894642" d="M299.812,340.338a3.2,3.2,0,0,1-.81-.376.257.257,0,0,1-.056-.243.357.357,0,0,1,.234-.281.643.643,0,0,1,.59.092.348.348,0,0,0,.445-.535,1.313,1.313,0,0,0-.524-.252v-.12a.348.348,0,0,0-.7,0v.143l-.017,0a1.046,1.046,0,0,0-.718.819.935.935,0,0,0,.311.92,3.506,3.506,0,0,0,1.008.485.41.41,0,0,1,.3.48.54.54,0,0,1-.535.455.9.9,0,0,1-.655-.171.348.348,0,1,0-.381.583,1.492,1.492,0,0,0,.69.27v.1a.348.348,0,0,0,.7,0v-.136a1.254,1.254,0,0,0,.872-.986A1.107,1.107,0,0,0,299.812,340.338Z" transform="translate(-284.302 -322.798)"/>
        <path id="Trazado_894643" data-name="Trazado 894643" d="M421.689,367.9a1.032,1.032,0,1,0,1.032,1.032A1.033,1.033,0,0,0,421.689,367.9Zm0,1.367a.335.335,0,1,1,.335-.335A.336.336,0,0,1,421.689,369.272Z" transform="translate(-401.122 -351.052)"/>
        <path id="Trazado_894644" data-name="Trazado 894644" d="M184.619,367.9a1.032,1.032,0,1,0,1.032,1.032A1.033,1.033,0,0,0,184.619,367.9Zm0,1.367a.335.335,0,1,1,.335-.335A.336.336,0,0,1,184.619,369.272Z" transform="translate(-175.062 -351.052)"/>
        <path id="Trazado_894645" data-name="Trazado 894645" d="M22.3,17.454H20.06V11.142h.19a1.375,1.375,0,0,0,1.19-2.062l-1.961-3.4a1.374,1.374,0,0,0-2.381,0l-1.961,3.4a1.374,1.374,0,0,0,1.19,2.062h.19v6.312H12.59V13.867h.19a1.375,1.375,0,0,0,1.19-2.062l-1.961-3.4a1.36,1.36,0,0,0-1.19-.687h0a1.361,1.361,0,0,0-1.191.687l-1.961,3.4a1.375,1.375,0,0,0,1.19,2.062h.19v3.587H7.82a1.475,1.475,0,0,0-1.473,1.473v7.909a1.464,1.464,0,0,0,.222.776H5.12V16.969h.19A1.375,1.375,0,0,0,6.5,14.908l-.589-1.021a.348.348,0,0,0-.6.348L5.9,15.256a.678.678,0,0,1-.587,1.017H4.772a.348.348,0,0,0-.348.348V27.613H2.275V16.621a.348.348,0,0,0-.348-.348H1.388A.678.678,0,0,1,.8,15.256l1.961-3.4a.677.677,0,0,1,1.174,0l.685,1.187a.348.348,0,0,0,.6-.348L4.54,11.512a1.374,1.374,0,0,0-2.381,0L.2,14.907a1.375,1.375,0,0,0,1.19,2.062h.19V27.613H.348a.348.348,0,1,0,0,.7H22.3a1.475,1.475,0,0,0,1.473-1.473V18.927A1.475,1.475,0,0,0,22.3,17.454Zm.776,1.473v1.722a2.873,2.873,0,0,1-2.5-2.5H22.3A.777.777,0,0,1,23.08,18.927Zm-6.213-8.481h-.538a.678.678,0,0,1-.587-1.017l1.961-3.4a.678.678,0,0,1,1.174,0l1.961,3.4a.678.678,0,0,1-.587,1.017h-.538a.348.348,0,0,0-.348.348v6.66H17.215v-6.66A.348.348,0,0,0,16.867,10.446ZM9.4,13.17H8.859a.678.678,0,0,1-.587-1.017l1.961-3.4a.671.671,0,0,1,.587-.339h0a.671.671,0,0,1,.587.339l1.961,3.4a.678.678,0,0,1-.587,1.017h-.538a.348.348,0,0,0-.348.348v3.935H9.745V13.519A.348.348,0,0,0,9.4,13.17ZM7.82,18.151H9.542a2.873,2.873,0,0,1-2.5,2.5V18.927A.777.777,0,0,1,7.82,18.151Zm-.776,8.686V25.114a2.873,2.873,0,0,1,2.5,2.5H7.82A.777.777,0,0,1,7.044,26.836Zm15.259.777H20.581a2.845,2.845,0,0,1,.5-1.308.348.348,0,1,0-.568-.4,3.537,3.537,0,0,0-.636,1.71H10.244a3.571,3.571,0,0,0-3.2-3.2V21.35a3.571,3.571,0,0,0,3.2-3.2H19.88a3.571,3.571,0,0,0,3.2,3.2v3.063a3.554,3.554,0,0,0-1.432.459.348.348,0,1,0,.349.6,2.855,2.855,0,0,1,1.084-.361v1.722A.777.777,0,0,1,22.3,27.613Z" transform="translate(0 -4.997)"/>
      </g>
    </g>
  </g>
</svg>
