<svg xmlns="http://www.w3.org/2000/svg" width="39.051" height="36.013" viewBox="0 0 39.051 36.013">
  <g id="Grupo_1111591" data-name="Grupo 1111591" transform="translate(-300 -2757.194)">
    <g id="Rectángulo_401341" data-name="Rectángulo 401341" transform="translate(300 2757.194)" fill="#fece2f" stroke="#faedc1" stroke-width="3">
      <rect width="39.051" height="36.013" rx="12" stroke="none"/>
      <rect x="1.5" y="1.5" width="36.051" height="33.013" rx="10.5" fill="none"/>
    </g>
    <g id="Grupo_1111553" data-name="Grupo 1111553" transform="translate(290.68 2754.487)">
      <g id="Grupo_1111552" data-name="Grupo 1111552" transform="translate(19.357 10.062)">
        <g id="Grupo_1111549" data-name="Grupo 1111549" transform="translate(0 2.252)">
          <path id="Trazado_894675" data-name="Trazado 894675" d="M81.036,388.1h1.618a.369.369,0,0,1,.368.368v3.78a.369.369,0,0,1-.368.368H81.036a.369.369,0,0,1-.368-.368v-3.78A.369.369,0,0,1,81.036,388.1Z" transform="translate(-77.973 -373.35)" fill="#fe646f" fill-rule="evenodd"/>
          <path id="Trazado_894676" data-name="Trazado 894676" d="M108.024,388.1h.614a.369.369,0,0,1,.368.368v3.78a.369.369,0,0,1-.368.368h-.614a.369.369,0,0,0,.368-.368v-3.78A.369.369,0,0,0,108.024,388.1Z" transform="translate(-103.957 -373.35)" fill="#fd4755" fill-rule="evenodd"/>
          <path id="Trazado_894677" data-name="Trazado 894677" d="M169.809,340.922h-1.618a.369.369,0,0,0-.368.368v6.146a.369.369,0,0,0,.368.368h1.618a.369.369,0,0,0,.368-.368V341.29A.369.369,0,0,0,169.809,340.922Z" transform="translate(-160.757 -328.538)" fill="#ffe177" fill-rule="evenodd"/>
          <path id="Trazado_894678" data-name="Trazado 894678" d="M195.794,340.922h-.614a.369.369,0,0,1,.368.368v6.146a.369.369,0,0,1-.368.368h.614a.369.369,0,0,0,.368-.368V341.29A.369.369,0,0,0,195.794,340.922Z" transform="translate(-186.742 -328.538)" fill="#ffd064" fill-rule="evenodd"/>
          <path id="Trazado_894679" data-name="Trazado 894679" d="M256.963,291.659h-1.618a.369.369,0,0,0-.368.368v8.617a.369.369,0,0,0,.368.368h1.618a.369.369,0,0,0,.368-.368v-8.617A.369.369,0,0,0,256.963,291.659Z" transform="translate(-243.54 -281.745)" fill="#6cf5c2" fill-rule="evenodd"/>
          <path id="Trazado_894680" data-name="Trazado 894680" d="M282.948,291.659h-.614a.369.369,0,0,1,.368.368v8.617a.369.369,0,0,1-.368.368h.614a.369.369,0,0,0,.368-.368v-8.617A.369.369,0,0,0,282.948,291.659Z" transform="translate(-269.525 -281.745)" fill="#00e499" fill-rule="evenodd"/>
          <path id="Trazado_894681" data-name="Trazado 894681" d="M342.5,247.341h1.618a.369.369,0,0,1,.368.368v10.839a.369.369,0,0,1-.368.368H342.5a.369.369,0,0,1-.368-.368V247.709A.369.369,0,0,1,342.5,247.341Z" transform="translate(-326.323 -239.65)" fill="#8ac9fe" fill-rule="evenodd"/>
          <path id="Trazado_894682" data-name="Trazado 894682" d="M369.487,247.342h.614a.369.369,0,0,1,.368.368v10.839a.369.369,0,0,1-.368.368h-.614a.369.369,0,0,0,.368-.368V247.71A.369.369,0,0,0,369.487,247.342Z" transform="translate(-352.307 -239.651)" fill="#60b7ff" fill-rule="evenodd"/>
          <path id="Trazado_894683" data-name="Trazado 894683" d="M28.015,112.247H46.27v1.084H26.931V93.992h1.084Z" transform="translate(-26.931 -93.992)" fill="#9facba" fill-rule="evenodd"/>
        </g>
        <g id="Grupo_1111550" data-name="Grupo 1111550" transform="translate(13.351 12.792)">
          <circle id="Elipse_12089" data-name="Elipse 12089" cx="4.811" cy="4.811" r="4.811" transform="translate(0 0)" fill="#ffe177"/>
          <path id="Trazado_894684" data-name="Trazado 894684" d="M382.927,304.132a4.811,4.811,0,1,1,0,9.623c-.109,0-.217,0-.324-.011a4.811,4.811,0,0,0,0-9.6C382.71,304.136,382.818,304.132,382.927,304.132Z" transform="translate(-378.116 -304.132)" fill="#ffd064" fill-rule="evenodd"/>
          <ellipse id="Elipse_12090" data-name="Elipse 12090" cx="3.674" cy="3.674" rx="3.674" ry="3.674" transform="translate(1.005 1.259) rotate(-1.892)" fill="#ffc338"/>
          <path id="Trazado_894685" data-name="Trazado 894685" d="M319.483,326.809a3.674,3.674,0,1,0,0,7.348q.15,0,.3-.012a3.674,3.674,0,0,1,0-7.324Q319.633,326.809,319.483,326.809Z" transform="translate(-314.672 -325.672)" fill="#f5b829" fill-rule="evenodd"/>
        </g>
        <g id="Grupo_1111551" data-name="Grupo 1111551" transform="translate(3.913)">
          <path id="Trazado_894686" data-name="Trazado 894686" d="M110.041,49.787a3.62,3.62,0,0,1,1.06.439l.689-.306.812.812-.306.689a3.62,3.62,0,0,1,.44,1.06l.7.271V53.9l-.7.271a3.621,3.621,0,0,1-.439,1.06l.306.689-.812.812-.689-.306a3.62,3.62,0,0,1-1.06.44l-.271.7h-1.148l-.271-.7a3.622,3.622,0,0,1-1.06-.439l-.689.306-.812-.812.306-.689a3.618,3.618,0,0,1-.44-1.06l-.7-.27V52.752l.7-.271a3.62,3.62,0,0,1,.439-1.06l-.306-.689.812-.812.689.306a3.622,3.622,0,0,1,1.06-.439l.271-.7h1.148Z" transform="translate(-104.954 -49.084)" fill="#a79ba7" fill-rule="evenodd"/>
          <path id="Trazado_894687" data-name="Trazado 894687" d="M136.5,56.425l-.689.306-.106-.106.646-.287Q136.425,56.383,136.5,56.425Zm2.749-6.639a3.62,3.62,0,0,1,1.06.439l-.2.087a4.775,4.775,0,0,0-1.209-.526l-.271-.7h.345Zm1.06,6.639a3.62,3.62,0,0,1-1.06.44l-.271.7h-.345l.27-.7a4.774,4.774,0,0,0,1.209-.527Zm-4.6-6.4.106-.106.689.306q-.075.042-.149.087Zm5.054,0,.239-.106.812.812-.306.689a3.62,3.62,0,0,1,.44,1.06l.7.271V53.9l-.7.271a3.62,3.62,0,0,1-.439,1.06l.306.689-.812.812-.239-.106.706-.706-.306-.689a3.621,3.621,0,0,0,.439-1.06l.7-.271V52.751l-.7-.271a3.619,3.619,0,0,0-.44-1.06l.306-.689Z" transform="translate(-134.164 -49.083)" fill="#837683" fill-rule="evenodd"/>
          <circle id="Elipse_12091" data-name="Elipse 12091" cx="2.002" cy="2.002" r="2.002" transform="translate(1.422 3.961) rotate(-39.358)" fill="#eceff1"/>
          <path id="Trazado_894688" data-name="Trazado 894688" d="M151.613,93.74a2,2,0,1,0,0,4q.08,0,.159-.006a2,2,0,0,1,0-3.992Q151.694,93.74,151.613,93.74Z" transform="translate(-147.371 -91.5)" fill="#d1d1d6" fill-rule="evenodd"/>
        </g>
      </g>
      <path id="Trazado_894689" data-name="Trazado 894689" d="M40.6,27.665a3.077,3.077,0,1,0-3.077,3.076A3.08,3.08,0,0,0,40.6,27.665Zm.8,0a3.878,3.878,0,1,1-3.877-3.878A3.882,3.882,0,0,1,41.4,27.665Zm-3.809-.408c.878.144,1.362.539,1.44,1.174a1.064,1.064,0,0,1-.25.845,1.519,1.519,0,0,1-.857.461v.129a.4.4,0,0,1-.8,0V29.73a1.422,1.422,0,0,1-1.1-1.033.4.4,0,1,1,.778-.194.717.717,0,0,0,.762.469.891.891,0,0,0,.615-.221.268.268,0,0,0,.06-.224c-.013-.107-.044-.359-.773-.479-1.123-.185-1.321-.82-1.339-1.182a1.244,1.244,0,0,1,1-1.259v-.143a.4.4,0,1,1,.8,0V25.6a1.42,1.42,0,0,1,.992.85.4.4,0,1,1-.74.311.7.7,0,0,0-.829-.386c-.073.017-.44.117-.424.449,0,.088.016.322.667.429Zm4.343.408a4.41,4.41,0,1,1-4.411-4.41A4.416,4.416,0,0,1,41.932,27.665ZM19.759,31.252H33.742q-.129-.136-.249-.282H20.442a.4.4,0,0,1-.4-.4V12.715h-.282V31.252Zm2.693-1.084v-2.7H24v2.7Zm4.372,0V25.1h1.552v5.068H26.824Zm4.372,0V22.629h1.552V25.57a5.207,5.207,0,0,0,0,4.189v.409Zm4.372-7.336a5.164,5.164,0,0,1,1.552-.365V20.406H35.568Zm7.167,4.833a5.211,5.211,0,0,1-8.022,4.39H19.358a.4.4,0,0,1-.4-.4V12.314a.4.4,0,0,1,.4-.4h1.084a.4.4,0,0,1,.4.4V30.168h.806v-3.1a.4.4,0,0,1,.4-.4h2.354a.4.4,0,0,1,.4.4v3.1h1.215V24.7a.4.4,0,0,1,.4-.4h2.354a.4.4,0,0,1,.4.4v5.469h1.215v-7.94a.4.4,0,0,1,.4-.4h2.355a.4.4,0,0,1,.4.4v2.063a5.247,5.247,0,0,1,1.215-1.049V20.005a.4.4,0,0,1,.4-.4h2.354a.4.4,0,0,1,.4.4v2.462A5.22,5.22,0,0,1,42.734,27.665Zm-11.38-13.66v.6l-.446.172a.4.4,0,0,0-.246.282,3.212,3.212,0,0,1-.391.943.4.4,0,0,0-.025.373l.194.437-.422.422-.437-.194a.4.4,0,0,0-.374.025,3.2,3.2,0,0,1-.943.391.4.4,0,0,0-.281.246l-.172.446h-.6l-.172-.446a.4.4,0,0,0-.281-.246,3.217,3.217,0,0,1-.943-.391.4.4,0,0,0-.373-.025l-.437.194-.422-.422.194-.437A.4.4,0,0,0,24.755,16a3.219,3.219,0,0,1-.391-.943.4.4,0,0,0-.246-.282l-.446-.172v-.6l.446-.172a.4.4,0,0,0,.246-.282,3.221,3.221,0,0,1,.391-.943.4.4,0,0,0,.025-.373l-.194-.437.422-.422.437.194a.4.4,0,0,0,.373-.025,3.218,3.218,0,0,1,.943-.391.4.4,0,0,0,.281-.246l.172-.446h.6l.172.446a.4.4,0,0,0,.282.246,3.213,3.213,0,0,1,.942.391.4.4,0,0,0,.373.025l.437-.194.422.422-.194.437a.4.4,0,0,0,.025.373,3.211,3.211,0,0,1,.391.943.4.4,0,0,0,.246.282Zm.033-.847.512.2a.4.4,0,0,1,.258.374v1.148a.4.4,0,0,1-.258.374l-.512.2a4.042,4.042,0,0,1-.324.783l.223.5a.4.4,0,0,1-.083.447l-.812.812a.4.4,0,0,1-.447.083l-.5-.223a4.014,4.014,0,0,1-.783.325l-.2.512a.4.4,0,0,1-.375.257H26.939a.4.4,0,0,1-.375-.257l-.2-.512a4.009,4.009,0,0,1-.783-.325l-.5.223a.4.4,0,0,1-.447-.083l-.812-.812a.4.4,0,0,1-.083-.447l.223-.5a4,4,0,0,1-.325-.784l-.512-.2a.4.4,0,0,1-.257-.374V13.729a.4.4,0,0,1,.257-.374l.512-.2a4,4,0,0,1,.325-.783l-.223-.5a.4.4,0,0,1,.083-.446l.812-.812a.4.4,0,0,1,.447-.083l.5.223a4.007,4.007,0,0,1,.783-.325l.2-.512a.4.4,0,0,1,.375-.257h1.148a.4.4,0,0,1,.375.257l.2.512a4.013,4.013,0,0,1,.783.325l.5-.223a.4.4,0,0,1,.447.083l.812.812a.4.4,0,0,1,.083.447l-.223.5A4.018,4.018,0,0,1,31.387,13.158ZM29.115,14.3a1.6,1.6,0,1,1-1.6-1.6A1.6,1.6,0,0,1,29.115,14.3Zm.8,0a2.4,2.4,0,1,1-2.4-2.4,2.406,2.406,0,0,1,2.4,2.4Zm-7.505,3.366a.4.4,0,0,1-.347-.2,6.3,6.3,0,0,1,8.711-8.558.4.4,0,0,1,.787-.138l.3,1.047a.4.4,0,0,1-.371.511l-1.088.039h-.015a.4.4,0,0,1-.066-.8,5.5,5.5,0,0,0-7.563,7.492.4.4,0,0,1-.346.6Zm10.57-2.79a5.453,5.453,0,0,0-.714-3.338.4.4,0,0,1,.694-.4,6.3,6.3,0,0,1-5.437,9.469,6.426,6.426,0,0,1-.672-.035,6.279,6.279,0,0,1-2.6-.875.4.4,0,0,1-.786.137l-.3-1.047a.4.4,0,0,1,.372-.511l1.088-.039a.4.4,0,0,1,.08.8,5.5,5.5,0,0,0,8.277-4.153Zm2.2.953a.4.4,0,0,1,.379-.422l1.883-.1a.4.4,0,0,1,.418.458l-.271,1.866a.4.4,0,0,1-.794-.116l.111-.764a44.89,44.89,0,0,1-15.028,8.637.4.4,0,0,1-.132.022.4.4,0,0,1-.132-.78A44.1,44.1,0,0,0,36.356,16.17l-.751.041A.4.4,0,0,1,35.183,15.832Z" transform="translate(0 0)" fill-rule="evenodd"/>
    </g>
  </g>
</svg>
