<svg xmlns="http://www.w3.org/2000/svg" width="84" height="84" viewBox="0 0 84 84">
  <g id="Grupo_1111562" data-name="Grupo 1111562" transform="translate(-1 -1)">
    <path id="Trazado_894732" data-name="Trazado 894732" d="M8.774,58.871a12.194,12.194,0,0,1,24.387,0H49.419a12.194,12.194,0,0,1,24.387,0h6.774a2.71,2.71,0,0,0,2.71-2.71V49.387A10.839,10.839,0,0,0,72.452,38.548H62.968L56.417,27.631A5.419,5.419,0,0,0,51.77,25H21.927a5.419,5.419,0,0,0-5.032,3.406L12.839,38.548H7.419A5.419,5.419,0,0,0,2,43.968v9.484a5.419,5.419,0,0,0,5.419,5.419Z" transform="translate(0.355 8.516)" fill="#96cc7f"/>
    <path id="Trazado_894733" data-name="Trazado 894733" d="M10.129,35H7.419A5.419,5.419,0,0,0,2,40.419v2.71A8.129,8.129,0,0,0,10.129,35Z" transform="translate(0.355 12.065)" fill="#c66b60"/>
    <path id="Trazado_894734" data-name="Trazado 894734" d="M35.742,37.129V29H13.252L10,37.129Z" transform="translate(3.194 9.936)" fill="#c7e2fc"/>
    <path id="Trazado_894735" data-name="Trazado 894735" d="M29,37.129H53.387L48.51,29H29Z" transform="translate(9.935 9.936)" fill="#ebf7fe"/>
    <path id="Trazado_894736" data-name="Trazado 894736" d="M64.142,43.107A10.85,10.85,0,0,0,55,35.062a8.129,8.129,0,0,0,8.129,8.045Z" transform="translate(19.161 12.087)" fill="#e7e4dd"/>
    <path id="Trazado_894737" data-name="Trazado 894737" d="M54.4,30.419h-42l.8-2.013A5.419,5.419,0,0,1,18.237,25H48.08a5.419,5.419,0,0,1,4.647,2.631Z" transform="translate(4.045 8.516)" fill="#669e4f"/>
    <circle id="Elipse_12092" data-name="Elipse 12092" cx="13.5" cy="13.5" r="13.5" transform="translate(20 2)" fill="#f7d881"/>
    <path id="Trazado_894738" data-name="Trazado 894738" d="M28.035,28.487A13.548,13.548,0,1,0,28,2.621a13.548,13.548,0,0,1,.03,25.846Z" transform="translate(9.581 0.355)" fill="#f2c351"/>
    <ellipse id="Elipse_12093" data-name="Elipse 12093" cx="8" cy="8.5" rx="8" ry="8.5" transform="translate(54 59)" fill="#606060"/>
    <circle id="Elipse_12094" data-name="Elipse 12094" cx="4" cy="4" r="4" transform="translate(58 63)" fill="#cbc3b6"/>
    <ellipse id="Elipse_12095" data-name="Elipse 12095" cx="8" cy="8.5" rx="8" ry="8.5" transform="translate(13 59)" fill="#606060"/>
    <circle id="Elipse_12096" data-name="Elipse 12096" cx="4" cy="4" r="4" transform="translate(17 63)" fill="#cbc3b6"/>
    <path id="Trazado_894739" data-name="Trazado 894739" d="M24,38h8.129v2.71H24Z" transform="translate(8.161 13.129)" fill="#e7e4dd"/>
    <path id="Trazado_894740" data-name="Trazado 894740" d="M32,38h8.129v2.71H32Z" transform="translate(11 13.129)" fill="#e7e4dd"/>
    <path id="Trazado_894741" data-name="Trazado 894741" d="M2,56H83.29v8.129H2Z" transform="translate(0.355 19.516)" fill="#d5cec2"/>
    <path id="Trazado_894742" data-name="Trazado 894742" d="M33.548,10.774V9.419a4.065,4.065,0,0,0-4.065-4.065H28.129V4h-2.71V5.355H24.065A4.065,4.065,0,0,0,20,9.419v2.71a4.065,4.065,0,0,0,4.065,4.065h1.355v5.419H24.065a1.355,1.355,0,0,1-1.355-1.355V18.9H20v1.355a4.065,4.065,0,0,0,4.065,4.065h1.355v1.355h2.71V24.323h1.355a4.065,4.065,0,0,0,4.065-4.065v-2.71a4.065,4.065,0,0,0-4.065-4.065H28.129V8.065h1.355a1.355,1.355,0,0,1,1.355,1.355v1.355Zm-4.065,5.419a1.355,1.355,0,0,1,1.355,1.355v2.71a1.355,1.355,0,0,1-1.355,1.355H28.129V16.194Zm-4.065-2.71H24.065a1.355,1.355,0,0,1-1.355-1.355V9.419a1.355,1.355,0,0,1,1.355-1.355h1.355Z" transform="translate(6.742 1.065)" fill="#f2c351"/>
    <path id="Trazado_894743" data-name="Trazado 894743" d="M6.485,38.323A8.767,8.767,0,0,0,5.9,35.18,5.4,5.4,0,0,0,2,40.355v2.71a8.078,8.078,0,0,0,3.558-.829,8.743,8.743,0,0,0,.927-3.913Z" transform="translate(0.355 12.129)" fill="#e47c6e"/>
    <path id="Trazado_894744" data-name="Trazado 894744" d="M46.476,25H18.237A5.419,5.419,0,0,0,13.2,28.406l-.8,2.013H43.774A28.941,28.941,0,0,0,46.476,25Z" transform="translate(4.045 8.516)" fill="#78b75b"/>
    <path id="Trazado_894745" data-name="Trazado 894745" d="M52.839,51.419a5.419,5.419,0,1,0-5.419,5.419A5.419,5.419,0,0,0,52.839,51.419Zm-8.129,0a2.71,2.71,0,1,1,2.71,2.71A2.71,2.71,0,0,1,44.71,51.419Z" transform="translate(14.548 15.968)"/>
    <path id="Trazado_894746" data-name="Trazado 894746" d="M22.839,51.419a5.419,5.419,0,1,0-5.419,5.419A5.419,5.419,0,0,0,22.839,51.419Zm-8.129,0a2.71,2.71,0,1,1,2.71,2.71A2.71,2.71,0,0,1,14.71,51.419Z" transform="translate(3.903 15.968)"/>
    <path id="Trazado_894747" data-name="Trazado 894747" d="M72.806,37.548H64.089L57.933,27.29A6.811,6.811,0,0,0,52.123,24H22.282a6.742,6.742,0,0,0-6.291,4.26l-3.716,9.289h-4.5A6.782,6.782,0,0,0,1,44.323v9.484a6.782,6.782,0,0,0,6.774,6.774H9.129a1.355,1.355,0,0,0,1.355-1.355,10.839,10.839,0,1,1,21.677,0,1.355,1.355,0,0,0,1.355,1.355H49.774a1.355,1.355,0,0,0,1.355-1.355,10.839,10.839,0,1,1,21.677,0,1.355,1.355,0,0,0,1.355,1.355h6.774A4.065,4.065,0,0,0,85,56.516V49.742A12.208,12.208,0,0,0,72.806,37.548Zm8.51,8.034A6.608,6.608,0,0,1,75.8,40.751a9.526,9.526,0,0,1,5.514,4.83ZM60.93,37.548H40.29V32.129H57.677ZM17.361,32.129h20.22v5.419H15.193Zm4.921-5.419H52.123a4.088,4.088,0,0,1,3.486,1.974l.442.737H18.445l.062-.156a4.048,4.048,0,0,1,3.775-2.555ZM7.774,40.258H8.994A6.79,6.79,0,0,1,3.71,45.542V44.323a4.065,4.065,0,0,1,4.065-4.065ZM82.29,56.516a1.355,1.355,0,0,1-1.355,1.355H75.448a13.548,13.548,0,0,0-26.961,0H34.8a13.548,13.548,0,0,0-26.961,0H7.774A4.065,4.065,0,0,1,3.71,53.806V48.279a9.484,9.484,0,0,0,8.019-8.021H72.915a9.484,9.484,0,0,0,9.266,8.129,9.4,9.4,0,0,1,.11,1.355Z" transform="translate(0 8.161)"/>
    <path id="Trazado_894748" data-name="Trazado 894748" d="M24,38h8.129v2.71H24Z" transform="translate(8.161 13.129)"/>
    <path id="Trazado_894749" data-name="Trazado 894749" d="M32,38h8.129v2.71H32Z" transform="translate(11 13.129)"/>
    <path id="Trazado_894750" data-name="Trazado 894750" d="M83.645,59.261H68.593a9.484,9.484,0,1,0-13.25,0H27.948a9.484,9.484,0,1,0-13.25,0H2.355A1.355,1.355,0,0,0,1,60.616v8.129A1.355,1.355,0,0,0,2.355,70.1h81.29A1.355,1.355,0,0,0,85,68.745V60.616A1.355,1.355,0,0,0,83.645,59.261ZM55.194,52.487a6.774,6.774,0,1,1,6.781,6.774h-.007a6.781,6.781,0,0,1-6.774-6.774Zm-40.645,0a6.774,6.774,0,1,1,6.774,6.774,6.774,6.774,0,0,1-6.774-6.774ZM82.29,67.39H3.71V61.971H82.29Z" transform="translate(0 14.9)"/>
    <path id="Trazado_894751" data-name="Trazado 894751" d="M24.065,24.323h1.355v1.355h2.71V24.323h1.355a4.065,4.065,0,0,0,4.065-4.065v-2.71a4.065,4.065,0,0,0-4.065-4.065H28.129V8.065h1.355a1.355,1.355,0,0,1,1.355,1.355v1.355h2.71V9.419a4.065,4.065,0,0,0-4.065-4.065H28.129V4h-2.71V5.355H24.065A4.065,4.065,0,0,0,20,9.419v2.71a4.065,4.065,0,0,0,4.065,4.065h1.355v5.419H24.065a1.355,1.355,0,0,1-1.355-1.355V18.9H20v1.355A4.065,4.065,0,0,0,24.065,24.323Zm0-10.839a1.355,1.355,0,0,1-1.355-1.355V9.419a1.355,1.355,0,0,1,1.355-1.355h1.355v5.419Zm4.065,2.71h1.355a1.355,1.355,0,0,1,1.355,1.355v2.71a1.355,1.355,0,0,1-1.355,1.355H28.129Z" transform="translate(6.742 1.065)"/>
    <path id="Trazado_894752" data-name="Trazado 894752" d="M28.917,30.807a14.807,14.807,0,0,0,4.05-.574,14.9,14.9,0,1,0,0-28.656,14.9,14.9,0,1,0-4.05,29.231ZM49.24,15.9A12.194,12.194,0,0,1,37.489,28.073a14.864,14.864,0,0,0,0-24.341A12.194,12.194,0,0,1,49.24,15.9ZM28.917,3.71A12.194,12.194,0,1,1,16.724,15.9,12.194,12.194,0,0,1,28.917,3.71Z" transform="translate(4.599 0)"/>
  </g>
</svg>
