<svg xmlns="http://www.w3.org/2000/svg" width="41.328" height="49" viewBox="0 0 41.328 49">
  <g id="avatar" transform="translate(-0.5)">
    <path id="Trazado_873232" data-name="Trazado 873232" d="M152.289,256h12.275v12.275H152.289Zm0,0" transform="translate(-137.262 -231.5)" fill="#ecbd83"/>
    <path id="Trazado_873233" data-name="Trazado 873233" d="M44.942,346.88l-7.023-2.7-9.973,2.3-9.973-2.3-7.023,2.7A4.6,4.6,0,0,0,8,351.176v8.346H47.893v-8.346A4.6,4.6,0,0,0,44.942,346.88Zm0,0" transform="translate(-6.782 -311.241)" fill="#dbeaff"/>
    <path id="Trazado_873234" data-name="Trazado 873234" d="M152.289,260.476a12.17,12.17,0,0,0,12.275,0V256H152.289Zm0,0" transform="translate(-137.262 -231.5)" fill="#e2a975"/>
    <path id="Trazado_873235" data-name="Trazado 873235" d="M103.927,70.518a2.283,2.283,0,0,0-.767.141V63.613H83.213v7.045a2.3,2.3,0,1,0,0,4.321v.908a9.973,9.973,0,0,0,19.946,0V74.98a2.3,2.3,0,1,0,.767-4.462Zm0,0" transform="translate(-72.022 -57.525)" fill="#f6d190"/>
    <path id="Trazado_873236" data-name="Trazado 873236" d="M103.162,63.613H83.216v7.045a2.127,2.127,0,0,0-2.012.266,2.276,2.276,0,0,0,2.012,4.055v.908a9.908,9.908,0,0,0,11.508,9.843,9.967,9.967,0,0,1-8.439-9.843V72.354a3,3,0,0,1,.557-1.762,8.715,8.715,0,0,0,.956-1.715.763.763,0,0,1,.99-.423,16.463,16.463,0,0,0,6.206,1.274,14.505,14.505,0,0,0,6.958-1.787,2.288,2.288,0,0,0,1.084-1.293C103.078,66.627,103.162,63.613,103.162,63.613Zm0,0" transform="translate(-72.025 -57.525)" fill="#ecbd83"/>
    <path id="Trazado_873237" data-name="Trazado 873237" d="M277.9,34.272a2.3,2.3,0,0,0-.618.084,2.374,2.374,0,0,1-2.608-1.1c-2.142-3.488-2.144-9.728-2.144-9.728h2.3a3.836,3.836,0,0,1,3.836,3.836v7.045A2.279,2.279,0,0,0,277.9,34.272Zm0,0" transform="translate(-245.997 -21.279)" fill="#966a5b"/>
    <path id="Trazado_873238" data-name="Trazado 873238" d="M178.122,207.9a.771.771,0,0,0-.747.96,3.837,3.837,0,0,0,7.429,0,.771.771,0,0,0-.747-.96Zm0,0" transform="translate(-159.925 -188.005)" fill="#fff"/>
    <path id="Trazado_873239" data-name="Trazado 873239" d="M118.348,461.005h-5.37a.767.767,0,0,1-.767-.767v-3.069a.767.767,0,0,1,.767-.767h5.37a.767.767,0,0,1,.767.767v3.069A.767.767,0,0,1,118.348,461.005Zm0,0" transform="translate(-101.02 -412.723)" fill="#ffe09f"/>
    <path id="Trazado_873240" data-name="Trazado 873240" d="M96.947,34.272a2.3,2.3,0,0,1,.618.084c1,.279,1.828-.472,2.37-1.353,2.142-3.488,2.382-9.472,2.382-9.472h-2.3a3.836,3.836,0,0,0-3.836,3.836v7.045A2.279,2.279,0,0,1,96.947,34.272Zm0,0" transform="translate(-86.523 -21.279)" fill="#785353"/>
    <path id="Trazado_873241" data-name="Trazado 873241" d="M156.045,7.5h-9.417a2.328,2.328,0,0,0-2.354,2.3l.087,1.8A3.818,3.818,0,0,0,146.8,14.96a16.579,16.579,0,0,0,15.157-1.316,1.531,1.531,0,0,0,.606-1.9A7.065,7.065,0,0,0,156.045,7.5Zm0,0" transform="translate(-130.014 -6.782)" fill="#966a5b"/>
    <path id="Trazado_873242" data-name="Trazado 873242" d="M8.779,390.59A4.592,4.592,0,0,0,8,393.145v8.346h6.9v-4.636a3.069,3.069,0,0,0-1.185-2.422Zm0,0" transform="translate(-6.782 -353.209)" fill="#c3ddff"/>
    <path id="Trazado_873243" data-name="Trazado 873243" d="M358.82,390.59a4.592,4.592,0,0,1,.779,2.555v8.346h-6.9v-4.636a3.069,3.069,0,0,1,1.185-2.422Zm0,0" transform="translate(-318.489 -353.209)" fill="#c3ddff"/>
    <path id="Trazado_873244" data-name="Trazado 873244" d="M118.348,482.754h-5.37a.767.767,0,0,1-.767-.767v-1.534h6.9v1.534A.767.767,0,0,1,118.348,482.754Zm0,0" transform="translate(-101.02 -434.472)" fill="#f6d190"/>
    <path id="Trazado_873245" data-name="Trazado 873245" d="M114.067,315.42l-1.856,2.475,5.052,5.052a1.534,1.534,0,0,0,2.17,0l2.751-2.751-7.064-4.944A.767.767,0,0,0,114.067,315.42Zm0,0" transform="translate(-101.02 -284.955)" fill="#c3ddff"/>
    <path id="Trazado_873246" data-name="Trazado 873246" d="M224.539,315.42a.767.767,0,0,0-1.053-.168l-7.063,4.944,2.751,2.751a1.534,1.534,0,0,0,2.17,0l5.052-5.052Zm0,0" transform="translate(-195.257 -284.955)" fill="#c3ddff"/>
    <path id="Trazado_873247" data-name="Trazado 873247" d="M161.542,154.511a.718.718,0,0,0,.718-.718v-.767a.718.718,0,0,0-1.436,0v.767A.718.718,0,0,0,161.542,154.511Zm0,0" transform="translate(-144.981 -137.732)"/>
    <path id="Trazado_873248" data-name="Trazado 873248" d="M257.733,154.511a.718.718,0,0,0,.718-.718v-.767a.718.718,0,0,0-1.436,0v.767A.718.718,0,0,0,257.733,154.511Zm0,0" transform="translate(-231.966 -137.732)"/>
    <path id="Trazado_873249" data-name="Trazado 873249" d="M168.84,201.12a4.554,4.554,0,1,0,9.107,0,.718.718,0,0,0-.718-.718h-7.672A.718.718,0,0,0,168.84,201.12Zm7.588.718a3.118,3.118,0,0,1-6.069,0Zm0,0" transform="translate(-152.229 -181.223)"/>
    <path id="Trazado_873250" data-name="Trazado 873250" d="M38.418,34.97l-6.83-2.627-1.732-2.31a1.477,1.477,0,0,0-1.836-.444v-3.03a10.672,10.672,0,0,0,3.836-8.2v-.05H31.9a3.018,3.018,0,0,0,1.485-5.646V7.622A7.631,7.631,0,0,0,25.767,0H16.561a3.021,3.021,0,0,0-2.627,1.534h-.442A4.559,4.559,0,0,0,8.939,6.088v6.579a3.018,3.018,0,0,0,1.485,5.646h.049v.05a10.672,10.672,0,0,0,3.836,8.2v3.03a1.477,1.477,0,0,0-1.836.444l-1.732,2.31L3.911,34.97A5.353,5.353,0,0,0,.5,39.936v8.346a.718.718,0,0,0,1.436,0V39.936a3.846,3.846,0,0,1,.246-1.349L6.464,41.8a2.362,2.362,0,0,1,.94,1.88v4.6a.718.718,0,0,0,1.436,0v-4.6A3.8,3.8,0,0,0,7.326,40.65l-4.4-3.3a3.866,3.866,0,0,1,1.5-1.042l6.587-2.534L15.736,38.5a2.253,2.253,0,0,0,3.185,0l1.526-1.526V48.282a.718.718,0,0,0,1.436,0V36.973L23.407,38.5a2.253,2.253,0,0,0,3.185,0l1.984-1.984A.718.718,0,1,0,27.561,35.5l-1.984,1.984a.817.817,0,0,1-1.155,0l-2.146-2.146,6.362-4.454a.049.049,0,0,1,.068.011l1.483,1.976-.327.327a.718.718,0,1,0,1.015,1.015l.437-.437L37.9,36.31a3.869,3.869,0,0,1,1.5,1.042L35,40.65a3.8,3.8,0,0,0-1.515,3.029v4.6a.718.718,0,0,0,1.436,0v-4.6a2.362,2.362,0,0,1,.941-1.881l4.283-3.212a3.848,3.848,0,0,1,.246,1.35v8.346a.718.718,0,0,0,1.436,0V39.936A5.353,5.353,0,0,0,38.418,34.97ZM17.906,37.484a.817.817,0,0,1-1.155,0l-4.612-4.612,1.483-1.976a.049.049,0,0,1,.068-.011l6.363,4.454Zm8.678-6.913-5.419,3.794-5.42-3.794v-3a10.67,10.67,0,0,0,10.839,0Zm-5.511-2.953a9.332,9.332,0,0,1-9.164-9.373v-.77a.743.743,0,0,0-.142-.45.719.719,0,0,0-.816-.246,1.563,1.563,0,0,1-.527.1,1.584,1.584,0,1,1,0-3.168,1.555,1.555,0,0,1,.527.1.727.727,0,0,0,.561-.034,6.776,6.776,0,0,0,3.031-3.25.718.718,0,1,0-1.333-.533,5.376,5.376,0,0,1-2.1,2.368,2.847,2.847,0,0,0-.687-.086h-.049V6.088A3.118,3.118,0,0,1,13.493,2.97h.05c0,.016,0,.033,0,.049a.718.718,0,0,0,.786.715A.734.734,0,0,0,14.978,3a1.585,1.585,0,0,1,1.584-1.566h9.206a6.187,6.187,0,0,1,6.187,6.187v4.654H31.9a2.85,2.85,0,0,0-.738.1c-1.481-.654-2.154-2.541-2.341-3.17q.162-.081.324-.168a.737.737,0,0,0,.327-.97.718.718,0,0,0-.981-.308,11.763,11.763,0,0,1-9.394.8,14.781,14.781,0,0,1-4.21-2.079.718.718,0,0,0-.881,1.133,15.908,15.908,0,0,0,4.612,2.3,14.387,14.387,0,0,0,4.333.687A12.933,12.933,0,0,0,27.5,9.78a6.355,6.355,0,0,0,3.1,3.913,1.407,1.407,0,0,0,.553.114h0a1.6,1.6,0,0,0,.4-.052,1.412,1.412,0,0,1,.347-.045,1.584,1.584,0,1,1,0,3.167,1.556,1.556,0,0,1-.522-.1.717.717,0,0,0-.963.674v.908A9.265,9.265,0,0,1,21.073,27.617Zm0,0"/>
    <path id="Trazado_873251" data-name="Trazado 873251" d="M111.566,427.157H109.6v-1.584a.718.718,0,0,0-1.436,0v1.584H106.2a1.487,1.487,0,0,0-1.485,1.485v3.069A1.487,1.487,0,0,0,106.2,433.2h5.37a1.487,1.487,0,0,0,1.485-1.485v-3.069A1.487,1.487,0,0,0,111.566,427.157Zm.049,4.554a.049.049,0,0,1-.049.049H106.2a.049.049,0,0,1-.049-.049v-3.068a.05.05,0,0,1,.049-.05h5.37a.05.05,0,0,1,.049.05Zm0,0" transform="translate(-94.238 -384.195)"/>
  </g>
</svg>
