<svg xmlns="http://www.w3.org/2000/svg" width="61.554" height="56.766" viewBox="0 0 61.554 56.766">
  <g id="Grupo_1111568" data-name="Grupo 1111568" transform="translate(-720 -1276.461)">
    <g id="Rectángulo_401341" data-name="Rectángulo 401341" transform="translate(720 1276.461)" fill="#fece2f" stroke="#faedc1" stroke-width="3">
      <rect width="61.554" height="56.766" rx="12" stroke="none"/>
      <rect x="1.5" y="1.5" width="58.554" height="53.766" rx="10.5" fill="none"/>
    </g>
    <g id="Grupo_1108743" data-name="Grupo 1108743" transform="translate(727.323 1285.4)">
      <path id="Trazado_891335" data-name="Trazado 891335" d="M414.509,14.509H408V8Zm0,0" transform="translate(-374.806 -7.349)" fill="#48cfad"/>
      <path id="Trazado_891336" data-name="Trazado 891336" d="M135.241,88v26.035a6.509,6.509,0,1,0-6.509,6.509H104V103.621h6.509v-1.3h22.129V88Zm0,0" transform="translate(-95.539 -80.841)" fill="#e6e9ed"/>
      <path id="Trazado_891337" data-name="Trazado 891337" d="M128.661,8v2.6H106.532v1.145a5.173,5.173,0,0,0-2.61-1.106l.006-.039V8Zm0,0" transform="translate(-95.467 -7.349)" fill="#e6e9ed"/>
      <path id="Trazado_891338" data-name="Trazado 891338" d="M147.336,43.905V58.224H125.207V56.773a2.588,2.588,0,0,0-1.692-2.434L120,53.017v-1.3a3.066,3.066,0,0,0,.351-.3,3.253,3.253,0,0,0,.885-1.66l.065.006a1.95,1.95,0,0,0,1.953-1.953v-2.6a5.179,5.179,0,0,0-1.953-4.062V40h22.129v3.905Zm0,0" transform="translate(-110.237 -36.746)" fill="#ffeaa7"/>
      <path id="Trazado_891339" data-name="Trazado 891339" d="M216,72h13.017v7.81H216Zm0,0" transform="translate(-198.427 -66.142)" fill="#fcd770"/>
      <path id="Trazado_891340" data-name="Trazado 891340" d="M341.017,334.509A6.509,6.509,0,1,1,334.509,328,6.509,6.509,0,0,1,341.017,334.509Zm0,0" transform="translate(-301.315 -301.315)" fill="#fcd770"/>
      <path id="Trazado_891341" data-name="Trazado 891341" d="M19.716,206.509H8v-2.753a2.588,2.588,0,0,1,1.692-2.434L13.207,200a1.953,1.953,0,1,0,3.905,0l3.515,1.321a2.588,2.588,0,0,1,1.692,2.434v2.753Zm0,0" transform="translate(-7.349 -183.728)" fill="#48cfad"/>
      <path id="Trazado_891342" data-name="Trazado 891342" d="M42.414,45.207v2.6a1.955,1.955,0,0,0-1.953-1.953H33.953A1.95,1.95,0,0,0,32,47.81v-3.8a2.815,2.815,0,0,1,.54-1.666A2.856,2.856,0,0,1,33.953,41.3,4.449,4.449,0,0,1,37.1,40h.111a5.269,5.269,0,0,1,.645.039,5.217,5.217,0,0,1,4.562,5.168Zm0,0" transform="translate(-29.397 -36.746)" fill="#b27946"/>
      <g id="Grupo_1108742" data-name="Grupo 1108742" transform="translate(2.603 9.112)">
        <path id="Trazado_891343" data-name="Trazado 891343" d="M136.644,112.573a1.951,1.951,0,0,1-1.38,3.332l-.065-.006a3,3,0,0,0,.065-.645V112a1.948,1.948,0,0,1,1.38.573Zm0,0" transform="translate(-126.803 -112)" fill="#f0d0b4"/>
        <path id="Trazado_891344" data-name="Trazado 891344" d="M62.509,112v3.254a3,3,0,0,1-.065.645,3.253,3.253,0,0,1-.885,1.66,3.066,3.066,0,0,1-.351.3,3.254,3.254,0,0,1-3.905,0,3.264,3.264,0,0,1-1.237-1.959,3,3,0,0,1-.065-.645V112Zm0,0" transform="translate(-54.047 -112)" fill="#f0d0b4"/>
        <path id="Trazado_891345" data-name="Trazado 891345" d="M75.905,184v1.3a1.953,1.953,0,0,1-3.905,0V184a3.254,3.254,0,0,0,3.905,0Zm0,0" transform="translate(-68.746 -178.142)" fill="#f0d0b4"/>
        <path id="Trazado_891346" data-name="Trazado 891346" d="M34.018,115.9l-.065.006a1.953,1.953,0,0,1,0-3.905v3.254a3,3,0,0,0,.065.645Zm0,0" transform="translate(-32 -112)" fill="#f0d0b4"/>
      </g>
      <path id="Trazado_891347" data-name="Trazado 891347" d="M33.464,0H7.81V2.6H7.7A5.058,5.058,0,0,0,4.2,3.991,3.5,3.5,0,0,0,1.953,7.265v3.8a2.6,2.6,0,0,0,2.164,2.559,3.912,3.912,0,0,0,1.09,1.645v.551l-3.095,1.16A3.27,3.27,0,0,0,0,20.028v3.4H7.81V40.353H33.194a7.168,7.168,0,0,0,7.159-7.159V6.89ZM13.509,16.981l-3.095-1.16v-.551a3.9,3.9,0,0,0,1.09-1.645,2.6,2.6,0,0,0,2.164-2.559v-2.6a5.839,5.839,0,0,0-1.953-4.354v-.2H32.543V7.81h3.905V20.828H15.621v-.8a3.27,3.27,0,0,0-2.112-3.047Zm-8.3-4.615v-2.6h5.207v2.6a2.6,2.6,0,0,1-5.207,0Zm6.509-2.423a1.291,1.291,0,0,1,0,2.242ZM33.845,6.509V2.222l4.287,4.287ZM9.112,1.3H32.543V2.6H10.414v.618a5.8,5.8,0,0,0-1.3-.467ZM4.762,5.174l.146-.049.109-.109A3.768,3.768,0,0,1,7.7,3.905H7.81a4.561,4.561,0,0,1,4.556,4.556v.362a2.575,2.575,0,0,0-1.3-.362H4.556a2.575,2.575,0,0,0-1.3.362V7.265A2.2,2.2,0,0,1,4.762,5.174ZM3.254,11.065a1.3,1.3,0,0,1,.651-1.121v2.242a1.3,1.3,0,0,1-.651-1.121ZM7.81,16.272a3.886,3.886,0,0,0,1.3-.228v.228a1.3,1.3,0,1,1-2.6,0v-.228A3.886,3.886,0,0,0,7.81,16.272ZM1.3,20.028A1.961,1.961,0,0,1,2.569,18.2l2.8-1.05a2.588,2.588,0,0,0,4.88,0l2.8,1.05a1.961,1.961,0,0,1,1.267,1.828v2.1h-1.3v-2.6h-1.3v2.6H3.905v-2.6H2.6v2.6H1.3ZM33.194,39.052a5.858,5.858,0,1,1,5.858-5.858A5.865,5.865,0,0,1,33.194,39.052Zm0-13.017a7.154,7.154,0,0,0-4.1,13.017H9.112V23.431h6.509v-1.3H37.75V7.81h1.3V29.09a7.153,7.153,0,0,0-5.858-3.056Zm0,0"/>
      <path id="Trazado_891348" data-name="Trazado 891348" d="M385.953,354.6a.652.652,0,0,1,.651.651h1.3a1.95,1.95,0,0,0-1.3-1.833V352h-1.3v1.422a1.948,1.948,0,0,0,.651,3.785.651.651,0,1,1-.651.651H384a1.95,1.95,0,0,0,1.3,1.833v1.422h1.3v-1.422a1.948,1.948,0,0,0-.651-3.785.651.651,0,0,1,0-1.3Zm0,0" transform="translate(-352.759 -323.362)"/>
      <path id="Trazado_891349" data-name="Trazado 891349" d="M128,448h11.716v1.3H128Zm0,0" transform="translate(-117.586 -411.552)"/>
      <path id="Trazado_891350" data-name="Trazado 891350" d="M288,448h1.3v1.3H288Zm0,0" transform="translate(-264.569 -411.552)"/>
      <path id="Trazado_891351" data-name="Trazado 891351" d="M128,416h14.319v1.3H128Zm0,0" transform="translate(-117.586 -382.155)"/>
      <path id="Trazado_891352" data-name="Trazado 891352" d="M128,384h14.319v1.3H128Zm0,0" transform="translate(-117.586 -352.759)"/>
      <path id="Trazado_891353" data-name="Trazado 891353" d="M128,352h14.319v1.3H128Zm0,0" transform="translate(-117.586 -323.362)"/>
      <path id="Trazado_891354" data-name="Trazado 891354" d="M128,320h14.319v1.3H128Zm0,0" transform="translate(-117.586 -293.966)"/>
      <path id="Trazado_891355" data-name="Trazado 891355" d="M416,224h1.3v1.3H416Zm0,0" transform="translate(-382.155 -205.776)"/>
      <path id="Trazado_891356" data-name="Trazado 891356" d="M208,224h15.621v1.3H208Zm0,0" transform="translate(-191.078 -205.776)"/>
      <path id="Trazado_891357" data-name="Trazado 891357" d="M208,192h3.905v1.3H208Zm0,0" transform="translate(-191.078 -176.379)"/>
      <path id="Trazado_891358" data-name="Trazado 891358" d="M272,192h13.017v1.3H272Zm0,0" transform="translate(-249.871 -176.379)"/>
      <path id="Trazado_891359" data-name="Trazado 891359" d="M222.319,64H208v9.112h14.319Zm-1.3,7.81H209.3V65.3h11.716Zm0,0" transform="translate(-191.078 -58.793)"/>
    </g>
  </g>
</svg>
