<svg xmlns="http://www.w3.org/2000/svg" width="61.554" height="56.766" viewBox="0 0 61.554 56.766">
  <g id="Grupo_1111565" data-name="Grupo 1111565" transform="translate(-205 -2587.993)">
    <g id="Rect치ngulo_401341" data-name="Rect치ngulo 401341" transform="translate(205 2587.993)" fill="#fece2f" stroke="#faedc1" stroke-width="3">
      <rect width="61.554" height="56.766" rx="12" stroke="none"/>
      <rect x="1.5" y="1.5" width="58.554" height="53.766" rx="10.5" fill="none"/>
    </g>
    <g id="Money" transform="translate(216.394 2596.198)">
      <path id="Trazado_891938" data-name="Trazado 891938" d="M3,9H33.186V24.812H3Z" transform="translate(-2.281 -3.969)" fill="#5eac24"/>
      <path id="Trazado_891939" data-name="Trazado 891939" d="M41,9h2.875V24.812H41Z" transform="translate(-12.97 -3.969)" fill="#4e901e"/>
      <circle id="Elipse_11986" data-name="Elipse 11986" cx="5.031" cy="5.031" r="5.031" transform="translate(10.781 7.906)" fill="#ffcd00"/>
      <path id="Trazado_891940" data-name="Trazado 891940" d="M28.468,18.031a5.031,5.031,0,0,1-5.031,5.031A4.965,4.965,0,0,1,22,22.854a5.031,5.031,0,0,0,0-9.645A4.965,4.965,0,0,1,23.437,13,5.031,5.031,0,0,1,28.468,18.031Z" transform="translate(-7.626 -5.094)" fill="#ddb200"/>
      <path id="Trazado_891941" data-name="Trazado 891941" d="M55,3h4.312V18.812H55Z" transform="translate(-16.908 -2.281)" fill="#2488ff"/>
      <path id="Trazado_891942" data-name="Trazado 891942" d="M58,3h2.156V18.812H58Z" transform="translate(-17.752 -2.281)" fill="#005ece"/>
      <path id="Trazado_891943" data-name="Trazado 891943" d="M45.346,38.926,23.195,51.834a2.9,2.9,0,0,1-1.445.388H11.875L9,51.51V40l2.882-.719H26.249a2.871,2.871,0,0,1,2.465,4.348L43.2,35.188a2.143,2.143,0,0,1,2.925.791,2.171,2.171,0,0,1-.783,2.947Z" transform="translate(-3.969 -11.255)" fill="#ffc477"/>
      <path id="Trazado_891944" data-name="Trazado 891944" d="M28.736,45.312a2.861,2.861,0,0,0-2.487-1.437H11.882L9,44.594V41.719L11.882,41H26.249a2.871,2.871,0,0,1,2.487,4.312Z" transform="translate(-3.969 -12.97)" fill="#ffa733"/>
      <path id="Trazado_891945" data-name="Trazado 891945" d="M53.579,38.5a2.14,2.14,0,0,0-2.659-.431L36.43,46.509a2.852,2.852,0,0,0,.029-2.9l14.461-8.423A2.148,2.148,0,0,1,53.579,38.5Z" transform="translate(-11.685 -11.256)" fill="#ffa733"/>
      <path id="Trazado_891946" data-name="Trazado 891946" d="M36.467,47.014c0-.007,0-.007-.007-.014" transform="translate(-11.693 -14.658)" fill="none"/>
      <path id="Trazado_891947" data-name="Trazado 891947" d="M47.687,5V16.5l-3.062,1.222a1.432,1.432,0,0,1-1.064,0L40.5,16.5H34.031a2.156,2.156,0,1,1,0-4.312H40.5V7.875H29L31.875,5Z" transform="translate(-9.595 -2.844)" fill="#ffc477"/>
      <path id="Trazado_891948" data-name="Trazado 891948" d="M53.031,5V16.5l-3.062,1.222a1.432,1.432,0,0,1-1.064,0L48,17.362l2.156-.862V5Z" transform="translate(-14.939 -2.844)" fill="#ffa733"/>
      <rect id="Rect치ngulo_405079" data-name="Rect치ngulo 405079" width="4.312" height="15.812" rx="2" transform="translate(0.719 26.593)" fill="#2488ff"/>
      <path id="Trazado_891949" data-name="Trazado 891949" d="M7.734,40.437V53.374A1.442,1.442,0,0,1,6.3,54.812H4.859a1.207,1.207,0,0,1-.359-.05,1.437,1.437,0,0,0,1.078-1.387V40.437A1.437,1.437,0,0,0,4.5,39.05,1.207,1.207,0,0,1,4.859,39H6.3A1.442,1.442,0,0,1,7.734,40.437Z" transform="translate(-2.703 -12.407)" fill="#005ece"/>
      <path id="Trazado_891950" data-name="Trazado 891950" d="M44.782,35.341a2.875,2.875,0,0,0-3.909-1.051l-13,7.575a3.6,3.6,0,0,0-3.594-3.578H9.915a.743.743,0,0,0-.174.021l-2.012.5A2.151,2.151,0,0,0,5.594,36.85H4.156A2.156,2.156,0,0,0,2,39.006V51.943A2.156,2.156,0,0,0,4.156,54.1H5.594a2.151,2.151,0,0,0,2.135-1.952l2.005.494a.725.725,0,0,0,.172.021h9.875a3.593,3.593,0,0,0,1.809-.489L43.739,39.267a2.9,2.9,0,0,0,1.043-3.926ZM6.312,51.943a.719.719,0,0,1-.719.719H4.156a.719.719,0,0,1-.719-.719V39.006a.719.719,0,0,1,.719-.719H5.594a.719.719,0,0,1,.719.719Zm36.7-13.917L20.866,50.931a2.156,2.156,0,0,1-1.085.293H9.994L7.75,50.672V40.287L10,39.725H24.28a2.151,2.151,0,0,1,1.849,3.259,2.278,2.278,0,0,1-.32.42,2.169,2.169,0,0,1-1.529.634H17.093v1.437H24.28a3.547,3.547,0,0,0,2.978-1.587l14.334-8.354a1.412,1.412,0,0,1,1.941.523,1.453,1.453,0,0,1-.518,1.969Z" transform="translate(-2 -10.976)"/>
      <path id="Trazado_891951" data-name="Trazado 891951" d="M2.719,23.562H32.9a.719.719,0,0,0,.719-.719V16.717l2.074.83a2.152,2.152,0,0,0,1.6,0l2.074-.83v1.813a.719.719,0,0,0,.719.719H44.4a.719.719,0,0,0,.719-.719V2.719A.719.719,0,0,0,44.4,2H40.092a.719.719,0,0,0-.719.719v.719H24.28a.719.719,0,0,0-.508.21L21.108,6.312H2.719A.719.719,0,0,0,2,7.031V22.843A.719.719,0,0,0,2.719,23.562ZM40.811,3.437h2.875V17.812H40.811ZM24.578,4.875h14.8V15.169l-2.608,1.043a.714.714,0,0,1-.534,0l-3.06-1.222a.727.727,0,0,0-.267-.053H26.436a1.437,1.437,0,0,1,0-2.875H35.78V10.625H33.624V7.031a.719.719,0,0,0-.719-.719H23.14ZM3.437,7.75H32.186v2.875h-5.75a2.875,2.875,0,0,0,0,5.75h5.75v5.75H3.437Z" transform="translate(-2 -2)"/>
      <path id="Trazado_891952" data-name="Trazado 891952" d="M21.75,12a5.75,5.75,0,1,0,5.75,5.75A5.75,5.75,0,0,0,21.75,12Zm0,10.062a4.312,4.312,0,1,1,4.312-4.312,4.312,4.312,0,0,1-4.312,4.312Z" transform="translate(-5.938 -4.813)"/>
      <path id="Trazado_891953" data-name="Trazado 891953" d="M6,12.719v2.875H7.437V13.437H9.594V12H6.719A.719.719,0,0,0,6,12.719Z" transform="translate(-3.125 -4.813)"/>
      <path id="Trazado_891954" data-name="Trazado 891954" d="M7.437,23H6v2.875a.719.719,0,0,0,.719.719H9.594V25.156H7.437Z" transform="translate(-3.125 -7.907)"/>
      <path id="Trazado_891955" data-name="Trazado 891955" d="M39.156,25.156H37v1.437h2.875a.719.719,0,0,0,.719-.719V23H39.156Z" transform="translate(-11.845 -7.907)"/>
    </g>
  </g>
</svg>
