<svg xmlns="http://www.w3.org/2000/svg" width="90" height="83" viewBox="0 0 90 83">
  <g id="Grupo_1111598" data-name="Grupo 1111598" transform="translate(6582 8580.652)">
    <g id="Grupo_1111593" data-name="Grupo 1111593">
      <g id="Rectángulo_405029" data-name="Rectángulo 405029" transform="translate(-6582 -8580.652)" fill="#d6c0fd" stroke="#fff" stroke-width="3">
        <rect width="90" height="83" rx="12" stroke="none"/>
        <rect x="1.5" y="1.5" width="87" height="80" rx="10.5" fill="none"/>
      </g>
      <g id="Grupo_1109485" data-name="Grupo 1109485" transform="translate(-6569.355 -8584.339)">
        <g id="Grupo_1109484" data-name="Grupo 1109484" transform="translate(1.997 16.336)">
          <g id="Grupo_1109481" data-name="Grupo 1109481">
            <path id="Trazado_892261" data-name="Trazado 892261" d="M64.7,42.665C61.689,31.871,50.456,23.338,37.247,23.338S11.859,30.527,9,42.779a4.028,4.028,0,0,1,7.339-.225.454.454,0,0,0,.815,0,4.028,4.028,0,0,1,7.237,0,.454.454,0,0,0,.815,0,4.028,4.028,0,0,1,7.237,0,.454.454,0,0,0,.815,0,4.028,4.028,0,0,1,7.237,0,.454.454,0,0,0,.815,0,4.028,4.028,0,0,1,7.237,0,.454.454,0,0,0,.815,0,4.028,4.028,0,0,1,7.237,0,.454.454,0,0,0,.815,0,4.028,4.028,0,0,1,7.289.111Z" transform="translate(-9 -23.338)" fill="#72d561" fill-rule="evenodd"/>
            <path id="Trazado_892262" data-name="Trazado 892262" d="M64.7,148.352a22.812,22.812,0,0,0-1.3-3.5,4.027,4.027,0,0,0-5.991,1.486.454.454,0,0,1-.815,0,4.028,4.028,0,0,0-7.237,0,.454.454,0,0,1-.815,0,4.028,4.028,0,0,0-7.237,0,.454.454,0,0,1-.815,0,4.028,4.028,0,0,0-7.237,0,.454.454,0,0,1-.815,0,4.028,4.028,0,0,0-7.237,0,.454.454,0,0,1-.815,0,4.028,4.028,0,0,0-7.237,0,.454.454,0,0,1-.815,0,4.027,4.027,0,0,0-6.261-1.27A22.8,22.8,0,0,0,9,148.466a4.028,4.028,0,0,1,7.339-.225.454.454,0,0,0,.815,0,4.028,4.028,0,0,1,7.237,0,.454.454,0,0,0,.815,0,4.028,4.028,0,0,1,7.237,0,.454.454,0,0,0,.815,0,4.028,4.028,0,0,1,7.237,0,.454.454,0,0,0,.815,0,4.028,4.028,0,0,1,7.237,0,.454.454,0,0,0,.815,0,4.028,4.028,0,0,1,7.237,0,.454.454,0,0,0,.815,0,4.028,4.028,0,0,1,7.289.111Z" transform="translate(-8.999 -129.025)" fill="#42c345" fill-rule="evenodd"/>
            <path id="Trazado_892263" data-name="Trazado 892263" d="M79.355,42.8c.888-6.569,7.193-15.952,12.385-19.466,5.221,3.535,10.879,12.9,11.709,19.471a.445.445,0,0,0,.408-.254,4.028,4.028,0,0,1,7.237,0,.454.454,0,0,0,.815,0c-1.855-8.087-11-16.757-20.169-19.216A98.157,98.157,0,0,0,87.455,42.8a.443.443,0,0,0,.3-.242,4.028,4.028,0,0,1,7.237,0,.445.445,0,0,0,.408.254A96.457,96.457,0,0,0,91.74,23.338C82.568,25.8,73.111,34.589,71.256,42.675l.088.122a.444.444,0,0,0,.3-.243,4.028,4.028,0,0,1,7.237,0,.445.445,0,0,0,.408.254.482.482,0,0,0,.063,0Z" transform="translate(-63.493 -23.338)" fill="#39b33b" fill-rule="evenodd"/>
            <path id="Trazado_892264" data-name="Trazado 892264" d="M79.356,148.491a16.906,16.906,0,0,1,.564-2.544,4.007,4.007,0,0,0-.22.392.454.454,0,0,1-.815,0,4.027,4.027,0,0,0-6.66-.871,16.573,16.573,0,0,0-.968,2.894l.088.122a.444.444,0,0,0,.3-.243,4.028,4.028,0,0,1,7.237,0,.445.445,0,0,0,.408.255A.482.482,0,0,0,79.356,148.491Zm23.668-2.187a18.109,18.109,0,0,1,.425,2.191.445.445,0,0,0,.408-.255,4.028,4.028,0,0,1,7.237,0,.454.454,0,0,0,.815,0,16.068,16.068,0,0,0-.477-1.652.443.443,0,0,1-.338-.25,4.028,4.028,0,0,0-7.237,0,.454.454,0,0,1-.815,0l-.017-.035Zm-15.346.145q-.128,1.016-.223,2.033a.443.443,0,0,0,.3-.242,4.028,4.028,0,0,1,7.237,0,.445.445,0,0,0,.408.255q-.089-.972-.193-1.943a.448.448,0,0,1-.214-.213,4.028,4.028,0,0,0-7.237,0,.468.468,0,0,1-.074.11Z" transform="translate(-63.494 -129.024)" fill="#33a235" fill-rule="evenodd"/>
          </g>
          <g id="Grupo_1109482" data-name="Grupo 1109482" transform="translate(16.328 34.973)">
            <path id="Trazado_892265" data-name="Trazado 892265" d="M151.469,326.861a11.525,11.525,0,1,0-11.525-11.525A11.547,11.547,0,0,0,151.469,326.861Z" transform="translate(-139.944 -303.812)" fill="#fdb800" fill-rule="evenodd"/>
            <path id="Trazado_892266" data-name="Trazado 892266" d="M178.238,325.862a11.524,11.524,0,1,1-16.245,16.245,11.524,11.524,0,0,0,16.245-16.245Z" transform="translate(-159.244 -323.113)" fill="#f4a40e" fill-rule="evenodd"/>
            <path id="Trazado_892267" data-name="Trazado 892267" d="M175.9,347.813a8.044,8.044,0,1,0-8.044-8.044,8.06,8.06,0,0,0,8.044,8.044Z" transform="translate(-164.376 -328.244)" fill="#ffda2d" fill-rule="evenodd"/>
            <path id="Trazado_892268" data-name="Trazado 892268" d="M175.9,331.726a8.021,8.021,0,0,1,5.89,2.566,8.044,8.044,0,0,0-10.656,11.958,8.044,8.044,0,0,1,4.766-14.524Z" transform="translate(-164.377 -328.245)" fill="#ffc700" fill-rule="evenodd"/>
          </g>
          <g id="Grupo_1109483" data-name="Grupo 1109483" transform="translate(41.387 23.916)">
            <path id="Trazado_892269" data-name="Trazado 892269" d="M354.878,217.507a.459.459,0,0,1,.146-.812l5.382-1.539a.459.459,0,0,1,.586.431l.132,5.6a.459.459,0,0,1-.732.381l-1.224-.9-5.684,7.937a2.7,2.7,0,0,1-2.672.967l-2.847-.36-3.442,4.834c-1.459,2.442-4.654.294-3.27-1.683l4.337-6.228a1.669,1.669,0,0,1,1.543-.822c1.169.163,3.033.579,3.706.643l5.379-7.457-1.34-.986Z" transform="translate(-340.912 -215.137)" fill="#64b5f6" fill-rule="evenodd"/>
            <path id="Trazado_892270" data-name="Trazado 892270" d="M368.522,215.362l.725-.207a.459.459,0,0,1,.586.431l.132,5.6a.459.459,0,0,1-.732.381l-.515-.379v0l-.132-5.6a.456.456,0,0,0-.064-.224Zm-.944,5.9-5.254,7.336a2.7,2.7,0,0,1-2.672.967l-.093-.012a2.51,2.51,0,0,0,1.518-.955l5.684-7.937ZM356.7,229.35l-3.339,4.69a1.915,1.915,0,0,1-2.35.98,2.188,2.188,0,0,0,1.1-.98l3.442-4.834Zm-1.4-3.954a1.329,1.329,0,0,1,.676-.089c.743.1,1.769.31,2.589.462l-.13.18C357.862,225.9,356.433,225.588,355.3,225.4Z" transform="translate(-349.754 -215.137)" fill="#42a5f5" fill-rule="evenodd"/>
          </g>
        </g>
        <path id="Trazado_892271" data-name="Trazado 892271" d="M62.228,44.974a.994.994,0,0,0-1.4.223L55.159,53.11a1.7,1.7,0,0,1-1.729.584l-2.87-.362a1,1,0,0,0-.941.411l-3.44,4.834c-.012.022-.029.044-.041.067a1.009,1.009,0,0,1-.894.6.965.965,0,0,1-.8-.5.645.645,0,0,1,.1-.7l4.334-6.228a.379.379,0,0,0,.041-.069.758.758,0,0,1,.512-.338l.035,0c.547.076,1.288.218,1.947.342.759.144,1.411.269,1.8.306a1,1,0,0,0,.906-.41L59.5,44.192a1,1,0,0,0-.218-1.387l-.459-.336,3.658-1.047.088,3.8-.341-.252Zm2.364,1.36v-.061l-.135-5.6A1.458,1.458,0,0,0,62.6,39.311L57.218,40.85a1.458,1.458,0,0,0-.459,2.575l.541.4-4.446,6.165c-.312-.054-.694-.127-1.07-.2-.712-.135-1.447-.275-2.041-.358A2.674,2.674,0,0,0,47.22,50.7L42.9,56.9a2.629,2.629,0,0,0-.247,2.73,2.959,2.959,0,0,0,2.505,1.611l.112,0a2.98,2.98,0,0,0,2.552-1.54L50.9,55.386l2.252.285.035,0,.053,0a3.653,3.653,0,0,0,3.488-1.34l.035-.044,5.093-7.115.412.3a1.457,1.457,0,0,0,2.323-1.147ZM32.706,64.509a2.677,2.677,0,0,1-1.858,2.547v.559a1,1,0,1,1-1.994,0V67.1a2.689,2.689,0,0,1-1.511-1.027A1,1,0,0,1,28.959,64.9a.683.683,0,0,0,.547.285h.529a.676.676,0,0,0,.676-.677.687.687,0,0,0-.676-.677h-.376a2.672,2.672,0,0,1-.806-5.219v-.559a1,1,0,1,1,1.994,0v.517A2.675,2.675,0,0,1,32.353,59.6a1,1,0,1,1-1.617,1.168.668.668,0,0,0-.547-.284h-.529a.678.678,0,0,0,0,1.355h.376a2.671,2.671,0,0,1,2.67,2.672Zm-2.858,5.372A7.047,7.047,0,1,0,22.8,62.834a7.052,7.052,0,0,0,7.045,7.047Zm0-16.088a9.041,9.041,0,1,0,9.045,9.041,9.049,9.049,0,0,0-9.045-9.041Zm0,19.569A10.527,10.527,0,1,0,19.32,62.834,10.539,10.539,0,0,0,29.847,73.361ZM5.718,34.291a3.019,3.019,0,0,1,2.723,1.7,1.436,1.436,0,0,0,.859.743l12.185,16.79a.893.893,0,0,0-.076.068l-18.184-18a3.026,3.026,0,0,1,2.494-1.3ZM23.637,17.943c-6.6,3.585-12.285,9.719-14.367,15.823A4.989,4.989,0,0,0,5.718,32.3a5.048,5.048,0,0,0-1.641.273c3.14-7.518,10.38-12.885,19.56-14.627ZM55.471,32.507A5.058,5.058,0,0,0,54.03,32.3a5,5,0,0,0-3.2,1.144c-2.07-5.85-7.428-11.7-13.7-15.284,8.139,1.965,15.044,7.3,18.337,14.351Zm.976,2.992a3.027,3.027,0,0,0-5.14.492,1.429,1.429,0,0,1-.706.685L38.251,53.557l.018.016L56.447,35.5ZM42.692,36.6,35.964,51.911q.362.2.706.428l12-16.4a3.029,3.029,0,0,0-5.416.053,1.441,1.441,0,0,1-.565.612Zm-7.886-.116a1.5,1.5,0,0,0,.4-.5,3.031,3.031,0,0,1,5.446,0,1.148,1.148,0,0,0,.071.133l-6.569,14.95a12.544,12.544,0,0,0-1.429-.429l2.082-14.159ZM28.9,50.348c.312-.024.629-.035.947-.035s.606.011.906.032L32.817,36.32a1.405,1.405,0,0,1-.223-.328,3.031,3.031,0,0,0-5.446,0,1.393,1.393,0,0,1-.223.333Zm-3.205.673a12.114,12.114,0,0,1,1.235-.365L24.937,36.483a1.4,1.4,0,0,1-.394-.492,3.031,3.031,0,0,0-5.446,0c-.024.045-.047.086-.071.128l6.669,14.9ZM17.18,33.63c1.194-4.871,4.5-10.348,8.016-14.242-5.74,2.971-10.915,8.089-13.332,13.281a5.046,5.046,0,0,1,1.905-.372,4.976,4.976,0,0,1,3.411,1.333Zm25.477-.081a5.044,5.044,0,0,1,5.84-.582c-2.429-5.57-8.1-11.122-14.309-14.093C37.857,22.769,41.392,28.481,42.656,33.549Zm-8-.049a5.05,5.05,0,0,1,5.757-.549,35.638,35.638,0,0,0-8.627-13.665A95.75,95.75,0,0,1,34.658,33.5ZM29.93,20.045a93.7,93.7,0,0,1,2.664,13.048,5.048,5.048,0,0,0-5.322-.073A94.306,94.306,0,0,1,29.93,20.045Zm-1.864-.759a35.751,35.751,0,0,0-8.6,13.594,5.05,5.05,0,0,1,5.728.709,95.476,95.476,0,0,1,2.876-14.3Zm-5,33.026L11.122,35.851a3.028,3.028,0,0,1,5.369.139,1.474,1.474,0,0,0,.565.615l6.816,15.227C23.6,51.982,23.331,52.142,23.067,52.311ZM58.406,36.371a1,1,0,0,0,.253-.976c-3.246-11.621-15.2-20.056-28.417-20.056A34.044,34.044,0,0,0,11.669,20.63,24.335,24.335,0,0,0,1.025,35.551a1,1,0,0,0,.271.936L20.044,55.051a12.521,12.521,0,1,0,19.59-.021L58.406,36.371Z" fill-rule="evenodd"/>
      </g>
    </g>
  </g>
</svg>
