<svg xmlns="http://www.w3.org/2000/svg" width="90" height="83" viewBox="0 0 90 83">
  <g id="Grupo_1111580" data-name="Grupo 1111580" transform="translate(-282.051 -4419.23)">
    <g id="Rectángulo_401341" data-name="Rectángulo 401341" transform="translate(282.051 4419.23)" fill="#f4eefe" stroke="#fff" stroke-width="3">
      <rect width="90" height="83" rx="12" stroke="none"/>
      <rect x="1.5" y="1.5" width="87" height="80" rx="10.5" fill="none"/>
    </g>
    <g id="Users_Male_Add" data-name="Users Male Add" transform="translate(296.553 4430.732)">
      <g id="Filled" transform="translate(0.937 0.937)">
        <path id="Trazado_893026" data-name="Trazado 893026" d="M277.414,193.026,271,192h-5.625l-6.415,1.026A3.515,3.515,0,0,0,256,196.5v16.126h24.374V196.5a3.515,3.515,0,0,0-2.96-3.471Z" transform="translate(-226.939 -170.439)" fill="#d65858"/>
        <path id="Trazado_893027" data-name="Trazado 893027" d="M38.876,232.314l-9.315-1.733H20.187l-9.315,1.733A3.515,3.515,0,0,0,8,235.771v27.788H41.748V235.771a3.515,3.515,0,0,0-2.872-3.456Z" transform="translate(-8 -204.499)" fill="#0277bd"/>
        <path id="Trazado_893028" data-name="Trazado 893028" d="M112,176h9.375v9.375H112Z" transform="translate(-99.813 -156.313)" fill="#fac7b7"/>
        <path id="Trazado_893029" data-name="Trazado 893029" d="M41.1,257.521a32.354,32.354,0,0,1-30.757,22.321q-1.182,0-2.344-.085v7.585H41.748V259.554A3.506,3.506,0,0,0,41.1,257.521Z" transform="translate(-8 -228.282)" fill="#0469bc"/>
        <path id="Trazado_893030" data-name="Trazado 893030" d="M77.945,17.085a3.966,3.966,0,0,1,1.936-.584,3.062,3.062,0,0,1,1.741.571,6.13,6.13,0,0,0,6.8,0,3.221,3.221,0,0,1,3.677.013L94.1,18.207l.223.008a9.185,9.185,0,1,0-18.262-.068Z" transform="translate(-68.013 -8)" fill="#525252"/>
        <path id="Trazado_893031" data-name="Trazado 893031" d="M306.448,38.09a2.531,2.531,0,0,1,1.439.472,5.068,5.068,0,0,0,5.625,0,2.663,2.663,0,0,1,3.04.011l.714.4a6.538,6.538,0,1,0-13.05-.046l.632-.355A3.275,3.275,0,0,1,306.448,38.09Z" transform="translate(-269.484 -29.188)" fill="#525252"/>
        <path id="Trazado_893032" data-name="Trazado 893032" d="M94.676,82.252l-1.993-1.121a3.221,3.221,0,0,0-3.677-.013,6.13,6.13,0,0,1-6.8,0,3.062,3.062,0,0,0-1.741-.571,3.963,3.963,0,0,0-1.936.584l-1.888,1.061c.029.22.066.441.112.663l1.371,6.354a8.065,8.065,0,0,0,15.3,0L94.8,82.855c.042-.2.076-.4.1-.6Z" transform="translate(-68.594 -72.046)" fill="#ffdecf"/>
        <path id="Trazado_893033" data-name="Trazado 893033" d="M336,152h5.625v7.5H336Z" transform="translate(-297.564 -135.126)" fill="#fac7b7"/>
        <path id="Trazado_893034" data-name="Trazado 893034" d="M108.185,121.777l.937-4.339a15.483,15.483,0,0,1-15.764,5.5,8.077,8.077,0,0,0,14.827-1.165Z" transform="translate(-83.355 -104.614)" fill="#ffd3c2"/>
        <circle id="Elipse_12005" data-name="Elipse 12005" cx="13.199" cy="13.199" r="13.199" transform="translate(31.86 31.861)" fill="#ffd740"/>
        <path id="Trazado_893035" data-name="Trazado 893035" d="M343,333.625h-5.625V328h-3.75v5.625H328v3.75h5.625V343h3.75v-5.625H343Z" transform="translate(-290.502 -290.502)" fill="#0277bd"/>
        <path id="Trazado_893036" data-name="Trazado 893036" d="M320.457,316.335A14.056,14.056,0,0,1,300,332.688a13.124,13.124,0,1,0,20.457-16.353Z" transform="translate(-265.783 -280.204)" fill="#ffc400"/>
        <path id="Trazado_893037" data-name="Trazado 893037" d="M376,381.392v3.983h3.75V379.75h5.625V376H383.03A16.453,16.453,0,0,1,376,381.392Z" transform="translate(-332.877 -332.877)" fill="#0469bc"/>
        <path id="Trazado_893038" data-name="Trazado 893038" d="M316.725,84.453a2.663,2.663,0,0,0-3.04-.011,5.068,5.068,0,0,1-5.625,0,2.531,2.531,0,0,0-1.439-.472,3.278,3.278,0,0,0-1.6.483l-.632.355a6.379,6.379,0,0,0,.112.757l.975,4.518a5.734,5.734,0,0,0,10.881,0l.975-4.518a6.373,6.373,0,0,0,.107-.711Z" transform="translate(-269.658 -75.068)" fill="#ffdecf"/>
        <path id="Trazado_893039" data-name="Trazado 893039" d="M331.822,115.248l.6-2.774a11.713,11.713,0,0,1-10.514,4.572,5.74,5.74,0,0,0,4.475,2.125A5.682,5.682,0,0,0,331.822,115.248Z" transform="translate(-285.123 -100.232)" fill="#ffd3c2"/>
        <circle id="Elipse_12006" data-name="Elipse 12006" cx="2.8" cy="2.8" r="2.8" transform="translate(3.462 28.261)" fill="#4baee0"/>
        <ellipse id="Elipse_12007" data-name="Elipse 12007" cx="2" cy="1.8" rx="2" ry="1.8" transform="translate(8.261 33.861)" fill="#4baee0"/>
        <g id="Grupo_1109496" data-name="Grupo 1109496" transform="translate(9.461 9.462)">
          <circle id="Elipse_12008" data-name="Elipse 12008" cx="1.8" cy="1.8" r="1.8" transform="translate(0 0)" fill="#fff5f2"/>
          <circle id="Elipse_12009" data-name="Elipse 12009" cx="1.4" cy="1.4" r="1.4" transform="translate(3.6 3.6)" fill="#fff5f2"/>
          <circle id="Elipse_12010" data-name="Elipse 12010" cx="1.4" cy="1.4" r="1.4" transform="translate(25.999 0)" fill="#fff5f2"/>
        </g>
        <circle id="Elipse_12011" data-name="Elipse 12011" cx="1.4" cy="1.4" r="1.4" transform="translate(32.66 23.461)" fill="#f29c9c"/>
        <circle id="Elipse_12012" data-name="Elipse 12012" cx="1.4" cy="1.4" r="1.4" transform="translate(13.061 1.062)" fill="#848484"/>
        <circle id="Elipse_12013" data-name="Elipse 12013" cx="1.4" cy="1.4" r="1.4" transform="translate(38.26 3.862)" fill="#848484"/>
        <path id="Trazado_893040" data-name="Trazado 893040" d="M157.113,24.657a14.09,14.09,0,0,1-6.156,8.145c.086,0,.172.006.258.006a6.129,6.129,0,0,0,3.4-1.031,3.221,3.221,0,0,1,3.678.012l1.658.933.579.023A8.9,8.9,0,0,0,157.113,24.657Z" transform="translate(-134.205 -22.705)" fill="#3f3f3f"/>
        <path id="Trazado_893041" data-name="Trazado 893041" d="M350.423,40.378a14.116,14.116,0,0,1-5.232,6.137,5.064,5.064,0,0,0,4.515-.556,2.663,2.663,0,0,1,3.04.011l.714.4A6.359,6.359,0,0,0,350.423,40.378Z" transform="translate(-305.678 -36.584)" fill="#3f3f3f"/>
        <path id="Trazado_893042" data-name="Trazado 893042" d="M136,256h3.75v4.687H136Z" transform="translate(-121.001 -226.939)" fill="#f2b200"/>
        <path id="Trazado_893043" data-name="Trazado 893043" d="M127.5,313.812l-3.75,3.75-3.75-3.75L121.875,296h3.75Z" transform="translate(-106.876 -262.252)" fill="#ffd740"/>
        <path id="Trazado_893044" data-name="Trazado 893044" d="M363.75,189.625,360,187.75l2.812-3.75,2.812,1.875Z" transform="translate(-318.752 -163.376)" fill="#e56161"/>
        <path id="Trazado_893045" data-name="Trazado 893045" d="M313.875,189.625l3.75-1.875L314.812,184,312,185.875Z" transform="translate(-276.377 -163.376)" fill="#e56161"/>
        <path id="Trazado_893046" data-name="Trazado 893046" d="M89.875,225.878l5.625-2.812-4.1-4.1a.937.937,0,0,0-1.245-.072L88,220.605Z" transform="translate(-78.625 -194.005)" fill="#0277bd"/>
        <path id="Trazado_893047" data-name="Trazado 893047" d="M157.625,225.878,152,223.066l4.1-4.1a.937.937,0,0,1,1.245-.072l2.158,1.708Z" transform="translate(-135.126 -194.005)" fill="#0277bd"/>
        <path id="Trazado_893048" data-name="Trazado 893048" d="M94.627,237.947l1.1,3.089,5.625-2.812-2.36-2.36A9.333,9.333,0,0,1,94.627,237.947Z" transform="translate(-84.476 -209.162)" fill="#0469bc"/>
        <path id="Trazado_893049" data-name="Trazado 893049" d="M172.325,235.594l1.875-5.273-.785-.621a17.965,17.965,0,0,1-4.763,4.058Z" transform="translate(-149.827 -203.721)" fill="#0469bc"/>
      </g>
      <g id="Outline" transform="translate(0 0)">
        <path id="Trazado_893050" data-name="Trazado 893050" d="M321.179,35.586a.938.938,0,1,0-.528-1.713l0,0a.937.937,0,0,0,.531,1.711Z" transform="translate(-282.714 -29.76)"/>
        <path id="Trazado_893051" data-name="Trazado 893051" d="M256.937,46.731a.935.935,0,0,0,.688-.3,2.55,2.55,0,0,1,1.483-.793l2.7-.431,2.212,4.424,4.169-2.085,4.169,2.085,2.212-4.424,2.7.431a2.567,2.567,0,0,1,2.171,2.545v3a.937.937,0,1,0,1.875,0v-3a4.434,4.434,0,0,0-3.75-4.4l-4.362-.7-1.263-.842V40.867q.1-.068.2-.141a6.543,6.543,0,0,0,1.453-1.446,6.431,6.431,0,0,0,.941-1.859l.013-.042.986-4.566,0-.011a7.319,7.319,0,0,0,.118-.775c0-.026,0-.051.006-.077.018-.209.03-.418.03-.626A7.152,7.152,0,0,0,275.1,28.5a7.342,7.342,0,0,0-1.589-2.33A7.506,7.506,0,0,0,268.2,24c-.082,0-.164,0-.241,0a.938.938,0,1,0,.028,1.875h.03l.183,0a5.646,5.646,0,0,1,4,1.63,5.411,5.411,0,0,1,1.522,2.84,3.425,3.425,0,0,0-3.273.375,4.131,4.131,0,0,1-4.581,0,3.475,3.475,0,0,0-1.963-.633,3.666,3.666,0,0,0-1.22.218,5.312,5.312,0,0,1,.307-1.011.937.937,0,1,0-1.731-.721,7.11,7.11,0,0,0-.551,2.748c0,.194.01.388.026.582,0,.025,0,.05.006.075a7.366,7.366,0,0,0,.124.833l.985,4.567.014.041a6.458,6.458,0,0,0,.94,1.859,6.566,6.566,0,0,0,1.453,1.446c.059.043.12.084.18.126v1.394l-1.264.842-4.361.7a4.468,4.468,0,0,0-2.563,1.37.937.937,0,0,0,.688,1.575Zm9.375-4.3v-.7a6.741,6.741,0,0,0,3.75.007v.7l-1.875,2.5Zm6.033,2.337.009.006.248.165-1.086,2.171-1.907-.953,1.606-2.142ZM263.663,36.9l-.966-4.474c0-.019-.007-.038-.01-.056l.074-.042a2.367,2.367,0,0,1,1.141-.362,1.624,1.624,0,0,1,.919.315,6.005,6.005,0,0,0,6.67,0,1.746,1.746,0,0,1,2.056.051l.152.086,0,.018-.964,4.467a4.721,4.721,0,0,1-4.532,3.228h0A4.724,4.724,0,0,1,263.663,36.9Zm.355,7.88.009-.006,1.128-.752,1.606,2.142-1.907.953-1.086-2.171Z" transform="translate(-226.001 -21.187)"/>
        <path id="Trazado_893052" data-name="Trazado 893052" d="M245.481,237.879v1.539a.937.937,0,0,0,1.875,0v-1.539a4.455,4.455,0,0,0-3.638-4.379l-2.771-.516a.938.938,0,0,0-.343,1.843l2.771.516A2.58,2.58,0,0,1,245.481,237.879Z" transform="translate(-211.733 -205.669)"/>
        <path id="Trazado_893053" data-name="Trazado 893053" d="M240.937,320a.937.937,0,0,0-.937.937v20.624a.937.937,0,0,0,1.875,0V320.937A.937.937,0,0,0,240.937,320Z" transform="translate(-211.876 -282.502)"/>
        <path id="Trazado_893054" data-name="Trazado 893054" d="M48.937,320a.937.937,0,0,0-.937.937v20.624a.937.937,0,0,0,1.875,0V320.937A.937.937,0,0,0,48.937,320Z" transform="translate(-42.375 -282.502)"/>
        <path id="Trazado_893055" data-name="Trazado 893055" d="M87.486,6.1a9.947,9.947,0,0,0-2.154-3.158A10.1,10.1,0,0,0,82.111.8a10.276,10.276,0,0,0-3.99-.8c-.144,0-.291,0-.438.009a.937.937,0,0,0,.077,1.873c.118,0,.239-.007.361-.007a8.316,8.316,0,0,1,5.892,2.4,7.912,7.912,0,0,1,2.379,5.433l-.9-.506a4.111,4.111,0,0,0-4.657.024,5.193,5.193,0,0,1-5.76,0A4.012,4.012,0,0,0,72.81,8.5a4.846,4.846,0,0,0-2.4.7l-.558.314a7.957,7.957,0,0,1,1.98-4.826.938.938,0,0,0-1.409-1.237,9.678,9.678,0,0,0-2.377,7.7.937.937,0,0,0,.013.1c.031.229.068.457.115.683l1.383,6.4.013.041a8.666,8.666,0,0,0,1.267,2.5A8.841,8.841,0,0,0,72.2,22.362a.94.94,0,0,0-.012.137v2.359l-2.983,2.362,2.455,6.9L75,32.453v2.184L73.087,52.844l4.729,4.729,4.729-4.729L80.629,34.636V32.453l3.341,1.671,2.455-6.9-2.983-2.362V22.836a8.868,8.868,0,0,0,1.958-1.95,8.674,8.674,0,0,0,1.267-2.5l.013-.042,1.382-6.4v-.006a9.884,9.884,0,0,0,.21-2.018A9.646,9.646,0,0,0,87.486,6.1ZM72.72,31.5l-1.3-3.642,1.632-1.292,3.178,3.177Zm5.1-2.826-3.75-3.75V23.6a9.107,9.107,0,0,0,6.89.5c.206-.067.409-.143.609-.225v1.045Zm.937,2.843v2.233H76.879V31.515l.937-.469Zm-.937,23.406-2.771-2.771,1.74-16.528h2.062l1.74,16.528Zm6.391-27.065-1.3,3.642L79.4,29.741l3.177-3.177Zm.658-10a7.018,7.018,0,0,1-6.744,4.824h0a7.019,7.019,0,0,1-6.743-4.821L70.02,11.577l1.312-.738a3.052,3.052,0,0,1,1.476-.463,2.152,2.152,0,0,1,1.221.414,7.068,7.068,0,0,0,7.849,0,2.285,2.285,0,0,1,2.693.053l1.612.907Z" transform="translate(-60.005 0)"/>
        <path id="Trazado_893056" data-name="Trazado 893056" d="M113.267,9.5a.939.939,0,1,0-.848-.537A.939.939,0,0,0,113.267,9.5Z" transform="translate(-99.165 -6.727)"/>
        <path id="Trazado_893057" data-name="Trazado 893057" d="M6.41,232.98l-2.772.516A4.455,4.455,0,0,0,0,237.875v26.85a.937.937,0,1,0,1.875,0v-26.85a2.58,2.58,0,0,1,2.106-2.535l2.771-.516a.938.938,0,0,0-.343-1.844Z" transform="translate(0 -205.665)"/>
        <path id="Trazado_893058" data-name="Trazado 893058" d="M481.28,328.716a.938.938,0,0,0,.817-1.4h0l-.013-.022a.938.938,0,1,0-.805,1.417Z" transform="translate(-424.054 -288.54)"/>
        <path id="Trazado_893059" data-name="Trazado 893059" d="M351.172,357.007a.936.936,0,0,0-.908-.707.963.963,0,0,0-.231.028.938.938,0,0,0-.678,1.139h0A12.192,12.192,0,0,1,331.7,371.182a.937.937,0,0,0-.9,1.645,14.07,14.07,0,0,0,20.369-15.821Z" transform="translate(-291.609 -314.548)"/>
        <path id="Trazado_893060" data-name="Trazado 893060" d="M275.319,291.886a12.189,12.189,0,0,1,19.013-14.744.937.937,0,1,0,1.277-1.372,14.008,14.008,0,0,0-9.58-3.77h0a14.059,14.059,0,0,0-12.344,20.8.938.938,0,0,0,1.645-.9Z" transform="translate(-240.091 -240.126)"/>
        <path id="Trazado_893061" data-name="Trazado 893061" d="M306.4,463.459a.938.938,0,1,0-1.327,1.327l.01.009a.937.937,0,0,0,1.317-1.334Z" transform="translate(-269.079 -408.908)"/>
        <path id="Trazado_893062" data-name="Trazado 893062" d="M331.249,336.874v-5.625h5.625v-5.625h-5.625V320h-5.625v5.625H320v5.625h5.625v5.625Zm-9.375-7.5V327.5H327.5v-5.625h1.875V327.5H335v1.875h-5.625V335H327.5v-5.625Z" transform="translate(-282.502 -282.502)"/>
      </g>
    </g>
  </g>
</svg>
