<svg xmlns="http://www.w3.org/2000/svg" width="90" height="83" viewBox="0 0 90 83">
  <g id="Grupo_1111583" data-name="Grupo 1111583" transform="translate(-1228 -4419.23)">
    <g id="Rectángulo_401341" data-name="Rectángulo 401341" transform="translate(1228 4419.23)" fill="#f4eefe" stroke="#fff" stroke-width="3">
      <rect width="90" height="83" rx="12" stroke="none"/>
      <rect x="1.5" y="1.5" width="87" height="80" rx="10.5" fill="none"/>
    </g>
    <g id="Grupo_1109500" data-name="Grupo 1109500" transform="translate(1240.051 4428.808)">
      <ellipse id="Elipse_12018" data-name="Elipse 12018" cx="19" cy="5" rx="19" ry="5" transform="translate(13 52)" fill="#98aad9"/>
      <path id="Trazado_893130" data-name="Trazado 893130" d="M32,58c7.8-11.133,20-22.84,20-36.981C52,10.515,43.046,2,32,2S12,10.515,12,21.019C12,35.823,23.52,46.408,32,58Z" fill="#d97777"/>
      <circle id="Elipse_12019" data-name="Elipse 12019" cx="16" cy="16" r="16" transform="translate(16 6)" fill="#e6ecf2"/>
      <path id="Trazado_893131" data-name="Trazado 893131" d="M16.291,25a15.992,15.992,0,0,0,31.419,0Z" fill="#62b376"/>
      <path id="Trazado_893132" data-name="Trazado 893132" d="M32,38a15.889,15.889,0,0,0,8.819-2.666A28.174,28.174,0,0,0,32,34a28.174,28.174,0,0,0-8.819,1.334A15.889,15.889,0,0,0,32,38Z" fill="#9dc8f2"/>
      <path id="Trazado_893133" data-name="Trazado 893133" d="M33,19H31a3,3,0,0,0-3,3v3h8V22A3,3,0,0,0,33,19Z" fill="#7dace4"/>
      <circle id="Elipse_12020" data-name="Elipse 12020" cx="2.5" cy="2.5" r="2.5" transform="translate(29.5 14)" fill="#7dace4"/>
      <path id="Trazado_893134" data-name="Trazado 893134" d="M41,19H39a3,3,0,0,0-3,3v3h8V22A3,3,0,0,0,41,19Z" fill="#72a6e4"/>
      <circle id="Elipse_12021" data-name="Elipse 12021" cx="2.5" cy="2.5" r="2.5" transform="translate(37.5 14)" fill="#72a6e4"/>
      <path id="Trazado_893135" data-name="Trazado 893135" d="M25,19H23a3,3,0,0,0-3,3v3h8V22a3,3,0,0,0-3-3Z" fill="#72a6e4"/>
      <circle id="Elipse_12022" data-name="Elipse 12022" cx="2.5" cy="2.5" r="2.5" transform="translate(21.5 14)" fill="#72a6e4"/>
      <path id="Trazado_893136" data-name="Trazado 893136" d="M49,22A17,17,0,1,0,32,39,17,17,0,0,0,49,22ZM25.83,35.657a29.316,29.316,0,0,1,12.34,0A14.842,14.842,0,0,1,25.83,35.657ZM24,18a1.5,1.5,0,1,1,1.5-1.5A1.5,1.5,0,0,1,24,18Zm-1,2h2a2,2,0,0,1,2,2v2H21V22a2,2,0,0,1,2-2Zm9-2a1.5,1.5,0,1,1,1.5-1.5A1.5,1.5,0,0,1,32,18Zm-1,2h2a2,2,0,0,1,2,2v2H29V22a2,2,0,0,1,2-2Zm9-2a1.5,1.5,0,1,1,1.5-1.5A1.5,1.5,0,0,1,40,18Zm-1,2h2a2,2,0,0,1,2,2v2H37V22a2,2,0,0,1,2-2ZM33,33.037V30.012c1.793.025,3.55.116,5.25.272A18.085,18.085,0,0,1,37.031,33.4,31.479,31.479,0,0,0,33,33.037Zm0-5.024V26h5.97a19.178,19.178,0,0,1-.262,2.318c-1.846-.177-3.758-.279-5.708-.305ZM40.97,26h5.472A14.9,14.9,0,0,1,45.1,29.288c-1.4-.3-2.869-.553-4.4-.75A21.179,21.179,0,0,0,40.969,26ZM23.031,26a21.209,21.209,0,0,0,.273,2.538c-1.534.2-3.005.449-4.4.75A14.9,14.9,0,0,1,17.558,26Zm2,0H31v2.013c-1.95.026-3.862.129-5.707.305A19.194,19.194,0,0,1,25.031,26ZM31,30.012v3.024a31.483,31.483,0,0,0-4.031.365,18.092,18.092,0,0,1-1.219-3.118C27.45,30.129,29.207,30.037,31,30.012Zm9.636,4.231c-.513-.159-1.027-.316-1.567-.445a20.228,20.228,0,0,0,1.2-3.3c1.259.158,2.481.348,3.646.578a15.1,15.1,0,0,1-3.276,3.165ZM32,7A14.894,14.894,0,0,1,46.851,24H45V22a3.988,3.988,0,0,0-2.126-3.512,3.5,3.5,0,1,0-5.749,0A4,4,0,0,0,36,19.382a4,4,0,0,0-1.126-.894,3.5,3.5,0,1,0-5.749,0A4,4,0,0,0,28,19.382a4,4,0,0,0-1.126-.894,3.5,3.5,0,1,0-5.749,0A3.988,3.988,0,0,0,19,22v2H17.149A14.894,14.894,0,0,1,32,7ZM20.088,31.079c1.165-.23,2.386-.421,3.645-.578a20.232,20.232,0,0,0,1.2,3.3c-.539.129-1.053.286-1.566.445a15.1,15.1,0,0,1-3.276-3.165Z"/>
      <path id="Trazado_893137" data-name="Trazado 893137" d="M12,56.96C12,60.925,22.061,63,32,63s20-2.075,20-6.04c0-3.32-6.772-5.109-13.639-5.745l0-.006C45.561,41.967,53,32.411,53,21.019,53,9.98,43.58,1,32,1S11,9.98,11,21.019c0,11.966,7.308,21.254,14.47,30.213C18.684,51.886,12,53.678,12,56.96Zm38,0C50,58.331,43.646,61,32,61s-18-2.669-18-4.04c0-1.016,3.816-3.169,12.97-3.849,1.437,1.8,2.88,3.644,4.223,5.479A1,1,0,0,0,32,59h.01a1,1,0,0,0,.809-.426c1.268-1.808,2.636-3.611,4.077-5.473C46.032,53.753,50,55.962,50,56.96ZM32,3c10.477,0,19,8.083,19,18.019,0,10.706-7.225,19.986-14.212,28.961-1.692,2.173-3.3,4.244-4.8,6.319-1.518-2.021-3.122-4.027-4.681-5.978C20.271,41.528,13,32.435,13,21.019,13,11.083,21.523,3,32,3Z"/>
    </g>
  </g>
</svg>
