<svg xmlns="http://www.w3.org/2000/svg" width="366.604" height="195.846" viewBox="0 0 366.604 195.846">
  <g id="Grupo_1111278" data-name="Grupo 1111278" transform="translate(-62.735 -284.99)">
    <g id="Grupo_1110766" data-name="Grupo 1110766">
      <path id="Trazado_893790" data-name="Trazado 893790" d="M429.339,480.836c-6.535-9.726-12.617-19.581-14.109-29.509-3.842-25.549,21.823-59.775,9.269-80.607-13.014-21.6-53.555-17.545-73.521-32.292s-30.1-46.332-54.563-52.419c-23.6-5.872-47.439,15.38-72.988,19.222s-49-.2-69.836,12.349c-21.6,13.014-43.165,25.406-57.912,45.372A191.464,191.464,0,0,0,63.77,430.258c-4.246,17.065,5.48,33.259,12.645,50.578H429.339Z" fill="#b3ccff"/>
    </g>
    <g id="Grupo_1110769" data-name="Grupo 1110769">
      <g id="Grupo_1110767" data-name="Grupo 1110767">
        <path id="Trazado_893791" data-name="Trazado 893791" d="M341.037,480.836h-6.2l-9.213-23.961h10.333Z"/>
      </g>
      <g id="Grupo_1110768" data-name="Grupo 1110768">
        <path id="Trazado_893792" data-name="Trazado 893792" d="M299.935,463.849h-5.884V397.2a26.98,26.98,0,0,1,26.98-26.98h0a26.98,26.98,0,0,1,26.98,26.98v18.569A48.075,48.075,0,0,1,299.935,463.849Z" fill="#0071bc"/>
      </g>
    </g>
    <g id="Grupo_1110862" data-name="Grupo 1110862">
      <g id="Grupo_1110770" data-name="Grupo 1110770">
        <path id="Trazado_893793" data-name="Trazado 893793" d="M253.063,378.073H122a2.985,2.985,0,0,1-2.985-2.985V296.615A2.985,2.985,0,0,1,122,293.63H253.063a2.985,2.985,0,0,1,2.985,2.985v78.473A2.985,2.985,0,0,1,253.063,378.073Z" fill="#999"/>
      </g>
      <g id="Grupo_1110771" data-name="Grupo 1110771">
        <path id="Trazado_893794" data-name="Trazado 893794" d="M240.874,374.73H134.194a9.75,9.75,0,0,1-9.75-9.75V306.723a9.75,9.75,0,0,1,9.75-9.75h106.68a9.75,9.75,0,0,1,9.75,9.75V364.98A9.75,9.75,0,0,1,240.874,374.73Z" fill="#f2f2f2"/>
      </g>
      <g id="Grupo_1110781" data-name="Grupo 1110781">
        <g id="Grupo_1110772" data-name="Grupo 1110772">
          <rect id="Rectángulo_405223" data-name="Rectángulo 405223" width="12.387" height="15.499" transform="translate(132.767 304.119)" fill="#e6e6e6"/>
        </g>
        <g id="Grupo_1110774" data-name="Grupo 1110774">
          <g id="Grupo_1110773" data-name="Grupo 1110773">
            <path id="Trazado_893795" data-name="Trazado 893795" d="M135.231,307.632l7.339,0a.259.259,0,0,0,0-.517l-7.339,0a.259.259,0,0,0,0,.517Z"/>
          </g>
        </g>
        <g id="Grupo_1110776" data-name="Grupo 1110776">
          <g id="Grupo_1110775" data-name="Grupo 1110775">
            <path id="Trazado_893796" data-name="Trazado 893796" d="M136.038,311.039l6.752.029a.259.259,0,0,0,0-.517l-6.752-.029a.259.259,0,0,0,0,.517Z"/>
          </g>
        </g>
        <g id="Grupo_1110778" data-name="Grupo 1110778">
          <g id="Grupo_1110777" data-name="Grupo 1110777">
            <path id="Trazado_893797" data-name="Trazado 893797" d="M136.039,313.565l6.6-.088a.259.259,0,0,0,0-.517l-6.6.088a.259.259,0,0,0,0,.517Z"/>
          </g>
        </g>
        <g id="Grupo_1110780" data-name="Grupo 1110780">
          <g id="Grupo_1110779" data-name="Grupo 1110779">
            <path id="Trazado_893798" data-name="Trazado 893798" d="M135.6,316.654l5.578.066a.259.259,0,0,0,0-.517l-5.578-.066a.259.259,0,0,0,0,.517Z"/>
          </g>
        </g>
      </g>
      <g id="Grupo_1110793" data-name="Grupo 1110793">
        <g id="Grupo_1110782" data-name="Grupo 1110782">
          <path id="Trazado_893799" data-name="Trazado 893799" d="M145.835,353.071H129.8V329.182a3.267,3.267,0,0,1,3.267-3.267H149.1V349.8A3.266,3.266,0,0,1,145.835,353.071Z" fill="#e6e6e6"/>
        </g>
        <g id="Grupo_1110784" data-name="Grupo 1110784">
          <g id="Grupo_1110783" data-name="Grupo 1110783">
            <path id="Trazado_893800" data-name="Trazado 893800" d="M133.1,330.166l12.845.264a.259.259,0,0,0,0-.517l-12.845-.265a.259.259,0,0,0,0,.518Z"/>
          </g>
        </g>
        <g id="Grupo_1110786" data-name="Grupo 1110786">
          <g id="Grupo_1110785" data-name="Grupo 1110785">
            <path id="Trazado_893801" data-name="Trazado 893801" d="M134.791,334.907h11.6a.259.259,0,0,0,0-.517h-11.6a.259.259,0,0,0,0,.517Z"/>
          </g>
        </g>
        <g id="Grupo_1110788" data-name="Grupo 1110788">
          <g id="Grupo_1110787" data-name="Grupo 1110787">
            <path id="Trazado_893802" data-name="Trazado 893802" d="M132.736,339.971h12.11a.259.259,0,0,0,0-.517h-12.11a.259.259,0,0,0,0,.517Z"/>
          </g>
        </g>
        <g id="Grupo_1110790" data-name="Grupo 1110790">
          <g id="Grupo_1110789" data-name="Grupo 1110789">
            <path id="Trazado_893803" data-name="Trazado 893803" d="M135.158,344.449h8.367a.259.259,0,0,0,0-.517h-8.367a.259.259,0,0,0,0,.517Z"/>
          </g>
        </g>
        <g id="Grupo_1110792" data-name="Grupo 1110792">
          <g id="Grupo_1110791" data-name="Grupo 1110791">
            <path id="Trazado_893804" data-name="Trazado 893804" d="M134.277,347.971h10.349a.259.259,0,0,0,0-.517H134.277a.259.259,0,0,0,0,.517Z"/>
          </g>
        </g>
      </g>
      <g id="Grupo_1110805" data-name="Grupo 1110805">
        <g id="Grupo_1110794" data-name="Grupo 1110794">
          <path id="Trazado_893805" data-name="Trazado 893805" d="M238.232,345.7H222.2V321.806a3.267,3.267,0,0,1,3.267-3.267H241.5v23.889A3.267,3.267,0,0,1,238.232,345.7Z" fill="#85d4ce"/>
        </g>
        <g id="Grupo_1110796" data-name="Grupo 1110796">
          <g id="Grupo_1110795" data-name="Grupo 1110795">
            <path id="Trazado_893806" data-name="Trazado 893806" d="M225.5,322.79l12.845.264a.259.259,0,0,0,0-.517l-12.845-.264a.259.259,0,0,0,0,.517Z"/>
          </g>
        </g>
        <g id="Grupo_1110798" data-name="Grupo 1110798">
          <g id="Grupo_1110797" data-name="Grupo 1110797">
            <path id="Trazado_893807" data-name="Trazado 893807" d="M227.187,327.531h11.6a.259.259,0,0,0,0-.517h-11.6a.259.259,0,0,0,0,.517Z"/>
          </g>
        </g>
        <g id="Grupo_1110800" data-name="Grupo 1110800">
          <g id="Grupo_1110799" data-name="Grupo 1110799">
            <path id="Trazado_893808" data-name="Trazado 893808" d="M225.132,332.6h12.11a.259.259,0,0,0,0-.517h-12.11a.259.259,0,0,0,0,.517Z"/>
          </g>
        </g>
        <g id="Grupo_1110802" data-name="Grupo 1110802">
          <g id="Grupo_1110801" data-name="Grupo 1110801">
            <path id="Trazado_893809" data-name="Trazado 893809" d="M227.554,337.072h8.367a.259.259,0,0,0,0-.517h-8.367a.259.259,0,0,0,0,.517Z"/>
          </g>
        </g>
        <g id="Grupo_1110804" data-name="Grupo 1110804">
          <g id="Grupo_1110803" data-name="Grupo 1110803">
            <path id="Trazado_893810" data-name="Trazado 893810" d="M226.674,340.6h10.349a.259.259,0,0,0,0-.517H226.674a.259.259,0,0,0,0,.517Z"/>
          </g>
        </g>
      </g>
      <g id="Grupo_1110821" data-name="Grupo 1110821">
        <g id="Grupo_1110806" data-name="Grupo 1110806">
          <rect id="Rectángulo_405224" data-name="Rectángulo 405224" width="15.34" height="25.028" transform="translate(157.617 333.254)" fill="#e6e6e6"/>
        </g>
        <g id="Grupo_1110808" data-name="Grupo 1110808">
          <g id="Grupo_1110807" data-name="Grupo 1110807">
            <path id="Trazado_893811" data-name="Trazado 893811" d="M160.333,337.531l11.158.3a.259.259,0,0,0,0-.517l-11.158-.3a.259.259,0,0,0,0,.517Z"/>
          </g>
        </g>
        <g id="Grupo_1110810" data-name="Grupo 1110810">
          <g id="Grupo_1110809" data-name="Grupo 1110809">
            <path id="Trazado_893812" data-name="Trazado 893812" d="M160.707,341.56a15.28,15.28,0,0,0,5.268.068c.327-.052.188-.55-.137-.5a14.512,14.512,0,0,1-4.993-.068c-.325-.061-.465.437-.138.5Z"/>
          </g>
        </g>
        <g id="Grupo_1110812" data-name="Grupo 1110812">
          <g id="Grupo_1110811" data-name="Grupo 1110811">
            <path id="Trazado_893813" data-name="Trazado 893813" d="M164.882,344.106l5.21.108a.259.259,0,0,0,0-.517l-5.21-.108a.259.259,0,0,0,0,.517Z"/>
          </g>
        </g>
        <g id="Grupo_1110814" data-name="Grupo 1110814">
          <g id="Grupo_1110813" data-name="Grupo 1110813">
            <path id="Trazado_893814" data-name="Trazado 893814" d="M165.764,346.266l3.6.234c.332.022.331-.495,0-.517l-3.6-.234c-.332-.021-.33.5,0,.517Z"/>
          </g>
        </g>
        <g id="Grupo_1110816" data-name="Grupo 1110816">
          <g id="Grupo_1110815" data-name="Grupo 1110815">
            <path id="Trazado_893815" data-name="Trazado 893815" d="M166.353,349.918a11.184,11.184,0,0,1,2.893.184c.325.064.464-.434.137-.5a11.71,11.71,0,0,0-3.03-.2c-.33.02-.332.537,0,.516Z"/>
          </g>
        </g>
        <g id="Grupo_1110818" data-name="Grupo 1110818">
          <g id="Grupo_1110817" data-name="Grupo 1110817">
            <path id="Trazado_893816" data-name="Trazado 893816" d="M161.289,354.357a26.383,26.383,0,0,0,6.822.5c.331-.019.333-.536,0-.517a25.816,25.816,0,0,1-6.685-.479c-.324-.066-.463.431-.137.5Z"/>
          </g>
        </g>
        <g id="Grupo_1110820" data-name="Grupo 1110820">
          <g id="Grupo_1110819" data-name="Grupo 1110819">
            <path id="Trazado_893817" data-name="Trazado 893817" d="M160.7,346.738l3.151-.172c.331-.018.333-.535,0-.517l-3.151.172c-.331.019-.333.535,0,.517Z"/>
          </g>
        </g>
      </g>
      <g id="Grupo_1110835" data-name="Grupo 1110835">
        <g id="Grupo_1110822" data-name="Grupo 1110822">
          <path id="Trazado_893818" data-name="Trazado 893818" d="M180.222,328.924H157.616V304.777h17.421a5.184,5.184,0,0,1,5.185,5.185Z" fill="#fbcb80"/>
        </g>
        <g id="Grupo_1110824" data-name="Grupo 1110824">
          <g id="Grupo_1110823" data-name="Grupo 1110823">
            <path id="Trazado_893819" data-name="Trazado 893819" d="M162.827,309.41H176.7a.259.259,0,0,0,0-.517H162.827a.259.259,0,0,0,0,.517Z"/>
          </g>
        </g>
        <g id="Grupo_1110826" data-name="Grupo 1110826">
          <g id="Grupo_1110825" data-name="Grupo 1110825">
            <path id="Trazado_893820" data-name="Trazado 893820" d="M161.506,312.231l14.459.173a.259.259,0,0,0,0-.517l-14.459-.173a.259.259,0,0,0,0,.517Z"/>
          </g>
        </g>
        <g id="Grupo_1110828" data-name="Grupo 1110828">
          <g id="Grupo_1110827" data-name="Grupo 1110827">
            <path id="Trazado_893821" data-name="Trazado 893821" d="M162.683,315.458l12.768.38c.333.01.332-.507,0-.517l-12.768-.38c-.333-.01-.332.507,0,.517Z"/>
          </g>
        </g>
        <g id="Grupo_1110830" data-name="Grupo 1110830">
          <g id="Grupo_1110829" data-name="Grupo 1110829">
            <path id="Trazado_893822" data-name="Trazado 893822" d="M162.753,321.571l13.433.167a.259.259,0,0,0,0-.517l-13.433-.167a.259.259,0,0,0,0,.517Z"/>
          </g>
        </g>
        <g id="Grupo_1110832" data-name="Grupo 1110832">
          <g id="Grupo_1110831" data-name="Grupo 1110831">
            <path id="Trazado_893823" data-name="Trazado 893823" d="M163.193,325.858l12.55.106a.259.259,0,0,0,0-.517l-12.55-.106a.259.259,0,0,0,0,.517Z"/>
          </g>
        </g>
        <g id="Grupo_1110834" data-name="Grupo 1110834">
          <g id="Grupo_1110833" data-name="Grupo 1110833">
            <path id="Trazado_893824" data-name="Trazado 893824" d="M167.381,318.931a9.4,9.4,0,0,1,3.463-.1c.325.051.465-.447.137-.5a10.144,10.144,0,0,0-3.737.1c-.325.07-.188.568.137.5Z"/>
          </g>
        </g>
      </g>
      <g id="Grupo_1110849" data-name="Grupo 1110849">
        <g id="Grupo_1110836" data-name="Grupo 1110836">
          <path id="Trazado_893825" data-name="Trazado 893825" d="M210.583,356.264H187.977V332.117H205.4a5.185,5.185,0,0,1,5.185,5.185v18.962Z" fill="#e6e6e6"/>
        </g>
        <g id="Grupo_1110838" data-name="Grupo 1110838">
          <g id="Grupo_1110837" data-name="Grupo 1110837">
            <path id="Trazado_893826" data-name="Trazado 893826" d="M193.189,336.75h13.872a.259.259,0,0,0,0-.517H193.189a.259.259,0,0,0,0,.517Z"/>
          </g>
        </g>
        <g id="Grupo_1110840" data-name="Grupo 1110840">
          <g id="Grupo_1110839" data-name="Grupo 1110839">
            <path id="Trazado_893827" data-name="Trazado 893827" d="M191.868,339.571l14.458.173a.259.259,0,0,0,0-.517l-14.458-.173a.259.259,0,0,0,0,.517Z"/>
          </g>
        </g>
        <g id="Grupo_1110842" data-name="Grupo 1110842">
          <g id="Grupo_1110841" data-name="Grupo 1110841">
            <path id="Trazado_893828" data-name="Trazado 893828" d="M193.044,342.8l12.768.38c.333.01.332-.507,0-.517l-12.768-.38a.259.259,0,0,0,0,.517Z"/>
          </g>
        </g>
        <g id="Grupo_1110844" data-name="Grupo 1110844">
          <g id="Grupo_1110843" data-name="Grupo 1110843">
            <path id="Trazado_893829" data-name="Trazado 893829" d="M193.114,348.91l13.433.167a.259.259,0,0,0,0-.517l-13.433-.167a.259.259,0,0,0,0,.517Z"/>
          </g>
        </g>
        <g id="Grupo_1110846" data-name="Grupo 1110846">
          <g id="Grupo_1110845" data-name="Grupo 1110845">
            <path id="Trazado_893830" data-name="Trazado 893830" d="M193.555,353.2l12.55.106a.259.259,0,0,0,0-.517l-12.55-.106a.259.259,0,0,0,0,.517Z"/>
          </g>
        </g>
        <g id="Grupo_1110848" data-name="Grupo 1110848">
          <g id="Grupo_1110847" data-name="Grupo 1110847">
            <path id="Trazado_893831" data-name="Trazado 893831" d="M197.742,346.271a9.4,9.4,0,0,1,3.463-.1c.325.051.465-.447.137-.5a10.123,10.123,0,0,0-3.737.1c-.325.069-.188.567.137.5Z"/>
          </g>
        </g>
      </g>
      <g id="Grupo_1110861" data-name="Grupo 1110861">
        <g id="Grupo_1110850" data-name="Grupo 1110850">
          <rect id="Rectángulo_405225" data-name="Rectángulo 405225" width="18.212" height="20.207" transform="translate(192.372 307.376)" fill="#e6e6e6"/>
        </g>
        <g id="Grupo_1110852" data-name="Grupo 1110852">
          <g id="Grupo_1110851" data-name="Grupo 1110851">
            <path id="Trazado_893832" data-name="Trazado 893832" d="M196.376,312.983l11.366-.075a.259.259,0,0,0,0-.517l-11.366.075a.259.259,0,0,0,0,.517Z"/>
          </g>
        </g>
        <g id="Grupo_1110854" data-name="Grupo 1110854">
          <g id="Grupo_1110853" data-name="Grupo 1110853">
            <path id="Trazado_893833" data-name="Trazado 893833" d="M197.4,315.308l9.564.542c.332.019.331-.5,0-.517l-9.564-.542c-.332-.018-.331.5,0,.517Z"/>
          </g>
        </g>
        <g id="Grupo_1110856" data-name="Grupo 1110856">
          <g id="Grupo_1110855" data-name="Grupo 1110855">
            <path id="Trazado_893834" data-name="Trazado 893834" d="M197.28,319.82l8.266.154a.259.259,0,0,0,0-.517l-8.266-.154a.259.259,0,0,0,0,.517Z"/>
          </g>
        </g>
        <g id="Grupo_1110858" data-name="Grupo 1110858">
          <g id="Grupo_1110857" data-name="Grupo 1110857">
            <path id="Trazado_893835" data-name="Trazado 893835" d="M197.409,324.1l9.041,0a.259.259,0,0,0,0-.517l-9.041,0a.259.259,0,0,0,0,.517Z"/>
          </g>
        </g>
        <g id="Grupo_1110860" data-name="Grupo 1110860">
          <g id="Grupo_1110859" data-name="Grupo 1110859">
            <path id="Trazado_893836" data-name="Trazado 893836" d="M199.863,323.124l5.425.032a.259.259,0,0,0,0-.517l-5.425-.032a.259.259,0,0,0,0,.517Z"/>
          </g>
        </g>
      </g>
    </g>
    <g id="Grupo_1110863" data-name="Grupo 1110863">
      <path id="Trazado_893837" data-name="Trazado 893837" d="M270.2,439.076s1.006-8.037,14.355-8.037c9.257,0,10.8,7.983,8.285,8.01S270.2,439.076,270.2,439.076Z" fill="#666"/>
    </g>
    <g id="Grupo_1110962" data-name="Grupo 1110962">
      <g id="Grupo_1110864" data-name="Grupo 1110864">
        <path id="Trazado_893838" data-name="Trazado 893838" d="M280.946,350.84c.03.474.054.954.077,1.437q2.757-.315,5.52-.444c.2-.326.4-.638.54-.911l1.524-2.9c.155-.3.6-.033.446.261q-.708,1.346-1.415,2.691c-.116.22-.292.515-.462.838a84.575,84.575,0,0,1,16.387.967.238.238,0,0,1,.08.03l5.392-4.583c.252-.214.619.15.365.365l-5.638,4.793a34.037,34.037,0,0,1,.234,9.433.244.244,0,0,1,.049-.04l5.325-2.851a22.04,22.04,0,0,1,.894-3.422.252.252,0,0,1,.213-.172,2.365,2.365,0,0,1-1.351-1.161c-.16-.292.287-.553.446-.261,1.121,2.051,3.888.74,5.151-.451a4.963,4.963,0,0,0,1.646-3.825,4.032,4.032,0,0,0-2.436-3.6,3.461,3.461,0,0,0-3.988,1.218c-.117.167-.424.175-.472-.062a25.938,25.938,0,0,0-3.935-9.894c-1.32-3.127-5.261.584-7.323.834-1.948.236-3.741-.8-5.606-1.15-2.636-.495-4.069,1.44-6.43,1.957-1.687.37-3.581-.435-5.279-.3A73.213,73.213,0,0,0,280.946,350.84Zm32.121-1.942c.311-.119.445.381.137.5a2.873,2.873,0,0,0-1.773,3.213c.064.325-.434.463-.5.137A3.4,3.4,0,0,1,313.067,348.9Zm-16.462-4.868a1.076,1.076,0,1,1-1.076,1.076A1.076,1.076,0,0,1,296.605,344.03Zm-12.055.345a1.076,1.076,0,1,1-1.076,1.076A1.076,1.076,0,0,1,284.55,344.375Z" fill="#fff"/>
      </g>
      <g id="Grupo_1110865" data-name="Grupo 1110865">
        <path id="Trazado_893839" data-name="Trazado 893839" d="M291.609,367.179a.257.257,0,0,1,.115-.029,20.534,20.534,0,0,0,11.7-3.844.085.085,0,0,1,0-.016,33.56,33.56,0,0,0-.169-9.8.233.233,0,0,1-.074-.245,83.653,83.653,0,0,0-16.262-.908c-.388.893-.509,1.824.8,1.982.327.04.329.557,0,.517-.917-.111-1.929-.441-1.793-1.556a2.882,2.882,0,0,1,.314-.914q-2.6.131-5.2.426a37.5,37.5,0,0,0,.485,5.157,9.949,9.949,0,0,0,2.592,4.64,14.2,14.2,0,0,0,6.35,4.341c.361.11.723.2,1.085.279A.189.189,0,0,1,291.609,367.179Z" fill="#dedede"/>
      </g>
      <g id="Grupo_1110866" data-name="Grupo 1110866">
        <path id="Trazado_893840" data-name="Trazado 893840" d="M298.482,386.311c-2.844.079-6.534-.115-8.846-2.037.184,2.6.424,5.2.765,7.784a98.007,98.007,0,0,0,2.531,12.615c4.474-5.669,9.19-11.243,13.1-17.318q1.077-1.671,2.035-3.433A23.318,23.318,0,0,1,298.482,386.311Z" fill="#4d4d4d"/>
      </g>
      <g id="Grupo_1110867" data-name="Grupo 1110867">
        <path id="Trazado_893841" data-name="Trazado 893841" d="M288.358,371.938a7.925,7.925,0,0,0,2.334-1.665c-1.88-.358-3.071,1.327-4.088,2.64q-1.322,1.705-2.641,3.413l-5.2,6.719a14.838,14.838,0,0,1,6.947,4.063c.656.717.141,1.634-.046,2.538l-1.143,5.537c-.418,2.024-.95,3.826.76,5.413,1.085,1.007,2.36,1.812,3.477,2.787a34.647,34.647,0,0,1,4.717,5.052c-.283-.917-.549-1.839-.806-2.763a.284.284,0,0,1-.171-.449l.037-.047a98.933,98.933,0,0,1-2.641-13.048c-.858-6.484-1.1-13.026-1.336-19.556a.233.233,0,0,1,.041-.141v-.041C288.314,372.518,288.073,372.094,288.358,371.938Z" fill="#acb8bb"/>
      </g>
      <g id="Grupo_1110868" data-name="Grupo 1110868">
        <path id="Trazado_893842" data-name="Trazado 893842" d="M309.608,365.262c.02.285.038.571.069.857.036.331-.481.327-.517,0a21.888,21.888,0,0,1,.11-5.553l-4.966,2.658a.244.244,0,0,1-.136.028.2.2,0,0,1-.082.2,20.638,20.638,0,0,1-10.246,4.061,20.62,20.62,0,0,0,11.069-2.952.259.259,0,0,1,.261.446c-3.839,2.158-8.206,3.53-12.642,2.9-.179-.026-.357-.062-.535-.1a4.35,4.35,0,0,1-.635,2.459,7.45,7.45,0,0,1-2.739,2.113c-.007,0-.014,0-.021.007v.041a.264.264,0,0,1,.476.141c.133,3.652.271,7.308.513,10.955,2.25,2.259,6.349,2.392,9.336,2.251a22.8,22.8,0,0,0,9.561-2.64A35.344,35.344,0,0,0,312.732,368,6.227,6.227,0,0,1,309.608,365.262Z" fill="#fff"/>
      </g>
      <g id="Grupo_1110869" data-name="Grupo 1110869">
        <path id="Trazado_893843" data-name="Trazado 893843" d="M314.591,367.1s0,0,0-.007a.263.263,0,0,1-.244.252,6.031,6.031,0,0,1-2.342-.281,5.734,5.734,0,0,0,1.061.519c.009,0,.014.01.022.014a.228.228,0,0,1,.167.235,35.724,35.724,0,0,1-4.213,15.349.226.226,0,0,1-.1.3l-.069.035c-.661,1.266-1.376,2.5-2.135,3.7-4.032,6.358-8.981,12.158-13.634,18.066.293,1.062.6,2.121.925,3.174a42.608,42.608,0,0,1,11.5-8.221c1.053-.51,2.129-.975,3.22-1.4,1.254-.485,2.809-.907,3.089-2.4.263-1.395-.509-3.187-.827-4.581-.272-1.192-.538-2.385-.858-3.566a.237.237,0,0,1,.013-.162.23.23,0,0,1,.168-.156c2.883-.747,5.743-1.576,8.625-2.328A87.514,87.514,0,0,0,314.591,367.1Z" fill="#acb8bb"/>
      </g>
      <g id="Grupo_1110870" data-name="Grupo 1110870">
        <path id="Trazado_893844" data-name="Trazado 893844" d="M277.508,427.578c-2.485.906-5.2,2.1-6.46,4.577a7.773,7.773,0,0,0-.939,3.458c0,.491.042,1.516.486,1.837.913.66,1.178-.947,1.213-1.624-.733-1.815.147-3.6,1.4-5.187.206-.261.57.107.365.365-1.366,1.724-2.254,3.8-.631,5.707a4.1,4.1,0,0,0,3.8,1.318,4.214,4.214,0,0,1-1.9-5.418c.127-.3.627-.169.5.137a3.722,3.722,0,0,0,3.709,5.245,3.578,3.578,0,0,1-1.955-4.4c.1-.317.6-.181.5.137-.747,2.4,1.34,4.275,3.614,4.369,1.283.053,3.541-.411,2.981-2.264-.346-1.146-1.565-1.327-2.625-1.25h-.01a2.394,2.394,0,0,1-.165,1.486c-.136.3-.581.04-.446-.261a1.82,1.82,0,0,0-.315-1.964c-.222-.247.143-.613.365-.365a2.441,2.441,0,0,1,.37.547h.006l12.688.128a50.743,50.743,0,0,0-1.42-8.9A39.168,39.168,0,0,0,277.508,427.578Z" fill="#fff"/>
      </g>
      <g id="Grupo_1110871" data-name="Grupo 1110871">
        <path id="Trazado_893845" data-name="Trazado 893845" d="M292.838,424.751c.187,0,.374-.012.561-.017a70.008,70.008,0,0,0,.824-13.976s0,0,0,0c-.084-.25-.161-.5-.243-.754a34.6,34.6,0,0,0-6.088-6.683c-1.669-1.4-4.376-2.7-4.388-5.209a23.125,23.125,0,0,1,.832-4.574q.287-1.385.572-2.769a12.927,12.927,0,0,0,.571-2.769c-.008-.194.057-.268-.036-.44a3.451,3.451,0,0,0-.684-.656,14.6,14.6,0,0,0-1.885-1.466,15.287,15.287,0,0,0-4.416-1.944.269.269,0,0,1-.1-.05.286.286,0,0,1-.2-.455l6.68-8.632c.353-.456.723-.995,1.121-1.542-1.576,1-3.137,2.024-4.67,3.088a26.963,26.963,0,0,0-4.806,3.626c-1.332,1.48-1.666,3.647-2.257,5.487q-.936,2.916-1.977,5.8c-3.371,9.31-7.443,19.066-13.76,26.812a46.258,46.258,0,0,1-11.25,9.711c-4.063,2.549-8.942,4.847-13.862,4.46,0,.009,0,.015,0,.024l-.072,2.1a104.357,104.357,0,0,0,27.532-.342.233.233,0,0,1,.175-.194c5.709-1.6,10.631-7.094,12.957-12.425a141.489,141.489,0,0,0,1.719-21.684.259.259,0,0,1,.517,0,142.091,142.091,0,0,1-1.713,21.671.268.268,0,0,1-.017.143l-.007.015q-.643,4.1-1.523,8.152c2.558-1.881,6-2.826,9.009-3.5A39.956,39.956,0,0,1,292.838,424.751Z" fill="#acb8bb"/>
      </g>
      <g id="Grupo_1110872" data-name="Grupo 1110872">
        <path id="Trazado_893846" data-name="Trazado 893846" d="M334.165,380.682c-5.108-5.747-11.2-11.005-18.808-12.923a88.086,88.086,0,0,1,4.142,18.087.2.2,0,0,1-.161.235.2.2,0,0,1-.029.014c-2.873.745-5.725,1.571-8.6,2.32.347,1.314.636,2.64.944,3.963.292,1.254.927,2.682.789,3.987-.208,1.963-2.431,2.523-3.961,3.133a42.067,42.067,0,0,0-14.282,9.514c.08.253.162.505.244.757l.157.228a.236.236,0,0,1,.1.148c.055.081.112.16.167.241a.232.232,0,0,1-.134.357,70.658,70.658,0,0,1-.819,13.974c5.037-.133,10.07-.391,15.1-.639,4.612-.227,9.227-.338,13.84-.532a14.845,14.845,0,0,0,5.406-1,60.817,60.817,0,0,1,2.671-13.373.241.241,0,0,1,.2-.172,21.893,21.893,0,0,0-10.112-11.187c-.3-.152-.034-.6.261-.446a21.574,21.574,0,0,1,9.33,9.385c1.7,3.346,2.825,7.537,1.941,11.275a6.931,6.931,0,0,1-3.8,4.771.274.274,0,0,1-.391.19,12.727,12.727,0,0,1-3.934.97c-2.377.229-4.788.182-7.173.269-2.746.1-5.49.23-8.235.366-5.285.26-10.57.535-15.86.661a51.385,51.385,0,0,1,1.408,8.914.256.256,0,0,1,.03.5c.081,1.377.111,2.759.081,4.144l16.11-.471c4.935-.144,9.9-.158,14.819-.547a33.149,33.149,0,0,0,12.317-2.966,20.713,20.713,0,0,0,8.394-7.852c4.48-7.4,4.368-16.465,1.66-24.468C345.2,394.3,339.867,387.1,334.165,380.682Z" fill="#acb8bb"/>
      </g>
      <g id="Grupo_1110874" data-name="Grupo 1110874">
        <g id="Grupo_1110873" data-name="Grupo 1110873">
          <path id="Trazado_893847" data-name="Trazado 893847" d="M326.147,438.983a.256.256,0,0,0,.01.139c-10.426.418-21.012.832-31.438,1.25a.236.236,0,0,0-.093.021c.016-.357.031-.708.052-1.064,9.935-.284,19.922-.3,29.842-.94.6-.041,1.2-.088,1.793-.145C326.261,438.492,326.2,438.735,326.147,438.983Z" fill="#fff"/>
        </g>
      </g>
      <g id="Grupo_1110961" data-name="Grupo 1110961">
        <g id="Grupo_1110875" data-name="Grupo 1110875">
          <path id="Trazado_893848" data-name="Trazado 893848" d="M280.536,339.2a.3.3,0,0,1,.229-.027c1.7-.124,3.529.642,5.275.265,2.321-.5,3.771-2.391,6.325-2.021,1.3.189,2.519.727,3.8,1.029,1.838.434,3.152-.112,4.749-.984s4.15-1.613,5.073.573a25.816,25.816,0,0,1,3.878,9.52,3.973,3.973,0,0,1,4.209-1.019,4.553,4.553,0,0,1,2.816,4.1,5.7,5.7,0,0,1-2.717,4.917,4.784,4.784,0,0,1-3.472.84.213.213,0,0,1,.066.249,21.465,21.465,0,0,0-1.2,7.643.267.267,0,0,1,.206.161,5.675,5.675,0,0,0,1.23,1.816.249.249,0,0,1,.3-.045,5.551,5.551,0,0,0,3.047.613.213.213,0,0,1,.234.151.268.268,0,0,1,.509-.017c.025.071.047.143.072.214a.192.192,0,0,1,.034,0,29.882,29.882,0,0,1,10.32,4.833c-1-5.65-2.116-11.265-2.573-16.994q-.482-6.029-.962-12.057a60.973,60.973,0,0,0-1.687-11.5c-.83-2.991-2.034-6.123-4.282-8.349a23.709,23.709,0,0,0-8.85-5.122,23.115,23.115,0,0,0-20.6,3.288,19.232,19.232,0,0,0-7.613,18.5A3.539,3.539,0,0,1,280.536,339.2Z"/>
        </g>
        <g id="Grupo_1110877" data-name="Grupo 1110877">
          <g id="Grupo_1110876" data-name="Grupo 1110876">
            <path id="Trazado_893849" data-name="Trazado 893849" d="M305.982,338.034c-.923-2.186-3.466-1.45-5.073-.573s-2.912,1.417-4.749.984c-1.276-.3-2.492-.84-3.8-1.029-2.555-.37-4.005,1.521-6.325,2.021-2.53.546-5.234-1.311-7.47.626l.432.114a19.238,19.238,0,0,1,7.556-18.9,23.115,23.115,0,0,1,20.6-3.288,23.709,23.709,0,0,1,8.85,5.122c2.248,2.226,3.452,5.358,4.282,8.349a60.988,60.988,0,0,1,1.687,11.5q.483,6.029.962,12.057c.474,5.941,1.657,11.758,2.685,17.621.057.327.555.188.5-.137-1.051-5.992-2.223-11.925-2.707-18-.346-4.335-.676-8.671-1.04-13a52.131,52.131,0,0,0-1.9-11.256c-.9-2.871-2.21-5.846-4.506-7.879a25.752,25.752,0,0,0-8.669-4.874,23.6,23.6,0,0,0-20.829,3.216,19.781,19.781,0,0,0-7.966,19.605.261.261,0,0,0,.432.114c2.073-1.8,4.864.028,7.242-.493,2.361-.517,3.794-2.452,6.43-1.957,1.865.35,3.658,1.386,5.606,1.15,2.062-.25,6-3.961,7.323-.834.126.307.572.044.444-.259Z"/>
          </g>
        </g>
        <g id="Grupo_1110879" data-name="Grupo 1110879">
          <g id="Grupo_1110878" data-name="Grupo 1110878">
            <path id="Trazado_893850" data-name="Trazado 893850" d="M305.535,338.3a25.937,25.937,0,0,1,3.935,9.894c.048.236.355.229.472.062a3.461,3.461,0,0,1,3.988-1.218,4.031,4.031,0,0,1,2.436,3.6,4.964,4.964,0,0,1-1.646,3.825c-1.263,1.19-4.03,2.5-5.151.451-.16-.292-.606-.031-.446.261,1.063,1.944,3.489,1.4,5.043.381a5.7,5.7,0,0,0,2.717-4.917,4.55,4.55,0,0,0-2.816-4.1,3.973,3.973,0,0,0-4.572,1.455l.472.062a26.282,26.282,0,0,0-3.988-10.017c-.187-.272-.635-.014-.444.259Z"/>
          </g>
        </g>
        <g id="Grupo_1110881" data-name="Grupo 1110881">
          <g id="Grupo_1110880" data-name="Grupo 1110880">
            <path id="Trazado_893851" data-name="Trazado 893851" d="M313.067,348.9a3.4,3.4,0,0,0-2.134,3.849c.064.326.563.188.5-.137A2.873,2.873,0,0,1,313.2,349.4c.308-.118.175-.618-.137-.5Z"/>
          </g>
        </g>
        <g id="Grupo_1110883" data-name="Grupo 1110883">
          <g id="Grupo_1110882" data-name="Grupo 1110882">
            <path id="Trazado_893852" data-name="Trazado 893852" d="M288.607,348.024l-1.524,2.9a8.226,8.226,0,0,0-1.153,2.358c-.135,1.115.877,1.445,1.793,1.557.329.04.326-.477,0-.517-2.071-.251-.566-2.43-.085-3.344q.708-1.346,1.415-2.691c.155-.294-.291-.556-.446-.261Z"/>
          </g>
        </g>
        <g id="Grupo_1110885" data-name="Grupo 1110885">
          <g id="Grupo_1110884" data-name="Grupo 1110884">
            <path id="Trazado_893853" data-name="Trazado 893853" d="M280.4,339.406a66.553,66.553,0,0,0-.068,9.732c.105,2.018.255,4.034.42,6.049a13.648,13.648,0,0,0,.777,4.448,14.7,14.7,0,0,0,11,8.272c4.437.632,8.8-.74,12.642-2.9a.259.259,0,0,0-.261-.446c-4.361,2.451-9.506,3.868-14.435,2.365a14.2,14.2,0,0,1-6.35-4.341,9.949,9.949,0,0,1-2.592-4.64,58.984,58.984,0,0,1-.586-7.108,72.627,72.627,0,0,1-.031-11.434c.031-.33-.485-.328-.517,0Z"/>
          </g>
        </g>
        <g id="Grupo_1110887" data-name="Grupo 1110887">
          <g id="Grupo_1110886" data-name="Grupo 1110886">
            <path id="Trazado_893854" data-name="Trazado 893854" d="M280.8,352.815a83.317,83.317,0,0,1,22.62.464c.325.051.465-.447.137-.5A83.809,83.809,0,0,0,280.8,352.3c-.326.038-.33.555,0,.516Z"/>
          </g>
        </g>
        <g id="Grupo_1110889" data-name="Grupo 1110889">
          <g id="Grupo_1110888" data-name="Grupo 1110888">
            <path id="Trazado_893855" data-name="Trazado 893855" d="M303.253,353.455a33.6,33.6,0,0,1,.174,9.835c-.042.329.475.326.517,0a34.048,34.048,0,0,0-.193-9.972c-.054-.327-.552-.188-.5.137Z"/>
          </g>
        </g>
        <g id="Grupo_1110891" data-name="Grupo 1110891">
          <g id="Grupo_1110890" data-name="Grupo 1110890">
            <path id="Trazado_893856" data-name="Trazado 893856" d="M291.724,367.666a21.02,21.02,0,0,0,12.363-4.212c.263-.2-.105-.567-.365-.365a20.44,20.44,0,0,1-12,4.06.259.259,0,0,0,0,.517Z"/>
          </g>
        </g>
        <g id="Grupo_1110893" data-name="Grupo 1110893">
          <g id="Grupo_1110892" data-name="Grupo 1110892">
            <path id="Trazado_893857" data-name="Trazado 893857" d="M309.034,348.228l-5.779,4.912c-.254.216.113.58.365.365l5.779-4.912c.254-.215-.113-.58-.365-.365Z"/>
          </g>
        </g>
        <g id="Grupo_1110895" data-name="Grupo 1110895">
          <g id="Grupo_1110894" data-name="Grupo 1110894">
            <path id="Trazado_893858" data-name="Trazado 893858" d="M310.263,356.506a21.832,21.832,0,0,0-1.1,9.613c.035.327.552.331.517,0a21.514,21.514,0,0,1,1.084-9.476c.109-.314-.39-.449-.5-.137Z"/>
          </g>
        </g>
        <g id="Grupo_1110897" data-name="Grupo 1110897">
          <g id="Grupo_1110896" data-name="Grupo 1110896">
            <path id="Trazado_893859" data-name="Trazado 893859" d="M304.3,363.224q2.684-1.437,5.368-2.873c.293-.157.033-.6-.261-.446q-2.684,1.437-5.368,2.873c-.293.157-.033.6.261.446Z"/>
          </g>
        </g>
        <g id="Grupo_1110899" data-name="Grupo 1110899">
          <g id="Grupo_1110898" data-name="Grupo 1110898">
            <path id="Trazado_893860" data-name="Trazado 893860" d="M309.272,364.584a6.269,6.269,0,0,0,3.657,3.5c.312.115.447-.384.137-.5a5.7,5.7,0,0,1-3.3-3.139c-.127-.3-.628-.169-.5.137Z"/>
          </g>
        </g>
        <g id="Grupo_1110901" data-name="Grupo 1110901">
          <g id="Grupo_1110900" data-name="Grupo 1110900">
            <path id="Trazado_893861" data-name="Trazado 893861" d="M291.466,367.408a4.082,4.082,0,0,1-.625,2.688,7.317,7.317,0,0,1-2.483,1.843c-.292.159-.032.605.261.446a7.461,7.461,0,0,0,2.739-2.113,4.681,4.681,0,0,0,.625-2.863c-.018-.332-.535-.334-.517,0Z"/>
          </g>
        </g>
        <g id="Grupo_1110903" data-name="Grupo 1110903">
          <g id="Grupo_1110902" data-name="Grupo 1110902">
            <path id="Trazado_893862" data-name="Trazado 893862" d="M290.968,369.8c-2.888-.7-4.657,2.654-6.128,4.556l-6.68,8.632c-.2.26.162.628.365.365l5.437-7.026,2.641-3.413c1.042-1.346,2.266-3.089,4.227-2.616.323.078.461-.42.138-.5Z"/>
          </g>
        </g>
        <g id="Grupo_1110905" data-name="Grupo 1110905">
          <g id="Grupo_1110904" data-name="Grupo 1110904">
            <path id="Trazado_893863" data-name="Trazado 893863" d="M288.557,372.572c.239,6.53.479,13.072,1.336,19.556a99.861,99.861,0,0,0,4.328,18.629c.105.314.6.179.5-.137a99.39,99.39,0,0,1-4.318-18.56c-.853-6.461-1.091-12.981-1.328-19.487-.012-.332-.529-.334-.516,0Z"/>
          </g>
        </g>
        <g id="Grupo_1110907" data-name="Grupo 1110907">
          <g id="Grupo_1110906" data-name="Grupo 1110906">
            <path id="Trazado_893864" data-name="Trazado 893864" d="M278.456,383.493a15.287,15.287,0,0,1,4.416,1.944,14.532,14.532,0,0,1,1.885,1.466,3.478,3.478,0,0,1,.684.656c.093.172.028.246.036.44a13,13,0,0,1-.571,2.769q-.285,1.385-.572,2.769a23.055,23.055,0,0,0-.832,4.574c.012,2.507,2.719,3.808,4.388,5.209a34.722,34.722,0,0,1,6.536,7.33c.184.275.632.017.446-.261a35.294,35.294,0,0,0-6.114-7c-1.117-.975-2.392-1.781-3.477-2.787-1.71-1.587-1.177-3.389-.76-5.413l1.143-5.537c.187-.9.7-1.821.046-2.538A14.9,14.9,0,0,0,278.594,383a.257.257,0,0,0-.138.5Z"/>
          </g>
        </g>
        <g id="Grupo_1110909" data-name="Grupo 1110909">
          <g id="Grupo_1110908" data-name="Grupo 1110908">
            <path id="Trazado_893865" data-name="Trazado 893865" d="M294.2,410.2a70.053,70.053,0,0,1-.81,14.581c-.053.325.445.465.5.137a70.749,70.749,0,0,0,.829-14.718c-.016-.331-.533-.333-.517,0Z"/>
          </g>
        </g>
        <g id="Grupo_1110911" data-name="Grupo 1110911">
          <g id="Grupo_1110910" data-name="Grupo 1110910">
            <path id="Trazado_893866" data-name="Trazado 893866" d="M311.038,366.664a6.071,6.071,0,0,0,3.308.684c.329-.025.332-.542,0-.517a5.569,5.569,0,0,1-3.047-.613c-.3-.153-.556.293-.261.446Z"/>
          </g>
        </g>
        <g id="Grupo_1110913" data-name="Grupo 1110913">
          <g id="Grupo_1110912" data-name="Grupo 1110912">
            <path id="Trazado_893867" data-name="Trazado 893867" d="M314.591,367.1a87.493,87.493,0,0,1,4.392,18.744c.039.326.556.33.517,0a88.127,88.127,0,0,0-4.41-18.881c-.111-.311-.61-.177-.5.137Z"/>
          </g>
        </g>
        <g id="Grupo_1110915" data-name="Grupo 1110915">
          <g id="Grupo_1110914" data-name="Grupo 1110914">
            <path id="Trazado_893868" data-name="Trazado 893868" d="M312.739,367.836c-.166,7.016-2.948,13.691-6.7,19.521-4.04,6.271-8.938,12.007-13.538,17.867-.2.259.16.627.365.365,4.721-6.012,9.771-11.9,13.871-18.365,3.678-5.8,6.357-12.447,6.522-19.387a.259.259,0,0,0-.517,0Z"/>
          </g>
        </g>
        <g id="Grupo_1110917" data-name="Grupo 1110917">
          <g id="Grupo_1110916" data-name="Grupo 1110916">
            <path id="Trazado_893869" data-name="Trazado 893869" d="M319.172,385.6c-2.954.766-5.886,1.619-8.84,2.385a.258.258,0,0,0,.137.5c2.954-.766,5.886-1.619,8.84-2.385a.258.258,0,0,0-.137-.5Z"/>
          </g>
        </g>
        <g id="Grupo_1110919" data-name="Grupo 1110919">
          <g id="Grupo_1110918" data-name="Grupo 1110918">
            <path id="Trazado_893870" data-name="Trazado 893870" d="M310.152,388.3c.319,1.181.585,2.374.858,3.566.318,1.393,1.09,3.185.827,4.58-.28,1.49-1.836,1.912-3.089,2.4-1.091.423-2.167.887-3.22,1.4a42.687,42.687,0,0,0-11.858,8.569c-.233.238.132.6.365.365a42.087,42.087,0,0,1,14.449-9.677c1.531-.61,3.753-1.17,3.961-3.133.138-1.3-.5-2.733-.789-3.987-.328-1.408-.629-2.821-1.007-4.216a.258.258,0,0,0-.5.138Z"/>
          </g>
        </g>
        <g id="Grupo_1110921" data-name="Grupo 1110921">
          <g id="Grupo_1110920" data-name="Grupo 1110920">
            <path id="Trazado_893871" data-name="Trazado 893871" d="M292.589,425.078a50.77,50.77,0,0,1,1.574,13.971.259.259,0,0,0,.517,0,51.3,51.3,0,0,0-1.592-14.109.259.259,0,0,0-.5.138Z"/>
          </g>
        </g>
        <g id="Grupo_1110923" data-name="Grupo 1110923">
          <g id="Grupo_1110922" data-name="Grupo 1110922">
            <path id="Trazado_893872" data-name="Trazado 893872" d="M292.838,425.268c5.4-.122,10.791-.4,16.184-.671,2.744-.135,5.489-.265,8.235-.366,2.385-.087,4.8-.039,7.173-.269,3.771-.364,7.19-1.962,8.129-5.932.884-3.738-.237-7.929-1.941-11.275a21.585,21.585,0,0,0-9.33-9.385c-.3-.152-.557.294-.261.446,6.632,3.41,11.989,11.07,11.249,18.773a6.968,6.968,0,0,1-3.392,5.657,13.509,13.509,0,0,1-6.022,1.3c-4.613.194-9.228.3-13.84.532-5.393.265-10.786.548-16.184.671a.259.259,0,0,0,0,.518Z"/>
          </g>
        </g>
        <g id="Grupo_1110925" data-name="Grupo 1110925">
          <g id="Grupo_1110924" data-name="Grupo 1110924">
            <path id="Trazado_893873" data-name="Trazado 893873" d="M345.444,429.193c-4.552,6.029-11.459,8.251-18.635,9.005l-.5.046c-.594.057-1.193.1-1.793.145-9.92.641-19.906.656-29.842.94-.046,0-.1.005-.145.005a.249.249,0,0,1-.145-.041.264.264,0,0,1,.145-.475c.052,0,.1-.005.15-.005q8.052-.24,16.109-.47c4.934-.145,9.894-.155,14.818-.548a33.2,33.2,0,0,0,12.317-2.966,20.7,20.7,0,0,0,8.4-7.853c4.479-7.4,4.366-16.466,1.658-24.469-2.78-8.2-8.111-15.411-13.815-21.823-.32-.362-.641-.718-.971-1.075q-1.248-1.356-2.573-2.645c-.336-.326-.672-.641-1.013-.951q-.527-.5-1.069-.961c-.186-.165-.377-.326-.563-.48-.739-.625-1.493-1.225-2.273-1.793s-1.576-1.106-2.4-1.607q-.922-.573-1.875-1.07c-.212-.114-.424-.227-.641-.326-.217-.114-.434-.217-.651-.315s-.434-.2-.656-.294-.444-.191-.667-.279-.439-.181-.661-.258a.056.056,0,0,0-.026-.01c-.222-.088-.444-.165-.672-.238s-.455-.16-.687-.227-.465-.145-.7-.207-.465-.134-.7-.191h-.005c-.1-.031-.2-.052-.3-.078a.259.259,0,0,1,.1-.506c.01,0,.021.005.031.005.238.057.475.119.708.181.134.036.269.072.4.114.176.047.351.1.527.155a.073.073,0,0,1,.036.01c.243.072.48.155.723.238a1.067,1.067,0,0,1,.114.036c.243.083.486.171.728.269.165.057.325.119.486.186.129.052.258.1.387.16.661.274,1.307.573,1.943.9.212.108.424.217.63.331A33.465,33.465,0,0,1,325.511,372a0,0,0,0,1,.005.005c.2.14.4.284.6.434a61.51,61.51,0,0,1,10.581,10.4c5.693,6.851,10.834,14.5,12.854,23.3C351.354,414.024,350.409,422.616,345.444,429.193Z"/>
          </g>
        </g>
        <g id="Grupo_1110927" data-name="Grupo 1110927">
          <g id="Grupo_1110926" data-name="Grupo 1110926">
            <path id="Trazado_893874" data-name="Trazado 893874" d="M330.939,409.177a60.8,60.8,0,0,0-2.693,13.6c-.027.331.49.33.517,0a60.222,60.222,0,0,1,2.674-13.462c.1-.317-.4-.453-.5-.137Z"/>
          </g>
        </g>
        <g id="Grupo_1110940" data-name="Grupo 1110940">
          <g id="Grupo_1110929" data-name="Grupo 1110929">
            <g id="Grupo_1110928" data-name="Grupo 1110928">
              <path id="Trazado_893875" data-name="Trazado 893875" d="M292.838,424.751a39.927,39.927,0,0,0-10.878,1c-3.287.74-7.108,1.786-9.709,4.041-1.826,1.584-3.226,4.7-2.491,7.118.177.582.6,1.486,1.344,1.382,1.019-.142,1.189-1.739,1.223-2.487.016-.332-.5-.332-.517,0-.031.662-.292,2.316-1.215,1.648-.444-.321-.483-1.346-.486-1.837a7.761,7.761,0,0,1,.939-3.458c1.264-2.473,3.974-3.67,6.46-4.577a39.1,39.1,0,0,1,15.33-2.31c.332.018.331-.5,0-.516Z"/>
            </g>
          </g>
          <g id="Grupo_1110931" data-name="Grupo 1110931">
            <g id="Grupo_1110930" data-name="Grupo 1110930">
              <path id="Trazado_893876" data-name="Trazado 893876" d="M273.211,430.64c-1.464,1.848-2.425,3.973-.9,6.1a4.6,4.6,0,0,0,5.231,1.623c.311-.111.177-.611-.137-.5a4.114,4.114,0,0,1-4.459-1.148c-1.622-1.9-.735-3.982.631-5.707.2-.258-.16-.626-.366-.365Z"/>
            </g>
          </g>
          <g id="Grupo_1110933" data-name="Grupo 1110933">
            <g id="Grupo_1110932" data-name="Grupo 1110932">
              <path id="Trazado_893877" data-name="Trazado 893877" d="M277.089,433.6c-1.029,3.308,2.409,5.446,5.338,4.938,1.344-.233,2.552-.97,2.334-2.47a1.721,1.721,0,0,0-.722-1.442,3.953,3.953,0,0,0-2.482-.549c-.33.024-.332.541,0,.517,1.059-.077,2.279.1,2.625,1.25.56,1.853-1.7,2.318-2.981,2.264-2.274-.094-4.361-1.969-3.614-4.369.1-.32-.4-.456-.5-.139Z"/>
            </g>
          </g>
          <g id="Grupo_1110935" data-name="Grupo 1110935">
            <g id="Grupo_1110934" data-name="Grupo 1110934">
              <path id="Trazado_893878" data-name="Trazado 893878" d="M281.364,434.549l13.173.133a.259.259,0,0,0,0-.517l-13.173-.133a.259.259,0,0,0,0,.517Z"/>
            </g>
          </g>
          <g id="Grupo_1110937" data-name="Grupo 1110937">
            <g id="Grupo_1110936" data-name="Grupo 1110936">
              <path id="Trazado_893879" data-name="Trazado 893879" d="M280.623,433.851a1.82,1.82,0,0,1,.315,1.964c-.135.3.31.564.446.261a2.361,2.361,0,0,0-.395-2.59c-.224-.248-.588.118-.366.365Z"/>
            </g>
          </g>
          <g id="Grupo_1110939" data-name="Grupo 1110939">
            <g id="Grupo_1110938" data-name="Grupo 1110938">
              <path id="Trazado_893880" data-name="Trazado 893880" d="M274.837,432.612a4.241,4.241,0,0,0,5.059,5.76.258.258,0,0,0-.137-.5,3.729,3.729,0,0,1-4.424-5.125c.129-.305-.371-.439-.5-.137Z"/>
            </g>
          </g>
        </g>
        <g id="Grupo_1110942" data-name="Grupo 1110942">
          <g id="Grupo_1110941" data-name="Grupo 1110941">
            <path id="Trazado_893881" data-name="Trazado 893881" d="M289.184,383.859c2.258,2.31,6.26,2.537,9.3,2.452a23.417,23.417,0,0,0,10.456-2.825c.293-.158.032-.6-.261-.446a22.835,22.835,0,0,1-9.755,2.738c-3,.142-7.131.009-9.373-2.284-.232-.238-.6.127-.365.365Z"/>
          </g>
        </g>
        <g id="Grupo_1110944" data-name="Grupo 1110944">
          <g id="Grupo_1110943" data-name="Grupo 1110943">
            <path id="Trazado_893882" data-name="Trazado 893882" d="M275.694,399.268a141.487,141.487,0,0,1-3.38,30.51c-.072.324.426.462.5.137a142.186,142.186,0,0,0,3.4-30.647.258.258,0,0,0-.516,0Z"/>
          </g>
        </g>
        <g id="Grupo_1110946" data-name="Grupo 1110946">
          <g id="Grupo_1110945" data-name="Grupo 1110945">
            <path id="Trazado_893883" data-name="Trazado 893883" d="M286.4,371.919c-3.072,1.927-6.075,3.965-8.983,6.133-2.422,1.8-2.871,4.3-3.76,7.055a146.972,146.972,0,0,1-7.023,17.924,80.234,80.234,0,0,1-6.9,12.106A43.673,43.673,0,0,1,249.9,424.9c-4.753,3.5-10.843,7.036-16.974,6.347-.33-.037-.327.48,0,.517,5.072.571,10.125-1.8,14.311-4.425a46.263,46.263,0,0,0,11.251-9.711c6.316-7.746,10.389-17.5,13.76-26.812q1.043-2.879,1.977-5.8c.591-1.839.925-4.007,2.257-5.487a27,27,0,0,1,4.806-3.626q2.641-1.832,5.368-3.536c.28-.178.021-.626-.261-.448Z"/>
          </g>
        </g>
        <g id="Grupo_1110948" data-name="Grupo 1110948">
          <g id="Grupo_1110947" data-name="Grupo 1110947">
            <path id="Trazado_893884" data-name="Trazado 893884" d="M274.035,420.821c-2.3,5.371-7.262,10.944-13.018,12.555a.258.258,0,0,0,.137.5c5.883-1.647,10.97-7.3,13.326-12.793.13-.3-.315-.565-.445-.26Z"/>
          </g>
        </g>
        <g id="Grupo_1110950" data-name="Grupo 1110950">
          <g id="Grupo_1110949" data-name="Grupo 1110949">
            <path id="Trazado_893885" data-name="Trazado 893885" d="M326.819,438.343l-.171.775c-.005.01-.005.026-.015.036-.078.232-.4.176-.475-.031a.239.239,0,0,1-.01-.139c.057-.248.114-.491.165-.739.005-.01.005-.026.01-.036a.254.254,0,0,1,.486-.01A.231.231,0,0,1,326.819,438.343Z"/>
          </g>
        </g>
        <g id="Grupo_1110952" data-name="Grupo 1110952">
          <g id="Grupo_1110951" data-name="Grupo 1110951">
            <path id="Trazado_893886" data-name="Trazado 893886" d="M294.689,439.05c-.005.093-.01.186-.01.279-.021.357-.036.708-.052,1.064l-.015.357v.021c-.016.331-.532.336-.517,0,.026-.548.051-1.1.072-1.648v-.005a.307.307,0,0,0,.005-.067.266.266,0,0,1,.362-.233.2.2,0,0,1,.145.15A.217.217,0,0,1,294.689,439.05Z"/>
          </g>
        </g>
        <g id="Grupo_1110953" data-name="Grupo 1110953">
          <path id="Trazado_893887" data-name="Trazado 893887" d="M294.72,440.89c.041,0,.077-.005.119-.005a.067.067,0,0,0,.031.005Z"/>
        </g>
        <g id="Grupo_1110954" data-name="Grupo 1110954">
          <path id="Trazado_893888" data-name="Trazado 893888" d="M326.488,439.629c-10.493.418-21.152.832-31.65,1.255a.3.3,0,0,1-.227-.134c-.093-.124-.1-.3.015-.357a.255.255,0,0,1,.093-.021c10.426-.418,21.012-.832,31.438-1.25.108,0,.222-.005.331-.01a.2.2,0,0,1,.145.041A.265.265,0,0,1,326.488,439.629Z"/>
        </g>
        <g id="Grupo_1110956" data-name="Grupo 1110956">
          <g id="Grupo_1110955" data-name="Grupo 1110955">
            <path id="Trazado_893889" data-name="Trazado 893889" d="M232.865,431.817q-.04,1.162-.079,2.325c-.011.332.505.332.517,0q.04-1.162.079-2.325c.011-.333-.506-.332-.517,0Z"/>
          </g>
        </g>
        <g id="Grupo_1110958" data-name="Grupo 1110958">
          <g id="Grupo_1110957" data-name="Grupo 1110957">
            <path id="Trazado_893890" data-name="Trazado 893890" d="M233.044,434.4a104.7,104.7,0,0,0,28.613-.431c.328-.051.189-.549-.137-.5a104.211,104.211,0,0,1-28.475.413c-.33-.04-.328.477,0,.516Z"/>
          </g>
        </g>
        <g id="Grupo_1110959" data-name="Grupo 1110959">
          <path id="Trazado_893891" data-name="Trazado 893891" d="M297.682,345.107a1.076,1.076,0,1,1-1.076-1.076A1.076,1.076,0,0,1,297.682,345.107Z"/>
        </g>
        <g id="Grupo_1110960" data-name="Grupo 1110960">
          <path id="Trazado_893892" data-name="Trazado 893892" d="M285.627,345.451a1.076,1.076,0,1,1-1.076-1.076A1.076,1.076,0,0,1,285.627,345.451Z"/>
        </g>
      </g>
    </g>
    <g id="Grupo_1110963" data-name="Grupo 1110963">
      <path id="Trazado_893893" data-name="Trazado 893893" d="M267.8,439.076H221.433a5.838,5.838,0,0,1,5.838-5.838h34.693a5.838,5.838,0,0,1,5.838,5.838Z" fill="#666"/>
    </g>
    <g id="Grupo_1110972" data-name="Grupo 1110972">
      <g id="Grupo_1110964" data-name="Grupo 1110964">
        <path id="Trazado_893894" data-name="Trazado 893894" d="M252.086,358.712h-61.3a12.875,12.875,0,0,0-12.875,12.875v35.86a12.875,12.875,0,0,0,12.875,12.875h61.3a12.875,12.875,0,0,0,12.875-12.875v-35.86A12.875,12.875,0,0,0,252.086,358.712Z" fill="#b3b3b3"/>
        <path id="Trazado_893895" data-name="Trazado 893895" d="M252.086,420.822h-61.3a13.39,13.39,0,0,1-13.375-13.375v-35.86a13.39,13.39,0,0,1,13.375-13.375h61.3a13.39,13.39,0,0,1,13.375,13.375v35.86A13.39,13.39,0,0,1,252.086,420.822Zm-61.3-61.61a12.389,12.389,0,0,0-12.375,12.375v35.86a12.389,12.389,0,0,0,12.375,12.375h61.3a12.389,12.389,0,0,0,12.375-12.375v-35.86a12.389,12.389,0,0,0-12.375-12.375h-61.3Z"/>
      </g>
      <g id="Grupo_1110965" data-name="Grupo 1110965">
        <path id="Trazado_893896" data-name="Trazado 893896" d="M245.851,431.5H199.407a8.623,8.623,0,0,0-8.024,5.465l-.82,2.084h64.064l-.662-1.843A8.621,8.621,0,0,0,245.851,431.5Z" fill="#b3b3b3"/>
        <path id="Trazado_893897" data-name="Trazado 893897" d="M255.339,439.549h-65.51l1.09-2.768A9.071,9.071,0,0,1,199.408,431h46.443a9.144,9.144,0,0,1,8.585,6.039Zm-64.041-1h62.619l-.422-1.173A8.14,8.14,0,0,0,245.851,432H199.408a8.081,8.081,0,0,0-7.56,5.148Z"/>
      </g>
      <g id="Grupo_1110966" data-name="Grupo 1110966">
        <path id="Trazado_893898" data-name="Trazado 893898" d="M229.054,431.5H213.813V417.282a5.979,5.979,0,0,1,5.979-5.979h3.282a5.979,5.979,0,0,1,5.979,5.979V431.5Z" fill="gray"/>
        <path id="Trazado_893899" data-name="Trazado 893899" d="M229.553,432H213.312V417.282a6.487,6.487,0,0,1,6.479-6.48h3.282a6.487,6.487,0,0,1,6.479,6.48V432Zm-15.241-1h14.241V417.282a5.486,5.486,0,0,0-5.479-5.48h-3.282a5.486,5.486,0,0,0-5.479,5.48V431Z"/>
      </g>
      <g id="Grupo_1110967" data-name="Grupo 1110967">
        <path id="Trazado_893900" data-name="Trazado 893900" d="M240.239,376.552H202.627a1.994,1.994,0,0,0-1.989,1.989,1.99,1.99,0,0,0,1.989,1.989h37.612a1.989,1.989,0,0,0,0-3.978Zm.289,3.151a1.241,1.241,0,0,1-.883.367H203.221a1.254,1.254,0,0,1-1.25-1.25,1.253,1.253,0,0,1,1.25-1.251h36.424a1.249,1.249,0,0,1,.883,2.134Z" fill="#333"/>
      </g>
      <g id="Grupo_1110968" data-name="Grupo 1110968">
        <path id="Trazado_893901" data-name="Trazado 893901" d="M240.239,382.674H202.627a1.994,1.994,0,0,0-1.989,1.989,1.99,1.99,0,0,0,1.989,1.989h37.612a1.989,1.989,0,0,0,0-3.978Zm.289,3.152a1.241,1.241,0,0,1-.883.367H203.221a1.254,1.254,0,0,1-1.25-1.25,1.253,1.253,0,0,1,1.25-1.251h36.424a1.249,1.249,0,0,1,.883,2.134Z" fill="#333"/>
      </g>
      <g id="Grupo_1110969" data-name="Grupo 1110969">
        <path id="Trazado_893902" data-name="Trazado 893902" d="M240.239,388.8H202.627a1.994,1.994,0,0,0-1.989,1.989,1.99,1.99,0,0,0,1.989,1.989h37.612a1.989,1.989,0,0,0,0-3.978Zm.289,3.151a1.241,1.241,0,0,1-.883.367H203.221a1.254,1.254,0,0,1-1.25-1.25,1.253,1.253,0,0,1,1.25-1.251h36.424a1.249,1.249,0,0,1,.883,2.134Z" fill="#333"/>
      </g>
      <g id="Grupo_1110970" data-name="Grupo 1110970">
        <path id="Trazado_893903" data-name="Trazado 893903" d="M240.239,394.92h-13.2a1.994,1.994,0,0,0-1.989,1.989,1.99,1.99,0,0,0,1.989,1.989h13.2a1.989,1.989,0,0,0,0-3.978Zm.289,3.151a1.241,1.241,0,0,1-.883.367H227.633a1.254,1.254,0,0,1-1.25-1.25,1.229,1.229,0,0,1,.367-.883,1.241,1.241,0,0,1,.883-.367h12.012a1.249,1.249,0,0,1,.883,2.133Z" fill="#333"/>
      </g>
      <g id="Grupo_1110971" data-name="Grupo 1110971">
        <path id="Trazado_893904" data-name="Trazado 893904" d="M215.827,394.92h-13.2a1.994,1.994,0,0,0-1.989,1.989,1.99,1.99,0,0,0,1.989,1.989h13.2a1.989,1.989,0,0,0,0-3.978Zm.29,3.151a1.241,1.241,0,0,1-.883.367H203.222a1.254,1.254,0,0,1-1.25-1.25,1.253,1.253,0,0,1,1.25-1.25h12.012a1.249,1.249,0,0,1,.883,2.133Z" fill="#333"/>
      </g>
    </g>
    <g id="Grupo_1110991" data-name="Grupo 1110991">
      <g id="Grupo_1110973" data-name="Grupo 1110973">
        <circle id="Elipse_12052" data-name="Elipse 12052" cx="24.696" cy="24.696" r="24.696" transform="translate(339.16 290.101)" fill="#ccc"/>
      </g>
      <g id="Grupo_1110974" data-name="Grupo 1110974">
        <circle id="Elipse_12053" data-name="Elipse 12053" cx="21.527" cy="21.527" r="21.527" transform="translate(342.329 293.27)" fill="#fff"/>
      </g>
      <g id="Grupo_1110990" data-name="Grupo 1110990">
        <g id="Grupo_1110975" data-name="Grupo 1110975">
          <path id="Trazado_893905" data-name="Trazado 893905" d="M363.856,296.714a.516.516,0,0,0-.517.517v3.444a.517.517,0,0,0,1.034,0v-3.444A.518.518,0,0,0,363.856,296.714Z"/>
        </g>
        <g id="Grupo_1110976" data-name="Grupo 1110976">
          <path id="Trazado_893906" data-name="Trazado 893906" d="M363.856,329.607a.516.516,0,0,0-.517.517v3.444a.517.517,0,1,0,1.034,0v-3.444A.518.518,0,0,0,363.856,329.607Z"/>
        </g>
        <g id="Grupo_1110977" data-name="Grupo 1110977">
          <path id="Trazado_893907" data-name="Trazado 893907" d="M382.024,314.883H378.58a.517.517,0,0,0,0,1.034h3.444a.517.517,0,0,0,0-1.034Z"/>
        </g>
        <g id="Grupo_1110978" data-name="Grupo 1110978">
          <path id="Trazado_893908" data-name="Trazado 893908" d="M349.648,315.4a.517.517,0,0,0-.517-.517h-3.444a.517.517,0,0,0,0,1.034h3.444A.516.516,0,0,0,349.648,315.4Z"/>
        </g>
        <g id="Grupo_1110979" data-name="Grupo 1110979">
          <path id="Trazado_893909" data-name="Trazado 893909" d="M354.729,299.687a.26.26,0,0,0-.354-.089.257.257,0,0,0-.089.354l.886,1.477a.258.258,0,0,0,.443-.266Z"/>
        </g>
        <g id="Grupo_1110980" data-name="Grupo 1110980">
          <path id="Trazado_893910" data-name="Trazado 893910" d="M372.539,329.369a.26.26,0,0,0-.354-.089.257.257,0,0,0-.089.354l.886,1.477a.256.256,0,0,0,.221.125.26.26,0,0,0,.133-.037.257.257,0,0,0,.089-.354Z"/>
        </g>
        <g id="Grupo_1110981" data-name="Grupo 1110981">
          <path id="Trazado_893911" data-name="Trazado 893911" d="M347.7,307.078l1.519.81a.265.265,0,0,0,.122.03.259.259,0,0,0,.121-.487l-1.519-.81a.259.259,0,0,0-.243.457Z"/>
        </g>
        <g id="Grupo_1110982" data-name="Grupo 1110982">
          <path id="Trazado_893912" data-name="Trazado 893912" d="M380.009,323.721l-1.52-.811a.259.259,0,0,0-.243.457l1.52.811a.265.265,0,0,0,.122.03.258.258,0,0,0,.228-.137A.261.261,0,0,0,380.009,323.721Z"/>
        </g>
        <g id="Grupo_1110983" data-name="Grupo 1110983">
          <path id="Trazado_893913" data-name="Trazado 893913" d="M350.054,324.347l-1.43.959a.258.258,0,0,0,.143.472.254.254,0,0,0,.144-.044l1.43-.959a.258.258,0,1,0-.287-.428Z"/>
        </g>
        <g id="Grupo_1110984" data-name="Grupo 1110984">
          <path id="Trazado_893914" data-name="Trazado 893914" d="M379.158,305.134a.257.257,0,0,0-.358-.071l-1.43.959a.258.258,0,0,0,.143.473.254.254,0,0,0,.144-.044l1.43-.959A.257.257,0,0,0,379.158,305.134Z"/>
        </g>
        <g id="Grupo_1110985" data-name="Grupo 1110985">
          <path id="Trazado_893915" data-name="Trazado 893915" d="M356.968,330.049a.258.258,0,0,0-.344.124l-.733,1.559a.259.259,0,0,0,.124.344.254.254,0,0,0,.11.024.259.259,0,0,0,.234-.148l.733-1.559A.259.259,0,0,0,356.968,330.049Z"/>
        </g>
        <g id="Grupo_1110986" data-name="Grupo 1110986">
          <path id="Trazado_893916" data-name="Trazado 893916" d="M371.7,298.723a.258.258,0,0,0-.344.124l-.733,1.559a.259.259,0,0,0,.124.344.256.256,0,0,0,.11.025.259.259,0,0,0,.234-.148l.733-1.559A.259.259,0,0,0,371.7,298.723Z"/>
        </g>
        <g id="Grupo_1110987" data-name="Grupo 1110987">
          <path id="Trazado_893917" data-name="Trazado 893917" d="M365.492,315.916a1.636,1.636,0,1,1-1.636-1.636A1.635,1.635,0,0,1,365.492,315.916Z"/>
        </g>
        <g id="Grupo_1110988" data-name="Grupo 1110988">
          <path id="Trazado_893918" data-name="Trazado 893918" d="M363.856,315.916V314.28l11.125-7.834a.222.222,0,0,1,.28.343l-9.77,9.127Z"/>
        </g>
        <g id="Grupo_1110989" data-name="Grupo 1110989">
          <path id="Trazado_893919" data-name="Trazado 893919" d="M363.856,315.916l-1.634.085-7.023-5.652a.421.421,0,0,1,.495-.678l8.076,4.611Z"/>
        </g>
      </g>
    </g>
    <g id="Grupo_1110995" data-name="Grupo 1110995">
      <g id="Grupo_1110992" data-name="Grupo 1110992">
        <rect id="Rectángulo_405226" data-name="Rectángulo 405226" width="188.576" height="8.24" transform="translate(149.361 439.076)" fill="#a67c52"/>
        <path id="Trazado_893920" data-name="Trazado 893920" d="M338.437,447.817H148.861v-9.241H338.437Zm-188.576-1H337.437v-7.241H149.861Z"/>
      </g>
      <g id="Grupo_1110993" data-name="Grupo 1110993">
        <rect id="Rectángulo_405227" data-name="Rectángulo 405227" width="182.893" height="8.24" transform="translate(152.202 447.317)" fill="#8c6239"/>
        <path id="Trazado_893921" data-name="Trazado 893921" d="M335.6,456.057H151.7v-9.24H335.6v9.24Zm-182.892-1H334.6v-7.24H152.7Z"/>
      </g>
      <g id="Grupo_1110994" data-name="Grupo 1110994">
        <rect id="Rectángulo_405228" data-name="Rectángulo 405228" width="169.711" height="24.762" transform="translate(158.794 455.557)" fill="#754c24"/>
        <path id="Trazado_893922" data-name="Trazado 893922" d="M329,480.819H158.294V455.057H329.005v25.762Zm-169.71-1H328.005V456.057H159.294Z"/>
      </g>
    </g>
    <g id="Grupo_1111176" data-name="Grupo 1111176">
      <g id="Grupo_1110997" data-name="Grupo 1110997">
        <g id="Grupo_1110996" data-name="Grupo 1110996">
          <path id="Trazado_893923" data-name="Trazado 893923" d="M119.5,444.4c.853-2.883,2.162-5.682,2.341-8.684.192-3.212-.931-6.359-1.1-9.573-.248-4.645,1.489-9.139,3.2-13.466,1.041-2.636,2.368-5.56,5.039-6.505a6.223,6.223,0,0,1,5.5.948,11.367,11.367,0,0,1,3.56,4.494,19.964,19.964,0,0,1-.349,17.762c-1.566,2.941-3.923,5.6-4.386,8.9-.34,2.417.382,4.994-.527,7.259a29.319,29.319,0,0,1-2.426,3.765,16.845,16.845,0,0,0-1.692,5.084,17.123,17.123,0,0,1-1.679,5.089c-1.832,3.132-6.966,4.6-8.027.21A30.657,30.657,0,0,1,119.5,444.4Z" fill="#8cc63f"/>
        </g>
      </g>
      <g id="Grupo_1110999" data-name="Grupo 1110999">
        <g id="Grupo_1110998" data-name="Grupo 1110998">
          <path id="Trazado_893924" data-name="Trazado 893924" d="M116.867,466.7a16,16,0,0,0-3.457-14.674c-1.57-1.747-3.522-3.133-4.978-4.975s-2.363-4.4-1.407-6.548c.547-1.226,1.654-2.215,1.859-3.542.256-1.656-.97-3.143-1.4-4.762a5.134,5.134,0,0,1,9.64-3.431c1.647,3.646-1.279,7.867-.608,11.811.433,2.547,2.286,4.573,3.643,6.771a19.155,19.155,0,0,1,2.094,15.115c-.445,1.561-1.216,3.2-2.695,3.866s-3.666-.348-3.516-1.964" fill="#39b54a"/>
        </g>
      </g>
      <g id="Grupo_1111002" data-name="Grupo 1111002">
        <g id="Grupo_1111000" data-name="Grupo 1111000">
          <path id="Trazado_893925" data-name="Trazado 893925" d="M134.662,454.477,132.41,480.22H109.127l-2.252-25.743Z" fill="#fff"/>
        </g>
        <g id="Grupo_1111001" data-name="Grupo 1111001">
          <path id="Trazado_893926" data-name="Trazado 893926" d="M132.678,480.513h-23.82l-2.3-26.329h28.427Zm-23.282-.587h22.746l2.2-25.156H107.2Z" fill="#4d4d4d"/>
        </g>
      </g>
      <g id="Grupo_1111042" data-name="Grupo 1111042">
        <g id="Grupo_1111005" data-name="Grupo 1111005">
          <g id="Grupo_1111004" data-name="Grupo 1111004">
            <g id="Grupo_1111003" data-name="Grupo 1111003">
              <path id="Trazado_893927" data-name="Trazado 893927" d="M106.636,427.952a7.608,7.608,0,0,0,1.928,2.823c.277.255.693-.158.415-.415a6.983,6.983,0,0,1-1.777-2.565c-.138-.346-.706-.194-.566.157Z" fill="#d9e021"/>
            </g>
          </g>
        </g>
        <g id="Grupo_1111008" data-name="Grupo 1111008">
          <g id="Grupo_1111007" data-name="Grupo 1111007">
            <g id="Grupo_1111006" data-name="Grupo 1111006">
              <path id="Trazado_893928" data-name="Trazado 893928" d="M117.605,429.2a11.74,11.74,0,0,1-1.95,3.011c-.251.281.163.7.415.415a12.261,12.261,0,0,0,2.041-3.129c.155-.342-.351-.64-.506-.3Z" fill="#d9e021"/>
            </g>
          </g>
        </g>
        <g id="Grupo_1111011" data-name="Grupo 1111011">
          <g id="Grupo_1111010" data-name="Grupo 1111010">
            <g id="Grupo_1111009" data-name="Grupo 1111009">
              <path id="Trazado_893929" data-name="Trazado 893929" d="M111.112,434.915q.326,1.393.652,2.788c.086.367.652.212.565-.156q-.326-1.393-.652-2.788c-.086-.367-.651-.211-.565.156Z" fill="#d9e021"/>
            </g>
          </g>
        </g>
        <g id="Grupo_1111014" data-name="Grupo 1111014">
          <g id="Grupo_1111013" data-name="Grupo 1111013">
            <g id="Grupo_1111012" data-name="Grupo 1111012">
              <path id="Trazado_893930" data-name="Trazado 893930" d="M117.637,439.231l-.57,1.473c-.136.352.43.505.566.156l.57-1.473c.136-.352-.431-.505-.566-.156Z" fill="#d9e021"/>
            </g>
          </g>
        </g>
        <g id="Grupo_1111017" data-name="Grupo 1111017">
          <g id="Grupo_1111016" data-name="Grupo 1111016">
            <g id="Grupo_1111015" data-name="Grupo 1111015">
              <path id="Trazado_893931" data-name="Trazado 893931" d="M112.085,424.8a34.148,34.148,0,0,1,.324,4.177.294.294,0,0,0,.587,0,35.306,35.306,0,0,0-.345-4.333c-.052-.372-.618-.214-.566.156Z" fill="#d9e021"/>
            </g>
          </g>
        </g>
        <g id="Grupo_1111020" data-name="Grupo 1111020">
          <g id="Grupo_1111019" data-name="Grupo 1111019">
            <g id="Grupo_1111018" data-name="Grupo 1111018">
              <path id="Trazado_893932" data-name="Trazado 893932" d="M105.884,439.763l2.75,2.748a.294.294,0,0,0,.415-.415l-2.75-2.748a.294.294,0,0,0-.415.415Z" fill="#d9e021"/>
            </g>
          </g>
        </g>
        <g id="Grupo_1111023" data-name="Grupo 1111023">
          <g id="Grupo_1111022" data-name="Grupo 1111022">
            <g id="Grupo_1111021" data-name="Grupo 1111021">
              <path id="Trazado_893933" data-name="Trazado 893933" d="M117.316,444.863l1.539-1.54a.294.294,0,0,0-.415-.415l-1.539,1.54a.294.294,0,0,0,.415.415Z" fill="#d9e021"/>
            </g>
          </g>
        </g>
        <g id="Grupo_1111026" data-name="Grupo 1111026">
          <g id="Grupo_1111025" data-name="Grupo 1111025">
            <g id="Grupo_1111024" data-name="Grupo 1111024">
              <path id="Trazado_893934" data-name="Trazado 893934" d="M111.548,441.075l.218.734a.294.294,0,0,0,.566-.156c-.073-.245-.145-.489-.217-.734a.294.294,0,0,0-.567.156Z" fill="#d9e021"/>
            </g>
          </g>
        </g>
        <g id="Grupo_1111029" data-name="Grupo 1111029">
          <g id="Grupo_1111028" data-name="Grupo 1111028">
            <g id="Grupo_1111027" data-name="Grupo 1111027">
              <path id="Trazado_893935" data-name="Trazado 893935" d="M106.914,447.822a17.226,17.226,0,0,0,4.115.564.293.293,0,0,0,0-.586,16.554,16.554,0,0,1-3.96-.543.293.293,0,0,0-.155.565Z" fill="#d9e021"/>
            </g>
          </g>
        </g>
        <g id="Grupo_1111032" data-name="Grupo 1111032">
          <g id="Grupo_1111031" data-name="Grupo 1111031">
            <g id="Grupo_1111030" data-name="Grupo 1111030">
              <path id="Trazado_893936" data-name="Trazado 893936" d="M120.68,446.57l-1.613,2.786a.293.293,0,0,0,.506.3l1.613-2.786a.293.293,0,0,0-.506-.3Z" fill="#d9e021"/>
            </g>
          </g>
        </g>
        <g id="Grupo_1111035" data-name="Grupo 1111035">
          <g id="Grupo_1111034" data-name="Grupo 1111034">
            <g id="Grupo_1111033" data-name="Grupo 1111033">
              <path id="Trazado_893937" data-name="Trazado 893937" d="M113.492,447.374l.66,1.173a.293.293,0,0,0,.506-.3l-.66-1.173a.293.293,0,0,0-.506.3Z" fill="#d9e021"/>
            </g>
          </g>
        </g>
        <g id="Grupo_1111038" data-name="Grupo 1111038">
          <g id="Grupo_1111037" data-name="Grupo 1111037">
            <g id="Grupo_1111036" data-name="Grupo 1111036">
              <path id="Trazado_893938" data-name="Trazado 893938" d="M121.714,452.359a1.324,1.324,0,0,1,.615-1.054c.317-.2.023-.711-.3-.506a1.94,1.94,0,0,0-.9,1.56c-.021.377.566.376.586,0Z" fill="#d9e021"/>
            </g>
          </g>
        </g>
        <g id="Grupo_1111041" data-name="Grupo 1111041">
          <g id="Grupo_1111040" data-name="Grupo 1111040">
            <g id="Grupo_1111039" data-name="Grupo 1111039">
              <path id="Trazado_893939" data-name="Trazado 893939" d="M115.066,452.588a1.57,1.57,0,0,1-.665-.259c-.314-.212-.607.3-.3.506a1.948,1.948,0,0,0,.805.318c.37.058.529-.507.156-.565Z" fill="#d9e021"/>
            </g>
          </g>
        </g>
      </g>
      <g id="Grupo_1111121" data-name="Grupo 1111121">
        <g id="Grupo_1111045" data-name="Grupo 1111045">
          <g id="Grupo_1111044" data-name="Grupo 1111044">
            <g id="Grupo_1111043" data-name="Grupo 1111043">
              <path id="Trazado_893940" data-name="Trazado 893940" d="M125.447,407.487A8.772,8.772,0,0,0,127.973,410c.317.207.611-.3.3-.507a8.023,8.023,0,0,1-2.316-2.3c-.207-.313-.715-.019-.506.3Z" fill="#006837"/>
            </g>
          </g>
        </g>
        <g id="Grupo_1111048" data-name="Grupo 1111048">
          <g id="Grupo_1111047" data-name="Grupo 1111047">
            <g id="Grupo_1111046" data-name="Grupo 1111046">
              <path id="Trazado_893941" data-name="Trazado 893941" d="M137.3,407.22a23.683,23.683,0,0,1-3.154,3.155c-.291.241.126.654.415.415a23.625,23.625,0,0,0,3.154-3.155c.238-.289-.175-.707-.415-.415Z" fill="#006837"/>
            </g>
          </g>
        </g>
        <g id="Grupo_1111051" data-name="Grupo 1111051">
          <g id="Grupo_1111050" data-name="Grupo 1111050">
            <g id="Grupo_1111049" data-name="Grupo 1111049">
              <path id="Trazado_893942" data-name="Trazado 893942" d="M131.271,402.579a15.931,15.931,0,0,0,.266,3.75c.07.37.635.214.566-.156a15.3,15.3,0,0,1-.245-3.594c.018-.377-.569-.376-.587,0Z" fill="#006837"/>
            </g>
          </g>
        </g>
        <g id="Grupo_1111054" data-name="Grupo 1111054">
          <g id="Grupo_1111053" data-name="Grupo 1111053">
            <g id="Grupo_1111052" data-name="Grupo 1111052">
              <path id="Trazado_893943" data-name="Trazado 893943" d="M121.266,416.141a12.8,12.8,0,0,0,1.785,2.787c.242.29.655-.127.415-.415a12.213,12.213,0,0,1-1.693-2.669c-.161-.341-.666-.044-.507.3Z" fill="#006837"/>
            </g>
          </g>
        </g>
        <g id="Grupo_1111057" data-name="Grupo 1111057">
          <g id="Grupo_1111056" data-name="Grupo 1111056">
            <g id="Grupo_1111055" data-name="Grupo 1111055">
              <path id="Trazado_893944" data-name="Trazado 893944" d="M139.8,420.537a16.017,16.017,0,0,1-1.6,2.8c-.219.308.289.6.506.3a16.081,16.081,0,0,0,1.6-2.8c.152-.342-.353-.641-.506-.3Z" fill="#006837"/>
            </g>
          </g>
        </g>
        <g id="Grupo_1111060" data-name="Grupo 1111060">
          <g id="Grupo_1111059" data-name="Grupo 1111059">
            <g id="Grupo_1111058" data-name="Grupo 1111058">
              <path id="Trazado_893945" data-name="Trazado 893945" d="M128.568,414.672l-.3,2.052c-.054.369.511.529.566.156l.3-2.052c.054-.37-.512-.529-.566-.156Z" fill="#006837"/>
            </g>
          </g>
        </g>
        <g id="Grupo_1111063" data-name="Grupo 1111063">
          <g id="Grupo_1111062" data-name="Grupo 1111062">
            <g id="Grupo_1111061" data-name="Grupo 1111061">
              <path id="Trazado_893946" data-name="Trazado 893946" d="M135.482,419.292a1.9,1.9,0,0,1-.464.53c-.294.236.123.649.415.415a2.338,2.338,0,0,0,.556-.649.294.294,0,0,0-.507-.3Z" fill="#006837"/>
            </g>
          </g>
        </g>
        <g id="Grupo_1111066" data-name="Grupo 1111066">
          <g id="Grupo_1111065" data-name="Grupo 1111065">
            <g id="Grupo_1111064" data-name="Grupo 1111064">
              <path id="Trazado_893947" data-name="Trazado 893947" d="M125.8,423.034a12.185,12.185,0,0,0,1.19,4.832c.162.341.668.043.506-.3a11.433,11.433,0,0,1-1.109-4.536c-.014-.376-.6-.378-.587,0Z" fill="#006837"/>
            </g>
          </g>
        </g>
        <g id="Grupo_1111069" data-name="Grupo 1111069">
          <g id="Grupo_1111068" data-name="Grupo 1111068">
            <g id="Grupo_1111067" data-name="Grupo 1111067">
              <path id="Trazado_893948" data-name="Trazado 893948" d="M133.973,432.895l1.389,1.032c.3.225.6-.284.3-.507l-1.389-1.032c-.3-.225-.6.284-.3.507Z" fill="#006837"/>
            </g>
          </g>
        </g>
        <g id="Grupo_1111072" data-name="Grupo 1111072">
          <g id="Grupo_1111071" data-name="Grupo 1111071">
            <g id="Grupo_1111070" data-name="Grupo 1111070">
              <path id="Trazado_893949" data-name="Trazado 893949" d="M137.134,428.815l.953-.147c.372-.057.214-.622-.156-.566l-.953.147c-.372.057-.214.623.156.566Z" fill="#006837"/>
            </g>
          </g>
        </g>
        <g id="Grupo_1111075" data-name="Grupo 1111075">
          <g id="Grupo_1111074" data-name="Grupo 1111074">
            <g id="Grupo_1111073" data-name="Grupo 1111073">
              <path id="Trazado_893950" data-name="Trazado 893950" d="M120.818,425.676a11.521,11.521,0,0,0,2.251,2.693c.283.248.7-.165.415-.415a11.041,11.041,0,0,1-2.16-2.574.293.293,0,0,0-.506.3Z" fill="#006837"/>
            </g>
          </g>
        </g>
        <g id="Grupo_1111078" data-name="Grupo 1111078">
          <g id="Grupo_1111077" data-name="Grupo 1111077">
            <g id="Grupo_1111076" data-name="Grupo 1111076">
              <path id="Trazado_893951" data-name="Trazado 893951" d="M135.634,424.941a15.719,15.719,0,0,1-1.576,2.207c-.244.286.169.7.415.415a16.732,16.732,0,0,0,1.667-2.326.293.293,0,0,0-.506-.3Z" fill="#006837"/>
            </g>
          </g>
        </g>
        <g id="Grupo_1111081" data-name="Grupo 1111081">
          <g id="Grupo_1111080" data-name="Grupo 1111080">
            <g id="Grupo_1111079" data-name="Grupo 1111079">
              <path id="Trazado_893952" data-name="Trazado 893952" d="M121.661,439.779a9.193,9.193,0,0,1,1.916,1.353c.277.255.693-.158.415-.415a9.779,9.779,0,0,0-2.034-1.445c-.335-.177-.631.329-.3.507Z" fill="#006837"/>
            </g>
          </g>
        </g>
        <g id="Grupo_1111084" data-name="Grupo 1111084">
          <g id="Grupo_1111083" data-name="Grupo 1111083">
            <g id="Grupo_1111082" data-name="Grupo 1111082">
              <path id="Trazado_893953" data-name="Trazado 893953" d="M132.814,442.457l-.873,2.2c-.139.351.428.5.565.156l.873-2.2c.14-.351-.427-.5-.565-.156Z" fill="#006837"/>
            </g>
          </g>
        </g>
        <g id="Grupo_1111087" data-name="Grupo 1111087">
          <g id="Grupo_1111086" data-name="Grupo 1111086">
            <g id="Grupo_1111085" data-name="Grupo 1111085">
              <path id="Trazado_893954" data-name="Trazado 893954" d="M125.7,431.758a26.952,26.952,0,0,1-.082,3.152c-.032.376.555.374.587,0a26.965,26.965,0,0,0,.082-3.152c-.013-.377-.6-.378-.587,0Z" fill="#006837"/>
            </g>
          </g>
        </g>
        <g id="Grupo_1111090" data-name="Grupo 1111090">
          <g id="Grupo_1111089" data-name="Grupo 1111089">
            <g id="Grupo_1111088" data-name="Grupo 1111088">
              <path id="Trazado_893955" data-name="Trazado 893955" d="M121.207,436.51a8.834,8.834,0,0,1,1.408-.979.293.293,0,0,0-.3-.506,9.743,9.743,0,0,0-1.527,1.071c-.287.245.129.658.415.414Z" fill="#006837"/>
            </g>
          </g>
        </g>
        <g id="Grupo_1111093" data-name="Grupo 1111093">
          <g id="Grupo_1111092" data-name="Grupo 1111092">
            <g id="Grupo_1111091" data-name="Grupo 1111091">
              <path id="Trazado_893956" data-name="Trazado 893956" d="M138.16,439.467a9.021,9.021,0,0,0-2.13-.454c-.376-.035-.373.552,0,.586a8.283,8.283,0,0,1,1.974.433c.358.124.511-.442.156-.565Z" fill="#006837"/>
            </g>
          </g>
        </g>
        <g id="Grupo_1111096" data-name="Grupo 1111096">
          <g id="Grupo_1111095" data-name="Grupo 1111095">
            <g id="Grupo_1111094" data-name="Grupo 1111094">
              <path id="Trazado_893957" data-name="Trazado 893957" d="M129.911,443.634a3.281,3.281,0,0,1-.7.7c-.3.221-.009.73.3.506a4.218,4.218,0,0,0,.912-.912c.224-.3-.285-.6-.507-.3Z" fill="#006837"/>
            </g>
          </g>
        </g>
        <g id="Grupo_1111099" data-name="Grupo 1111099">
          <g id="Grupo_1111098" data-name="Grupo 1111098">
            <g id="Grupo_1111097" data-name="Grupo 1111097">
              <path id="Trazado_893958" data-name="Trazado 893958" d="M126.692,448.618q.738,1.279,1.477,2.56a.294.294,0,0,0,.507-.3q-.738-1.279-1.477-2.56a.294.294,0,0,0-.507.3Z" fill="#006837"/>
            </g>
          </g>
        </g>
        <g id="Grupo_1111102" data-name="Grupo 1111102">
          <g id="Grupo_1111101" data-name="Grupo 1111101">
            <g id="Grupo_1111100" data-name="Grupo 1111100">
              <path id="Trazado_893959" data-name="Trazado 893959" d="M123.639,444.066a.558.558,0,0,1-.466-.186c-.261-.274-.675.142-.415.415a1.131,1.131,0,0,0,.881.358c.376-.016.378-.6,0-.587Z" fill="#006837"/>
            </g>
          </g>
        </g>
        <g id="Grupo_1111105" data-name="Grupo 1111105">
          <g id="Grupo_1111104" data-name="Grupo 1111104">
            <g id="Grupo_1111103" data-name="Grupo 1111103">
              <path id="Trazado_893960" data-name="Trazado 893960" d="M132.806,439.784l1.169-.523c.344-.154.046-.66-.3-.507l-1.169.523c-.344.155-.046.66.3.507Z" fill="#006837"/>
            </g>
          </g>
        </g>
        <g id="Grupo_1111108" data-name="Grupo 1111108">
          <g id="Grupo_1111107" data-name="Grupo 1111107">
            <g id="Grupo_1111106" data-name="Grupo 1111106">
              <path id="Trazado_893961" data-name="Trazado 893961" d="M129.295,435.859l-.66,1.613c-.143.349.424.5.565.156l.66-1.613c.144-.349-.424-.5-.565-.156Z" fill="#006837"/>
            </g>
          </g>
        </g>
        <g id="Grupo_1111111" data-name="Grupo 1111111">
          <g id="Grupo_1111110" data-name="Grupo 1111110">
            <g id="Grupo_1111109" data-name="Grupo 1111109">
              <path id="Trazado_893962" data-name="Trazado 893962" d="M127.6,453.052l2.125,1.1c.335.173.632-.332.3-.507l-2.125-1.1c-.335-.174-.632.333-.3.507Z" fill="#006837"/>
            </g>
          </g>
        </g>
        <g id="Grupo_1111114" data-name="Grupo 1111114">
          <g id="Grupo_1111113" data-name="Grupo 1111113">
            <g id="Grupo_1111112" data-name="Grupo 1111112">
              <path id="Trazado_893963" data-name="Trazado 893963" d="M130.572,446.5a2.965,2.965,0,0,0,1.057.986c.331.182.627-.324.3-.507a2.355,2.355,0,0,1-.847-.776c-.206-.314-.715-.02-.506.3Z" fill="#006837"/>
            </g>
          </g>
        </g>
        <g id="Grupo_1111117" data-name="Grupo 1111117">
          <g id="Grupo_1111116" data-name="Grupo 1111116">
            <g id="Grupo_1111115" data-name="Grupo 1111115">
              <path id="Trazado_893964" data-name="Trazado 893964" d="M131.248,424.264,132.5,422.8c.244-.285-.169-.7-.415-.415l-1.252,1.461c-.244.286.169.7.415.415Z" fill="#006837"/>
            </g>
          </g>
        </g>
        <g id="Grupo_1111120" data-name="Grupo 1111120">
          <g id="Grupo_1111119" data-name="Grupo 1111119">
            <g id="Grupo_1111118" data-name="Grupo 1111118">
              <path id="Trazado_893965" data-name="Trazado 893965" d="M138.654,414.588a9.042,9.042,0,0,1,1.782-1.482c.318-.2.024-.709-.3-.507a9.7,9.7,0,0,0-1.9,1.574c-.257.276.156.692.414.415Z" fill="#006837"/>
            </g>
          </g>
        </g>
      </g>
      <g id="Grupo_1111124" data-name="Grupo 1111124">
        <g id="Grupo_1111123" data-name="Grupo 1111123">
          <g id="Grupo_1111122" data-name="Grupo 1111122">
            <path id="Trazado_893966" data-name="Trazado 893966" d="M115.7,458.616a23.274,23.274,0,0,0,3.479-.282c1.483-.232,2.919-.224,4.4-.352,2.218-.191,4.808-1.1,7-.451a.294.294,0,0,0,.156-.566c-2.1-.625-4.545.129-6.659.372-1.3.15-2.6.079-3.9.251a35.247,35.247,0,0,1-4.479.441.294.294,0,0,0,0,.587Z" fill="#999"/>
          </g>
        </g>
      </g>
      <g id="Grupo_1111127" data-name="Grupo 1111127">
        <g id="Grupo_1111126" data-name="Grupo 1111126">
          <g id="Grupo_1111125" data-name="Grupo 1111125">
            <path id="Trazado_893967" data-name="Trazado 893967" d="M126.352,462.233c2.083,0,4.183.083,6.256-.1.373-.033.376-.619,0-.587-2.075.181-4.174.1-6.256.1a.294.294,0,0,0,0,.587Z" fill="#999"/>
          </g>
        </g>
      </g>
      <g id="Grupo_1111130" data-name="Grupo 1111130">
        <g id="Grupo_1111129" data-name="Grupo 1111129">
          <g id="Grupo_1111128" data-name="Grupo 1111128">
            <path id="Trazado_893968" data-name="Trazado 893968" d="M126.645,466.729c.882.014,1.755.1,2.639.1a.294.294,0,0,0,0-.587c-.884,0-1.758-.084-2.639-.1a.294.294,0,0,0,0,.587Z" fill="#999"/>
          </g>
        </g>
      </g>
      <g id="Grupo_1111133" data-name="Grupo 1111133">
        <g id="Grupo_1111132" data-name="Grupo 1111132">
          <g id="Grupo_1111131" data-name="Grupo 1111131">
            <path id="Trazado_893969" data-name="Trazado 893969" d="M114.133,464.188c2.305.174,4.629.1,6.941.1a.294.294,0,0,0,0-.587c-2.311,0-4.636.076-6.941-.1-.377-.028-.375.559,0,.587Z" fill="#999"/>
          </g>
        </g>
      </g>
      <g id="Grupo_1111136" data-name="Grupo 1111136">
        <g id="Grupo_1111135" data-name="Grupo 1111135">
          <g id="Grupo_1111134" data-name="Grupo 1111134">
            <path id="Trazado_893970" data-name="Trazado 893970" d="M119.392,469.554a2.719,2.719,0,0,1,.606-.087c.377.028.375-.559,0-.586a3.518,3.518,0,0,0-.762.108c-.372.054-.214.619.156.565Z" fill="#999"/>
          </g>
        </g>
      </g>
      <g id="Grupo_1111139" data-name="Grupo 1111139">
        <g id="Grupo_1111138" data-name="Grupo 1111138">
          <g id="Grupo_1111137" data-name="Grupo 1111137">
            <path id="Trazado_893971" data-name="Trazado 893971" d="M128.014,470.737c.335,0,.673-.021,1.008-.006a4.9,4.9,0,0,1,.869.191c.368.082.525-.483.156-.566a5.95,5.95,0,0,0-.882-.208c-.381-.027-.769,0-1.151,0a.294.294,0,0,0,0,.587Z" fill="#999"/>
          </g>
        </g>
      </g>
      <g id="Grupo_1111142" data-name="Grupo 1111142">
        <g id="Grupo_1111141" data-name="Grupo 1111141">
          <g id="Grupo_1111140" data-name="Grupo 1111140">
            <path id="Trazado_893972" data-name="Trazado 893972" d="M117.554,475.234c3.254,0,6.437-.167,9.678-.391.374-.026.377-.613,0-.586-3.242.224-6.423.39-9.678.391a.293.293,0,0,0,0,.586Z" fill="#999"/>
          </g>
        </g>
      </g>
      <g id="Grupo_1111145" data-name="Grupo 1111145">
        <g id="Grupo_1111144" data-name="Grupo 1111144">
          <g id="Grupo_1111143" data-name="Grupo 1111143">
            <path id="Trazado_893973" data-name="Trazado 893973" d="M120.78,470.542c1.295-.118,2.581-.218,3.86-.461,1.3-.246,3.337-1.118,4.594-.459.334.175.631-.331.3-.506a5.09,5.09,0,0,0-3.254.006,48.973,48.973,0,0,1-5.5.834c-.372.033-.375.62,0,.586Z" fill="#999"/>
          </g>
        </g>
      </g>
      <g id="Grupo_1111148" data-name="Grupo 1111148">
        <g id="Grupo_1111147" data-name="Grupo 1111147">
          <g id="Grupo_1111146" data-name="Grupo 1111146">
            <path id="Trazado_893974" data-name="Trazado 893974" d="M119.9,466.632h.782a.294.294,0,0,0,0-.587H119.9a.294.294,0,0,0,0,.587Z" fill="#999"/>
          </g>
        </g>
      </g>
      <g id="Grupo_1111151" data-name="Grupo 1111151">
        <g id="Grupo_1111150" data-name="Grupo 1111150">
          <g id="Grupo_1111149" data-name="Grupo 1111149">
            <path id="Trazado_893975" data-name="Trazado 893975" d="M124.788,478.362a18.367,18.367,0,0,0,2.725-.142,7.482,7.482,0,0,1,3.453-.064c.359.12.513-.447.156-.566a6.115,6.115,0,0,0-2.776-.089,27.357,27.357,0,0,1-3.559.274.294.294,0,0,0,0,.587Z" fill="#999"/>
          </g>
        </g>
      </g>
      <g id="Grupo_1111154" data-name="Grupo 1111154">
        <g id="Grupo_1111153" data-name="Grupo 1111153">
          <g id="Grupo_1111152" data-name="Grupo 1111152">
            <path id="Trazado_893976" data-name="Trazado 893976" d="M129.773,475.332a.294.294,0,0,0,0-.587.294.294,0,0,0,0,.587Z" fill="#999"/>
          </g>
        </g>
      </g>
      <g id="Grupo_1111157" data-name="Grupo 1111157">
        <g id="Grupo_1111156" data-name="Grupo 1111156">
          <g id="Grupo_1111155" data-name="Grupo 1111155">
            <path id="Trazado_893977" data-name="Trazado 893977" d="M111.787,471.813a.293.293,0,0,0,0-.586.293.293,0,0,0,0,.586Z" fill="#999"/>
          </g>
        </g>
      </g>
      <g id="Grupo_1111160" data-name="Grupo 1111160">
        <g id="Grupo_1111159" data-name="Grupo 1111159">
          <g id="Grupo_1111158" data-name="Grupo 1111158">
            <path id="Trazado_893978" data-name="Trazado 893978" d="M111.1,459.887c.621-.052,1.232-.186,1.857-.2a.294.294,0,0,0,0-.587c-.625.01-1.236.143-1.857.2-.374.032-.377.618,0,.587Z" fill="#999"/>
          </g>
        </g>
      </g>
      <g id="Grupo_1111163" data-name="Grupo 1111163">
        <g id="Grupo_1111162" data-name="Grupo 1111162">
          <g id="Grupo_1111161" data-name="Grupo 1111161">
            <path id="Trazado_893979" data-name="Trazado 893979" d="M114.211,472.584a7.6,7.6,0,0,1,1.779-.185.294.294,0,0,0,0-.587,8.335,8.335,0,0,0-1.935.206c-.367.089-.212.655.156.566Z" fill="#999"/>
          </g>
        </g>
      </g>
      <g id="Grupo_1111166" data-name="Grupo 1111166">
        <g id="Grupo_1111165" data-name="Grupo 1111165">
          <g id="Grupo_1111164" data-name="Grupo 1111164">
            <path id="Trazado_893980" data-name="Trazado 893980" d="M112.471,477.287c.489-.038.976-.089,1.466-.1a.293.293,0,0,0,0-.586c-.49.009-.978.06-1.466.1-.374.028-.377.615,0,.586Z" fill="#999"/>
          </g>
        </g>
      </g>
      <g id="Grupo_1111169" data-name="Grupo 1111169">
        <g id="Grupo_1111168" data-name="Grupo 1111168">
          <g id="Grupo_1111167" data-name="Grupo 1111167">
            <path id="Trazado_893981" data-name="Trazado 893981" d="M110.321,456.759a3.232,3.232,0,0,1,.747.075c.22.052.419.163.641.207.369.073.526-.492.156-.565-.255-.051-.483-.178-.74-.228a4.181,4.181,0,0,0-.805-.076.294.294,0,0,0,0,.587Z" fill="#999"/>
          </g>
        </g>
      </g>
      <g id="Grupo_1111172" data-name="Grupo 1111172">
        <g id="Grupo_1111171" data-name="Grupo 1111171">
          <g id="Grupo_1111170" data-name="Grupo 1111170">
            <path id="Trazado_893982" data-name="Trazado 893982" d="M113.038,468.283a6.246,6.246,0,0,1,1.584-.283.294.294,0,0,0,0-.587,6.883,6.883,0,0,0-1.74.3.294.294,0,0,0,.156.566Z" fill="#999"/>
          </g>
        </g>
      </g>
      <g id="Grupo_1111175" data-name="Grupo 1111175">
        <g id="Grupo_1111174" data-name="Grupo 1111174">
          <g id="Grupo_1111173" data-name="Grupo 1111173">
            <path id="Trazado_893983" data-name="Trazado 893983" d="M128.061,460.238a22.347,22.347,0,0,0,3.882.812c.367.086.524-.48.156-.565a21.839,21.839,0,0,1-3.742-.753c-.343-.149-.642.357-.3.506Z" fill="#999"/>
          </g>
        </g>
      </g>
    </g>
    <g id="Grupo_1111277" data-name="Grupo 1111277">
      <g id="Grupo_1111218" data-name="Grupo 1111218">
        <g id="Grupo_1111177" data-name="Grupo 1111177">
          <path id="Trazado_893984" data-name="Trazado 893984" d="M379.864,457.078a8.564,8.564,0,0,1-4.045.627l1.113-13.5c.106-1.287,1.47-3.035,2.961-2.117,1.213.747.382,2.739.168,3.77a30.262,30.262,0,0,0-.626,5.654C379.427,452.011,379.867,457.077,379.864,457.078Z" fill="#006837"/>
        </g>
        <g id="Grupo_1111195" data-name="Grupo 1111195">
          <g id="Grupo_1111178" data-name="Grupo 1111178">
            <path id="Trazado_893985" data-name="Trazado 893985" d="M379.991,431.194c4.814-7.6,16.08-8.505,21.716-15.521a23.346,23.346,0,0,1-7.413,25.516,30.485,30.485,0,0,1-7.817,4.262c-1.725.669-5.522,2.745-7.231,1.375-1.659-1.33-1.519-5.949-1.463-7.852A15.291,15.291,0,0,1,379.991,431.194Z" fill="#009245"/>
          </g>
          <g id="Grupo_1111180" data-name="Grupo 1111180">
            <g id="Grupo_1111179" data-name="Grupo 1111179">
              <path id="Trazado_893986" data-name="Trazado 893986" d="M399.009,422.12a20.761,20.761,0,0,1-2.45,6.22,24.924,24.924,0,0,1-4.672,5.436c-.826.824-1.431,1.85-2.322,2.608a27.413,27.413,0,0,1-2.665,1.682c-1.781,1.193-3.314,2.717-5.4,3.376-.447.141-.638-.56-.193-.7,1.734-.549,3.261-1.918,4.749-2.95.844-.586,1.778-1.043,2.61-1.643a21.669,21.669,0,0,0,2.49-2.673c1.691-1.71,3.391-3.118,4.624-5.239a20.612,20.612,0,0,0,2.526-6.31c.083-.459.784-.264.7.193Z" fill="#39b54a"/>
            </g>
          </g>
          <g id="Grupo_1111182" data-name="Grupo 1111182">
            <g id="Grupo_1111181" data-name="Grupo 1111181">
              <path id="Trazado_893987" data-name="Trazado 893987" d="M383.454,439.547c1.624-2.542.974-5.807,2.815-8.263.277-.37.908-.008.627.367-1.827,2.437-1.182,5.707-2.815,8.263-.251.392-.88.029-.627-.367Z" fill="#39b54a"/>
            </g>
          </g>
          <g id="Grupo_1111184" data-name="Grupo 1111184">
            <g id="Grupo_1111183" data-name="Grupo 1111183">
              <path id="Trazado_893988" data-name="Trazado 893988" d="M388.505,436.114c2.852-2.371.919-6.455,3.087-9.262.285-.369.8.148.514.514-2.165,2.8-.112,6.788-3.087,9.262-.358.3-.874-.215-.514-.514Z" fill="#39b54a"/>
            </g>
          </g>
          <g id="Grupo_1111186" data-name="Grupo 1111186">
            <g id="Grupo_1111185" data-name="Grupo 1111185">
              <path id="Trazado_893989" data-name="Trazado 893989" d="M392.591,432.028a7.5,7.5,0,0,0,1.782-4.831,12.789,12.789,0,0,1,.486-3.453c.171-.429.874-.242.7.193-.594,1.488-.395,3.388-.63,4.958a6.565,6.565,0,0,1-1.825,3.647c-.309.352-.821-.164-.514-.514Z" fill="#39b54a"/>
            </g>
          </g>
          <g id="Grupo_1111188" data-name="Grupo 1111188">
            <g id="Grupo_1111187" data-name="Grupo 1111187">
              <path id="Trazado_893990" data-name="Trazado 893990" d="M393.5,431.12a4.683,4.683,0,0,1,2.063-.662c.84-.2,3.159-.515,3.473-1.448.148-.441.85-.252.7.193-.286.852-1.141,1.132-1.932,1.4-.606.2-1.233.359-1.853.512-.53.131-1.517.155-1.938.522-.351.307-.867-.2-.514-.513Z" fill="#39b54a"/>
            </g>
          </g>
          <g id="Grupo_1111190" data-name="Grupo 1111190">
            <g id="Grupo_1111189" data-name="Grupo 1111189">
              <path id="Trazado_893991" data-name="Trazado 893991" d="M389.577,435.875a17.223,17.223,0,0,1,3.557-1.265c.6-.119,3.465.121,3.631-.425.136-.446.837-.256.7.193-.25.821-.974.808-1.734.808a13.464,13.464,0,0,0-5.788,1.316c-.423.188-.793-.438-.366-.627Z" fill="#39b54a"/>
            </g>
          </g>
          <g id="Grupo_1111192" data-name="Grupo 1111192">
            <g id="Grupo_1111191" data-name="Grupo 1111191">
              <path id="Trazado_893992" data-name="Trazado 893992" d="M383.493,439.6a6.614,6.614,0,0,1,3.383-.388c.81.1,1.6.385,2.406.468a4,4,0,0,0,2.474-.443c.423-.189.793.437.367.627a4.58,4.58,0,0,1-2.39.616c-1.985-.131-3.9-1.094-5.873-.253-.425.182-.8-.444-.367-.627Z" fill="#39b54a"/>
            </g>
          </g>
          <g id="Grupo_1111194" data-name="Grupo 1111194">
            <g id="Grupo_1111193" data-name="Grupo 1111193">
              <path id="Trazado_893993" data-name="Trazado 893993" d="M382.309,440.561a2.445,2.445,0,0,1,2.158.5,6.868,6.868,0,0,0,3.2,1.39c.464.032.467.758,0,.727a5.075,5.075,0,0,1-2.169-.591c-.947-.547-1.829-1.529-3-1.329-.457.077-.654-.623-.193-.7Z" fill="#39b54a"/>
            </g>
          </g>
        </g>
        <g id="Grupo_1111217" data-name="Grupo 1111217">
          <g id="Grupo_1111196" data-name="Grupo 1111196">
            <path id="Trazado_893994" data-name="Trazado 893994" d="M379.464,427.9c-2.394-3.979-6.23-6.826-9.7-9.918s-6.783-6.811-7.519-11.4c-3.076,8.039-5.423,17.113-2.229,25.106,2.432,6.085,7.642,10.489,12.658,14.44,2.209,1.741,4.455,3.679,6.41.763a18.68,18.68,0,0,0,2.758-8.812A17.65,17.65,0,0,0,379.464,427.9Z" fill="#39b54a"/>
          </g>
          <g id="Grupo_1111198" data-name="Grupo 1111198">
            <g id="Grupo_1111197" data-name="Grupo 1111197">
              <path id="Trazado_893995" data-name="Trazado 893995" d="M363.051,416.57a40.183,40.183,0,0,0,6.112,15.164c1.505,2.216,3.156,4.337,4.616,6.582.808,1.242,2.5,3.193,1.766,4.776-.2.424-.822.055-.627-.367.488-1.056-1.221-3.2-1.766-4.042-.688-1.058-1.439-2.08-2.166-3.112-1.346-1.909-2.739-3.784-3.985-5.762a38.372,38.372,0,0,1-4.65-13.046c-.089-.457.611-.652.7-.193Z" fill="#8cc63f"/>
            </g>
          </g>
          <g id="Grupo_1111200" data-name="Grupo 1111200">
            <g id="Grupo_1111199" data-name="Grupo 1111199">
              <path id="Trazado_893996" data-name="Trazado 893996" d="M377.4,431.825a5.016,5.016,0,0,1,.142,3.508,5.758,5.758,0,0,1-.867,1.313,4.234,4.234,0,0,0-1.079,2.994c.015.468-.712.467-.726,0a3.925,3.925,0,0,1,.7-2.786,7.229,7.229,0,0,0,1.294-2,4.255,4.255,0,0,0-.162-2.84c-.164-.438.537-.627.7-.193Z" fill="#8cc63f"/>
            </g>
          </g>
          <g id="Grupo_1111202" data-name="Grupo 1111202">
            <g id="Grupo_1111201" data-name="Grupo 1111201">
              <path id="Trazado_893997" data-name="Trazado 893997" d="M373.457,425.836a4.314,4.314,0,0,1,.233,3.418c-.563,1.652-1.964,2.62-2.09,4.483-.032.464-.758.467-.727,0,.187-2.753,3.379-4.669,1.957-7.535-.207-.417.419-.785.627-.366Z" fill="#8cc63f"/>
            </g>
          </g>
          <g id="Grupo_1111204" data-name="Grupo 1111204">
            <g id="Grupo_1111203" data-name="Grupo 1111203">
              <path id="Trazado_893998" data-name="Trazado 893998" d="M370.1,422.749a3.108,3.108,0,0,1,.189,2.648c-.249.557-.693,1.017-.974,1.56a7.62,7.62,0,0,0-.8,3.239c-.02.466-.746.468-.727,0a8.69,8.69,0,0,1,.6-2.961c.588-1.443,1.887-2.445,1.084-4.12-.2-.419.425-.788.627-.366Z" fill="#8cc63f"/>
            </g>
          </g>
          <g id="Grupo_1111206" data-name="Grupo 1111206">
            <g id="Grupo_1111205" data-name="Grupo 1111205">
              <path id="Trazado_893999" data-name="Trazado 893999" d="M366.152,418.119a5.549,5.549,0,0,1-1.65,3.8c-.322.341-.835-.174-.514-.514a4.86,4.86,0,0,0,1.437-3.285.364.364,0,0,1,.727,0Z" fill="#8cc63f"/>
            </g>
          </g>
          <g id="Grupo_1111208" data-name="Grupo 1111208">
            <g id="Grupo_1111207" data-name="Grupo 1111207">
              <path id="Trazado_894000" data-name="Trazado 894000" d="M361.158,420.389a5.315,5.315,0,0,0,1.5,3.207c.609.612,1.578.9,2.113,1.53.3.355-.211.871-.514.514a8.579,8.579,0,0,0-1.4-.911,7.054,7.054,0,0,1-1.316-1.313,6.079,6.079,0,0,1-1.108-3.026c-.061-.463.666-.458.726,0Z" fill="#8cc63f"/>
            </g>
          </g>
          <g id="Grupo_1111210" data-name="Grupo 1111210">
            <g id="Grupo_1111209" data-name="Grupo 1111209">
              <path id="Trazado_894001" data-name="Trazado 894001" d="M361.067,427.2c.377,2.992,4.066,2.56,5.9,3.954.368.279.006.91-.367.627-1.3-.983-3.066-.862-4.4-1.766a4.292,4.292,0,0,1-1.865-2.815c-.059-.463.668-.459.726,0Z" fill="#8cc63f"/>
            </g>
          </g>
          <g id="Grupo_1111212" data-name="Grupo 1111212">
            <g id="Grupo_1111211" data-name="Grupo 1111211">
              <path id="Trazado_894002" data-name="Trazado 894002" d="M364.048,432.482c1.16,1.221,2.109,2.191,3.86,2.476,1.1.179,2.256.089,3.334.336.456.105.263.8-.193.7-1.432-.329-2.952-.089-4.373-.581A7.877,7.877,0,0,1,363.534,433c-.322-.34.191-.854.514-.514Z" fill="#8cc63f"/>
            </g>
          </g>
          <g id="Grupo_1111214" data-name="Grupo 1111214">
            <g id="Grupo_1111213" data-name="Grupo 1111213">
              <path id="Trazado_894003" data-name="Trazado 894003" d="M367.771,437.2a8.441,8.441,0,0,0,3.932,3.082c1.081.323,2.04.079,2.969.822.365.292-.152.8-.514.514-.685-.549-1.468-.368-2.251-.532a6.264,6.264,0,0,1-1.68-.684,10.173,10.173,0,0,1-2.97-2.689c-.3-.355.213-.872.514-.513Z" fill="#8cc63f"/>
            </g>
          </g>
          <g id="Grupo_1111216" data-name="Grupo 1111216">
            <g id="Grupo_1111215" data-name="Grupo 1111215">
              <path id="Trazado_894004" data-name="Trazado 894004" d="M374.505,434.1c-.044.4-.115.793-.194,1.186-.092.458-.793.264-.7-.193.066-.33.131-.659.169-.993.051-.46.778-.465.726,0Z" fill="#8cc63f"/>
            </g>
          </g>
        </g>
      </g>
      <g id="Grupo_1111276" data-name="Grupo 1111276">
        <g id="Grupo_1111221" data-name="Grupo 1111221">
          <g id="Grupo_1111219" data-name="Grupo 1111219">
            <path id="Trazado_894005" data-name="Trazado 894005" d="M363.022,454.283l2.252,25.743h23.283l2.252-25.743Z" fill="#fff"/>
          </g>
          <g id="Grupo_1111220" data-name="Grupo 1111220">
            <path id="Trazado_894006" data-name="Trazado 894006" d="M362.7,453.99H391.13l-2.3,26.329h-23.82Zm27.787.587H363.342l2.2,25.156h22.746Z" fill="#4d4d4d"/>
          </g>
        </g>
        <g id="Grupo_1111224" data-name="Grupo 1111224">
          <g id="Grupo_1111223" data-name="Grupo 1111223">
            <g id="Grupo_1111222" data-name="Grupo 1111222">
              <path id="Trazado_894007" data-name="Trazado 894007" d="M381.987,458.422a23.285,23.285,0,0,1-3.479-.282c-1.483-.232-2.919-.225-4.4-.353-2.218-.191-4.808-1.1-7-.451a.294.294,0,0,1-.156-.566c2.1-.625,4.546.129,6.659.373,1.3.15,2.6.079,3.9.251a35.247,35.247,0,0,0,4.479.441.294.294,0,0,1,0,.587Z" fill="#999"/>
            </g>
          </g>
        </g>
        <g id="Grupo_1111227" data-name="Grupo 1111227">
          <g id="Grupo_1111226" data-name="Grupo 1111226">
            <g id="Grupo_1111225" data-name="Grupo 1111225">
              <path id="Trazado_894008" data-name="Trazado 894008" d="M371.332,462.039c-2.083,0-4.183.083-6.256-.1-.373-.033-.377-.619,0-.587,2.075.181,4.174.1,6.256.1a.294.294,0,0,1,0,.587Z" fill="#999"/>
            </g>
          </g>
        </g>
        <g id="Grupo_1111230" data-name="Grupo 1111230">
          <g id="Grupo_1111229" data-name="Grupo 1111229">
            <g id="Grupo_1111228" data-name="Grupo 1111228">
              <path id="Trazado_894009" data-name="Trazado 894009" d="M371.039,466.536c-.882.014-1.755.1-2.639.1a.294.294,0,0,1,0-.587c.884,0,1.758-.084,2.639-.1a.294.294,0,0,1,0,.587Z" fill="#999"/>
            </g>
          </g>
        </g>
        <g id="Grupo_1111233" data-name="Grupo 1111233">
          <g id="Grupo_1111232" data-name="Grupo 1111232">
            <g id="Grupo_1111231" data-name="Grupo 1111231">
              <path id="Trazado_894010" data-name="Trazado 894010" d="M383.551,463.994c-2.3.174-4.629.1-6.941.1a.294.294,0,0,1,0-.587c2.311,0,4.636.076,6.941-.1.376-.028.375.559,0,.587Z" fill="#999"/>
            </g>
          </g>
        </g>
        <g id="Grupo_1111236" data-name="Grupo 1111236">
          <g id="Grupo_1111235" data-name="Grupo 1111235">
            <g id="Grupo_1111234" data-name="Grupo 1111234">
              <path id="Trazado_894011" data-name="Trazado 894011" d="M378.292,469.36a2.719,2.719,0,0,0-.606-.087c-.376.028-.375-.559,0-.587a3.518,3.518,0,0,1,.762.108c.372.055.214.62-.156.566Z" fill="#999"/>
            </g>
          </g>
        </g>
        <g id="Grupo_1111239" data-name="Grupo 1111239">
          <g id="Grupo_1111238" data-name="Grupo 1111238">
            <g id="Grupo_1111237" data-name="Grupo 1111237">
              <path id="Trazado_894012" data-name="Trazado 894012" d="M369.67,470.544c-.335,0-.673-.021-1.008-.006a4.9,4.9,0,0,0-.869.191c-.368.082-.525-.483-.156-.566a5.95,5.95,0,0,1,.882-.208c.381-.027.77,0,1.151,0a.294.294,0,0,1,0,.587Z" fill="#999"/>
            </g>
          </g>
        </g>
        <g id="Grupo_1111242" data-name="Grupo 1111242">
          <g id="Grupo_1111241" data-name="Grupo 1111241">
            <g id="Grupo_1111240" data-name="Grupo 1111240">
              <path id="Trazado_894013" data-name="Trazado 894013" d="M380.13,475.04c-3.254,0-6.437-.167-9.678-.391-.374-.026-.377-.613,0-.587,3.241.225,6.423.39,9.678.391a.294.294,0,0,1,0,.587Z" fill="#999"/>
            </g>
          </g>
        </g>
        <g id="Grupo_1111245" data-name="Grupo 1111245">
          <g id="Grupo_1111244" data-name="Grupo 1111244">
            <g id="Grupo_1111243" data-name="Grupo 1111243">
              <path id="Trazado_894014" data-name="Trazado 894014" d="M376.9,470.348c-1.3-.118-2.581-.219-3.86-.461-1.3-.246-3.337-1.118-4.594-.459-.334.175-.631-.331-.3-.506a5.09,5.09,0,0,1,3.254.006,48.973,48.973,0,0,0,5.5.834c.371.034.375.621,0,.586Z" fill="#999"/>
            </g>
          </g>
        </g>
        <g id="Grupo_1111248" data-name="Grupo 1111248">
          <g id="Grupo_1111247" data-name="Grupo 1111247">
            <g id="Grupo_1111246" data-name="Grupo 1111246">
              <path id="Trazado_894015" data-name="Trazado 894015" d="M377.784,466.438H377a.294.294,0,0,1,0-.587h.782a.294.294,0,0,1,0,.587Z" fill="#999"/>
            </g>
          </g>
        </g>
        <g id="Grupo_1111251" data-name="Grupo 1111251">
          <g id="Grupo_1111250" data-name="Grupo 1111250">
            <g id="Grupo_1111249" data-name="Grupo 1111249">
              <path id="Trazado_894016" data-name="Trazado 894016" d="M372.9,478.169a18.367,18.367,0,0,1-2.725-.142,7.482,7.482,0,0,0-3.453-.064c-.359.12-.513-.446-.156-.566a6.115,6.115,0,0,1,2.776-.089,27.357,27.357,0,0,0,3.559.274.294.294,0,0,1,0,.587Z" fill="#999"/>
            </g>
          </g>
        </g>
        <g id="Grupo_1111254" data-name="Grupo 1111254">
          <g id="Grupo_1111253" data-name="Grupo 1111253">
            <g id="Grupo_1111252" data-name="Grupo 1111252">
              <path id="Trazado_894017" data-name="Trazado 894017" d="M367.91,475.138a.294.294,0,0,1,0-.587.294.294,0,0,1,0,.587Z" fill="#999"/>
            </g>
          </g>
        </g>
        <g id="Grupo_1111257" data-name="Grupo 1111257">
          <g id="Grupo_1111256" data-name="Grupo 1111256">
            <g id="Grupo_1111255" data-name="Grupo 1111255">
              <path id="Trazado_894018" data-name="Trazado 894018" d="M385.9,471.619a.294.294,0,0,1,0-.587.294.294,0,0,1,0,.587Z" fill="#999"/>
            </g>
          </g>
        </g>
        <g id="Grupo_1111260" data-name="Grupo 1111260">
          <g id="Grupo_1111259" data-name="Grupo 1111259">
            <g id="Grupo_1111258" data-name="Grupo 1111258">
              <path id="Trazado_894019" data-name="Trazado 894019" d="M386.581,459.693c-.621-.052-1.233-.186-1.857-.2a.293.293,0,0,1,0-.586c.625.01,1.236.143,1.857.2.374.032.377.619,0,.587Z" fill="#999"/>
            </g>
          </g>
        </g>
        <g id="Grupo_1111263" data-name="Grupo 1111263">
          <g id="Grupo_1111262" data-name="Grupo 1111262">
            <g id="Grupo_1111261" data-name="Grupo 1111261">
              <path id="Trazado_894020" data-name="Trazado 894020" d="M383.473,472.391a7.653,7.653,0,0,0-1.779-.185.293.293,0,0,1,0-.586,8.335,8.335,0,0,1,1.935.206c.367.088.211.653-.156.565Z" fill="#999"/>
            </g>
          </g>
        </g>
        <g id="Grupo_1111266" data-name="Grupo 1111266">
          <g id="Grupo_1111265" data-name="Grupo 1111265">
            <g id="Grupo_1111264" data-name="Grupo 1111264">
              <path id="Trazado_894021" data-name="Trazado 894021" d="M385.213,477.093c-.489-.038-.976-.089-1.466-.1a.294.294,0,0,1,0-.587c.49.009.978.06,1.466.1.374.03.377.617,0,.587Z" fill="#999"/>
            </g>
          </g>
        </g>
        <g id="Grupo_1111269" data-name="Grupo 1111269">
          <g id="Grupo_1111268" data-name="Grupo 1111268">
            <g id="Grupo_1111267" data-name="Grupo 1111267">
              <path id="Trazado_894022" data-name="Trazado 894022" d="M387.363,456.565a3.232,3.232,0,0,0-.747.075c-.22.052-.419.164-.641.208-.369.073-.526-.492-.156-.566.255-.051.483-.178.74-.228a4.181,4.181,0,0,1,.8-.076.294.294,0,0,1,0,.587Z" fill="#999"/>
            </g>
          </g>
        </g>
        <g id="Grupo_1111272" data-name="Grupo 1111272">
          <g id="Grupo_1111271" data-name="Grupo 1111271">
            <g id="Grupo_1111270" data-name="Grupo 1111270">
              <path id="Trazado_894023" data-name="Trazado 894023" d="M384.646,468.089a6.246,6.246,0,0,0-1.584-.283.294.294,0,0,1,0-.587,6.883,6.883,0,0,1,1.74.3.294.294,0,0,1-.156.566Z" fill="#999"/>
            </g>
          </g>
        </g>
        <g id="Grupo_1111275" data-name="Grupo 1111275">
          <g id="Grupo_1111274" data-name="Grupo 1111274">
            <g id="Grupo_1111273" data-name="Grupo 1111273">
              <path id="Trazado_894024" data-name="Trazado 894024" d="M369.622,460.044a22.347,22.347,0,0,1-3.882.812c-.367.085-.524-.48-.156-.566a21.838,21.838,0,0,0,3.742-.753c.343-.147.643.358.3.507Z" fill="#999"/>
            </g>
          </g>
        </g>
      </g>
    </g>
  </g>
</svg>
