<svg id="Grupo_1111399" data-name="Grupo 1111399" xmlns="http://www.w3.org/2000/svg" width="118.512" height="118.512" viewBox="0 0 118.512 118.512">
  <g id="Grupo_1111397" data-name="Grupo 1111397" transform="translate(1.911 1.911)">
    <g id="Grupo_1111376" data-name="Grupo 1111376" transform="translate(0)">
      <path id="Trazado_894159" data-name="Trazado 894159" d="M17.847,29.53l16.914-2.416L44,11.713A7.645,7.645,0,0,1,50.559,8H75.91a7.646,7.646,0,0,1,6.838,4.227l7.445,14.888h5.734a11.43,11.43,0,0,1,5.737,1.534l0,0a11.463,11.463,0,0,0-5.734,9.93,3.818,3.818,0,0,0,3.823,3.823H107.4V52.449a5.406,5.406,0,0,0-1.584,1.1l-.327.327-.2-.4a6.186,6.186,0,0,0-9.588-1.9l0,0a11.478,11.478,0,0,0-14.049-8.81V27.115L75.91,15.646H50.559L43.678,27.115V50.053H41.754a11.474,11.474,0,0,0-21.633,0H8V40.885c0-.248.007-.5.024-.743h0a6.29,6.29,0,0,0,4.752,2.265c3.694,0,6.69-3.424,6.69-7.646a8.23,8.23,0,0,0-1.79-5.2v0c.055-.01.11-.019.167-.026Z" transform="translate(-8 -8)" fill="#ff826e"/>
    </g>
    <g id="Grupo_1111377" data-name="Grupo 1111377" transform="translate(87.928 20.649)">
      <path id="Trazado_894160" data-name="Trazado 894160" d="M387.469,104.355v3.823h-7.646A3.818,3.818,0,0,1,376,104.355a11.463,11.463,0,0,1,5.734-9.93l0,0A11.466,11.466,0,0,1,387.469,104.355Z" transform="translate(-376 -94.42)" fill="#fcd770"/>
    </g>
    <g id="Grupo_1111378" data-name="Grupo 1111378" transform="translate(35.678 7.646)">
      <path id="Trazado_894161" data-name="Trazado 894161" d="M189.552,40l5.734,11.469H157.32L164.2,40Z" transform="translate(-157.32 -40)" fill="#69d6f4"/>
    </g>
    <g id="Grupo_1111379" data-name="Grupo 1111379" transform="translate(35.678 19.115)">
      <path id="Trazado_894162" data-name="Trazado 894162" d="M195.287,88v15.641a11.488,11.488,0,0,0-8,7.3H157.32V88Z" transform="translate(-157.32 -88)" fill="#fc6e51"/>
    </g>
    <g id="Grupo_1111380" data-name="Grupo 1111380" transform="translate(0 57.344)">
      <path id="Trazado_894163" data-name="Trazado 894163" d="M81.688,254.251a5.689,5.689,0,0,0-.724,1.4H8V248H80.636A19.08,19.08,0,0,0,81.688,254.251Z" transform="translate(-8 -248)" fill="#ccd1d9"/>
    </g>
    <g id="Grupo_1111381" data-name="Grupo 1111381" transform="translate(64.99 34.407)">
      <path id="Trazado_894164" data-name="Trazado 894164" d="M280.652,159.646a11.472,11.472,0,0,1,22.051,1.512l0,0a6.147,6.147,0,0,0-1.479,1.9l-.2.4-.327-.327a5.406,5.406,0,0,0-9.23,3.823v.327a6.915,6.915,0,0,0-3.823,6.186v.808a11.485,11.485,0,0,1-6.994-14.64Z" transform="translate(-280 -152)" fill="#969faa"/>
    </g>
    <g id="Grupo_1111382" data-name="Grupo 1111382" transform="translate(11.469 34.407)">
      <path id="Trazado_894165" data-name="Trazado 894165" d="M78.285,167.292a11.529,11.529,0,1,1,.652-3.823A11.475,11.475,0,0,1,78.285,167.292Z" transform="translate(-56 -152)" fill="#969faa"/>
    </g>
    <g id="Grupo_1111383" data-name="Grupo 1111383" transform="translate(72.636 42.053)">
      <path id="Trazado_894166" data-name="Trazado 894166" d="M350.23,197.832v1.46a19.08,19.08,0,0,1-1.051,6.251,5.726,5.726,0,0,0-4.683-2.428h-1.928a6.186,6.186,0,0,0-6.169-5.734,6.178,6.178,0,0,0-2.767.652l-2.516,1.259-2.516-1.259a6.185,6.185,0,0,0-8.936,5.082h-1.928a5.72,5.72,0,0,0-4.683,2.428A19.081,19.081,0,0,1,312,199.292v-1.46a6.915,6.915,0,0,1,3.823-6.186v-.327a5.405,5.405,0,0,1,9.23-3.823l.327.327.2-.4a6.189,6.189,0,0,1,11.068,0l.2.4.327-.327a5.407,5.407,0,0,1,9.23,3.823v.327a6.911,6.911,0,0,1,3.823,6.186Z" transform="translate(-312 -184)" fill="#b27946"/>
    </g>
    <g id="Grupo_1111384" data-name="Grupo 1111384" transform="translate(68.813 86.017)">
      <path id="Trazado_894167" data-name="Trazado 894167" d="M332.894,369.828,324.672,368l-1.911,1.274v6.372a3.823,3.823,0,1,1-7.646,0v-6.372L313.2,368l-8.222,1.828a11.353,11.353,0,0,0-1.34.382h0A11.465,11.465,0,0,1,296,380.726v8.3a3.823,3.823,0,1,1,0,7.646h11.469v-7.646h22.938v7.646h11.469v-15.65A11.469,11.469,0,0,0,332.894,369.828Z" transform="translate(-296 -368)" fill="#fcd770"/>
    </g>
    <g id="Grupo_1111385" data-name="Grupo 1111385" transform="translate(80.282 107.043)">
      <path id="Trazado_894168" data-name="Trazado 894168" d="M344,456h22.938v7.646H344Z" transform="translate(-344 -456)" fill="#ffc729"/>
    </g>
    <g id="Grupo_1111386" data-name="Grupo 1111386" transform="translate(87.928 87.29)">
      <path id="Trazado_894169" data-name="Trazado 894169" d="M383.646,373.33V379.7a3.823,3.823,0,1,1-7.646,0V373.33l3.823,2.549Z" transform="translate(-376 -373.33)" fill="#969faa"/>
    </g>
    <g id="Grupo_1111387" data-name="Grupo 1111387" transform="translate(53.521 77.114)">
      <path id="Trazado_894170" data-name="Trazado 894170" d="M254.938,341.554c0,.1,0,.2-.007.3a11.465,11.465,0,0,1-7.639,10.516v8.3H245.38a1.911,1.911,0,0,0-1.911,1.911v-3.823a1.911,1.911,0,0,0-1.911-1.911h-1.911v-4.478a11.471,11.471,0,0,1,0-21.628v6.991a3.823,3.823,0,1,0,7.646,0V330.74A11.472,11.472,0,0,1,254.938,341.554Z" transform="translate(-232 -330.74)" fill="#ccd1d9"/>
    </g>
    <g id="Grupo_1111388" data-name="Grupo 1111388" transform="translate(57.344 103.22)">
      <path id="Trazado_894171" data-name="Trazado 894171" d="M255.646,445.734v3.823a1.911,1.911,0,0,1-1.911,1.911h-1.911A3.822,3.822,0,0,1,248,447.646v-3.823A3.822,3.822,0,0,1,251.823,440h1.911a1.911,1.911,0,0,1,1.911,1.911Z" transform="translate(-248 -440)" fill="#f0d0b4"/>
    </g>
    <g id="Grupo_1111389" data-name="Grupo 1111389" transform="translate(64.99 107.043)">
      <path id="Trazado_894172" data-name="Trazado 894172" d="M283.823,456a3.823,3.823,0,1,1,0,7.646h-1.911A1.911,1.911,0,0,1,280,461.734v-3.823A1.911,1.911,0,0,1,281.911,456Z" transform="translate(-280 -456)" fill="#f0d0b4"/>
    </g>
    <g id="Grupo_1111390" data-name="Grupo 1111390" transform="translate(103.203 61.167)">
      <path id="Trazado_894173" data-name="Trazado 894173" d="M446.541,266.428a5.733,5.733,0,0,1-4.683,9.041h-1.911V264.452c0-.153,0-.3-.017-.452h1.928A5.726,5.726,0,0,1,446.541,266.428Z" transform="translate(-439.93 -264)" fill="#f0d0b4"/>
    </g>
    <g id="Grupo_1111391" data-name="Grupo 1111391" transform="translate(80.282 55.433)">
      <path id="Trazado_894174" data-name="Trazado 894174" d="M366.938,257.2v.619a9.55,9.55,0,0,1-4.255,7.952l-.628.421a1.912,1.912,0,0,0-.851,1.589v2.8l-1.911,1.273-3.823,2.549-3.823-2.549-1.911-1.273v-2.8a1.912,1.912,0,0,0-.851-1.589l-.628-.421A9.55,9.55,0,0,1,344,257.822V246.186c0-.153,0-.3.017-.452a6.188,6.188,0,0,1,8.936-5.082l2.516,1.259,2.516-1.259a6.177,6.177,0,0,1,2.767-.652,6.186,6.186,0,0,1,6.169,5.734c.012.148.017.3.017.452Z" transform="translate(-344 -240)" fill="#f0d0b4"/>
    </g>
    <g id="Grupo_1111392" data-name="Grupo 1111392" transform="translate(72.636 61.167)">
      <path id="Trazado_894175" data-name="Trazado 894175" d="M317.734,264h1.928c-.012.148-.017.3-.017.452v11.017h-1.911a5.734,5.734,0,0,1,0-11.469Z" transform="translate(-312 -264)" fill="#f0d0b4"/>
    </g>
    <g id="Grupo_1111393" data-name="Grupo 1111393" transform="translate(33.754 42.053)">
      <path id="Trazado_894176" data-name="Trazado 894176" d="M181.161,191.646H149.27a11.529,11.529,0,0,0,0-7.646h31.888a11.509,11.509,0,0,0,0,7.646Z" transform="translate(-149.27 -184)" fill="#ccd1d9"/>
    </g>
    <g id="Grupo_1111394" data-name="Grupo 1111394" transform="translate(18.781 42.295)">
      <ellipse id="Elipse_12066" data-name="Elipse 12066" cx="4" cy="3.5" rx="4" ry="3.5" transform="translate(-0.437 0.049)" fill="#ccd1d9"/>
    </g>
    <g id="Grupo_1111395" data-name="Grupo 1111395" transform="translate(0 42.053)">
      <path id="Trazado_894177" data-name="Trazado 894177" d="M8,184H20.121a11.529,11.529,0,0,0,0,7.646h-8.3A3.822,3.822,0,0,1,8,187.823Z" transform="translate(-8 -184)" fill="#ccd1d9"/>
    </g>
    <g id="Grupo_1111396" data-name="Grupo 1111396" transform="translate(0.024 21.557)">
      <path id="Trazado_894178" data-name="Trazado 894178" d="M17.755,98.222a8.23,8.23,0,0,1,1.79,5.2c0,4.222-3,7.646-6.69,7.646A6.29,6.29,0,0,1,8.1,108.8h0A11.467,11.467,0,0,1,17.755,98.22Z" transform="translate(-8.1 -98.22)" fill="#fcd770"/>
    </g>
  </g>
  <g id="Grupo_1111398" data-name="Grupo 1111398" transform="translate(0 0)">
    <path id="Trazado_894179" data-name="Trazado 894179" d="M85.734,176a5.734,5.734,0,1,0,5.734,5.734A5.741,5.741,0,0,0,85.734,176Zm0,7.646a1.911,1.911,0,1,1,1.911-1.911A1.914,1.914,0,0,1,85.734,183.646Z" transform="translate(-60.885 -133.947)"/>
    <path id="Trazado_894180" data-name="Trazado 894180" d="M108.034,87.889l-6.726-1.495V85.128l.627-.418a11.44,11.44,0,0,0,5.031-8.251h.076a7.641,7.641,0,0,0,6.769-11.2,20.971,20.971,0,0,0,.877-6.008V57.8a8.772,8.772,0,0,0-3.865-7.3,7.328,7.328,0,0,0-7.276-6.529c-.11,0-.219.006-.328.011V32.5a13.4,13.4,0,0,0-13.38-13.38H85.286L78.371,5.283A9.506,9.506,0,0,0,69.822,0H44.47a9.605,9.605,0,0,0-8.2,4.64L27.5,19.263,11.488,21.55A13.446,13.446,0,0,0,0,34.8V47.787a5.741,5.741,0,0,0,5.734,5.734h7.028A13.444,13.444,0,0,0,15.5,57.344H0V68.813H72.636a7.655,7.655,0,0,0,7.646,7.646h.076a11.44,11.44,0,0,0,5.031,8.251l.627.418v1.267L80.11,87.707a13.407,13.407,0,0,0-8.748-10.484,1.911,1.911,0,0,0-2.549,1.8v6.991a1.911,1.911,0,1,1-3.823,0V79.026a1.911,1.911,0,0,0-2.549-1.8,13.381,13.381,0,0,0-1.274,24.706v1.619a5.744,5.744,0,0,0-3.823,5.406v3.823a5.741,5.741,0,0,0,5.734,5.734h55.433V100.951a13.3,13.3,0,0,0-10.478-13.062Zm-.991-15.253V64.99a3.823,3.823,0,0,1,0,7.646ZM99.4,32.5v1.911H93.663A1.914,1.914,0,0,1,91.751,32.5a9.592,9.592,0,0,1,3.824-7.639A9.548,9.548,0,0,1,99.4,32.5ZM29.843,22.79l9.71-16.183A5.764,5.764,0,0,1,44.47,3.823H69.822a5.7,5.7,0,0,1,5.129,3.17l7.973,15.945H89.84a9.566,9.566,0,0,1,1.921.194A13.419,13.419,0,0,0,87.928,32.5a5.741,5.741,0,0,0,5.734,5.734H99.4v6.2a8.122,8.122,0,0,0-8.69-1.823,13.436,13.436,0,0,0-12.336-8.2c-.3,0-.6.014-.9.034V20.575L71,7.646H43.388L35.677,20.5V39.94a13.37,13.37,0,0,0-22.915,2.113H3.823V37.689a7.856,7.856,0,0,0,2.867.541c4.743,0,8.6-4.287,8.6-9.557a10.485,10.485,0,0,0-.673-3.707ZM66.284,42.053H61.167V22.938H73.645V35.271A13.455,13.455,0,0,0,66.284,42.053ZM61.167,19.115V11.469h7.473l3.823,7.646Zm-3.823,0H40.965l4.588-7.646H57.344ZM39.5,22.938H57.344V42.053H39.5ZM38.091,45.876H65.129a13.184,13.184,0,0,0,0,3.823H38.091a13.229,13.229,0,0,0,0-3.823Zm-1.155,7.646H66.287a13.45,13.45,0,0,0,2.724,3.823H34.2A13.441,13.441,0,0,0,36.936,53.522ZM72.9,55.627A9.558,9.558,0,1,1,87.486,44.91l-.035.039A7.323,7.323,0,0,0,76.5,50.493,8.755,8.755,0,0,0,72.9,55.627ZM10.726,25.616a6.531,6.531,0,0,1,.743,3.056c0,3.162-2.144,5.734-4.779,5.734a4.225,4.225,0,0,1-2.753-1.062,9.63,9.63,0,0,1,6.789-7.728ZM5.734,49.7a1.914,1.914,0,0,1-1.911-1.911V45.876h7.785a13.229,13.229,0,0,0,0,3.823Zm9.557-1.911a9.557,9.557,0,1,1,9.557,9.557,9.568,9.568,0,0,1-9.557-9.557ZM3.823,64.99V61.167h68.9a20.94,20.94,0,0,0,.712,3.823Zm72.636,3.823a3.827,3.827,0,0,1,3.823-3.823v7.646A3.827,3.827,0,0,1,76.459,68.813Zm4.176-7.646h-.353a7.6,7.6,0,0,0-3.592.9,17.185,17.185,0,0,1-.231-2.81V57.8a4.977,4.977,0,0,1,2.766-4.476l1.057-.528V51.282a3.495,3.495,0,0,1,5.966-2.471l2.2,2.2,1.388-2.775a4.274,4.274,0,0,1,7.646,0l1.388,2.775,2.2-2.2a3.495,3.495,0,0,1,5.966,2.471v1.509l1.057.528a4.977,4.977,0,0,1,2.766,4.476v1.46a17.185,17.185,0,0,1-.231,2.81,7.6,7.6,0,0,0-3.591-.9h-.353a8.1,8.1,0,0,0-11.366-4.88l-1.662.831L92,56.288a8.1,8.1,0,0,0-11.366,4.88Zm3.47,14V63.53a4.274,4.274,0,0,1,6.186-3.823l3.372,1.686,3.372-1.686a4.275,4.275,0,0,1,6.186,3.823V75.167a7.63,7.63,0,0,1-3.4,6.362l-.627.418a3.816,3.816,0,0,0-1.7,3.181v1.777l-3.823,2.549L89.84,86.905V85.128a3.816,3.816,0,0,0-1.7-3.181l-.627-.418A7.631,7.631,0,0,1,84.105,75.167Zm9.557,22.318a1.914,1.914,0,0,1-1.911-1.911v-2.8l1.911,1.274,1.911-1.274v2.8A1.914,1.914,0,0,1,93.663,97.486Zm-13.5-5.874,7.384-1.641.382.254v5.349a5.744,5.744,0,0,0,3.823,5.406v6.063H84.105V99.4H80.282v15.292H76.13a5.731,5.731,0,0,0-3.494-7.317V101.93a13.413,13.413,0,0,0,7.526-10.317Zm23.058,23.077H95.574v-3.823h7.646Zm-11.469,0H84.105v-3.823h7.646ZM57.344,89.84a9.577,9.577,0,0,1,3.823-7.645v3.822a5.734,5.734,0,1,0,11.469,0V82.195a9.557,9.557,0,0,1-2.549,16.656,1.911,1.911,0,0,0-1.274,1.8v6.39a3.827,3.827,0,0,0-3.823-3.823v-2.567a1.911,1.911,0,0,0-1.274-1.8A9.574,9.574,0,0,1,57.344,89.84Zm5.734,24.849a1.914,1.914,0,0,1-1.911-1.911v-3.823a1.914,1.914,0,0,1,1.911-1.911H64.99v3.8c0,.008,0,.016,0,.024v3.823Zm5.734,0v-3.823h1.911a1.911,1.911,0,0,1,0,3.823Zm45.876,0h-7.646V99.4H103.22v7.646H95.574V100.98A5.744,5.744,0,0,0,99.4,95.574V90.226l.382-.254,7.426,1.65a9.5,9.5,0,0,1,7.484,9.33Z" transform="translate(0 0)"/>
    <path id="Trazado_894181" data-name="Trazado 894181" d="M373.734,317.734A5.741,5.741,0,0,0,379.469,312h-3.823a1.911,1.911,0,0,1-3.823,0H368A5.741,5.741,0,0,0,373.734,317.734Z" transform="translate(-280.072 -237.452)"/>
  </g>
</svg>
