<svg xmlns="http://www.w3.org/2000/svg" width="106.301" height="106.301" viewBox="0 0 106.301 106.301">
  <g id="Grupo_1111370" data-name="Grupo 1111370" transform="translate(-1 -1)">
    <g id="Grupo_1111368" data-name="Grupo 1111368" transform="translate(2.715 2.715)">
      <g id="Grupo_1111345" data-name="Grupo 1111345" transform="translate(3.429 10.287)">
        <path id="Trazado_894108" data-name="Trazado 894108" d="M34.862,9.715v5.144H5.715A1.72,1.72,0,0,1,4,13.144V9.715A1.72,1.72,0,0,1,5.715,8H33.147A1.72,1.72,0,0,1,34.862,9.715Z" transform="translate(-4 -8)" fill="#fc6e51"/>
      </g>
      <g id="Grupo_1111346" data-name="Grupo 1111346" transform="translate(34.291 24.003)">
        <path id="Trazado_894109" data-name="Trazado 894109" d="M56.291,21.144v1.715H22V16H58.005A8.472,8.472,0,0,0,56.291,21.144Z" transform="translate(-22 -16)" fill="#fc6e51"/>
      </g>
      <g id="Grupo_1111347" data-name="Grupo 1111347" transform="translate(34.291 30.862)">
        <path id="Trazado_894110" data-name="Trazado 894110" d="M22,20H49.432v5.144a1.72,1.72,0,0,0,1.715,1.715h5.144v5.3a4.8,4.8,0,0,1-.429,2.006A10.289,10.289,0,0,0,45.2,37.145H22Z" transform="translate(-22 -20)" fill="#ff826e"/>
      </g>
      <g id="Grupo_1111348" data-name="Grupo 1111348" transform="translate(3.429 17.145)">
        <path id="Trazado_894111" data-name="Trazado 894111" d="M34.862,25.716V42.862H28.809a10.279,10.279,0,0,0-15.328,0H4V24.413A17.574,17.574,0,0,1,9.144,12H34.862V25.716Z" transform="translate(-4 -12)" fill="#ff826e"/>
      </g>
      <g id="Grupo_1111349" data-name="Grupo 1111349" transform="translate(0 48.007)">
        <path id="Trazado_894112" data-name="Trazado 894112" d="M5.429,30H14.91a10.237,10.237,0,0,0-2.623,6.858H3.715A1.72,1.72,0,0,1,2,35.144V31.715A1.72,1.72,0,0,1,3.715,30Z" transform="translate(-2 -30)" fill="#e6e9ed"/>
      </g>
      <g id="Grupo_1111350" data-name="Grupo 1111350" transform="translate(28.238 48.007)">
        <path id="Trazado_894113" data-name="Trazado 894113" d="M24.522,30h23.2A10.237,10.237,0,0,0,45.1,36.858h-24A10.237,10.237,0,0,0,18.47,30Z" transform="translate(-18.47 -30)" fill="#e6e9ed"/>
      </g>
      <g id="Grupo_1111351" data-name="Grupo 1111351" transform="translate(10.287 44.578)">
        <path id="Trazado_894114" data-name="Trazado 894114" d="M25.951,31.429A10.279,10.279,0,1,1,18.287,28,10.237,10.237,0,0,1,25.951,31.429Z" transform="translate(-8 -28)" fill="#969faa"/>
      </g>
      <g id="Grupo_1111352" data-name="Grupo 1111352" transform="translate(54.865 44.578)">
        <path id="Trazado_894115" data-name="Trazado 894115" d="M47.716,44.065a4.56,4.56,0,0,0,1.423,3.292,10.285,10.285,0,1,1-1.852-18.911,4.45,4.45,0,0,1-.429.857L44.9,32.2a3.866,3.866,0,0,0-.617,2.075,3.206,3.206,0,0,0,.051.583h-.051a3.429,3.429,0,1,0,3.429,3.429v5.778Z" transform="translate(-34 -28)" fill="#969faa"/>
      </g>
      <g id="Grupo_1111353" data-name="Grupo 1111353" transform="translate(61.723 51.436)">
        <path id="Trazado_894116" data-name="Trazado 894116" d="M41.48,32a4.006,4.006,0,0,0,2.006,2.743l1.372.686A3.429,3.429,0,1,1,41.429,32Z" transform="translate(-38 -32)" fill="#ccd1d9"/>
      </g>
      <g id="Grupo_1111354" data-name="Grupo 1111354" transform="translate(17.175 51.621)">
        <circle id="Elipse_12063" data-name="Elipse 12063" cx="3.333" cy="3.333" r="3.333" transform="translate(0 0)" fill="#ccd1d9"/>
      </g>
      <g id="Grupo_1111355" data-name="Grupo 1111355" transform="translate(10.287 24.003)">
        <path id="Trazado_894117" data-name="Trazado 894117" d="M25.145,16V26.287H8V19.429A3.439,3.439,0,0,1,11.429,16Z" transform="translate(-8 -16)" fill="#69d6f4"/>
      </g>
      <g id="Grupo_1111356" data-name="Grupo 1111356" transform="translate(54.865 13.716)">
        <path id="Trazado_894118" data-name="Trazado 894118" d="M40.858,10H46a1.72,1.72,0,0,1,1.715,1.715v8.573H34V10Z" transform="translate(-34 -10)" fill="#d3a06c"/>
      </g>
      <g id="Grupo_1111357" data-name="Grupo 1111357" transform="translate(41.149 13.716)">
        <path id="Trazado_894119" data-name="Trazado 894119" d="M39.716,20.287H26V11.715A1.72,1.72,0,0,1,27.715,10h12Z" transform="translate(-26 -10)" fill="#d3a06c"/>
      </g>
      <g id="Grupo_1111358" data-name="Grupo 1111358" transform="translate(48.007 0)">
        <path id="Trazado_894120" data-name="Trazado 894120" d="M36.858,2H42a1.72,1.72,0,0,1,1.715,1.715v12H30v-12A1.72,1.72,0,0,1,31.715,2Z" transform="translate(-30 -2)" fill="#d3a06c"/>
      </g>
      <g id="Grupo_1111359" data-name="Grupo 1111359" transform="translate(78.868 13.716)">
        <path id="Trazado_894121" data-name="Trazado 894121" d="M58.287,13.429v3.429H48V13.429A3.439,3.439,0,0,1,51.429,10h3.429A3.439,3.439,0,0,1,58.287,13.429Z" transform="translate(-48 -10)" fill="#fcd770"/>
      </g>
      <g id="Grupo_1111360" data-name="Grupo 1111360" transform="translate(68.581 20.574)">
        <path id="Trazado_894122" data-name="Trazado 894122" d="M76.291,22.573v8.573H59.145L56.2,25.23a1.719,1.719,0,0,0-1.543-.943H42V22.573a8.472,8.472,0,0,1,1.715-5.144A8.589,8.589,0,0,1,50.573,14H67.718a8.576,8.576,0,0,1,8.573,8.573Z" transform="translate(-42 -14)" fill="#fcd770"/>
      </g>
      <g id="Grupo_1111361" data-name="Grupo 1111361" transform="translate(61.723 30.862)">
        <path id="Trazado_894123" data-name="Trazado 894123" d="M59.054,20.943,62,26.858H39.715A1.72,1.72,0,0,1,38,25.144V20H57.511a1.719,1.719,0,0,1,1.543.943Z" transform="translate(-38 -20)" fill="#ffc729"/>
      </g>
      <g id="Grupo_1111362" data-name="Grupo 1111362" transform="translate(89.156 37.72)">
        <path id="Trazado_894124" data-name="Trazado 894124" d="M67.716,24v5.641A18.611,18.611,0,0,1,57.429,46.289V41.145L60.189,37a3.849,3.849,0,0,0,.669-2.195,3.944,3.944,0,0,0-3.943-3.943h-1.2L54,24Z" transform="translate(-54 -24)" fill="#b27946"/>
      </g>
      <g id="Grupo_1111363" data-name="Grupo 1111363" transform="translate(27.432 72.01)">
        <path id="Trazado_894125" data-name="Trazado 894125" d="M47.147,44H19.715A1.72,1.72,0,0,0,18,45.715V73.147a1.72,1.72,0,0,0,1.715,1.715H35.145A6.856,6.856,0,0,1,28.287,68a3.454,3.454,0,0,1,3.429-3.429h3.429l.326-.669a4.991,4.991,0,0,1,7.99-1.3l1.972,1.972h3.429V45.715A1.72,1.72,0,0,0,47.147,44Z" transform="translate(-18 -44)" fill="#d3a06c"/>
      </g>
      <g id="Grupo_1111364" data-name="Grupo 1111364" transform="translate(37.72 72.01)">
        <path id="Trazado_894126" data-name="Trazado 894126" d="M24,44H34.287V54.287H24Z" transform="translate(-24 -44)" fill="#b27946"/>
      </g>
      <g id="Grupo_1111365" data-name="Grupo 1111365" transform="translate(37.72 89.156)">
        <path id="Trazado_894127" data-name="Trazado 894127" d="M65.423,56.195l5.658,9.893a23.3,23.3,0,0,1-8.555,1.629H30.858A6.856,6.856,0,0,1,24,60.858a3.454,3.454,0,0,1,3.429-3.429h3.429l.326-.669a4.991,4.991,0,0,1,7.99-1.3l1.972,1.972H59.456a14.927,14.927,0,0,0,5.967-1.234Z" transform="translate(-24 -54)" fill="#f0d0b4"/>
      </g>
      <g id="Grupo_1111366" data-name="Grupo 1111366" transform="translate(72.01 68.581)">
        <path id="Trazado_894128" data-name="Trazado 894128" d="M69.581,46.578A12.659,12.659,0,0,0,64.574,42H54.287A28.6,28.6,0,0,0,44,63.963V66h1.166a14.927,14.927,0,0,0,5.967-1.234l6.584,11.522H68V65.232a23.074,23.074,0,0,0,3.429-12.139,12.418,12.418,0,0,0-1.852-6.515Z" transform="translate(-44 -42)" fill="#b4dd7f"/>
      </g>
      <g id="Grupo_1111367" data-name="Grupo 1111367" transform="translate(65.152 37.72)">
        <path id="Trazado_894129" data-name="Trazado 894129" d="M67.432,41.145V54.862H57.145V48.981c-.017,0-.034.017-.051.017l-7.921,2.263a4.212,4.212,0,0,1-1.234.171,4.5,4.5,0,0,1-4.509-4.509V41.145l-1.372-.686a4.006,4.006,0,0,1-2.006-2.743A3.206,3.206,0,0,1,40,37.133a3.866,3.866,0,0,1,.617-2.075l1.955-2.9A4.45,4.45,0,0,0,43,31.3a4.8,4.8,0,0,0,.429-2.006V24H64l1.715,6.858h1.2A3.944,3.944,0,0,1,70.862,34.8,3.849,3.849,0,0,1,70.193,37Z" transform="translate(-40 -24)" fill="#f0d0b4"/>
      </g>
    </g>
    <g id="Grupo_1111369" data-name="Grupo 1111369" transform="translate(1 1)">
      <path id="Trazado_894130" data-name="Trazado 894130" d="M107.3,46.078V31.862A10.3,10.3,0,0,0,97.014,21.574H93.585V19.86a5.15,5.15,0,0,0-5.144-5.144H85.012a5.15,5.15,0,0,0-5.144,5.144v1.715a10.235,10.235,0,0,0-6.858,2.64V18.145a3.433,3.433,0,0,0-3.429-3.429H66.152V4.429A3.433,3.433,0,0,0,62.723,1H52.436a3.433,3.433,0,0,0-3.429,3.429V14.716H45.578a3.433,3.433,0,0,0-3.429,3.429V25H38.72V14.716a3.433,3.433,0,0,0-3.429-3.429H7.858a3.433,3.433,0,0,0-3.429,3.429v3.429a3.425,3.425,0,0,0,3.252,3.412A19.138,19.138,0,0,0,4.429,32.278V49.007A3.433,3.433,0,0,0,1,52.436v3.429a3.433,3.433,0,0,0,3.429,3.429h7a11.985,11.985,0,0,0,23.729,0H56a11.95,11.95,0,0,0,16.523,9.329,6.137,6.137,0,0,0,4.993.718L83.3,67.69v2.862A30.2,30.2,0,0,0,73.01,93.259v.326H62.723V76.439a3.433,3.433,0,0,0-3.429-3.429H31.862a3.433,3.433,0,0,0-3.429,3.429v27.432a3.433,3.433,0,0,0,3.429,3.429h68.581V94.939a24.718,24.718,0,0,0,3.429-12.55A14.01,14.01,0,0,0,97.014,70.32V63.74A20.191,20.191,0,0,0,107.3,46.078ZM97.014,59.639V58.1l2.477-3.717a5.662,5.662,0,0,0-4.568-8.8l-.857-3.431h9.805v3.93A16.764,16.764,0,0,1,97.014,59.639ZM83.3,19.86a1.716,1.716,0,0,1,1.715-1.715h3.429a1.716,1.716,0,0,1,1.715,1.715v1.715H83.3ZM79.868,25H97.014a6.865,6.865,0,0,1,6.858,6.858V38.72H89.5L87.02,33.758a3.406,3.406,0,0,0-3.067-1.9H73.01A6.865,6.865,0,0,1,79.868,25ZM66.86,56.237a5.415,5.415,0,0,0,2.3,2.191l.125.062a1.693,1.693,0,0,1-1.416.8,1.716,1.716,0,0,1-1.715-1.715A1.667,1.667,0,0,1,66.86,56.237ZM69.581,45.7a12.16,12.16,0,0,0-1.715-.127,11.953,11.953,0,0,0-8.382,3.429h-.19V38.72H55.865V49.007H52.436V38.72H49.007V49.007H45.578V38.72H42.149V49.007H38.72V35.291h24V38.72a3.433,3.433,0,0,0,3.429,3.429h3.429ZM34.116,52.436H57.039A11.894,11.894,0,0,0,56,55.865H35.153a11.894,11.894,0,0,0-1.037-3.429ZM66.152,38.72V35.291h17.8l1.715,3.429Zm3.429-20.574V25H59.294V18.145h3.429v3.429h3.429V18.145ZM52.436,4.429h3.429V7.858h3.429V4.429h3.429V14.716H52.436ZM45.578,18.145h3.429v3.429h3.429V18.145h3.429V25H45.578Zm24.6,10.287a10.245,10.245,0,0,0-.6,3.429H38.72V28.432ZM7.858,14.716H35.291v3.429H7.858Zm0,17.562a15.726,15.726,0,0,1,4.185-10.7H35.291V49.007H31.671a11.96,11.96,0,0,0-16.765,0H7.858ZM4.429,52.436h8.033a11.894,11.894,0,0,0-1.037,3.429h-7Zm18.86,13.716a8.573,8.573,0,1,1,8.573-8.573A8.582,8.582,0,0,1,23.289,66.152Zm36.005-8.573a8.582,8.582,0,0,1,8.573-8.573c.072,0,.142.014.214.015l-1.015,1.522a5.423,5.423,0,0,0-.849,2.186,5.123,5.123,0,1,0,3.364,9.677v.948a6.172,6.172,0,0,0,.528,2.491,8.551,8.551,0,0,1-10.815-8.267Zm17.284,8.465a2.842,2.842,0,0,1-3.568-2.688v-.633h1.31A7.877,7.877,0,0,0,81.4,58.346l-3.067-1.535a4.467,4.467,0,0,1-4.015,2.483H73.01V56.52l-2.32-1.159a2.009,2.009,0,0,1-.772-2.911l1.939-2.91a6.844,6.844,0,0,0,1.152-3.8V42.149H90.531l1.713,6.858H94.78a2.234,2.234,0,0,1,1.859,3.474l-3.054,4.58V69.581H86.726v-3a8.547,8.547,0,0,0,4.483-5.032l.571-1.713L88.53,58.75l-.573,1.713a5.143,5.143,0,0,1-3.465,3.319Zm-34.429,10.4h6.858V83.3H42.149Zm-10.287,0H38.72V86.726H52.436V76.439h6.858V93.585h-1l-1.466-1.466a6.74,6.74,0,0,0-4.737-1.963,6.657,6.657,0,0,0-5.847,3.429H43.863a5.15,5.15,0,0,0-5.144,5.144,8.484,8.484,0,0,0,1.759,5.144H31.862Zm46.292,27.432H47.292a5.15,5.15,0,0,1-5.144-5.144,1.716,1.716,0,0,1,1.715-1.715h4.49l.806-1.619a3.254,3.254,0,0,1,2.927-1.811,3.3,3.3,0,0,1,2.313.958l2.471,2.471H75.884a16.8,16.8,0,0,0,5.212-.826L84.986,103a21.364,21.364,0,0,1-6.02.876Zm18.86,0h-5.5a25.02,25.02,0,0,0,5.5-4.369Zm3.429-21.483a21.49,21.49,0,0,1-12.225,19.355l-3.981-6.968a16.727,16.727,0,0,0,7.544-9.221L88.53,84.47a13.293,13.293,0,0,1-12.091,9.072v-.283a26.8,26.8,0,0,1,9.2-20.249h9.236A10.621,10.621,0,0,1,100.443,82.389Z" transform="translate(-1 -1)"/>
      <circle id="Elipse_12064" data-name="Elipse 12064" cx="1.667" cy="1.667" r="1.667" transform="translate(75.559 44.446)"/>
      <path id="Trazado_894131" data-name="Trazado 894131" d="M16.144,31a5.144,5.144,0,1,0,5.144,5.144A5.15,5.15,0,0,0,16.144,31Zm0,6.858a1.715,1.715,0,1,1,1.715-1.715A1.716,1.716,0,0,1,16.144,37.858Z" transform="translate(6.145 20.436)"/>
      <path id="Trazado_894132" data-name="Trazado 894132" d="M27.574,15H12.144A5.15,5.15,0,0,0,7,20.144v8.573H27.574ZM24.145,25.287H10.429V20.144a1.716,1.716,0,0,1,1.715-1.715h12Z" transform="translate(3.287 9.003)"/>
    </g>
  </g>
</svg>
