<svg xmlns="http://www.w3.org/2000/svg" width="95.17" height="101.748" viewBox="0 0 95.17 101.748">
  <g id="Grupo_1111375" data-name="Grupo 1111375" transform="translate(-16.549)">
    <g id="Grupo_1111373" data-name="Grupo 1111373" transform="translate(18.039 1.49)">
      <path id="Trazado_894133" data-name="Trazado 894133" d="M111.345,249.571l7.217,29.99a6.585,6.585,0,0,1-2.451,6.808l-5.824,4.368a13.169,13.169,0,0,1-8.723,2.608L90.5,292.653H56.471l-11.067.692a13.169,13.169,0,0,1-8.723-2.608l-5.824-4.368a6.585,6.585,0,0,1-2.451-6.808l7.217-29.99Z" transform="translate(-27.393 -201.465)" fill="#7a6d79"/>
      <path id="Trazado_894134" data-name="Trazado 894134" d="M406.805,279.562l-7.217-29.99h-4.582l7.217,29.99a6.585,6.585,0,0,1-2.451,6.808l-5.824,4.368a13.166,13.166,0,0,1-5.995,2.492l1.854.116a13.169,13.169,0,0,0,8.723-2.608l5.824-4.368A6.584,6.584,0,0,0,406.805,279.562Z" transform="translate(-315.636 -201.466)" fill="#554e56"/>
      <path id="Trazado_894135" data-name="Trazado 894135" d="M171.5,284.834l-25.218,4.595-25.218-4.595-1.987-35.7h54.411Z" transform="translate(-100.195 -201.111)" fill="#fbf3f3"/>
      <path id="Trazado_894136" data-name="Trazado 894136" d="M221.007,254.016a18.552,18.552,0,0,0-1.282-2.568v-1.876h-7.182v3.093a12.346,12.346,0,0,1,3,11l-2.853,13.36a11.573,11.573,0,0,1-5.63,7.742l-2.933,1.627a5.271,5.271,0,0,1-3.479.591H178.7l15.358,2.8,21.741-3.961a18.3,18.3,0,0,0,3.222-7.083l.825-3.782Z" transform="translate(-147.963 -201.466)" fill="#e8e3f0"/>
      <path id="Trazado_894137" data-name="Trazado 894137" d="M204.991,353.1a26.035,26.035,0,0,1-3.976-2.457l-2.073-1.555a9.877,9.877,0,0,0-11.852,0l-2.073,1.555a26.018,26.018,0,0,1-3.976,2.457,6.584,6.584,0,0,0-3.515,7.163l.845,4.286v.721l14.646,2.668,14.646-2.668v-.721l.845-4.286a6.584,6.584,0,0,0-3.515-7.163Z" transform="translate(-146.924 -279.626)" fill="#7a6d79"/>
      <path id="Trazado_894138" data-name="Trazado 894138" d="M258.741,353.1a26.034,26.034,0,0,1-3.976-2.457l-2.073-1.555a9.865,9.865,0,0,0-8.211-1.706,9.873,9.873,0,0,1,3.641,1.706l2.073,1.555a26.017,26.017,0,0,0,3.976,2.457,6.584,6.584,0,0,1,3.515,7.163l-.845,4.286v1.554l4.571-.833v-.721l.845-4.286A6.584,6.584,0,0,0,258.741,353.1Z" transform="translate(-200.674 -279.626)" fill="#554e56"/>
      <path id="Trazado_894139" data-name="Trazado 894139" d="M146.3,249.571v3.093a12.346,12.346,0,0,1,3,11l-2.852,13.36a11.573,11.573,0,0,1-5.63,7.742l-2.933,1.627a5.272,5.272,0,0,1-3.479.591H112.069a5.273,5.273,0,0,1-3.478-.591l-2.933-1.627a11.572,11.572,0,0,1-5.63-7.742l-2.852-13.36a12.346,12.346,0,0,1,3-11v-3.093H92.992v1.876a18.618,18.618,0,0,0-1.667,3.6,19.02,19.02,0,0,0-.573,10.176l2.947,13.52a17.8,17.8,0,0,0,8.808,11.927l3.031,1.646a10.984,10.984,0,0,0,5.071,1.334h25.252a10.985,10.985,0,0,0,5.073-1.334l3.031-1.646a17.8,17.8,0,0,0,8.808-11.927l2.947-13.52a19.02,19.02,0,0,0-.573-10.176,18.613,18.613,0,0,0-1.667-3.6v-1.876Z" transform="translate(-77.146 -201.465)" fill="#ffe652"/>
      <path id="Trazado_894140" data-name="Trazado 894140" d="M100.723,263.665l2.852,13.36a11.573,11.573,0,0,0,5.63,7.742l2.933,1.627a5.273,5.273,0,0,0,3.478.591h2.768a5.328,5.328,0,0,1-1.675-.591l-2.933-1.627a11.572,11.572,0,0,1-5.63-7.742l-2.852-13.36a12.346,12.346,0,0,1,3-11v-3.093h-4.571v3.093A12.346,12.346,0,0,0,100.723,263.665Z" transform="translate(-85.264 -201.466)" fill="#f4c338"/>
      <path id="Trazado_894141" data-name="Trazado 894141" d="M320.374,255.045a18.613,18.613,0,0,0-1.667-3.6v-1.876h-4.571v1.876a18.613,18.613,0,0,1,1.667,3.6,19.02,19.02,0,0,1,.573,10.176l-2.947,13.52a17.8,17.8,0,0,1-8.808,11.927l-3.031,1.646a10.985,10.985,0,0,1-5.073,1.334h4.571a10.983,10.983,0,0,0,5.073-1.334l3.031-1.646A17.8,17.8,0,0,0,318,278.74l2.947-13.52A19.02,19.02,0,0,0,320.374,255.045Z" transform="translate(-242.37 -201.466)" fill="#f4c338"/>
      <path id="Trazado_894142" data-name="Trazado 894142" d="M289.181,437.836a5.254,5.254,0,0,0,1.8,0Z" transform="translate(-236.492 -352.317)" fill="#ffe652"/>
      <path id="Trazado_894143" data-name="Trazado 894143" d="M192.133,408.956h24.374a5.052,5.052,0,0,0,.556-3.267l-.754-4.5a13.169,13.169,0,0,0-2.031-5.128l-3.065-4.6a6.585,6.585,0,0,0-5.479-2.932h-2.829a6.585,6.585,0,0,0-5.479,2.932l-3.065,4.6a13.172,13.172,0,0,0-2.031,5.128l-.754,4.5A5.053,5.053,0,0,0,192.133,408.956Z" transform="translate(-158.229 -312.812)" fill="#ff7f3b"/>
      <path id="Trazado_894144" data-name="Trazado 894144" d="M249.088,391.466l3.065,4.6a13.172,13.172,0,0,1,2.031,5.128l.754,4.5a5.052,5.052,0,0,1-.556,3.267h4.571a5.052,5.052,0,0,0,.556-3.267l-.754-4.5a13.169,13.169,0,0,0-2.031-5.128l-3.065-4.6a6.585,6.585,0,0,0-5.479-2.932h-2.829a6.569,6.569,0,0,0-.871.059A6.584,6.584,0,0,1,249.088,391.466Z" transform="translate(-200.674 -312.813)" fill="#f55b31"/>
      <path id="Trazado_894145" data-name="Trazado 894145" d="M109.96,85.635l-36.214-7.2V76.569l1.819-10.313a29.934,29.934,0,0,1,25.9-24.52l.73-.088h15.521l.733.088a29.934,29.934,0,0,1,25.9,24.52l1.819,10.313v1.868Z" transform="translate(-63.869 -34.861)" fill="#b9385d"/>
      <path id="Trazado_894146" data-name="Trazado 894146" d="M303.218,66.256a29.934,29.934,0,0,0-25.9-24.52l-.733-.088h-4.57l.732.088a29.934,29.934,0,0,1,25.9,24.52l1.819,10.313v2.776l4.571-.909V76.57Z" transform="translate(-222.736 -34.862)" fill="#9e2950"/>
      <path id="Trazado_894147" data-name="Trazado 894147" d="M213.833,17.805l1.316-7.577A3.292,3.292,0,0,1,218.392,7.5h7.627a3.292,3.292,0,0,1,3.244,2.731l1.311,7.572Z" transform="translate(-176.117 -7.5)" fill="#f03747"/>
      <path id="Trazado_894148" data-name="Trazado 894148" d="M259.969,10.231A3.292,3.292,0,0,0,256.726,7.5h-4.571a3.292,3.292,0,0,1,3.244,2.731l1.311,7.572h4.571Z" transform="translate(-206.824 -7.5)" fill="#b9385d"/>
      <path id="Trazado_894149" data-name="Trazado 894149" d="M167.566,83.871V81.023l-.2-.8a20.157,20.157,0,0,0-5.3-9.365,6.585,6.585,0,0,1-1.732-6.252l3.255-13.02a6.584,6.584,0,0,1,3.713-4.42l10.543-4.686a3.292,3.292,0,0,1,2.674,0l10.542,4.686a6.584,6.584,0,0,1,3.713,4.42l3.255,13.02a6.584,6.584,0,0,1-1.732,6.252,20.157,20.157,0,0,0-5.3,9.365l-.2.8v2.848Z" transform="translate(-133.09 -35.299)" fill="#ffe652"/>
      <circle id="Elipse_12065" data-name="Elipse 12065" cx="8.23" cy="8.23" r="8.23" transform="translate(37.859 16.46)" fill="#7a6d79"/>
      <path id="Trazado_894150" data-name="Trazado 894150" d="M301.973,75.423,298.718,62.4A6.583,6.583,0,0,0,295,57.984L289.861,55.7a6.584,6.584,0,0,1,3.713,4.42L297.4,75.423a6.584,6.584,0,0,1-1.732,6.252,20.158,20.158,0,0,0-5.3,9.365l-.2.8v2.848h4.571V91.844l.2-.8a20.158,20.158,0,0,1,5.3-9.365A6.583,6.583,0,0,0,301.973,75.423Z" transform="translate(-237.037 -46.12)" fill="#f4c338"/>
      <path id="Trazado_894151" data-name="Trazado 894151" d="M246.753,90.329a8.229,8.229,0,0,0-2.285.324,8.23,8.23,0,0,1,0,15.812,8.23,8.23,0,1,0,2.285-16.136Z" transform="translate(-200.664 -73.869)" fill="#554e56"/>
      <g id="Grupo_1111372" data-name="Grupo 1111372" transform="translate(0 39.498)">
        <g id="Grupo_1111371" data-name="Grupo 1111371">
          <path id="Trazado_894152" data-name="Trazado 894152" d="M70.134,219.43c-30.348,0-43.738-6.661-44.293-6.944a3.292,3.292,0,1,1,2.995-5.863c.112.056,12.774,6.224,41.3,6.224s41.187-6.168,41.311-6.23a3.292,3.292,0,1,1,2.982,5.87C113.873,212.77,100.482,219.43,70.134,219.43Z" transform="translate(-24.046 -206.256)" fill="#f03747"/>
        </g>
      </g>
      <path id="Trazado_894153" data-name="Trazado 894153" d="M452.614,208.054a3.286,3.286,0,0,0-4.423-1.438,32.2,32.2,0,0,1-3.883,1.47,3.292,3.292,0,0,1,2.295,6.127c-.046.024-.185.093-.413.2a36.416,36.416,0,0,0,4.984-1.925A3.3,3.3,0,0,0,452.614,208.054Z" transform="translate(-360.791 -166.758)" fill="#b9385d"/>
      <path id="Trazado_894154" data-name="Trazado 894154" d="M218.2,436.618a5.054,5.054,0,0,0,.825-1.112l-.2-1.181A13.172,13.172,0,0,0,216.8,429.2l-3.065-4.6a6.584,6.584,0,0,0-5.479-2.932h-2.829a6.585,6.585,0,0,0-5.479,2.932l-3.065,4.6a13.169,13.169,0,0,0-2.031,5.128l-.2,1.181a5.041,5.041,0,0,0,4.428,2.623H214.6A5.054,5.054,0,0,0,218.2,436.618Z" transform="translate(-160.75 -339.362)" fill="#ffe652"/>
      <path id="Trazado_894155" data-name="Trazado 894155" d="M272.021,445.152h4.571a5.041,5.041,0,0,0,4.428-2.623l-.2-1.181a13.172,13.172,0,0,0-2.031-5.128l-3.065-4.6a6.58,6.58,0,0,0-1.019-1.19,13.166,13.166,0,0,1,1.544,4.331l.754,4.5a5.054,5.054,0,0,1-4.984,5.889Z" transform="translate(-222.742 -346.385)" fill="#f4c338"/>
    </g>
    <g id="Grupo_1111374" data-name="Grupo 1111374" transform="translate(16.549 0)">
      <path id="Trazado_894156" data-name="Trazado 894156" d="M111.481,45.763a4.779,4.779,0,0,0-6.7-5.746,30.666,30.666,0,0,1-3.263,1.241l-1.522-8.631A31.422,31.422,0,0,0,73.169,6.934l-.514-2.967A4.773,4.773,0,0,0,67.943,0H60.315A4.773,4.773,0,0,0,55.6,3.965l-.516,2.972a31.523,31.523,0,0,0-14.05,5.515,1.49,1.49,0,1,0,1.724,2.432A28.543,28.543,0,0,1,54.55,10.03l-.126.728-2.779,1.235a8.025,8.025,0,0,0-4.554,5.42L43.835,30.435A8.116,8.116,0,0,0,45.959,38.1a18.676,18.676,0,0,1,4.567,7.473A111.279,111.279,0,0,1,29.618,42.13L31.2,33.146a28.427,28.427,0,0,1,6.753-13.957q.259-.292.525-.575a1.49,1.49,0,0,0-2.173-2.04q-.294.313-.58.635a31.408,31.408,0,0,0-7.46,15.42L26.745,41.26a30.678,30.678,0,0,1-3.252-1.236,4.783,4.783,0,0,0-4.337,8.526A38.3,38.3,0,0,0,24.494,50.6L21.448,63.259a1.49,1.49,0,1,0,2.9.7l1.525-6.335c1.269.377,2.607.736,4,1.074a20.544,20.544,0,0,0,.32,6.868l2.947,13.52a19.347,19.347,0,0,0,8.712,12.432l-5.892.368a11.691,11.691,0,0,1-7.736-2.313L22.4,85.2a5.09,5.09,0,0,1-1.9-5.267l2.442-10.147a1.49,1.49,0,0,0-2.9-.7L17.6,79.237a8.069,8.069,0,0,0,3.006,8.349l5.824,4.368a14.674,14.674,0,0,0,8.8,2.932q.455,0,.912-.029l10.709-.669a12.532,12.532,0,0,0,2.981.837,6.54,6.54,0,0,0,6.539,6.723H71.888a6.539,6.539,0,0,0,6.539-6.722,12.542,12.542,0,0,0,2.982-.837l10.708.669q.457.029.912.029a14.677,14.677,0,0,0,8.8-2.932l5.824-4.368a8.069,8.069,0,0,0,3.006-8.349L103.766,50.6a38.311,38.311,0,0,0,5.339-2.052,4.765,4.765,0,0,0,2.377-2.785ZM90.3,19.189a28.426,28.426,0,0,1,6.753,13.957l1.585,8.984a111.226,111.226,0,0,1-20.908,3.446A18.673,18.673,0,0,1,82.3,38.1a8.116,8.116,0,0,0,2.124-7.668L81.17,17.413a8.024,8.024,0,0,0-4.554-5.42L73.83,10.755l-.126-.73a28.42,28.42,0,0,1,16.6,9.163ZM60.315,2.981h7.628a1.8,1.8,0,0,1,1.775,1.495L70.553,9.3,66.072,7.307a4.789,4.789,0,0,0-3.885,0L57.7,9.3l.838-4.826a1.8,1.8,0,0,1,1.775-1.493ZM46.727,31.157l3.255-13.021a5.062,5.062,0,0,1,2.873-3.419L63.4,10.031a1.8,1.8,0,0,1,1.463,0l7.024,3.122,0,0L75.4,14.717a5.063,5.063,0,0,1,2.873,3.419l3.255,13.021a5.119,5.119,0,0,1-1.34,4.837,21.628,21.628,0,0,0-2.52,3.032c-4.314.32-8.864.484-13.544.484s-9.23-.164-13.544-.484a21.64,21.64,0,0,0-2.52-3.032A5.119,5.119,0,0,1,46.727,31.157Zm5.641,10.978c3.785.235,7.727.356,11.763.356s7.978-.121,11.762-.356a21.661,21.661,0,0,0-1.324,3.658c-3.208.189-6.683.3-10.438.3s-7.23-.11-10.438-.3a21.644,21.644,0,0,0-1.324-3.658ZM26.57,54.717l.787-3.269c1.274.35,2.7.709,4.289,1.063a20.257,20.257,0,0,0-.839,2.078c-.133.39-.251.783-.359,1.178C29.094,55.436,27.8,55.085,26.57,54.717Zm9.479,23.729L33.1,64.927a17.529,17.529,0,0,1,.527-9.378,17.26,17.26,0,0,1,1.033-2.413q1.745.336,3.7.649A13.874,13.874,0,0,0,36.611,64l2.852,13.36a13.046,13.046,0,0,0,6.365,8.734l2.933,1.627a6.823,6.823,0,0,0,2.154.754c-.095.378-.179.76-.244,1.147l-.411,2.45a9.55,9.55,0,0,1-3.117-1.045l-3.031-1.646A16.31,16.31,0,0,1,36.049,78.447ZM93.6,53.135a17.235,17.235,0,0,1,1.033,2.414,17.526,17.526,0,0,1,.527,9.378l-2.947,13.52a16.313,16.313,0,0,1-8.063,10.935l-3.031,1.646A9.552,9.552,0,0,1,78,92.073l-.411-2.45c-.065-.388-.15-.769-.244-1.147a6.821,6.821,0,0,0,2.155-.755l2.933-1.627A13.046,13.046,0,0,0,88.8,77.361L91.65,64A13.875,13.875,0,0,0,89.9,53.785Q91.857,53.473,93.6,53.135ZM50.8,85.382l-.7-3.539a5.107,5.107,0,0,1,2.72-5.541,27.6,27.6,0,0,0,4.2-2.6L59.1,72.148a8.386,8.386,0,0,1,10.063,0L71.235,73.7a27.587,27.587,0,0,0,4.2,2.6,5.108,5.108,0,0,1,2.72,5.542l-.7,3.539a3.732,3.732,0,0,1-1.17.212,14.714,14.714,0,0,0-.962-1.68l-3.066-4.6a8.058,8.058,0,0,0-6.719-3.6H62.715A8.059,8.059,0,0,0,56,79.317l-3.065,4.6a14.747,14.747,0,0,0-.962,1.68,3.731,3.731,0,0,1-1.17-.213Zm4.613.186,3.065-4.6A5.084,5.084,0,0,1,62.715,78.7h2.829a5.083,5.083,0,0,1,4.238,2.268l3.066,4.6a11.6,11.6,0,0,1,1.6,3.612L72.263,85.9a8.058,8.058,0,0,0-6.719-3.6H62.715A8.059,8.059,0,0,0,56,85.9L53.811,89.18A11.6,11.6,0,0,1,55.412,85.568Zm31.182-31.3a10.83,10.83,0,0,1,2.142,9.111l-2.852,13.36a10.066,10.066,0,0,1-4.9,6.749l-.129.071.225-1.139a8.1,8.1,0,0,0-4.311-8.784,24.589,24.589,0,0,1-3.748-2.317L70.95,69.764a11.367,11.367,0,0,0-13.64,0l-2.073,1.555a24.581,24.581,0,0,1-3.749,2.317,8.1,8.1,0,0,0-4.311,8.784l.225,1.139-.127-.071a10.065,10.065,0,0,1-4.9-6.749l-2.853-13.36a10.83,10.83,0,0,1,2.142-9.11A170.1,170.1,0,0,0,64.13,55.656a170.071,170.071,0,0,0,22.463-1.388ZM72.2,98.75V93.673a1.49,1.49,0,1,0-2.981,0v5.094h-3.6V90.38a1.49,1.49,0,0,0-2.981,0v8.386h-3.6V93.673a1.49,1.49,0,1,0-2.981,0V98.75A3.585,3.585,0,0,1,53.831,97.7h0a3.527,3.527,0,0,1-.324-.382l.1-.619a11.608,11.608,0,0,1,1.8-4.548l3.065-4.6a5.084,5.084,0,0,1,4.238-2.268h2.829a5.083,5.083,0,0,1,4.238,2.268l3.066,4.6a11.6,11.6,0,0,1,1.8,4.548l.1.62a3.5,3.5,0,0,1-.324.382A3.583,3.583,0,0,1,72.2,98.75ZM105.862,85.2l-5.824,4.368A11.687,11.687,0,0,1,92.3,91.882l-5.891-.368a19.347,19.347,0,0,0,8.712-12.432l2.947-13.52a20.54,20.54,0,0,0,.32-6.868c1.391-.338,2.728-.7,4-1.073l5.37,22.314A5.09,5.09,0,0,1,105.862,85.2ZM101.69,54.717c-1.228.368-2.524.719-3.877,1.049-.108-.4-.227-.789-.359-1.178a20.272,20.272,0,0,0-.839-2.078c1.586-.354,3.014-.712,4.288-1.063Zm6.957-9.876a1.8,1.8,0,0,1-.9,1.053c-.542.277-13.625,6.782-43.618,6.782s-43.076-6.5-43.618-6.782a1.8,1.8,0,0,1,.821-3.4,1.823,1.823,0,0,1,.83.2c.128.064,13.118,6.381,41.967,6.381,28.871,0,41.852-6.324,41.992-6.394a1.8,1.8,0,0,1,2.525,2.163Z" transform="translate(-16.549 0)"/>
      <path id="Trazado_894157" data-name="Trazado 894157" d="M216.784,102.276a9.721,9.721,0,1,0-9.721-9.721A9.732,9.732,0,0,0,216.784,102.276Zm0-16.461a6.74,6.74,0,1,1-6.74,6.74A6.748,6.748,0,0,1,216.784,85.815Z" transform="translate(-169.203 -66.373)"/>
      <path id="Trazado_894158" data-name="Trazado 894158" d="M245.841,127.232h1.646a1.49,1.49,0,1,0,0-2.981h-1.646a1.49,1.49,0,0,0,0,2.981Z" transform="translate(-199.081 -99.559)"/>
    </g>
  </g>
</svg>
