<svg xmlns="http://www.w3.org/2000/svg" width="133" height="133" viewBox="0 0 133 133">
  <g id="Grupo_1111584" data-name="Grupo 1111584" transform="translate(-416.051 -7747.45)">
    <circle id="Elipse_11917" data-name="Elipse 11917" cx="66.5" cy="66.5" r="66.5" transform="translate(416.051 7747.45)" fill="#464bc7"/>
    <g id="digital_3469238" transform="translate(434.878 7766.253)">
      <g id="Grupo_1107916" data-name="Grupo 1107916" transform="translate(3.174 3.322)">
        <path id="Trazado_888839" data-name="Trazado 888839" d="M26.892,3.386q14.531-.259,28.966.536a6.381,6.381,0,0,1,1.609,1.967q.268,7.329.179,14.662h2.861q-.089-4.474.179-8.94a5.469,5.469,0,0,1,2.324-2.324,261.986,261.986,0,0,1,27.178.358A6.381,6.381,0,0,1,91.8,11.611q.358,10.371,0,20.741a4.569,4.569,0,0,1-5.543,2.5v34.33Q93.661,69,91.8,76.338a10.248,10.248,0,0,1-6.973,6.973q-27.535.268-55.072.179a29.944,29.944,0,0,0-.715,8.583H9.012a64.71,64.71,0,0,0-.179-6.795,42.938,42.938,0,0,1-3.218-9.3L3.469,63.106A18.444,18.444,0,0,1,5.615,50.59a77.256,77.256,0,0,1,6.079-6.437l.358-25.748Q19.222,10.61,26.892,3.386Z" transform="translate(-3.174 -3.322)" fill="#010101" fill-rule="evenodd" opacity="0.991"/>
      </g>
      <g id="Grupo_1107917" data-name="Grupo 1107917" transform="translate(14.711 6.224)">
        <path id="Trazado_888840" data-name="Trazado 888840" d="M49.764,11.46q12.518-.089,25.033.179l.536.536q.358,25.033,0,50.065l-.536.536q-11.621.268-23.245.179a5.514,5.514,0,0,0-.358-2.5q10.722-.536,21.456-.358V28.625H38.321v31.47a21.79,21.79,0,0,1,3.934.179,8.926,8.926,0,0,0-.715,2.682,40.4,40.4,0,0,1-5.364-.179l-.536-.536Q35.37,44,35.46,25.764a73.888,73.888,0,0,0,12.159-.536,5.468,5.468,0,0,0,1.967-2.682Q49.853,17.006,49.764,11.46Z" transform="translate(-35.437 -11.438)" fill="#fee9a6" fill-rule="evenodd"/>
      </g>
      <g id="Grupo_1107918" data-name="Grupo 1107918" transform="translate(16.879 8.392)">
        <path id="Trazado_888841" data-name="Trazado 888841" d="M50.44,17.5a34.72,34.72,0,0,1,.179,8.583l-.536.536a51.582,51.582,0,0,1-8.583,0Q46.079,22.13,50.44,17.5Z" transform="translate(-41.5 -17.5)" fill="#b0d87c" fill-rule="evenodd"/>
      </g>
      <g id="Grupo_1107919" data-name="Grupo 1107919" transform="translate(31.899 9.108)">
        <path id="Trazado_888842" data-name="Trazado 888842" d="M83.5,19.5h5.722v2.861H83.5Z" transform="translate(-83.5 -19.5)" fill-rule="evenodd"/>
      </g>
      <g id="Grupo_1107920" data-name="Grupo 1107920" transform="translate(40.482 9.108)">
        <path id="Trazado_888843" data-name="Trazado 888843" d="M107.5,19.5h11.443v2.861H107.5Z" transform="translate(-107.5 -19.5)" fill-rule="evenodd"/>
      </g>
      <g id="Grupo_1107921" data-name="Grupo 1107921" transform="translate(63.368 11.946)">
        <path id="Trazado_888844" data-name="Trazado 888844" d="M172.215,27.46q12.16-.089,24.317.179l.536.536q.358,9.3,0,18.6l-.536.536-10.013.358q-4.165,2.841-8.4,5.543a1.41,1.41,0,0,1-.715-.358,40.4,40.4,0,0,1-.179-5.364,35.2,35.2,0,0,1-5.007-.179l-.536-.536q-.358-9.3,0-18.6A1.54,1.54,0,0,0,172.215,27.46Z" transform="translate(-171.5 -27.438)" fill="#e3e6ea" fill-rule="evenodd"/>
      </g>
      <g id="Grupo_1107922" data-name="Grupo 1107922" transform="translate(67.123 14.114)">
        <path id="Trazado_888845" data-name="Trazado 888845" d="M198.271,33.5a1.866,1.866,0,0,1,1.967,2.146L187.185,48.7a.447.447,0,0,1-.715,0L182,44.228a2.867,2.867,0,0,1,1.609-2.146,30.313,30.313,0,0,1,2.861,2.682.447.447,0,0,0,.715,0Q192.836,39.2,198.271,33.5Z" transform="translate(-182 -33.5)" fill="#030404" fill-rule="evenodd"/>
      </g>
      <g id="Grupo_1107923" data-name="Grupo 1107923" transform="translate(31.899 14.829)">
        <path id="Trazado_888846" data-name="Trazado 888846" d="M83.5,35.5h20.026v2.861H83.5Z" transform="translate(-83.5 -35.5)" fill-rule="evenodd"/>
      </g>
      <g id="Grupo_1107924" data-name="Grupo 1107924" transform="translate(57.647 23.412)">
        <path id="Trazado_888847" data-name="Trazado 888847" d="M155.5,59.5h2.861v2.861H155.5Z" transform="translate(-155.5 -59.5)" fill="#cbd1d8" fill-rule="evenodd"/>
      </g>
      <g id="Grupo_1107925" data-name="Grupo 1107925" transform="translate(20.456 26.273)">
        <path id="Trazado_888848" data-name="Trazado 888848" d="M51.5,67.5H80.109V93.248H77.248A12.419,12.419,0,0,0,70.811,82.7q4.826-6.459-1.43-11.443-6.653-2.789-10.192,3.4A8.154,8.154,0,0,0,60.8,82.7a12.419,12.419,0,0,0-6.437,10.549H51.5Z" transform="translate(-51.5 -67.5)" fill="#e4e7eb" fill-rule="evenodd"/>
      </g>
      <g id="Grupo_1107926" data-name="Grupo 1107926" transform="translate(31.184 29.134)">
        <path id="Trazado_888849" data-name="Trazado 888849" d="M107.963,75.5h2.861q-.163,5.916,5.722,5.722-.859,4.624,3.576,5.722a35.041,35.041,0,0,0,7.51-4.291q.536,13.585.358,27.178H81.5V106.97q11.624.09,23.245-.179a5.469,5.469,0,0,0,2.682-1.967Q108.217,90.2,107.963,75.5Z" transform="translate(-81.5 -75.5)" fill="#68d5f3" fill-rule="evenodd"/>
      </g>
      <g id="Grupo_1107927" data-name="Grupo 1107927" transform="translate(30.498 31.995)">
        <path id="Trazado_888850" data-name="Trazado 888850" d="M82.413,83.5q6.715,0,5.185,6.437-3.773,4.245-7.51,0Q78.383,85.663,82.413,83.5Z" transform="translate(-79.582 -83.5)" fill="#ebccb0" fill-rule="evenodd"/>
      </g>
      <g id="Grupo_1107928" data-name="Grupo 1107928" transform="translate(31.541 34.855)">
        <path id="Trazado_888851" data-name="Trazado 888851" d="M131.492,91.5h2.861v34.33H82.5V122.97h48.992Z" transform="translate(-82.5 -91.5)" fill="#cbd0d8" fill-rule="evenodd"/>
      </g>
      <g id="Grupo_1107929" data-name="Grupo 1107929" transform="translate(60.508 43.438)">
        <path id="Trazado_888852" data-name="Trazado 888852" d="M163.5,115.5h14.3v2.861H163.5Z" transform="translate(-163.5 -115.5)" fill-rule="evenodd"/>
      </g>
      <g id="Grupo_1107930" data-name="Grupo 1107930" transform="translate(26.177 43.397)">
        <path id="Trazado_888853" data-name="Trazado 888853" d="M73.937,115.426q9.369-.639,10.728,8.583H67.5A9.5,9.5,0,0,1,73.937,115.426Z" transform="translate(-67.5 -115.384)" fill="#fb806c" fill-rule="evenodd"/>
      </g>
      <g id="Grupo_1107931" data-name="Grupo 1107931" transform="translate(6.151 48.445)">
        <path id="Trazado_888854" data-name="Trazado 888854" d="M16.864,129.5q.372,4.4.715,8.94a62.611,62.611,0,0,0-.179,11.443q1.558,4.31,5.9,2.682a5.187,5.187,0,0,0,1.609-1.609,79.8,79.8,0,0,0,4.649-13.947q1.788-2.146,3.576,0a97.609,97.609,0,0,1,.715,22.172,46.161,46.161,0,0,0-1.609,5.364H16.507q-1.213-3.729-2.324-7.51Q12.7,148.561,11.5,140.049A14.744,14.744,0,0,1,16.864,129.5Z" transform="translate(-11.5 -129.5)" fill="#eccdb1" fill-rule="evenodd"/>
      </g>
      <g id="Grupo_1107932" data-name="Grupo 1107932" transform="translate(60.508 49.16)">
        <path id="Trazado_888855" data-name="Trazado 888855" d="M163.5,131.5h14.3v2.861H163.5Z" transform="translate(-163.5 -131.5)" fill-rule="evenodd"/>
      </g>
      <g id="Grupo_1107933" data-name="Grupo 1107933" transform="translate(60.508 54.881)">
        <path id="Trazado_888856" data-name="Trazado 888856" d="M163.5,147.5h14.3v2.861H163.5Z" transform="translate(-163.5 -147.5)" fill-rule="evenodd"/>
      </g>
      <g id="Grupo_1107934" data-name="Grupo 1107934" transform="translate(14.712 60.56)">
        <path id="Trazado_888857" data-name="Trazado 888857" d="M35.46,163.422a20.437,20.437,0,0,1,5.364.358q-1.362,3.819-3.04,7.51-1.073,1.431-2.146,0Q35.371,167.36,35.46,163.422Z" transform="translate(-35.438 -163.378)" fill="#c5ced7" fill-rule="evenodd"/>
      </g>
      <g id="Grupo_1107935" data-name="Grupo 1107935" transform="translate(30.826 72.024)">
        <path id="Trazado_888858" data-name="Trazado 888858" d="M81.573,195.46H91.586A4.9,4.9,0,0,0,94.447,201l9.834.179a87.936,87.936,0,0,0,10.907-.536,5.193,5.193,0,0,0,2.146-5.185q10.372-.09,20.741.179,1.491,6.067-4.649,8.225-26.462.268-52.926.179A46.341,46.341,0,0,0,81.573,195.46Z" transform="translate(-80.5 -195.437)" fill="#959ea9" fill-rule="evenodd"/>
      </g>
      <g id="Grupo_1107936" data-name="Grupo 1107936" transform="translate(44.725 72.047)">
        <path id="Trazado_888859" data-name="Trazado 888859" d="M119.414,195.5H139.44a3.231,3.231,0,0,1-.715,2.682q-9.3.358-18.6,0A3.231,3.231,0,0,1,119.414,195.5Z" transform="translate(-119.366 -195.5)" fill="#fe816d" fill-rule="evenodd"/>
      </g>
      <g id="Grupo_1107937" data-name="Grupo 1107937" transform="translate(11.873 86.351)">
        <path id="Trazado_888860" data-name="Trazado 888860" d="M27.5,235.5H41.8v2.861H27.5Z" transform="translate(-27.5 -235.5)" fill="#b3dd7e" fill-rule="evenodd"/>
      </g>
    </g>
  </g>
</svg>
