<svg xmlns="http://www.w3.org/2000/svg" width="97.022" height="97.021" viewBox="0 0 97.022 97.021">
  <g id="Grupo_1111429" data-name="Grupo 1111429" transform="translate(0.001 -0.002)">
    <g id="Grupo_1111427" data-name="Grupo 1111427" transform="translate(1.421 1.423)">
      <path id="Trazado_894243" data-name="Trazado 894243" d="M78.263,445.953H40.615v-6.2a1.516,1.516,0,0,1,1.516-1.516H76.747a1.516,1.516,0,0,1,1.516,1.516v6.2Z" transform="translate(-34.34 -356.614)" fill="#5a5a5a"/>
      <path id="Trazado_894244" data-name="Trazado 894244" d="M212.649,438.235h-4.358a1.516,1.516,0,0,1,1.516,1.516v6.2h4.358v-6.2A1.516,1.516,0,0,0,212.649,438.235Z" transform="translate(-170.243 -356.614)" fill="#444"/>
      <g id="Grupo_1111424" data-name="Grupo 1111424" transform="translate(9.425)">
        <path id="Trazado_894245" data-name="Trazado 894245" d="M131.011,77.864h-1.435l-1.935-3.139,1.8-3.139a28.264,28.264,0,0,0-22.289-27.623H82.666A28.264,28.264,0,0,0,60.377,71.586l2.76,3.139L60.5,77.865h-1.7a1.569,1.569,0,0,0-1.57,1.57v2.4a3.139,3.139,0,0,0,2.623,3.1l30.92,5.153a25.119,25.119,0,0,0,8.258,0l30.919-5.153a3.139,3.139,0,0,0,2.623-3.1v-2.4A1.57,1.57,0,0,0,131.011,77.864Z" transform="translate(-57.238 -37.054)" fill="#fee45a"/>
        <path id="Trazado_894246" data-name="Trazado 894246" d="M325.863,77.864h-1.435l-1.935-3.139,1.8-3.139A28.264,28.264,0,0,0,302,43.963h-4.358a28.264,28.264,0,0,1,22.289,27.623v5.521a.758.758,0,0,0,.758.758h.812a1.57,1.57,0,0,1,1.57,1.57v3.134a3.139,3.139,0,0,1-2.367,3.042l4.1-.684a3.139,3.139,0,0,0,2.623-3.1v-2.4A1.569,1.569,0,0,0,325.863,77.864Z" transform="translate(-252.09 -37.054)" fill="#fed402"/>
        <g id="Grupo_1111423" data-name="Grupo 1111423" transform="translate(2.381)">
          <path id="Trazado_894247" data-name="Trazado 894247" d="M212.25,10.641h-1.8a.754.754,0,0,1-.741-.606A3.14,3.14,0,0,0,206.633,7.5h-6.279a3.14,3.14,0,0,0-3.081,2.533.754.754,0,0,1-.741.606h-2.184a3.139,3.139,0,0,0-3.128,3.4l2.856,34.271H212.25Z" transform="translate(-168.203 -7.502)" fill="#ffc344"/>
          <path id="Trazado_894248" data-name="Trazado 894248" d="M412.174,196.014a.758.758,0,0,1-.758-.758v-5.521h-4.763a1.516,1.516,0,0,0-1.516,1.516V194.5a1.516,1.516,0,0,0,1.516,1.516Z" transform="translate(-341.594 -155.203)" fill="#ffc344"/>
          <path id="Trazado_894249" data-name="Trazado 894249" d="M76.841,194.5v-3.247a1.516,1.516,0,0,0-1.516-1.516H70.562v5.521a.758.758,0,0,1-.758.758h5.521A1.516,1.516,0,0,0,76.841,194.5Z" transform="translate(-69.804 -155.203)" fill="#ffc344"/>
        </g>
        <path id="Trazado_894250" data-name="Trazado 894250" d="M420.387,196.014a.758.758,0,0,1-.758-.758v-5.521h-4.358v5.521a.758.758,0,0,0,.758.758h4.358Z" transform="translate(-347.426 -155.203)" fill="#f6ab31"/>
        <path id="Trazado_894251" data-name="Trazado 894251" d="M244.234,162.881h-3.247a1.516,1.516,0,0,1-1.516-1.516v-3.247a1.516,1.516,0,0,1,1.516-1.516h3.247a1.516,1.516,0,0,1,1.516,1.516v3.247A1.516,1.516,0,0,1,244.234,162.881Z" transform="translate(-204.939 -128.348)" fill="#99e6fc"/>
        <path id="Trazado_894252" data-name="Trazado 894252" d="M259.969,10.641h-2.184a.754.754,0,0,1-.741-.606A3.14,3.14,0,0,0,253.963,7.5h-4.358a3.14,3.14,0,0,1,3.081,2.533.754.754,0,0,0,.741.606h2.184a3.139,3.139,0,0,1,3.128,3.4l-2.856,34.271h4.358L263.1,14.041a3.139,3.139,0,0,0-3.128-3.4Z" transform="translate(-213.153 -7.502)" fill="#f6ab31"/>
        <path id="Trazado_894253" data-name="Trazado 894253" d="M248.34,156.6h-3.247a1.513,1.513,0,0,0-.556.106,1.516,1.516,0,0,1,.96,1.409v3.247a1.515,1.515,0,0,1-.96,1.409,1.509,1.509,0,0,0,.556.106h3.247a1.516,1.516,0,0,0,1.516-1.516v-3.247A1.516,1.516,0,0,0,248.34,156.6Z" transform="translate(-209.046 -128.348)" fill="#01d0fb"/>
      </g>
      <g id="Grupo_1111426" data-name="Grupo 1111426" transform="translate(23.394 21.954)">
        <g id="Grupo_1111425" data-name="Grupo 1111425" transform="translate(3.914 3.432)">
          <path id="Trazado_894254" data-name="Trazado 894254" d="M302.57,159.059l-1.654,1.654-5.5,3.382-10.005-5.574-5.571-10.011,3.333-5.555,1.486-1.486Z" transform="translate(-255.538 -141.469)" fill="#bc7c63"/>
          <path id="Trazado_894255" data-name="Trazado 894255" d="M152.616,275.454l5.5-3.382,10.005,5.575,5.571,10.011-3.333,5.555-1.261,1.26-17.488-17.488Z" transform="translate(-151.614 -247.324)" fill="#bc7c63"/>
          <path id="Trazado_894256" data-name="Trazado 894256" d="M294.851,282.743l33.2,31.079a1.57,1.57,0,0,1,.038,2.256l-4.362,4.364a1.568,1.568,0,0,1-2.255-.038l-31.059-33.222-3-3,4.481-4.481Z" transform="translate(-261.679 -253.505)" fill="#bc7c63"/>
        </g>
        <path id="Trazado_894257" data-name="Trazado 894257" d="M337.765,313.82l-33.2-31.079-2.959-3.044-2.21,2.21.81.834,33.2,31.079a1.57,1.57,0,0,1,.037,2.256l-3.257,3.259,1,1.068a1.568,1.568,0,0,0,2.255.038l4.362-4.364A1.57,1.57,0,0,0,337.765,313.82Z" transform="translate(-267.477 -250.072)" fill="#aa6a51"/>
        <path id="Trazado_894258" data-name="Trazado 894258" d="M224.874,220.047l3.58-3.58,1.095,1.095,2.741-2.743-15.528-15.54-9.92,9.926,15.528,15.54,3.936-3.938Z" transform="translate(-192.462 -184.893)" fill="#bc7c63"/>
        <path id="Trazado_894259" data-name="Trazado 894259" d="M315.372,211.562l-1.615,1.615-5.5,3.382-7.209-4.016,1.552,2.789,10.005,5.574,5.5-3.382,1.654-1.654Z" transform="translate(-268.813 -194.847)" fill="#aa6a51"/>
        <path id="Trazado_894260" data-name="Trazado 894260" d="M224.331,294.826l-2.8-1.558,4.019,7.222-3.333,5.555-1.26,1.26,4.348,4.348,1.26-1.261,3.333-5.555Z" transform="translate(-203.906 -261.071)" fill="#aa6a51"/>
        <path id="Trazado_894261" data-name="Trazado 894261" d="M259.182,199.28l0,0,11.182,11.191-9.918,9.924,4.346,4.349,9.92-9.926Z" transform="translate(-234.882 -184.893)" fill="#aa6a51"/>
        <path id="Trazado_894262" data-name="Trazado 894262" d="M274.418,194.325l-2.294,2.3a1.516,1.516,0,0,1-2.145,0L254.328,180.96a1.516,1.516,0,0,1,0-2.143l2.294-2.3a1.516,1.516,0,0,1,2.145,0l15.651,15.661A1.516,1.516,0,0,1,274.418,194.325Z" transform="translate(-230.59 -166.086)" fill="#f9f7f8"/>
        <path id="Trazado_894263" data-name="Trazado 894263" d="M324.839,242.475l-4.348-4.347a1.516,1.516,0,0,1,0,2.143l-2.294,2.3a1.515,1.515,0,0,1-2.1.038l4.307,4.309a1.516,1.516,0,0,0,2.145,0l2.294-2.3A1.516,1.516,0,0,0,324.839,242.475Z" transform="translate(-281.012 -216.379)" fill="#efedef"/>
        <path id="Trazado_894264" data-name="Trazado 894264" d="M183.841,248.849l2.294-2.3a1.516,1.516,0,0,1,2.145,0l15.651,15.661a1.516,1.516,0,0,1,0,2.143l-2.294,2.3a1.516,1.516,0,0,1-2.144,0l-15.651-15.661A1.516,1.516,0,0,1,183.841,248.849Z" transform="translate(-173.46 -222.849)" fill="#f9f7f8"/>
        <path id="Trazado_894265" data-name="Trazado 894265" d="M254.352,312.509,250,308.162a1.516,1.516,0,0,1,0,2.143L247.71,312.6a1.515,1.515,0,0,1-2.1.037l4.307,4.309a1.516,1.516,0,0,0,2.145,0l2.294-2.3A1.515,1.515,0,0,0,254.352,312.509Z" transform="translate(-223.881 -273.142)" fill="#efedef"/>
        <path id="Trazado_894266" data-name="Trazado 894266" d="M131.4,290.106l2.294-2.3a1.516,1.516,0,0,1,2.145,0l17.822,17.834a1.516,1.516,0,0,1,0,2.143l-2.294,2.3a1.516,1.516,0,0,1-2.145,0L131.4,292.249A1.516,1.516,0,0,1,131.4,290.106Z" transform="translate(-130.957 -256.287)" fill="#e2dee2"/>
        <path id="Trazado_894267" data-name="Trazado 894267" d="M213.37,365.231l-4.348-4.347a1.516,1.516,0,0,1,0,2.143l-2.294,2.295a1.515,1.515,0,0,1-2.1.038l4.307,4.309a1.516,1.516,0,0,0,2.144,0l2.294-2.295a1.516,1.516,0,0,0,0-2.143Z" transform="translate(-190.665 -315.874)" fill="#cbc4cc"/>
        <path id="Trazado_894268" data-name="Trazado 894268" d="M317.572,143.777l-2.294,2.3a1.516,1.516,0,0,1-2.145,0l-17.823-17.834a1.516,1.516,0,0,1,0-2.143L297.6,123.8a1.516,1.516,0,0,1,2.145,0l17.823,17.834A1.516,1.516,0,0,1,317.572,143.777Z" transform="translate(-263.807 -123.356)" fill="#e2dee2"/>
        <path id="Trazado_894269" data-name="Trazado 894269" d="M377.279,201.219l-4.348-4.347a1.516,1.516,0,0,1,0,2.143l-2.294,2.295a1.515,1.515,0,0,1-2.1.038l4.307,4.309a1.516,1.516,0,0,0,2.145,0l2.294-2.3a1.516,1.516,0,0,0,0-2.143Z" transform="translate(-323.514 -182.941)" fill="#cbc4cc"/>
      </g>
      <path id="Trazado_894270" data-name="Trazado 894270" d="M57.652,475.7l-.784-3.139a1.569,1.569,0,0,0-1.522-1.189H9.857a1.569,1.569,0,0,0-1.522,1.189L7.55,475.7a1.569,1.569,0,0,0,1.522,1.95H56.13A1.569,1.569,0,0,0,57.652,475.7Z" transform="translate(-7.503 -383.468)" fill="#bc7c63"/>
      <path id="Trazado_894271" data-name="Trazado 894271" d="M243.646,475.7l-.784-3.139a1.569,1.569,0,0,0-1.522-1.189h-4.358a1.569,1.569,0,0,1,1.522,1.189l.784,3.139a1.569,1.569,0,0,1-1.522,1.95h4.358A1.569,1.569,0,0,0,243.646,475.7Z" transform="translate(-193.497 -383.468)" fill="#aa6a51"/>
    </g>
    <g id="Grupo_1111428" data-name="Grupo 1111428" transform="translate(-0.001 0.002)">
      <path id="Trazado_894272" data-name="Trazado 894272" d="M136.586,86.088,104.457,56.012l.392-.392a2.929,2.929,0,0,0,3.017-.7l1.769-1.77L124.312,50.7a4.546,4.546,0,0,0,3.809-4.5V43.8a2.994,2.994,0,0,0-2.99-2.991h-.147V35.955A29.682,29.682,0,0,0,102.722,7.212a4.556,4.556,0,0,0-4.53-4.071H96.52A4.566,4.566,0,0,0,92.189,0H85.915a4.566,4.566,0,0,0-4.331,3.139H79.912a4.555,4.555,0,0,0-4.53,4.071A29.531,29.531,0,0,0,58.24,19.283a1.421,1.421,0,1,0,2.35,1.6A26.707,26.707,0,0,1,75.539,10.113l2.557,30.7H76.5a1.421,1.421,0,0,0,0,2.842H81.73l-1.717,1.718A2.929,2.929,0,0,0,77,46.078L74.7,48.373a2.937,2.937,0,0,0-.8,2.651l-.187.115L54.26,47.894A1.712,1.712,0,0,1,52.825,46.2V43.8a.148.148,0,0,1,.147-.149H65.522a1.421,1.421,0,1,0,0-2.842H62.237V37.471A2.94,2.94,0,0,0,59.3,34.534H56a26.722,26.722,0,0,1,1.429-7.356,1.421,1.421,0,0,0-2.686-.929,29.633,29.633,0,0,0-1.623,9.706v4.857h-.147a2.994,2.994,0,0,0-2.99,2.991v2.4a4.546,4.546,0,0,0,3.809,4.5l14.6,2.435a2.916,2.916,0,0,0-1.333.763l-2.294,2.3a2.941,2.941,0,0,0,0,4.152L82.588,78.177a2.937,2.937,0,0,0,4.155,0l2.294-2.295a2.941,2.941,0,0,0,.629-3.213l2.205-3.675a2.975,2.975,0,0,0,.561.054,2.917,2.917,0,0,0,2.077-.861L96.8,65.892a2.939,2.939,0,0,0,.726-2.946l.414-.415L119.8,85.91a1.421,1.421,0,0,0,2.076-1.941L108.531,69.694l3.085-3.087,23.027,21.556a.142.142,0,0,1,.047.106.144.144,0,0,1-.043.108l-4.362,4.364a.119.119,0,0,1-.106.043.141.141,0,0,1-.1-.047l-3.667-3.922a1.421,1.421,0,1,0-2.076,1.941L128,94.679a2.965,2.965,0,0,0,2.134.947h.051a2.964,2.964,0,0,0,2.113-.876l4.362-4.364a2.991,2.991,0,0,0-.072-4.3ZM55.963,37.376H59.3a.1.1,0,0,1,.095.095v3.341H55.963Zm39.8,23.318L82.239,47.167,89.1,40.3l13.52,13.528Zm2.077-33.574,2.294-2.3,0,0c.038,0,.075-.007.111-.013a.111.111,0,0,1,.02.015l17.81,17.821c.01.034.023.068.036.1a.091.091,0,0,1-.023.045l-2.294,2.295a.09.09,0,0,1-.067.028.081.081,0,0,1-.056-.02,1.435,1.435,0,0,0-.121-.119l-17.6-17.615a1.367,1.367,0,0,0-.114-.118A.094.094,0,0,1,97.836,27.121Zm-.684,3.47,15.187,15.2-3.01,1.849-14-14.008Zm8.637,22.343a.09.09,0,0,1-.067-.028l-.084-.084h0L90.108,37.283l0,0-.036-.036a.1.1,0,0,1,0-.134l.149-.15,0,0,2.141-2.142c.038,0,.076-.01.113-.017a.086.086,0,0,1,.02.016c.028.03.056.059.087.087l15.526,15.536c.013.013.026.028.04.041a.1.1,0,0,1,0,.133l-2.294,2.295a.088.088,0,0,1-.067.028ZM90.768,32.463a2.957,2.957,0,0,0-.415.344l-1.726,1.727H87.483a.148.148,0,0,1-.147-.148V31.247a.148.148,0,0,1,.147-.149h3.137a.148.148,0,0,1,.147.149ZM125.279,43.8v2.4a1.712,1.712,0,0,1-1.434,1.695l-12.872,2.147c0-.024-.007-.048-.012-.072l3.637-2.235A2.943,2.943,0,0,0,117.8,47.1L120.1,44.8h0a2.914,2.914,0,0,0,.705-1.147h4.329a.148.148,0,0,1,.147.149Zm-5.035-2.991c-.047-.055-.095-.11-.147-.162l-1.388-1.389V37.525a.148.148,0,0,1,.147-.148h3.285v3.436h-1.9Zm1.858-6.279h-3.245a2.993,2.993,0,0,0-2.833,2.041l-13.75-13.758a2.938,2.938,0,0,0-.723-.53l1.014-12.173A26.985,26.985,0,0,1,122.1,34.534ZM80.948,40.813,78.2,7.844a1.717,1.717,0,0,1,1.71-1.861h1.444V17.12a1.421,1.421,0,0,0,2.842,0V4.562a1.719,1.719,0,0,1,1.716-1.718h6.275a1.719,1.719,0,0,1,1.716,1.718V17.12a1.421,1.421,0,0,0,2.842,0V5.984h1.444A1.718,1.718,0,0,1,99.9,7.844l-1.21,14.529a2.943,2.943,0,0,0-.573.443l-2.294,2.295a2.941,2.941,0,0,0-.629,3.213l-1.6,2.665a2.993,2.993,0,0,0-2.977-2.734H87.483a2.994,2.994,0,0,0-2.99,2.991v3.139a2.993,2.993,0,0,0,2.717,2.977,2.939,2.939,0,0,0,.124.685l-2.763,2.765H80.948ZM72.524,55.206l3.01-1.849,14,14.008L87.711,70.4Zm14.5,18.666-2.294,2.3a.09.09,0,0,1-.067.028.089.089,0,0,1-.067-.028L66.776,58.334a.1.1,0,0,1,0-.134l2.294-2.3a.09.09,0,0,1,.067-.028.089.089,0,0,1,.066.027c.031.033.062.066.1.1l17.62,17.631a1.455,1.455,0,0,0,.114.118A.094.094,0,0,1,87.026,73.873Zm7.766-9.99L92.5,66.177a.091.091,0,0,1-.067.028.09.09,0,0,1-.067-.027c-.027-.03-.056-.059-.086-.086L76.8,50.6c-.024-.027-.05-.051-.075-.075l-.007-.007a.1.1,0,0,1,0-.134l2.294-2.3a.095.095,0,0,1,.134,0l.071.071.013.014L94.753,63.711l.015.013.024.024A.1.1,0,0,1,94.792,63.882Zm11.8,3.735-6.636-7.1,2.494-2.5,7.093,6.64Z" transform="translate(-40.511 -0.002)"/>
      <path id="Trazado_894273" data-name="Trazado 894273" d="M52.165,439.279a2.985,2.985,0,0,0-2.9-2.266h-2.5v-3.341a2.94,2.94,0,0,0-2.937-2.937H9.211a2.94,2.94,0,0,0-2.937,2.937v3.341h-2.5a2.986,2.986,0,0,0-2.9,2.266l-.784,3.139a2.991,2.991,0,0,0,2.9,3.716H50.048a2.991,2.991,0,0,0,2.9-3.716ZM9.117,433.672a.1.1,0,0,1,.095-.095H43.827a.1.1,0,0,1,.095.095v3.341H9.117Zm41.048,9.563a.138.138,0,0,1-.116.057H2.99a.139.139,0,0,1-.116-.057.141.141,0,0,1-.027-.128l.784-3.139a.147.147,0,0,1,.143-.112h45.49a.147.147,0,0,1,.143.112l.784,3.139a.14.14,0,0,1-.027.128Z" transform="translate(0.001 -349.114)"/>
      <path id="Trazado_894274" data-name="Trazado 894274" d="M18.292,400.443h6.275a1.421,1.421,0,0,0,0-2.842H18.292a1.421,1.421,0,0,0,0,2.842Z" transform="translate(-13.674 -322.258)"/>
      <path id="Trazado_894275" data-name="Trazado 894275" d="M48.633,284.287l5.434,3.139a1.421,1.421,0,1,0,1.422-2.461l-5.434-3.139a1.421,1.421,0,0,0-1.422,2.461Z" transform="translate(-38.842 -228.267)"/>
      <path id="Trazado_894276" data-name="Trazado 894276" d="M233.523,118.81H239.8a1.421,1.421,0,1,0,0-2.842h-6.275a1.421,1.421,0,1,0,0,2.842Z" transform="translate(-188.12 -93.993)"/>
    </g>
  </g>
</svg>
