<svg xmlns="http://www.w3.org/2000/svg" width="39.051" height="36.013" viewBox="0 0 39.051 36.013">
  <g id="Grupo_1111587" data-name="Grupo 1111587" transform="translate(-300 -2509.194)">
    <g id="Rectángulo_401341" data-name="Rectángulo 401341" transform="translate(300 2509.194)" fill="#fece2f" stroke="#faedc1" stroke-width="3">
      <rect width="39.051" height="36.013" rx="12" stroke="none"/>
      <rect x="1.5" y="1.5" width="36.051" height="33.013" rx="10.5" fill="none"/>
    </g>
    <g id="Grupo_1111530" data-name="Grupo 1111530" transform="translate(276.084 2498.313)">
      <path id="Trazado_894620" data-name="Trazado 894620" d="M59.935,39.1,59.1,32.911a1.051,1.051,0,0,0-1.182-.9l-6.186.834a1.051,1.051,0,0,0-.7.4l-10.823,14.2a1.051,1.051,0,0,0,.2,1.473l7.02,5.352a1.051,1.051,0,0,0,1.473-.2l10.823-14.2A1.051,1.051,0,0,0,59.935,39.1ZM55.9,35.881a1.261,1.261,0,1,1,1.768-.238A1.261,1.261,0,0,1,55.9,35.881Z" transform="translate(-7.582 -14.89)" fill="#5fb5de"/>
      <path id="Trazado_894621" data-name="Trazado 894621" d="M0,0H7.567V8.408H0Z" transform="matrix(0.795, 0.606, -0.606, 0.795, 41.99, 23.05)" fill="#f9646c"/>
      <path id="Trazado_894622" data-name="Trazado 894622" d="M184.994,215.294l.749,1.564.78-1.509,1.712-.185-1.225-1.241.309-1.679-1.537.742-1.521-.853.275,1.7-1.249,1.152Z" transform="translate(-143.34 -185.559)" fill="#5d2629"/>
      <path id="Trazado_894623" data-name="Trazado 894623" d="M262.188,29.006l-4.414-4.414a1.051,1.051,0,0,0-1.486,0l-4.414,4.414a1.051,1.051,0,0,0-.308.743V47.6a1.051,1.051,0,0,0,1.051,1.051h8.828A1.051,1.051,0,0,0,262.5,47.6V29.749A1.051,1.051,0,0,0,262.188,29.006Zm-5.157-.113a1.261,1.261,0,1,1,1.261-1.261A1.261,1.261,0,0,1,257.031,28.893Z" transform="translate(-208.031 -7.579)" fill="#ffdd6b"/>
      <path id="Trazado_894624" data-name="Trazado 894624" d="M283.566,216h7.567v8.408h-7.567Z" transform="translate(-238.35 -189.222)" fill="#5fb5de"/>
      <g id="Grupo_1111527" data-name="Grupo 1111527" transform="translate(46.898 28.04)">
        <path id="Trazado_894625" data-name="Trazado 894625" d="M318.087,245.885h-.841a1.683,1.683,0,0,1-1.681-1.681.42.42,0,1,1,.841,0,.842.842,0,0,0,.841.841h.841a.841.841,0,1,0,0-1.681h-.841a1.682,1.682,0,0,1,0-3.363h.841a1.683,1.683,0,0,1,1.682,1.681.42.42,0,1,1-.841,0,.842.842,0,0,0-.841-.841h-.841a.841.841,0,1,0,0,1.682h.841a1.682,1.682,0,1,1,0,3.363Z" transform="translate(-315.565 -240)" fill="#993e43"/>
      </g>
      <g id="Grupo_1111528" data-name="Grupo 1111528" transform="translate(48.579 27.619)">
        <path id="Trazado_894626" data-name="Trazado 894626" d="M347.985,238.726a.42.42,0,0,1-.42-.42V232.42a.42.42,0,0,1,.841,0v5.885A.42.42,0,0,1,347.985,238.726Z" transform="translate(-347.565 -232)" fill="#993e43"/>
      </g>
      <g id="Grupo_1111529" data-name="Grupo 1111529" transform="translate(31.997 16.284)">
        <path id="Trazado_894627" data-name="Trazado 894627" d="M54.454,21.129l-2.418-2.418-.1-.747A1.473,1.473,0,0,0,50.281,16.7l-.223.03-.018-.018a1.471,1.471,0,0,0-2.081,0l-.348.348-3.516.474a1.477,1.477,0,0,0-.974.566l-.206.271-.408,0a24.319,24.319,0,0,0-4.541.378c-1.491.3-2.185.712-2.185,1.3s.694,1.006,2.185,1.3a19.672,19.672,0,0,0,2.442.307L32.3,32.3a1.471,1.471,0,0,0,.278,2.062l7.02,5.352a1.473,1.473,0,0,0,2.062-.278l1.455-1.909V40.02a1.473,1.473,0,0,0,1.471,1.471h8.828a1.473,1.473,0,0,0,1.471-1.471V22.169A1.462,1.462,0,0,0,54.454,21.129ZM44.207,18.37l2.424-.327-2.822,2.822c-.425.018-.861.028-1.3.028q-.227,0-.453,0l1.736-2.277A.632.632,0,0,1,44.207,18.37Zm-2.6,9.838-.136-.84.761.427a.421.421,0,0,0,.388.012l.49-.237v1.806a.42.42,0,0,0-.3.221l-.392.759-.384-.8a.42.42,0,0,0-.3-.232l-.875-.158.628-.579A.42.42,0,0,0,41.611,28.208Zm1.5-1.572-.658.318-1.33-.746a.42.42,0,0,0-.621.434l.239,1.477-1.083,1a.42.42,0,0,0,.21.723l1.5.27.656,1.37a.42.42,0,0,0,.373.239H42.4a.42.42,0,0,0,.373-.227l.338-.654v2.528l-.284.373-5.349-4.078,4.587-6.017,1.046.8Zm-4.709-6.052a4.787,4.787,0,0,1-1.727-.531,4.786,4.786,0,0,1,1.727-.531,24.211,24.211,0,0,1,3.87-.309l-1.254,1.644a21.436,21.436,0,0,1-2.617-.273Zm2.586,18.342a.631.631,0,0,1-.884.119l-7.02-5.352a.63.63,0,0,1-.119-.884l8.457-11.093c.354.012.716.019,1.082.019q.341,0,.675-.007a1.476,1.476,0,0,0-.068.442v1.214l-.87-.664a.42.42,0,0,0-.589.08l-5.1,6.686a.42.42,0,0,0,.079.589l6.018,4.588a.419.419,0,0,0,.46.033V36.14ZM54.044,40.02a.631.631,0,0,1-.631.631H44.586a.631.631,0,0,1-.631-.631V22.169a.626.626,0,0,1,.185-.446l.034-.034a20.739,20.739,0,0,0,2.874-.333c.262-.052.5-.109.713-.169a1.682,1.682,0,1,0-.4-.764c-.211.054-.459.108-.752.16-.46.081-.975.148-1.526.2l3.472-3.472a.63.63,0,0,1,.892,0l4.414,4.414h0a.626.626,0,0,1,.185.446ZM48.159,20.052a.85.85,0,0,1,.006-.1,1.222,1.222,0,0,1,.169.1,1.252,1.252,0,0,1-.169.1.851.851,0,0,1-.006-.1Zm.52-.777a.841.841,0,1,1,0,1.552.914.914,0,0,0,.557-.776A.947.947,0,0,0,48.679,19.276Z" transform="translate(-31.997 -16.284)"/>
        <path id="Trazado_894628" data-name="Trazado 894628" d="M283.552,208h-7.567a.42.42,0,0,0-.42.42v8.408a.42.42,0,0,0,.42.42h7.567a.42.42,0,0,0,.42-.42V208.42A.42.42,0,0,0,283.552,208Zm-.42,8.408h-6.726v-7.567h6.726Z" transform="translate(-262.766 -197.926)"/>
        <path id="Trazado_894629" data-name="Trazado 894629" d="M316.406,236.624a.42.42,0,1,0-.841,0,1.683,1.683,0,0,0,1.681,1.681.42.42,0,1,0,.841,0,1.682,1.682,0,1,0,0-3.363v-1.681a.842.842,0,0,1,.841.841.42.42,0,1,0,.841,0,1.683,1.683,0,0,0-1.682-1.681.42.42,0,0,0-.841,0,1.682,1.682,0,0,0,0,3.363v1.682A.842.842,0,0,1,316.406,236.624Zm0-2.522a.842.842,0,0,1,.841-.841v1.681A.842.842,0,0,1,316.406,234.1Zm1.682,1.682a.841.841,0,0,1,0,1.682Z" transform="translate(-300.664 -220.665)"/>
      </g>
    </g>
  </g>
</svg>
