<svg xmlns="http://www.w3.org/2000/svg" width="39.051" height="36.013" viewBox="0 0 39.051 36.013">
  <g id="Grupo_1111588" data-name="Grupo 1111588" transform="translate(-300 -2571.194)">
    <g id="Rectángulo_401341" data-name="Rectángulo 401341" transform="translate(300 2571.194)" fill="#fece2f" stroke="#faedc1" stroke-width="3">
      <rect width="39.051" height="36.013" rx="12" stroke="none"/>
      <rect x="1.5" y="1.5" width="36.051" height="33.013" rx="10.5" fill="none"/>
    </g>
    <g id="Grupo_1111543" data-name="Grupo 1111543" transform="translate(291.637 2560.807)">
      <path id="Trazado_894646" data-name="Trazado 894646" d="M24,360h3.17v6.34H24Z" transform="translate(-7.604 -326.96)" fill="#f2d061"/>
      <path id="Trazado_894647" data-name="Trazado 894647" d="M88,320h3.17v8.322H88Z" transform="translate(-68.434 -288.942)" fill="#e65c79"/>
      <path id="Trazado_894648" data-name="Trazado 894648" d="M152,280h3.17v10.3H152Z" transform="translate(-129.264 -250.923)" fill="#5cb3e6"/>
      <path id="Trazado_894649" data-name="Trazado 894649" d="M216,240h3.17v12.284H216Z" transform="translate(-190.094 -212.904)" fill="#f2d061"/>
      <path id="Trazado_894650" data-name="Trazado 894650" d="M280,192h3.17v14.662H280Z" transform="translate(-250.924 -167.282)" fill="#e65c79"/>
      <path id="Trazado_894651" data-name="Trazado 894651" d="M344,152h3.17v16.643H344Z" transform="translate(-311.754 -129.263)" fill="#5cb3e6"/>
      <path id="Trazado_894652" data-name="Trazado 894652" d="M43,28.963l1.129-4.948L39.057,24l.986,1.241L39,26.067a18.108,18.108,0,0,1-12.269,4L24,29.9l1.061.439a17.34,17.34,0,0,0,16.951-2.616Z" transform="translate(-7.604 -7.604)" fill="#5cb3e6"/>
      <path id="Trazado_894653" data-name="Trazado 894653" d="M254.678,216.87l.243-.292a.411.411,0,0,1,.7.11l.141.353a.411.411,0,0,0,.6.2l.322-.2a.411.411,0,0,1,.629.321l.025.379a.411.411,0,0,0,.511.371l.368-.093a.411.411,0,0,1,.5.5l-.093.368a.411.411,0,0,0,.371.511l.379.025a.411.411,0,0,1,.321.629l-.2.322a.411.411,0,0,0,.2.6l.353.141a.411.411,0,0,1,.11.7l-.292.243a.411.411,0,0,0,0,.631l.292.243a.411.411,0,0,1-.11.7l-.353.141a.411.411,0,0,0-.2.6l.2.321a.411.411,0,0,1-.321.629l-.379.025a.411.411,0,0,0-.371.511l.093.368a.411.411,0,0,1-.5.5l-.368-.093a.411.411,0,0,0-.511.371l-.025.379a.411.411,0,0,1-.629.321l-.322-.2a.411.411,0,0,0-.6.2l-.141.353a.411.411,0,0,1-.7.11l-.243-.292a.411.411,0,0,0-.631,0l-.243.292a.411.411,0,0,1-.7-.11l-.141-.353a.411.411,0,0,0-.6-.2l-.321.2a.411.411,0,0,1-.629-.321l-.025-.379a.411.411,0,0,0-.511-.371l-.368.093a.411.411,0,0,1-.5-.5l.093-.368a.411.411,0,0,0-.371-.511l-.379-.025a.411.411,0,0,1-.321-.629l.2-.321a.411.411,0,0,0-.2-.6l-.353-.141a.411.411,0,0,1-.11-.7l.292-.243a.411.411,0,0,0,0-.631l-.292-.243a.411.411,0,0,1,.11-.7l.353-.141a.411.411,0,0,0,.2-.6l-.2-.322a.411.411,0,0,1,.321-.629l.379-.025a.411.411,0,0,0,.371-.511l-.093-.368a.411.411,0,0,1,.5-.5l.368.093a.411.411,0,0,0,.511-.371l.025-.379a.411.411,0,0,1,.629-.321l.321.2a.411.411,0,0,0,.6-.2l.141-.353a.411.411,0,0,1,.7-.11l.243.292A.411.411,0,0,0,254.678,216.87Z" transform="translate(-220.917 -190.502)" fill="#3e799c"/>
      <circle id="Elipse_12088" data-name="Elipse 12088" cx="3.973" cy="3.973" r="3.973" transform="translate(29.473 27.888)" fill="#f2d061"/>
      <g id="Grupo_1111539" data-name="Grupo 1111539" transform="translate(31.058 29.473)">
        <path id="Trazado_894654" data-name="Trazado 894654" d="M320.4,292.756a.4.4,0,0,1-.28-.676l3.963-3.963a.4.4,0,0,1,.56.56l-3.963,3.963A.4.4,0,0,1,320.4,292.756Z" transform="translate(-319.999 -288.001)" fill="#e65c79"/>
      </g>
      <g id="Grupo_1111540" data-name="Grupo 1111540" transform="translate(30.661 29.473)">
        <path id="Trazado_894655" data-name="Trazado 894655" d="M313.189,290.378a1.189,1.189,0,1,1,1.189-1.189A1.19,1.19,0,0,1,313.189,290.378Zm0-1.585a.4.4,0,1,0,.4.4A.4.4,0,0,0,313.189,288.793Z" transform="translate(-312 -288)" fill="#e65c79"/>
      </g>
      <g id="Grupo_1111541" data-name="Grupo 1111541" transform="translate(33.831 31.851)">
        <path id="Trazado_894656" data-name="Trazado 894656" d="M377.189,338.378a1.189,1.189,0,1,1,1.189-1.189A1.19,1.19,0,0,1,377.189,338.378Zm0-1.585a.4.4,0,1,0,.4.4A.4.4,0,0,0,377.189,336.793Z" transform="translate(-376 -336)" fill="#e65c79"/>
      </g>
      <g id="Grupo_1111542" data-name="Grupo 1111542" transform="translate(15.999 16)">
        <path id="Trazado_894657" data-name="Trazado 894657" d="M16.244,22.658l1.061.439a16.1,16.1,0,0,0,6.156,1.2,17.472,17.472,0,0,0,2.671-.207,18.86,18.86,0,0,0,8.205-3.425l.75.944a.4.4,0,0,0,.7-.158L36.913,16.5a.4.4,0,0,0-.385-.484L31.453,16h0a.4.4,0,0,0-.31.643l.74.931-.729.579a18.273,18.273,0,0,1-5.727,3.088,16.855,16.855,0,0,1-6.271.822L16.42,21.9a.4.4,0,0,0-.176.762Zm2.862.2A17.647,17.647,0,0,0,25.671,22a19.062,19.062,0,0,0,5.975-3.222l1.039-.826a.4.4,0,0,0,.064-.557l-.473-.6,3.755.011-.835,3.661-.476-.6a.4.4,0,0,0-.55-.069,18.092,18.092,0,0,1-8.158,3.5,15.934,15.934,0,0,1-7.054-.459Z" transform="translate(-15.999 -16)"/>
        <path id="Trazado_894658" data-name="Trazado 894658" d="M39.486,153.776l-.292-.243a.015.015,0,0,1,0-.023l.292-.243a.807.807,0,0,0-.217-1.37l-.353-.141a.015.015,0,0,1-.007-.022l.2-.321a.807.807,0,0,0-.63-1.236l-.379-.025a.015.015,0,0,1-.013-.018l.093-.368a.807.807,0,0,0-.981-.981l-.368.093a.013.013,0,0,1-.012,0,.013.013,0,0,1-.006-.011l-.025-.379a.808.808,0,0,0-.977-.736V144.4a.4.4,0,0,0-.4-.4h-3.17a.4.4,0,0,0-.4.4v1.585H29.077a.4.4,0,0,0-.4.4v1.981H25.907a.4.4,0,0,0-.4.4v1.585H22.737a.4.4,0,0,0-.4.4v1.585H19.566a.4.4,0,0,0-.4.4V154.3H16.4a.4.4,0,0,0-.4.4v6.34a.4.4,0,0,0,.4.4H35.417a.4.4,0,0,0,.4-.4v-1.747a.808.808,0,0,0,.977-.736l.025-.379a.013.013,0,0,1,.006-.011.013.013,0,0,1,.012,0l.368.093a.807.807,0,0,0,.981-.981l-.093-.368a.015.015,0,0,1,.013-.018l.379-.025a.807.807,0,0,0,.63-1.236l-.2-.321a.013.013,0,0,1,0-.012.013.013,0,0,1,.009-.009l.353-.141a.807.807,0,0,0,.217-1.37ZM19.17,160.643H16.793V155.1H19.17Zm3.17,0H19.963v-7.529H22.34Zm3.17,0H23.133v-9.51H25.51Zm7.133-15.851h2.378v2.8a.807.807,0,0,0-1.32-.114l-.243.292h0a.015.015,0,0,1-.023,0l-.243-.292a.8.8,0,0,0-.549-.287v-2.4Zm-3.17,3.963v-1.981h2.378v.863c-.01.02-.02.041-.028.062l-.141.353a.015.015,0,0,1-.022.007l-.321-.2a.807.807,0,0,0-1.236.63l-.025.379a.013.013,0,0,1-.006.011.013.013,0,0,1-.012,0l-.368-.093a.818.818,0,0,0-.218-.025Zm-.793,11.888H26.3V149.151h2.378v1.008l-.27.018a.807.807,0,0,0-.63,1.236l.2.321a.013.013,0,0,1,0,.012.013.013,0,0,1-.009.009l-.353.141a.807.807,0,0,0-.217,1.37l.292.243a.015.015,0,0,1,0,.023l-.292.243a.807.807,0,0,0,.217,1.37l.353.141a.015.015,0,0,1,.007.021l-.2.321a.807.807,0,0,0,.63,1.236l.269.018v3.76Zm3.17,0H29.473v-2.361a.817.817,0,0,0,.218-.025l.368-.093a.015.015,0,0,1,.018.013l.025.379a.807.807,0,0,0,1.236.63l.321-.2a.015.015,0,0,1,.022.007l.141.353c.009.021.018.042.028.062Zm3.17,0H32.643v-.8a.8.8,0,0,0,.549-.287l.243-.292a.015.015,0,0,1,.023,0l.243.292a.807.807,0,0,0,1.32-.114v1.2Zm3.666-6.5.292.243a.015.015,0,0,1,0,.025l-.353.141a.807.807,0,0,0-.383,1.18l.2.322a.015.015,0,0,1-.012.022l-.379.025a.807.807,0,0,0-.729,1l.093.368a.012.012,0,0,1,0,.014.012.012,0,0,1-.014,0l-.368-.093a.807.807,0,0,0-1,.729L36,158.5a.015.015,0,0,1-.023.012l-.321-.2a.807.807,0,0,0-1.18.383l-.141.353a.012.012,0,0,1-.011.009.012.012,0,0,1-.014-.005l-.243-.292a.807.807,0,0,0-1.24,0l-.243.292a.012.012,0,0,1-.014.005.012.012,0,0,1-.011-.009l-.141-.353a.807.807,0,0,0-1.18-.383l-.321.2a.012.012,0,0,1-.015,0,.012.012,0,0,1-.008-.012l-.025-.379a.807.807,0,0,0-1-.729l-.368.093a.012.012,0,0,1-.014,0,.012.012,0,0,1,0-.014l.093-.368a.807.807,0,0,0-.729-1l-.379-.025a.015.015,0,0,1-.011-.023l.2-.321a.807.807,0,0,0-.383-1.18l-.353-.141a.015.015,0,0,1,0-.025l.292-.243a.807.807,0,0,0,0-1.24l-.292-.243a.015.015,0,0,1,0-.025l.353-.141a.807.807,0,0,0,.383-1.18l-.2-.321a.012.012,0,0,1,0-.015.012.012,0,0,1,.012-.008l.379-.025a.807.807,0,0,0,.729-1l-.093-.368a.015.015,0,0,1,.018-.018l.368.093a.807.807,0,0,0,1-.729l.025-.379a.015.015,0,0,1,.023-.011l.321.2a.807.807,0,0,0,1.179-.383l.141-.353a.015.015,0,0,1,.025,0l.243.292a.807.807,0,0,0,1.24,0l.243-.292a.012.012,0,0,1,.014-.005.012.012,0,0,1,.011.009l.141.353a.807.807,0,0,0,1.18.383l.321-.2a.015.015,0,0,1,.023.011l.025.379a.807.807,0,0,0,1,.729l.368-.093a.015.015,0,0,1,.018.018l-.093.368a.807.807,0,0,0,.729,1l.379.025a.015.015,0,0,1,.011.023l-.2.321a.807.807,0,0,0,.383,1.18l.353.141a.015.015,0,0,1,0,.025l-.292.243a.807.807,0,0,0,0,1.24Z" transform="translate(-16 -137.66)"/>
        <path id="Trazado_894659" data-name="Trazado 894659" d="M284.37,248a4.37,4.37,0,1,0,4.37,4.37A4.375,4.375,0,0,0,284.37,248Zm0,7.947a3.577,3.577,0,1,1,3.577-3.577A3.581,3.581,0,0,1,284.37,255.947Z" transform="translate(-266.923 -236.508)"/>
        <path id="Trazado_894660" data-name="Trazado 894660" d="M324.639,288.117a.4.4,0,0,0-.56,0l-3.963,3.963a.4.4,0,0,0,.56.56l3.963-3.963A.4.4,0,0,0,324.639,288.117Z" transform="translate(-304.942 -274.527)"/>
        <path id="Trazado_894661" data-name="Trazado 894661" d="M314.378,289.189a1.189,1.189,0,1,0-1.189,1.189A1.19,1.19,0,0,0,314.378,289.189Zm-1.585,0a.4.4,0,1,1,.4.4A.4.4,0,0,1,312.793,289.189Z" transform="translate(-297.338 -274.527)"/>
        <path id="Trazado_894662" data-name="Trazado 894662" d="M377.189,336a1.189,1.189,0,1,0,1.189,1.189A1.19,1.19,0,0,0,377.189,336Zm0,1.585a.4.4,0,1,1,.4-.4A.4.4,0,0,1,377.189,337.585Z" transform="translate(-358.168 -320.149)"/>
      </g>
    </g>
  </g>
</svg>
