<svg xmlns="http://www.w3.org/2000/svg" width="39.051" height="36.013" viewBox="0 0 39.051 36.013">
  <g id="Grupo_1111590" data-name="Grupo 1111590" transform="translate(-300 -2695.194)">
    <g id="Rectángulo_401341" data-name="Rectángulo 401341" transform="translate(300 2695.194)" fill="#fece2f" stroke="#faedc1" stroke-width="3">
      <rect width="39.051" height="36.013" rx="12" stroke="none"/>
      <rect x="1.5" y="1.5" width="36.051" height="33.013" rx="10.5" fill="none"/>
    </g>
    <g id="Grupo_1111548" data-name="Grupo 1111548" transform="translate(299.247 2700.667)">
      <g id="Grupo_1111547" data-name="Grupo 1111547" transform="translate(8.967 1.371)">
        <g id="Grupo_1111544" data-name="Grupo 1111544" transform="translate(0 14.324)">
          <path id="Trazado_894663" data-name="Trazado 894663" d="M48.08,320.461l1.46,5.446a9.1,9.1,0,0,1,.962-.714,3.009,3.009,0,0,1,1.069-.465,2.763,2.763,0,0,1,1.238.032h0l2.962.679a2.532,2.532,0,0,0,1.908-.251l7.408-4.277a1.388,1.388,0,1,0-1.388-2.4l-5.159,2.978.011-.039a1.541,1.541,0,0,0-1.078-1.884L52.3,318.155a2.43,2.43,0,0,0-1.859.5Z" transform="translate(-46.622 -318.131)" fill="#ffd6bd" fill-rule="evenodd"/>
          <path id="Trazado_894664" data-name="Trazado 894664" d="M165.989,381.337a1.542,1.542,0,0,0,1.755-.754,1.5,1.5,0,0,1-.053.356,1.54,1.54,0,0,1-1.885,1.078c-1.006-.275-2.015-.54-3.023-.81a.353.353,0,1,1,.183-.682C163.973,380.794,164.978,381.062,165.989,381.337Z" transform="translate(-155.761 -377.622)" fill="#f9c6aa" fill-rule="evenodd"/>
          <path id="Trazado_894665" data-name="Trazado 894665" d="M74.86,342.113l.219.816a9.106,9.106,0,0,1,.962-.714,3.008,3.008,0,0,1,1.069-.465,2.763,2.763,0,0,1,1.238.032h0l2.962.679a2.531,2.531,0,0,0,1.908-.251l7.408-4.277a1.392,1.392,0,0,0,.508-1.9c-.012-.02-.023-.039-.036-.058a1.39,1.39,0,0,1-.691,1.138L83,341.394a2.532,2.532,0,0,1-1.908.251l-2.962-.679h0a2.763,2.763,0,0,0-1.238-.032,3,3,0,0,0-1.069.465A9.055,9.055,0,0,0,74.86,342.113Z" transform="translate(-72.161 -335.153)" fill="#f9c6aa" fill-rule="evenodd"/>
          <path id="Trazado_894666" data-name="Trazado 894666" d="M18.437,338.861l1.784,6.658a.307.307,0,0,1-.216.374l-1.231.33a.307.307,0,0,1-.374-.216l-1.784-6.658a.307.307,0,0,1,.216-.374l1.231-.33A.306.306,0,0,1,18.437,338.861Z" transform="translate(-16.606 -337.685)" fill="#64b5f6" fill-rule="evenodd"/>
          <path id="Trazado_894667" data-name="Trazado 894667" d="M18.437,338.856l.021.077-1.152.309a.307.307,0,0,0-.216.374l1.763,6.58-.078.021A.307.307,0,0,1,18.4,346l-1.784-6.658a.307.307,0,0,1,.216-.374l1.231-.33A.307.307,0,0,1,18.437,338.856Z" transform="translate(-16.606 -337.679)" fill="#42a5f5" fill-rule="evenodd"/>
        </g>
        <g id="Grupo_1111545" data-name="Grupo 1111545" transform="translate(6.639)">
          <path id="Trazado_894668" data-name="Trazado 894668" d="M167.756,11.827v.93c2.366,2.207,4.439,5.4,2.41,8.055a4.038,4.038,0,0,1-3.305,1.635h-2.848a4.038,4.038,0,0,1-3.305-1.635c-2.028-2.656.045-5.847,2.411-8.054v-.93a3.927,3.927,0,0,0-.62-1.1c-.7-.994-.556-1.331,1.146-.7.714.264.413-1.025,1.791-1.025s1.078,1.289,1.792,1.025c1.7-.629,1.843-.292,1.146.7A3.934,3.934,0,0,0,167.756,11.827Z" transform="translate(-159.886 -9)" fill="#72d561" fill-rule="evenodd"/>
          <path id="Trazado_894669" data-name="Trazado 894669" d="M214.824,11.827v.93c2.366,2.207,4.439,5.4,2.41,8.055a4.038,4.038,0,0,1-3.305,1.635h-.663a4.038,4.038,0,0,0,3.305-1.635c2.028-2.656-.044-5.847-2.41-8.055v-.93a3.927,3.927,0,0,1,.62-1.1c.348-.5.487-.829.327-.959.915-.219.9.155.336.959A3.927,3.927,0,0,0,214.824,11.827ZM209.24,9.768c.145-.118.534-.07,1.234.171a.344.344,0,0,1-.424.085A7.428,7.428,0,0,0,209.24,9.768Zm2.934-.739c1,.19.81,1.236,1.46,1,.083-.031.163-.059.239-.085-.254-.278-.38-.94-1.367-.94A1.784,1.784,0,0,0,212.174,9.029Z" transform="translate(-206.953 -9)" fill="#57ca5a" fill-rule="evenodd"/>
          <path id="Trazado_894670" data-name="Trazado 894670" d="M211.867,66.75h5.109a.617.617,0,1,1,0,1.233h-5.109a.617.617,0,1,1,0-1.233Z" transform="translate(-208.87 -64.074)" fill="#ffda2d" fill-rule="evenodd"/>
          <path id="Trazado_894671" data-name="Trazado 894671" d="M211.867,66.75h5.109a.618.618,0,0,1,.579.406.61.61,0,0,0-.231-.045h-5.109a.619.619,0,0,0-.617.617.611.611,0,0,0,.037.21.616.616,0,0,1,.231-1.188Z" transform="translate(-208.87 -64.074)" fill="#ffc700" fill-rule="evenodd"/>
        </g>
        <g id="Grupo_1111546" data-name="Grupo 1111546" transform="translate(2.196 2.493)">
          <path id="Trazado_894672" data-name="Trazado 894672" d="M66.776,65.434h.835a.227.227,0,0,0,.179-.366L66.1,62.883a.227.227,0,0,0-.359,0l-1.688,2.185a.227.227,0,0,0,.18.366h.835v4.188a.3.3,0,0,0,.3.3h1.113a.3.3,0,0,0,.3-.3Zm16.157,0h.835a.227.227,0,0,0,.179-.366l-1.688-2.185a.227.227,0,0,0-.359,0L80.21,65.068a.227.227,0,0,0,.18.366h.835v4.188a.3.3,0,0,0,.3.3h1.113a.3.3,0,0,0,.3-.3Z" transform="translate(-64.006 -62.795)" fill="#ffda2d" fill-rule="evenodd"/>
          <path id="Trazado_894673" data-name="Trazado 894673" d="M100.3,65.434h.6a.227.227,0,0,0,.179-.366l-1.688-2.185a.227.227,0,0,0-.359,0l-.12.155,1.569,2.03A.226.226,0,0,1,100.3,65.434Zm-1.131,4.485a.3.3,0,0,0,.3-.3V65.434h.6v4.188a.3.3,0,0,1-.3.3Zm17.287-4.485h.6a.227.227,0,0,0,.179-.366l-1.688-2.185a.227.227,0,0,0-.359,0l-.12.155,1.569,2.03A.226.226,0,0,1,116.456,65.434Zm-1.131,4.485a.3.3,0,0,0,.3-.3V65.434h.6v4.188a.3.3,0,0,1-.3.3Z" transform="translate(-97.293 -62.795)" fill="#ffc700" fill-rule="evenodd"/>
        </g>
      </g>
      <path id="Trazado_894674" data-name="Trazado 894674" d="M13.08,4.326l1.4,1.806h-.542a.371.371,0,0,0-.371.371v4.115H12.6V6.5a.371.371,0,0,0-.371-.371h-.542ZM11.391,6.873h.464V10.69a.669.669,0,0,0,.668.668h1.113a.669.669,0,0,0,.668-.668V6.873h.464a.6.6,0,0,0,.473-.963L13.553,3.725a.6.6,0,0,0-.945,0L10.919,5.91a.6.6,0,0,0,.473.963Zm18.7-.741a.37.37,0,0,0-.371.371v4.115h-.967V6.5a.371.371,0,0,0-.371-.371h-.542l1.4-1.806,1.4,1.806ZM31.4,5.91,29.71,3.725a.6.6,0,0,0-.945,0L27.076,5.91a.6.6,0,0,0,.473.963h.464V10.69a.669.669,0,0,0,.668.668h1.113a.669.669,0,0,0,.668-.668V6.873h.464A.6.6,0,0,0,31.4,5.91ZM19.757,9.046a1.3,1.3,0,0,1,1.03-1.27V7.327a.371.371,0,0,1,.741,0v.434a1.3,1.3,0,0,1,.869.526.371.371,0,1,1-.6.434.559.559,0,0,0-.451-.232h-.292a.556.556,0,1,0,0,1.112h.207a1.3,1.3,0,0,1,.267,2.567v.449a.371.371,0,1,1-.741,0v-.434a1.3,1.3,0,0,1-.869-.526.371.371,0,1,1,.6-.435.559.559,0,0,0,.451.232h.292a.556.556,0,1,0,0-1.112h-.207A1.3,1.3,0,0,1,19.757,9.046ZM16.3,9.214a3.726,3.726,0,0,0,3.439,5.233h2.848a3.726,3.726,0,0,0,3.439-5.233A10.667,10.667,0,0,0,23.488,5.65H18.829A10.672,10.672,0,0,0,16.3,9.214Zm2.942-6.471a.877.877,0,0,0,.307.06.893.893,0,0,0,.724-.53,1.011,1.011,0,0,1,1.78,0,.805.805,0,0,0,1.031.47,5.169,5.169,0,0,1,.979-.286,3.454,3.454,0,0,1-.265.428,6.135,6.135,0,0,0-.5.79H19.023a6.052,6.052,0,0,0-.5-.79,3.455,3.455,0,0,1-.265-.428,5.169,5.169,0,0,1,.979.286ZM18.6,4.909a.246.246,0,0,1,0-.492h5.11a.246.246,0,1,1,0,.492Zm-2.469,8.5A4.372,4.372,0,0,1,15.6,8.95a10.907,10.907,0,0,1,2.391-3.513.986.986,0,0,1,.223-1.683c-.071-.112-.165-.251-.3-.444-.346-.494-.628-1-.345-1.37.3-.391.959-.249,1.923.108l.026.008a1.668,1.668,0,0,0,.117-.174,1.75,1.75,0,0,1,3.04,0,1.62,1.62,0,0,0,.117.174l.026-.008c.964-.356,1.621-.5,1.923-.108.284.367,0,.875-.344,1.37-.135.193-.229.332-.3.444a.986.986,0,0,1,.223,1.683A10.9,10.9,0,0,1,26.714,8.95a4.371,4.371,0,0,1-.532,4.457,4.437,4.437,0,0,1-3.6,1.78H19.734A4.434,4.434,0,0,1,16.134,13.407Zm11.113,4.765L19.84,22.449a2.17,2.17,0,0,1-1.64.211l-2.962-.679a3.122,3.122,0,0,0-2.567.466l-1.258-4.694,1.6-1.226a1.755,1.755,0,0,1,1.537-.433L19.722,17.5a1.165,1.165,0,1,1-.612,2.247L16.348,19a.371.371,0,0,0-.195.715l2.763.752a1.9,1.9,0,0,0,2.275-1.145l5.04-2.909a1.017,1.017,0,0,1,1.017,1.762ZM11.1,23.875l1.1-.3-1.75-6.532-1.1.3Zm16.091-8.281a1.745,1.745,0,0,0-1.334.174L21.308,18.4a1.909,1.909,0,0,0-1.391-1.61l-5.172-1.408a2.48,2.48,0,0,0-2.182.56l-1.357,1.039-.05-.185a.677.677,0,0,0-.828-.479l-1.231.33a.676.676,0,0,0-.478.828L10.4,24.13a.678.678,0,0,0,.653.5.688.688,0,0,0,.175-.023l1.231-.33a.678.678,0,0,0,.478-.828l-.065-.242a2.472,2.472,0,0,1,2.2-.505l2.962.679a3.368,3.368,0,0,0,.755.089,2.8,2.8,0,0,0,1.422-.38l7.408-4.277a1.756,1.756,0,0,0-.425-3.219Z" fill-rule="evenodd"/>
    </g>
  </g>
</svg>
