<svg xmlns="http://www.w3.org/2000/svg" width="81.317" height="83.52" viewBox="0 0 81.317 83.52">
  <g id="Grupo_1111554" data-name="Grupo 1111554" transform="translate(-22.336 -16.006)">
    <path id="Trazado_894690" data-name="Trazado 894690" d="M36.593,85.839h1.26V61.973a.957.957,0,0,1,.908-.955,59.934,59.934,0,0,0,6.134-.835,58.3,58.3,0,0,0,5.986-1.467.956.956,0,0,1,1.228.915V85.839h1.26V58.572a.957.957,0,0,1,.678-.915,55.171,55.171,0,0,0,6.27-2.752,52.337,52.337,0,0,0,5.809-3.486.954.954,0,0,1,1.5.784l0,10.442a.95.95,0,0,1,.56.177l.7.5v-13.5a.956.956,0,0,1,.412-.786A46.318,46.318,0,0,0,76.254,42a41.41,41.41,0,0,0,5.068-8.129.954.954,0,0,1,1.815.4l0,23.6.493,2.933a17.2,17.2,0,0,1,4.783,1.1l2.01-2.824a.954.954,0,0,1,1.33-.224L97.2,62.728a.954.954,0,0,1,.224,1.33l-2.011,2.825a17.122,17.122,0,0,1,2.6,4.16l3.424-.576a.954.954,0,0,1,1.1.784l1.108,6.582a.954.954,0,0,1-.784,1.1l-3.421.576a17.2,17.2,0,0,1-1.1,4.783l2.824,2.01a.954.954,0,0,1,.224,1.33l-3.871,5.438a.954.954,0,0,1-1.33.224L93.36,91.282a17.118,17.118,0,0,1-4.16,2.6l.576,3.424a.954.954,0,0,1-.784,1.1l-6.582,1.108a.954.954,0,0,1-1.1-.785l-.576-3.421a17.2,17.2,0,0,1-4.783-1.1l-2.01,2.824a.954.954,0,0,1-1.33.224l-5.438-3.871a.954.954,0,0,1-.224-1.33l2.011-2.825a17.2,17.2,0,0,1-1.122-1.481H23.293a.957.957,0,0,1-.957-.957V61.325a.955.955,0,0,1,1.178-.93q2.439.411,4.986.626a61.972,61.972,0,0,0,7.106.181.952.952,0,0,1,.983.953l0,23.684ZM83.425,31.4a.957.957,0,0,0,1.288-1.064L82.105,16.781a.954.954,0,0,0-1.4-.657L66.771,23.054a.954.954,0,0,0,.118,1.76l3.194,1.273A37.129,37.129,0,0,1,55.071,42.777a48.329,48.329,0,0,1-31.647,6.207.959.959,0,0,0-1.085.945l0,7.825a.957.957,0,0,0,.9.954q1.731.2,3.531.3a60.112,60.112,0,0,0,34.172-8.06,47.353,47.353,0,0,0,19.2-20.858Z" transform="translate(0)" fill-rule="evenodd"/>
    <path id="Trazado_894691" data-name="Trazado 894691" d="M33.738,305.385H44.169V282.679a61.071,61.071,0,0,1-10.431-.687Z" transform="translate(-9.418 -219.703)" fill="#12b7ee" fill-rule="evenodd"/>
    <path id="Trazado_894692" data-name="Trazado 894692" d="M122.908,298.067h10.431V273.132a61.426,61.426,0,0,1-10.431,1.943Z" transform="translate(-83.072 -212.385)" fill="#30c3f0" fill-rule="evenodd"/>
    <path id="Trazado_894693" data-name="Trazado 894693" d="M212.078,265.243h11.439q-.19-.379-.361-.767l-3.424.576a.954.954,0,0,1-1.1-.784l-1.108-6.582a.954.954,0,0,1,.785-1.1l3.421-.576a17.2,17.2,0,0,1,1.1-4.783L220,249.218a.954.954,0,0,1-.224-1.33l2.729-3.832V233.393a55.942,55.942,0,0,1-10.431,5.246Z" transform="translate(-156.726 -179.561)" fill="#4ecef2" fill-rule="evenodd"/>
    <path id="Trazado_894694" data-name="Trazado 894694" d="M263.225,290.016a.955.955,0,0,1,.078,1.2l-1.9,2.666,3.884,2.765,1.867-2.622a.955.955,0,0,1,1.193-.365,15.316,15.316,0,0,0,5.537,1.282.955.955,0,0,1,.954.8l.543,3.227,4.7-.791-.542-3.23a.954.954,0,0,1,.6-1.046,15.368,15.368,0,0,0,4.856-3.039.955.955,0,0,1,1.2-.078l2.666,1.9,2.765-3.884-2.622-1.867a.955.955,0,0,1-.365-1.193,15.309,15.309,0,0,0,1.282-5.537.955.955,0,0,1,.8-.954l3.227-.543-.791-4.7-3.23.542a.954.954,0,0,1-1.046-.6,15.37,15.37,0,0,0-3.038-4.856.955.955,0,0,1-.078-1.2l1.9-2.666-3.884-2.765-1.867,2.621a.955.955,0,0,1-1.193.365,15.312,15.312,0,0,0-5.538-1.282.955.955,0,0,1-.954-.8l-.543-3.227-4.7.791.542,3.23a.954.954,0,0,1-.6,1.046,15.371,15.371,0,0,0-4.856,3.039.955.955,0,0,1-1.2.078l-2.666-1.9-2.765,3.884,2.622,1.867a.955.955,0,0,1,.365,1.193,15.316,15.316,0,0,0-1.282,5.537.955.955,0,0,1-.8.954l-3.227.543.791,4.7,3.23-.543a.954.954,0,0,1,1.046.6A15.327,15.327,0,0,0,263.225,290.016Zm11.308-20.991A10.531,10.531,0,1,1,264,279.556a10.531,10.531,0,0,1,10.531-10.531Z" transform="translate(-192.278 -201.655)" fill="#148ee6" fill-rule="evenodd"/>
    <path id="Trazado_894695" data-name="Trazado 894695" d="M89.522,38.342,92,39.328,89.955,28.717l-10.94,5.44,2.158.86a.953.953,0,0,1,.534,1.236,38.779,38.779,0,0,1-16.155,18.5,50.085,50.085,0,0,1-31.814,6.611v5.881a58.755,58.755,0,0,0,35.716-7.585A45.21,45.21,0,0,0,88.241,38.834a.956.956,0,0,1,1.281-.492Z" transform="translate(-9.418 -10.5)" fill="#3cc038" fill-rule="evenodd"/>
    <path id="Trazado_894696" data-name="Trazado 894696" d="M311.68,160.82v-18.6a46.506,46.506,0,0,1-10.431,12.142v14.417l.212.151a17.123,17.123,0,0,1,4.16-2.6l-.576-3.424a.954.954,0,0,1,.785-1.1Z" transform="translate(-230.38 -104.251)" fill="#69d6f4" fill-rule="evenodd"/>
    <path id="Trazado_894697" data-name="Trazado 894697" d="M331.876,324.708a8.618,8.618,0,1,0,0,12.188,8.618,8.618,0,0,0,0-12.188Zm-7.05-.216a.957.957,0,0,1,1.913,0v.629a3.389,3.389,0,0,1,2.431,3.25.957.957,0,0,1-1.913,0,1.474,1.474,0,1,0-1.474,1.474,3.388,3.388,0,0,1,.956,6.637v.629a.957.957,0,0,1-1.913,0v-.629a3.389,3.389,0,0,1-2.431-3.25.957.957,0,0,1,1.913,0,1.474,1.474,0,1,0,1.474-1.474,3.388,3.388,0,0,1-.957-6.637Z" transform="translate(-243.526 -252.901)" fill="#fdc951" fill-rule="evenodd"/>
  </g>
</svg>
