<svg id="Grupo_1111561" data-name="Grupo 1111561" xmlns="http://www.w3.org/2000/svg" width="82.321" height="82.321" viewBox="0 0 82.321 82.321">
  <g id="Grupo_1111559" data-name="Grupo 1111559" transform="translate(1.205 1.206)">
    <path id="Trazado_894698" data-name="Trazado 894698" d="M288.192,126.364v8.489a4.3,4.3,0,0,0,0-8.489Z" transform="translate(-243.06 -107.253)" fill="#ffcebe"/>
    <path id="Trazado_894699" data-name="Trazado 894699" d="M104.5,133.334a4.536,4.536,0,0,0,1.808,7.4l.582-.406v-6.994H104.5Z" transform="translate(-87.865 -113.102)" fill="#ffcebe"/>
    <path id="Trazado_894700" data-name="Trazado 894700" d="M270.392,126.428c-.107-.027-.216-.051-.326-.07l-.795.357-.784.784H266.6v6.921l.434.488h2.319a4.318,4.318,0,0,0,1.041-.127Z" transform="translate(-224.939 -107.248)" fill="#ffb1a0"/>
    <path id="Trazado_894701" data-name="Trazado 894701" d="M84.542,132.463a4.281,4.281,0,0,1,1.349-3.122H85.22l-1.157-.765h-.853a4.3,4.3,0,0,0,1.847,8.194h2.319l.253-.177a4.309,4.309,0,0,1-3.086-4.131Z" transform="translate(-68.97 -109.109)" fill="#ffb1a0"/>
    <path id="Trazado_894702" data-name="Trazado 894702" d="M200.766,252.362l-.258-.1a1.184,1.184,0,0,1-.757-1.1l0-3.891-.526-.434h-6.482v12.233h1.685l6.592-6.043Z" transform="translate(-162.956 -208.355)" fill="#ffcebe"/>
    <path id="Trazado_894703" data-name="Trazado 894703" d="M156.3,246.835H150.08l-.459.417v3.9a1.089,1.089,0,0,1-.5.958l-.5.2v.47l6.488,6.291h1.2Z" transform="translate(-125.926 -208.354)" fill="#ffb1a0"/>
    <path id="Trazado_894704" data-name="Trazado 894704" d="M88.5,300.49l-9.761-3.78-.752.167-8.137,7.4-.894-.6H60.322l-.643.415-8.12-7.289-.974-.134-6.6,2.577-2.825,1.643-1.608,3.837v24.608l.923.75H60.143l.822-.67h7.182l1.022.67h12.1l1.412-1.179H92.76V303.6C91.127,302.155,90.221,301.2,88.5,300.49Z" transform="translate(-34.399 -250.175)" fill="#b5dcff"/>
    <g id="Grupo_1111555" data-name="Grupo 1111555" transform="translate(0 49.071)">
      <path id="Trazado_894705" data-name="Trazado 894705" d="M13.081,341.563V321.139a10.974,10.974,0,0,1,4-8.442l-3.185,1.244a10.964,10.964,0,0,0-6.4,9.931V341.4a2.134,2.134,0,0,0,2.134,2.134H14.4A2.134,2.134,0,0,1,13.081,341.563Z" transform="translate(-7.492 -312.697)" fill="#8bcaff"/>
    </g>
    <path id="Trazado_894706" data-name="Trazado 894706" d="M181.491,109.667,180.1,108.7l-1.072-2.867h-.911l-5.493,4.207h-6.8l-.467.4v8.676a12.017,12.017,0,0,0,7.985,11.344,11.7,11.7,0,0,0,8.727-11.3V110.7Z" transform="translate(-139.972 -90.024)" fill="#ffdecf"/>
    <g id="Grupo_1111556" data-name="Grupo 1111556" transform="translate(18.405 20.018)">
      <path id="Trazado_894707" data-name="Trazado 894707" d="M129.236,141.125v-8.373l.873-.75h-7.275l-.873.75v8.373A11.971,11.971,0,0,0,137.5,152.257,11.6,11.6,0,0,1,129.236,141.125Z" transform="translate(-121.961 -132.002)" fill="#ffcebe"/>
    </g>
    <path id="Trazado_894708" data-name="Trazado 894708" d="M177.421,321.133l-.08-.389-.329-.321h-2.2l-.274.254-2.331,2.961-.082.378,1.031,2.562.313.222h4.848l.349-.222,1.031-2.562v-.4Z" transform="translate(-145.656 -270.111)" fill="#f27182"/>
    <g id="Grupo_1111557" data-name="Grupo 1111557" transform="translate(44.785 27.964)">
      <path id="Trazado_894709" data-name="Trazado 894709" d="M419.937,181.422H409.313l-.593,1.245,5.574,8.039.755.1,5.7-7.771A1.012,1.012,0,0,0,419.937,181.422Z" transform="translate(-388.994 -181.422)" fill="#f27182"/>
      <path id="Trazado_894710" data-name="Trazado 894710" d="M384.03,183.033a1.012,1.012,0,0,1,.816-1.611h-5.278a1.012,1.012,0,0,0-.816,1.611l7.526,10.254a1.012,1.012,0,0,0,1.632,0l1.823-2.483Z" transform="translate(-363.679 -181.422)" fill="#ed5469"/>
      <path id="Trazado_894711" data-name="Trazado 894711" d="M427.855,423.5H415.021a1.552,1.552,0,0,1,1.552,1.552V428.7a1.552,1.552,0,0,1-1.552,1.552h12.834a1.552,1.552,0,0,0,1.552-1.552v-3.649A1.552,1.552,0,0,0,427.855,423.5Z" transform="translate(-394.282 -384.578)" fill="#fbc700"/>
      <path id="Trazado_894712" data-name="Trazado 894712" d="M425.337,464.5H412.021a1.552,1.552,0,0,1,1.552,1.552v3.327a1.552,1.552,0,0,1-1.552,1.552h13.316a1.552,1.552,0,0,0,1.552-1.552v-3.327A1.552,1.552,0,0,0,425.337,464.5Z" transform="translate(-391.765 -418.986)" fill="#ffe02f"/>
      <path id="Trazado_894713" data-name="Trazado 894713" d="M425.337,384.5H412.021a1.552,1.552,0,0,1,1.552,1.552v3.327a1.552,1.552,0,0,1-1.552,1.552h13.316a1.552,1.552,0,0,0,1.552-1.552v-3.327A1.552,1.552,0,0,0,425.337,384.5Z" transform="translate(-391.765 -351.848)" fill="#ffe02f"/>
      <path id="Trazado_894714" data-name="Trazado 894714" d="M423.659,343.5H411.573a1.552,1.552,0,0,0-1.552,1.552V348.7a1.552,1.552,0,0,0,1.552,1.552h12.086a1.552,1.552,0,0,0,1.552-1.552v-3.649A1.552,1.552,0,0,0,423.659,343.5Z" transform="translate(-390.086 -317.44)" fill="#fbc700"/>
      <path id="Trazado_894715" data-name="Trazado 894715" d="M367.4,348.7v-3.649a1.552,1.552,0,0,1,1.552-1.552h-8.548a1.552,1.552,0,0,0-1.552,1.552V348.7a1.552,1.552,0,0,0,1.552,1.552h8.548A1.552,1.552,0,0,1,367.4,348.7Z" transform="translate(-347.146 -317.441)" fill="#eab900"/>
      <path id="Trazado_894716" data-name="Trazado 894716" d="M423.659,304.5H411.573a1.552,1.552,0,0,0-1.552,1.552v3.327a1.552,1.552,0,0,0,1.552,1.552h12.086a1.552,1.552,0,0,0,1.552-1.552v-3.327A1.552,1.552,0,0,0,423.659,304.5Z" transform="translate(-390.086 -284.711)" fill="#ffe02f"/>
      <path id="Trazado_894717" data-name="Trazado 894717" d="M367.4,309.38v-3.327a1.552,1.552,0,0,1,1.552-1.552h-8.548a1.552,1.552,0,0,0-1.552,1.552v3.327a1.552,1.552,0,0,0,1.552,1.552h8.548A1.552,1.552,0,0,1,367.4,309.38Z" transform="translate(-347.146 -284.712)" fill="#fbc700"/>
      <path id="Trazado_894718" data-name="Trazado 894718" d="M348.07,423.5H335.454a1.552,1.552,0,0,0-1.552,1.552V428.7a1.552,1.552,0,0,0,1.552,1.552H348.07a1.552,1.552,0,0,0,1.552-1.552v-3.649A1.552,1.552,0,0,0,348.07,423.5Z" transform="translate(-326.206 -384.578)" fill="#ffe02f"/>
      <path id="Trazado_894719" data-name="Trazado 894719" d="M294.054,428.7v-3.649a1.552,1.552,0,0,1,1.552-1.552h-8.018a1.552,1.552,0,0,0-1.552,1.552V428.7a1.552,1.552,0,0,0,1.552,1.552h8.018A1.552,1.552,0,0,1,294.054,428.7Z" transform="translate(-286.036 -384.579)" fill="#fbc700"/>
      <path id="Trazado_894720" data-name="Trazado 894720" d="M348.07,384.5H335.454a1.552,1.552,0,0,0-1.552,1.552v3.327a1.552,1.552,0,0,0,1.552,1.552H348.07a1.552,1.552,0,0,0,1.552-1.552v-3.327A1.552,1.552,0,0,0,348.07,384.5Z" transform="translate(-326.206 -351.848)" fill="#ffeb7e"/>
      <path id="Trazado_894721" data-name="Trazado 894721" d="M294.054,389.38v-3.327a1.552,1.552,0,0,1,1.552-1.552h-8.018a1.552,1.552,0,0,0-1.552,1.552v3.327a1.552,1.552,0,0,0,1.552,1.552h8.018A1.552,1.552,0,0,1,294.054,389.38Z" transform="translate(-286.036 -351.849)" fill="#ffe02f"/>
      <path id="Trazado_894722" data-name="Trazado 894722" d="M348.07,464.5H335.454a1.552,1.552,0,0,0-1.552,1.552v3.327a1.552,1.552,0,0,0,1.552,1.552H348.07a1.552,1.552,0,0,0,1.552-1.552v-3.327A1.552,1.552,0,0,0,348.07,464.5Z" transform="translate(-326.206 -418.986)" fill="#ffeb7e"/>
      <path id="Trazado_894723" data-name="Trazado 894723" d="M294.054,469.38v-3.327a1.552,1.552,0,0,1,1.552-1.552h-8.018a1.552,1.552,0,0,0-1.552,1.552v3.327a1.552,1.552,0,0,0,1.552,1.552h8.018A1.552,1.552,0,0,1,294.054,469.38Z" transform="translate(-286.036 -418.986)" fill="#ffe02f"/>
    </g>
    <path id="Trazado_894724" data-name="Trazado 894724" d="M119.154,12.9a2.178,2.178,0,0,1-2.354-1.714c-.362-1.849-1.277-3.685-4.854-3.685H99.538a8.246,8.246,0,0,0-8.246,8.246V24.8a3.472,3.472,0,0,0,3.472,3.472h14.083a8.242,8.242,0,0,0,7.274-4.364.22.22,0,0,1,.413.105,4.27,4.27,0,0,0,4.258,4.258,2.239,2.239,0,0,0,2.232-2.232V16.592a3.7,3.7,0,0,0-3.87-3.694Z" transform="translate(-77.818 -7.5)" fill="#938493"/>
    <g id="Grupo_1111558" data-name="Grupo 1111558" transform="translate(13.474)">
      <path id="Trazado_894725" data-name="Trazado 894725" d="M98.566,24.8v-9.05A8.246,8.246,0,0,1,106.812,7.5H99.537a8.246,8.246,0,0,0-8.246,8.246V24.8a3.472,3.472,0,0,0,3.472,3.472h7.275A3.472,3.472,0,0,1,98.566,24.8Z" transform="translate(-91.291 -7.5)" fill="#7b6c79"/>
    </g>
    <path id="Trazado_894726" data-name="Trazado 894726" d="M108.166,283.411l8.3,7.724a1.236,1.236,0,0,0,1.747-.058l2.611-2.79a1.236,1.236,0,0,0-.058-1.747l-6.1-5.668Z" transform="translate(-91.979 -236.917)" fill="#dbedff"/>
    <path id="Trazado_894727" data-name="Trazado 894727" d="M205.329,291.357a1.236,1.236,0,0,0,1.747.058l8.308-7.683-6.525-2.527-6.083,5.614a1.236,1.236,0,0,0-.058,1.747Z" transform="translate(-171.049 -237.198)" fill="#dbedff"/>
    <path id="Trazado_894728" data-name="Trazado 894728" d="M200.88,382.144h3.676L202.8,358.7h-.16Z" transform="translate(-169.786 -302.234)" fill="#ed5469"/>
    <path id="Trazado_894729" data-name="Trazado 894729" d="M174.876,358.7h-5.51l-1.758,23.442H173.2l1.717-22.9Z" transform="translate(-141.864 -302.234)" fill="#e63850"/>
  </g>
  <g id="Grupo_1111560" data-name="Grupo 1111560" transform="translate(0 0)">
    <path id="Trazado_894730" data-name="Trazado 894730" d="M371.3,175.137a2.208,2.208,0,0,0,.191,2.315l7.526,10.254a2.218,2.218,0,0,0,3.576,0l7.527-10.254a2.218,2.218,0,0,0-1.788-3.531H373.283A2.208,2.208,0,0,0,371.3,175.137Zm16.65,1.2-7.145,9.734-7.144-9.734Z" transform="translate(-311.402 -145.957)"/>
    <path id="Trazado_894731" data-name="Trazado 894731" d="M79.563,47.753H72.308a1.206,1.206,0,1,0,0,2.412h7.256a.346.346,0,0,1,.346.346v3.327a.346.346,0,0,1-.346.346H59.251a.346.346,0,0,1-.346-.346V50.51a.346.346,0,0,1,.346-.346h7.429a1.206,1.206,0,1,0,0-2.412H59.251a2.761,2.761,0,0,0-2.758,2.758v.233q-.362-.185-.732-.338l-.024-.009-16.53-6.4,0-3.242a12.87,12.87,0,0,0,5.3-10.405v-.274h1.113a5.511,5.511,0,0,0,2-10.648V17.217a1.206,1.206,0,0,0-2.412,0v2.524c0,2.025-4.078.959-4.078-2.026a1.426,1.426,0,0,0-2.683-.674,7.033,7.033,0,0,1-6.211,3.726c-.184,0-13.942,0-14.112,0A2.269,2.269,0,0,1,15.885,18.5V9.452a7.048,7.048,0,0,1,7.04-7.04H35.334c2.9,0,3.4,1.339,3.67,2.71a3.4,3.4,0,0,0,3.63,2.684A2.492,2.492,0,0,1,45.206,10.3v1.292a1.206,1.206,0,1,0,2.412,0V10.3a4.9,4.9,0,0,0-5.169-4.9.977.977,0,0,1-1.078-.743C40.758,1.524,38.783,0,35.334,0H22.925a9.462,9.462,0,0,0-9.452,9.452V18.5a4.647,4.647,0,0,0,.353,1.781,5.505,5.505,0,0,0,3.465,9.79H18.4v.274A12.767,12.767,0,0,0,23.7,40.737v3.205L7.17,50.4l-.02.008A12.1,12.1,0,0,0,0,61.452v17.53a3.343,3.343,0,0,0,3.34,3.34H79.563a2.761,2.761,0,0,0,2.758-2.758V76.236a2.741,2.741,0,0,0-.48-1.552,2.741,2.741,0,0,0,.48-1.552V69.8a2.741,2.741,0,0,0-.48-1.552,2.741,2.741,0,0,0,.48-1.552V63.374a2.741,2.741,0,0,0-.48-1.552,2.741,2.741,0,0,0,.48-1.552V56.943a2.741,2.741,0,0,0-.48-1.552,2.741,2.741,0,0,0,.48-1.552V50.511a2.761,2.761,0,0,0-2.758-2.759ZM44.506,23.164a3.457,3.457,0,0,0,2.45-1.4,3.1,3.1,0,0,1-1.337,5.9H44.506ZM39.281,46.609,43.3,48.167l-6.894,6.376a.034.034,0,0,1-.043,0h0l-2.611-2.79a.03.03,0,0,1-.005-.015.031.031,0,0,1,0-.011v-.005s0,0,0-.005ZM30.931,53.4a2.6,2.6,0,0,0,.449-.674h.165a2.583,2.583,0,0,0,.449.674l1.849,1.975-.44,1.093H29.522l-.44-1.093Zm-.117-3.454-5.052-4.7a2.333,2.333,0,0,0,.346-1.242V42.111a13.559,13.559,0,0,0,10.687.031l0,1.873a2.387,2.387,0,0,0,.366,1.268l-5.053,4.664a2.48,2.48,0,0,0-.321.366h-.651a2.493,2.493,0,0,0-.323-.368ZM18.4,27.661H17.292a3.1,3.1,0,0,1-2-5.462,4.766,4.766,0,0,0,3.117.98Zm2.412,2.686V23.179H32.235a9.444,9.444,0,0,0,7.012-3.115,5.5,5.5,0,0,0,2.847,2.7v7.584a10.64,10.64,0,0,1-21.278,0ZM23.63,46.558l5.539,5.15a.031.031,0,0,1,.008.019.027.027,0,0,1,0,.005.03.03,0,0,1-.006.018l-2.611,2.79a.035.035,0,0,1-.045,0l-6.894-6.416Zm2.2,33.352H12.287V60.2a1.206,1.206,0,0,0-2.412,0V79.91H3.34a.929.929,0,0,1-.928-.928V61.452a9.781,9.781,0,0,1,5.647-8.813L17.126,49.1,24.868,56.3A2.436,2.436,0,0,0,27.1,56.9l.388.965Zm2.419,0,1.577-21.03H33.1l1.577,21.03ZM45.264,68.253a2.787,2.787,0,0,0-.479,1.552v3.327a2.778,2.778,0,0,0,.479,1.552,2.789,2.789,0,0,0-.479,1.552v3.327s0,.005,0,.008c0,.113.013.27.021.338H37.094L35.441,57.863l.388-.965a2.435,2.435,0,0,0,2.223-.59l7.755-7.172,9.047,3.5a7.957,7.957,0,0,1,1.639.927v.271a2.784,2.784,0,0,0,.479,1.552,2.779,2.779,0,0,0-.479,1.552v3.327a3.419,3.419,0,0,0,.022.346H47.543a2.761,2.761,0,0,0-2.758,2.758V66.7a2.763,2.763,0,0,0,.479,1.552ZM68.2,79.564a.346.346,0,0,1-.346.346H47.543a.346.346,0,0,1-.346-.346V76.236a.346.346,0,0,1,.346-.346H67.855a.346.346,0,0,1,.346.346v3.327Zm0-6.431a.346.346,0,0,1-.346.346H47.543a.346.346,0,0,1-.346-.346V69.8a.346.346,0,0,1,.346-.346H67.855a.346.346,0,0,1,.346.346v3.327Zm0-6.431a.346.346,0,0,1-.346.346H47.543A.346.346,0,0,1,47.2,66.7V63.373a.346.346,0,0,1,.346-.346H67.855a.346.346,0,0,1,.346.346V66.7ZM79.909,79.564a.346.346,0,0,1-.346.346H70.591c0-.014,0-.028,0-.042s0-.035,0-.052c.008-.083.013-.167.013-.251V76.236c0-.085-.005-.169-.013-.251,0-.018,0-.035,0-.052s0-.028,0-.042h8.972a.346.346,0,0,1,.346.346Zm0-6.431a.346.346,0,0,1-.346.346H70.591c0-.014,0-.028,0-.042s0-.035,0-.052c.008-.083.013-.167.013-.251V69.8c0-.085-.005-.169-.013-.251,0-.018,0-.035,0-.052s0-.028,0-.042h8.972a.346.346,0,0,1,.346.346Zm0-6.431a.346.346,0,0,1-.346.346H70.591c0-.014,0-.028,0-.042s0-.035,0-.052c.008-.083.013-.167.013-.251V63.373c0-.085-.005-.169-.013-.251,0-.018,0-.035,0-.052s0-.028,0-.042h8.972a.346.346,0,0,1,.346.346Zm0-6.431a.346.346,0,0,1-.346.346H59.251a.346.346,0,0,1-.346-.346V56.942a.346.346,0,0,1,.346-.346H79.563a.346.346,0,0,1,.346.346Z" transform="translate(0 0)"/>
  </g>
</svg>
