<svg xmlns="http://www.w3.org/2000/svg" width="61.554" height="56.766" viewBox="0 0 61.554 56.766">
  <g id="Grupo_1111565" data-name="Grupo 1111565" transform="translate(-720 -989.194)">
    <g id="Rectángulo_401341" data-name="Rectángulo 401341" transform="translate(720 989.194)" fill="#fece2f" stroke="#faedc1" stroke-width="3">
      <rect width="61.554" height="56.766" rx="12" stroke="none"/>
      <rect x="1.5" y="1.5" width="58.554" height="53.766" rx="10.5" fill="none"/>
    </g>
    <g id="Grupo_1108734" data-name="Grupo 1108734" transform="translate(731.718 997.667)">
      <path id="Trazado_891278" data-name="Trazado 891278" d="M136,157.155V152h16.755v5.155Zm0,0" transform="translate(-125.045 -139.756)" fill="#ee638c"/>
      <path id="Trazado_891279" data-name="Trazado 891279" d="M136,45.155V40h14.178v5.155Zm0,0" transform="translate(-125.045 -36.778)" fill="#ef7559"/>
      <path id="Trazado_891280" data-name="Trazado 891280" d="M136,269.155V264h20.622v5.155Zm0,0" transform="translate(-125.045 -242.734)" fill="#8cb28c"/>
      <path id="Trazado_891281" data-name="Trazado 891281" d="M136,381.155V376h27.066v5.155Zm0,0" transform="translate(-125.045 -345.712)" fill="#60a2d7"/>
      <path id="Trazado_891282" data-name="Trazado 891282" d="M96.644,38.666A.644.644,0,0,1,96,38.022V.644a.644.644,0,1,1,1.289,0V38.022A.644.644,0,0,1,96.644,38.666Zm0,0" transform="translate(-88.267 0)" fill="#92aeba"/>
      <path id="Trazado_891283" data-name="Trazado 891283" d="M13.155,378.578A2.578,2.578,0,1,1,10.578,376,2.578,2.578,0,0,1,13.155,378.578Zm0,0" transform="translate(-7.356 -345.712)" fill="#69badc"/>
      <path id="Trazado_891284" data-name="Trazado 891284" d="M13.155,266.578A2.578,2.578,0,1,1,10.578,264,2.578,2.578,0,0,1,13.155,266.578Zm0,0" transform="translate(-7.356 -242.734)" fill="#b1bd70"/>
      <path id="Trazado_891285" data-name="Trazado 891285" d="M13.155,154.578A2.578,2.578,0,1,1,10.578,152,2.578,2.578,0,0,1,13.155,154.578Zm0,0" transform="translate(-7.356 -139.756)" fill="#f6a7bd"/>
      <path id="Trazado_891286" data-name="Trazado 891286" d="M13.155,42.578A2.578,2.578,0,1,1,10.578,40,2.578,2.578,0,0,1,13.155,42.578Zm0,0" transform="translate(-7.356 -36.778)" fill="#ffa754"/>
      <path id="Trazado_891287" data-name="Trazado 891287" d="M128,149.8a.644.644,0,0,0,.644.644H145.4a.644.644,0,0,0,.644-.644v-5.155A.644.644,0,0,0,145.4,144H128.644a.644.644,0,0,0-.644.644Zm1.289-4.511h15.466v3.867H129.289Zm0,0" transform="translate(-117.689 -132.4)"/>
      <path id="Trazado_891288" data-name="Trazado 891288" d="M128.644,38.444h14.178a.644.644,0,0,0,.644-.644V32.644a.644.644,0,0,0-.644-.644H128.644a.644.644,0,0,0-.644.644V37.8A.644.644,0,0,0,128.644,38.444Zm.644-5.155h12.889v3.867H129.289Zm0,0" transform="translate(-117.689 -29.422)"/>
      <path id="Trazado_891289" data-name="Trazado 891289" d="M128,261.8a.644.644,0,0,0,.644.644h20.622a.644.644,0,0,0,.644-.644v-5.155a.644.644,0,0,0-.644-.644H128.644a.644.644,0,0,0-.644.644Zm1.289-4.511h19.333v3.867H129.289Zm0,0" transform="translate(-117.689 -235.378)"/>
      <path id="Trazado_891290" data-name="Trazado 891290" d="M155.711,368H128.644a.644.644,0,0,0-.644.644V373.8a.644.644,0,0,0,.644.644h27.066a.644.644,0,0,0,.644-.644v-5.155A.644.644,0,0,0,155.711,368Zm-.644,5.155H129.289v-3.867h25.777Zm0,0" transform="translate(-117.689 -338.356)"/>
      <path id="Trazado_891291" data-name="Trazado 891291" d="M96.644,0A.644.644,0,0,0,96,.644V38.022a.644.644,0,1,0,1.289,0V.644A.644.644,0,0,0,96.644,0Zm0,0" transform="translate(-88.267 0)"/>
      <path id="Trazado_891292" data-name="Trazado 891292" d="M3.222,368a3.222,3.222,0,1,0,3.222,3.222A3.222,3.222,0,0,0,3.222,368Zm0,5.155a1.933,1.933,0,1,1,1.933-1.933A1.933,1.933,0,0,1,3.222,373.155Zm0,0" transform="translate(0 -338.356)"/>
      <path id="Trazado_891293" data-name="Trazado 891293" d="M3.222,256a3.222,3.222,0,1,0,3.222,3.222A3.222,3.222,0,0,0,3.222,256Zm0,5.155a1.933,1.933,0,1,1,1.933-1.933A1.933,1.933,0,0,1,3.222,261.155Zm0,0" transform="translate(0 -235.378)"/>
      <path id="Trazado_891294" data-name="Trazado 891294" d="M3.222,144a3.222,3.222,0,1,0,3.222,3.222A3.222,3.222,0,0,0,3.222,144Zm0,5.155a1.933,1.933,0,1,1,1.933-1.933A1.933,1.933,0,0,1,3.222,149.155Zm0,0" transform="translate(0 -132.4)"/>
      <path id="Trazado_891295" data-name="Trazado 891295" d="M3.222,32a3.222,3.222,0,1,0,3.222,3.222A3.222,3.222,0,0,0,3.222,32Zm0,5.155a1.933,1.933,0,1,1,1.933-1.933A1.933,1.933,0,0,1,3.222,37.155Zm0,0" transform="translate(0 -29.422)"/>
    </g>
  </g>
</svg>
