<svg xmlns="http://www.w3.org/2000/svg" width="61.554" height="56.766" viewBox="0 0 61.554 56.766">
  <g id="Grupo_1111566" data-name="Grupo 1111566" transform="translate(-720 -1083.733)">
    <g id="Rectángulo_401341" data-name="Rectángulo 401341" transform="translate(720 1083.733)" fill="#fece2f" stroke="#faedc1" stroke-width="3">
      <rect width="61.554" height="56.766" rx="12" stroke="none"/>
      <rect x="1.5" y="1.5" width="58.554" height="53.766" rx="10.5" fill="none"/>
    </g>
    <g id="Grupo_1108740" data-name="Grupo 1108740" transform="translate(690.97 1084.617)">
      <g id="Grupo_1108739" data-name="Grupo 1108739" transform="translate(42.9 7.661)">
        <g id="Grupo_1108735" data-name="Grupo 1108735" transform="translate(0 0)">
          <path id="Trazado_891296" data-name="Trazado 891296" d="M79.4,55.987a1.782,1.782,0,0,1,1.778,1.778V90.5A1.782,1.782,0,0,1,79.4,92.276h-27.4A1.782,1.782,0,0,1,50.228,90.5V57.765a1.782,1.782,0,0,1,1.778-1.778Z" transform="translate(-50.228 -52.599)" fill="#837683" fill-rule="evenodd"/>
          <path id="Trazado_891297" data-name="Trazado 891297" d="M375.377,92.276h2.3a1.782,1.782,0,0,0,1.778-1.781V57.765a1.782,1.782,0,0,0-1.778-1.778h-2.3Z" transform="translate(-348.5 -52.599)" fill="#685e68" fill-rule="evenodd"/>
          <path id="Trazado_891298" data-name="Trazado 891298" d="M105.363,85.92h-24.4a.8.8,0,0,0-.8.8v29.738a.8.8,0,0,0,.8.8h24.4a.8.8,0,0,0,.8-.8V86.721A.8.8,0,0,0,105.363,85.92Z" transform="translate(-77.687 -80.058)" fill="#eceff1" fill-rule="evenodd"/>
          <path id="Trazado_891299" data-name="Trazado 891299" d="M375.377,117.258h.8c.026,0,.052,0,.075,0a.8.8,0,0,0,.726-.8V86.721a.8.8,0,0,0-.726-.8.741.741,0,0,0-.075,0h-.8Z" transform="translate(-348.5 -80.058)" fill="#d1d1d6" fill-rule="evenodd"/>
          <path id="Trazado_891300" data-name="Trazado 891300" d="M155.394,17.313h2.538a.784.784,0,0,0,.733-.483,3.025,3.025,0,0,1,5.558,0,.784.784,0,0,0,.733.483h2.535a.8.8,0,0,1,.8.8v3.025a.8.8,0,0,1-.8.8h-12.1a.8.8,0,0,1-.8-.8V18.114a.8.8,0,0,1,.8-.8Z" transform="translate(-145.968 -15)" fill="#e3a76f" fill-rule="evenodd"/>
          <path id="Trazado_891301" data-name="Trazado 891301" d="M166.692,46.8h-12.1a.8.8,0,0,0,.8.8h12.1a.8.8,0,0,0,.8-.8V43.778a.8.8,0,0,0-.8-.8V46a.8.8,0,0,1-.8.8Z" transform="translate(-145.968 -40.664)" fill="#c48958" fill-rule="evenodd"/>
        </g>
        <g id="Grupo_1108736" data-name="Grupo 1108736" transform="translate(5.823 10.627)">
          <path id="Trazado_891302" data-name="Trazado 891302" d="M310.35,322.474a9.841,9.841,0,0,1-1.669,1.839l4.539,4.45,1.728-1.781Z" transform="translate(-293.14 -307.685)" fill="#a79ba7" fill-rule="evenodd"/>
          <path id="Trazado_891303" data-name="Trazado 891303" d="M323.755,322.113a1.141,1.141,0,0,1-.495.662l4.509,4.481.553-.606Z" transform="translate(-306.514 -307.354)" fill="#837683" fill-rule="evenodd"/>
          <path id="Trazado_891304" data-name="Trazado 891304" d="M356.15,371.123l1.95-2.011a.9.9,0,0,0-.018-1.265l-5.4-5.243a.9.9,0,0,0-1.265.02l-1.95,2.01a.9.9,0,0,0,.018,1.265l5.4,5.243A.9.9,0,0,0,356.15,371.123Z" transform="translate(-330.321 -344.268)" fill="#f1ba84" fill-rule="evenodd"/>
          <path id="Trazado_891305" data-name="Trazado 891305" d="M379,362.607l5.4,5.243a.9.9,0,0,1,.018,1.265l-1.95,2.011a.911.911,0,0,1-.242.176.9.9,0,0,0,1.041-.176l1.95-2.011a.9.9,0,0,0-.018-1.265l-5.4-5.243a.9.9,0,0,0-1.023-.157A.9.9,0,0,1,379,362.607Z" transform="translate(-357.438 -344.271)" fill="#e3a76f" fill-rule="evenodd"/>
          <path id="Trazado_891306" data-name="Trazado 891306" d="M130.516,143.562a9.838,9.838,0,1,1-9.838,9.838A9.837,9.837,0,0,1,130.516,143.562Z" transform="translate(-120.678 -143.562)" fill="#837683" fill-rule="evenodd"/>
          <path id="Trazado_891307" data-name="Trazado 891307" d="M234.382,143.562a9.838,9.838,0,0,1,0,19.676c-.161,0-.319,0-.478-.012a9.838,9.838,0,0,0,0-19.652C234.063,143.565,234.222,143.562,234.382,143.562Z" transform="translate(-224.545 -143.562)" fill="#685e68" fill-rule="evenodd"/>
        </g>
        <g id="Grupo_1108737" data-name="Grupo 1108737" transform="translate(8.11 12.914)">
          <path id="Trazado_891308" data-name="Trazado 891308" d="M155.9,171.231a7.551,7.551,0,1,1-7.551,7.551A7.551,7.551,0,0,1,155.9,171.231Z" transform="translate(-148.344 -171.231)" fill="#ffc338" fill-rule="evenodd"/>
          <path id="Trazado_891309" data-name="Trazado 891309" d="M155.9,171.231a7.551,7.551,0,1,0,0,15.1c.218,0,.433-.01.646-.028a7.551,7.551,0,0,1,0-15.047C156.329,171.241,156.113,171.231,155.9,171.231Z" transform="translate(-148.344 -171.231)" fill="#f5b829" fill-rule="evenodd"/>
        </g>
        <g id="Grupo_1108738" data-name="Grupo 1108738" transform="translate(19.178 11.366)">
          <path id="Trazado_891310" data-name="Trazado 891310" d="M285.463,152.572l2.858,3.365a.208.208,0,0,1-.158.343h-1.331v4.42a.415.415,0,0,1-.414.414h-2.224a.415.415,0,0,1-.414-.414v-4.42h-1.331a.208.208,0,0,1-.158-.343l2.858-3.365a.208.208,0,0,1,.316,0Z" transform="translate(-282.239 -152.499)" fill="#8ac9fe" fill-rule="evenodd"/>
          <path id="Trazado_891311" data-name="Trazado 891311" d="M283.274,156.28h-.827a.208.208,0,0,1-.158-.343l2.858-3.365a.208.208,0,0,1,.316,0l.255.3-2.6,3.064a.208.208,0,0,0,.158.343Zm1.746,4.834h-.827a.415.415,0,0,1-.414-.414v-4.42h.827v4.42A.415.415,0,0,0,285.02,161.114Z" transform="translate(-282.239 -152.499)" fill="#60b7ff" fill-rule="evenodd"/>
          <path id="Trazado_891312" data-name="Trazado 891312" d="M375.641,227.922l2.857-3.365a.208.208,0,0,0-.158-.343h-1.331v-4.42a.415.415,0,0,0-.414-.414h-2.224a.415.415,0,0,0-.414.414v4.42h-1.331a.208.208,0,0,0-.158.343l2.858,3.365a.2.2,0,0,0,.158.073A.2.2,0,0,0,375.641,227.922Z" transform="translate(-364.963 -213.852)" fill="#fe646f" fill-rule="evenodd"/>
          <path id="Trazado_891313" data-name="Trazado 891313" d="M404.5,227.621l2.6-3.064a.208.208,0,0,0-.158-.343h.827a.208.208,0,0,1,.158.343l-2.857,3.365a.2.2,0,0,1-.158.073.2.2,0,0,1-.158-.073Zm1.94-3.407h-.827v-4.42a.415.415,0,0,0-.414-.414h.827a.415.415,0,0,1,.414.414Z" transform="translate(-394.397 -213.852)" fill="#fd4755" fill-rule="evenodd"/>
        </g>
      </g>
      <path id="Trazado_891314" data-name="Trazado 891314" d="M74.481,45.964A2.446,2.446,0,0,1,72.075,48H44.682a2.445,2.445,0,0,1-2.442-2.442V12.828a2.445,2.445,0,0,1,2.442-2.44h6.185V9.974a.661.661,0,0,1,.661-.661h3.429a3.686,3.686,0,0,1,6.841,0h3.428a.661.661,0,0,1,.661.661v.414h6.187a2.445,2.445,0,0,1,2.44,2.44V24.255a1.071,1.071,0,0,1,.273.715v3.759h.67a.859.859,0,0,1,.788.5l0,0a.852.852,0,0,1-.124.92l0,0-1.6,1.89v6.985l2.429,2.357a1.558,1.558,0,0,1,.032,2.2h0L75.026,45.6h0A1.539,1.539,0,0,1,74.481,45.964ZM50.867,11.711H44.682a1.12,1.12,0,0,0-1.119,1.117v32.73a1.121,1.121,0,0,0,1.119,1.119H72.075a1.12,1.12,0,0,0,1.072-.8,1.555,1.555,0,0,1-.319-.236l0,0-.785-.762a.661.661,0,0,1-.661.653h-26a.661.661,0,0,1-.661-.661V13.524a.661.661,0,0,1,.661-.661h5.492Zm15.02,0v1.152h5.492a.661.661,0,0,1,.661.661V23.894h1.152V12.828a1.119,1.119,0,0,0-1.117-1.117Zm0,2.474V14.6a.661.661,0,0,1-.661.661h-13.7a.661.661,0,0,1-.661-.661v-.414h-4.83V44.2H70.718v-.615l-3.291-3.2a1.558,1.558,0,0,1-.325-1.782l-2.19-2.125a10.5,10.5,0,1,1-.859-17.309l.43-.506,0,0a.869.869,0,0,1,1.318,0l0,0,2.858,3.365,0,0a.851.851,0,0,1,.124.92l0,0a.859.859,0,0,1-.788.5h-.03a10.455,10.455,0,0,1,1.087,4.657q0,.5-.047,1a.857.857,0,0,1,.729-.4h.67V24.97a1.072,1.072,0,0,1,.306-.75V14.185Zm7.3,19.414a.841.841,0,0,1-.592.233.832.832,0,0,1-.559-.2v3l1.152,1.118Zm-2.474-1.51L69.08,30.161l0,0a.9.9,0,0,1-.161-.282,10.432,10.432,0,0,1-1.439,3.8l2.275,2.209a1.573,1.573,0,0,1,.966-.147Zm-2.754,5.516.807-.831L66.7,34.762a10.552,10.552,0,0,1-.782.857ZM63.186,20.2a9.176,9.176,0,1,0,1.337,14.9,9.226,9.226,0,0,0,1.558-1.715,9.2,9.2,0,0,0,1.252-7.963v1.8a1.077,1.077,0,0,1-.559.943,8.22,8.22,0,1,1-4.226-7.22Zm2.263,8.1H64.033a1.077,1.077,0,0,1-1.076-1.076V23.469h-.67a.859.859,0,0,1-.788-.5l0,0a.851.851,0,0,1,.124-.92l0,0,.046-.055A6.887,6.887,0,1,0,65.449,28.3Zm5.273,1.748L72.6,32.262l1.877-2.211h-.351a.661.661,0,0,1-.661-.661V25.217h-1.73V29.39a.661.661,0,0,1-.661.661ZM52.19,10.635v3.3H64.565v-3.3H61.318a.661.661,0,0,1-.643-.506,2.363,2.363,0,0,0-4.593,0,.661.661,0,0,1-.643.507Zm6.187.374a.868.868,0,1,1,.869-.869A.87.87,0,0,1,58.377,11.009Zm15.7,33.671,1.949-2.008a.233.233,0,0,0,0-.329h0l-5.4-5.242a.234.234,0,0,0-.329,0h0l-1.95,2.009h0a.23.23,0,0,0,0,.326l0,0,5.4,5.242a.235.235,0,0,0,.329,0ZM63.268,22.147h.351a.661.661,0,0,1,.661.661v4.173h1.73V22.808a.661.661,0,0,1,.661-.661h.351l-1.877-2.211ZM57.9,23.827v-.476a.661.661,0,1,1,1.323,0v.468a2.905,2.905,0,0,1,2.173,1.76.661.661,0,0,1-1.22.512,1.764,1.764,0,0,0-2.313-.878,1.138,1.138,0,0,0-.809,1.106v0a.969.969,0,0,0,.628.838,3.623,3.623,0,0,0,.994.288h0c1.314.216,2.762.806,2.95,2.369.187,1.544-1.091,2.418-2.4,2.631v.459a.661.661,0,0,1-1.323,0v-.468a2.9,2.9,0,0,1-2.4-2.118A.661.661,0,0,1,56.784,30a1.741,1.741,0,0,0,1.861,1.176h0a2.4,2.4,0,0,0,1.274-.364.847.847,0,0,0,.394-.837h0a1.157,1.157,0,0,0-.765-.923,4.373,4.373,0,0,0-1.085-.3c-1.284-.209-2.659-.847-2.73-2.369a2.419,2.419,0,0,1,1.646-2.4,3.2,3.2,0,0,1,.522-.155Z" fill-rule="evenodd"/>
    </g>
  </g>
</svg>
